<svg width="60" height="60" viewBox="0 0 60 60" fill="none" xmlns="http://www.w3.org/2000/svg">
<path d="M20.1559 21.2812C20.1559 21.2812 20.2497 21.2812 20.1559 21.2812L26.3434 27.4688C26.9059 28.0312 27.6559 28.3125 28.3122 28.3125C28.9684 28.3125 29.7184 28.0312 30.2809 27.4688L36.4684 21.2812C38.0622 19.9688 38.8122 17.9062 38.4372 15.8438C38.0622 13.5938 36.2809 11.8125 34.1247 11.3438C32.4372 10.9688 30.6559 11.4375 29.3434 12.4688C28.8747 12.8438 28.4997 13.2188 28.2184 13.6875C27.9372 13.2188 27.5622 12.8438 27.0934 12.4688C25.7809 11.4375 23.9997 10.9688 22.3122 11.3438C20.1559 11.8125 18.3747 13.5938 17.9997 15.8438C17.8122 17.9062 18.5622 19.9688 20.1559 21.2812ZM19.9684 16.125C20.2497 14.625 21.3747 13.5 22.8747 13.125C23.9997 12.8438 25.1247 13.125 26.0622 13.875C26.9059 14.625 27.4684 15.6562 27.4684 16.7812C27.4684 17.3438 27.8434 17.7188 28.4059 17.7188C28.9684 17.7188 29.3434 17.3438 29.3434 16.7812C29.3434 15.6562 29.8122 14.625 30.7497 13.875C31.6872 13.125 32.8122 12.8438 33.9372 13.125C35.3434 13.4062 36.5622 14.625 36.8434 16.125C37.1247 17.5313 36.5622 18.9375 35.4372 19.7812C35.3434 19.875 35.2497 19.875 35.2497 19.9688L29.0622 26.1562C28.6872 26.5312 28.1247 26.5312 27.7497 26.1562L21.7497 20.1562C21.6559 20.0625 21.6559 19.9688 21.5622 19.9688C20.2497 19.0312 19.7809 17.625 19.9684 16.125ZM37.7809 28.5938V30.4688H39.1872V31.875H41.0622V30.4688H42.4684V28.5938H41.0622V27.1875H39.1872V28.5938H37.7809ZM10.1247 14.0625H11.9997V12.6562H13.4059V10.7812H11.9997V9.375H10.1247V10.7812H8.71844V12.6562H10.1247V14.0625ZM45.9372 5.625H47.8122V4.6875H48.7497V2.8125H47.8122V1.875H45.9372V2.8125H44.9997V4.6875H45.9372V5.625ZM55.5934 37.5H46.2184C45.6559 37.5 45.2809 37.875 45.2809 38.4375V40.7812C44.2497 40.3125 42.6559 39.5625 41.1559 38.5312C38.2497 36.5625 27.3747 32.9062 26.8122 32.8125C26.3434 32.7188 22.3122 31.7812 21.0934 34.2188C19.8747 36.6562 22.1247 39 22.2184 39.0938C22.3122 39.1875 22.3122 39.1875 22.4059 39.1875L28.6872 43.125C27.5622 43.7812 25.6872 44.625 23.3434 45L19.9684 40.6875C19.6872 40.2188 17.9997 37.5938 15.7497 37.125C14.8122 36.9375 13.8747 37.125 13.0309 37.5938C10.6872 39.0938 11.2497 41.5312 11.8122 42.6562L12.1872 43.2188C9.37469 42.2812 7.40594 41.3438 7.40594 41.25C7.40594 41.25 7.31219 41.25 7.31219 41.1562C5.99969 40.6875 3.46844 40.5 2.43719 42.5625C1.21844 45 3.46844 47.3438 3.56219 47.4375C3.65594 47.5312 3.65594 47.5312 3.74969 47.5312C3.84344 47.9062 11.2497 52.5 19.8747 53.4375C23.0622 53.8125 26.8122 54 30.4684 54C34.8747 54 39.2809 53.7188 42.6559 52.875L42.1872 51.0938C36.3747 52.5 26.6247 52.3125 20.0622 51.5625C12.4684 50.7188 5.53094 46.6875 4.59344 46.125C4.31219 45.8438 3.37469 44.625 3.93719 43.5C4.40594 42.4688 6.18719 42.9375 6.46844 43.0312C7.21844 43.4062 12.5622 45.9375 18.8434 46.875C25.6872 47.8125 30.5622 44.0625 30.8434 43.875C31.1247 43.6875 31.2184 43.4062 31.2184 43.125C31.2184 42.8438 31.0309 42.5625 30.7497 42.375L23.3434 37.7812C23.0622 37.5 22.1247 36.2812 22.6872 35.1562C23.1559 34.2188 25.4059 34.5 26.2497 34.6875C26.3434 34.6875 37.4059 38.4375 40.1247 40.2188C42.1872 41.625 44.3434 42.4688 45.3747 42.9375V55.3125C45.3747 55.875 45.7497 56.25 46.3122 56.25H55.6872C56.2497 56.25 56.6247 55.875 56.6247 55.3125V38.4375C56.5309 37.875 56.0622 37.5 55.5934 37.5ZM19.1247 45C17.6247 44.8125 16.2184 44.4375 14.8122 44.1562L13.2184 41.8125C13.1247 41.625 12.3747 40.2188 13.8747 39.2812C14.2497 39 14.6247 38.9062 15.0934 39C16.4059 39.2812 17.7184 41.0625 18.1872 41.7188C18.1872 41.7188 18.1872 41.8125 18.2809 41.8125L20.9059 45.0938C20.3434 45.0938 19.7809 45.0938 19.1247 45ZM54.6559 54.375H47.1559V39.375H54.6559V54.375Z" fill="#F16022"/>
</svg>
