<svg width="55" height="55" viewBox="0 0 55 55" fill="none" xmlns="http://www.w3.org/2000/svg">
<g clip-path="url(#clip0_5345_750)">
<path d="M49.3535 6.23926C49.0355 6.01582 48.623 5.94707 48.2535 6.06738C38.3535 9.24707 30.5246 2.50098 28.359 0.352539C27.8777 -0.120117 27.1043 -0.120117 26.623 0.352539C24.4574 2.50098 16.6285 9.24707 6.7457 6.05879C6.37617 5.94707 5.96367 6.01582 5.6457 6.23926C5.32773 6.47129 5.13867 6.84082 5.13867 7.23613V31.8744C5.13867 34.8049 5.90352 37.615 7.34727 40.0041C10.4926 45.2205 16.491 52.0439 27.173 54.9486C27.2762 54.9744 27.3879 54.9916 27.4996 54.9916C27.6113 54.9916 27.7145 54.9744 27.8262 54.9486C39.0926 51.8893 45.0824 44.2666 47.652 40.0041C49.0957 37.5978 49.8605 34.7877 49.8605 31.8744V7.23613C49.8605 6.84082 49.6715 6.47129 49.3535 6.23926ZM47.3941 31.8744C47.3941 34.3408 46.7496 36.7127 45.5379 38.7408C43.1832 42.651 37.7262 49.5947 27.4996 52.4908C17.8059 49.7494 12.3402 43.5189 9.46133 38.7408C8.24961 36.7299 7.61367 34.358 7.61367 31.883V8.86035C16.998 11.0604 24.4316 5.68926 27.5082 2.92207C30.5848 5.68066 38.027 11.0604 47.4113 8.86035V31.8744H47.3941Z" fill="#F16022"/>
<path d="M33.5156 32.6562C33.2877 32.6562 33.0691 32.7468 32.908 32.908C32.7468 33.0691 32.6562 33.2877 32.6562 33.5156C32.6562 33.7435 32.7468 33.9621 32.908 34.1233C33.0691 34.2845 33.2877 34.375 33.5156 34.375H36.9531C37.181 34.375 37.3996 34.2845 37.5608 34.1233C37.722 33.9621 37.8125 33.7435 37.8125 33.5156C37.8125 33.2877 37.722 33.0691 37.5608 32.908C37.3996 32.7468 37.181 32.6562 36.9531 32.6562H33.5156ZM13.75 21.9141C13.75 20.6605 14.248 19.4583 15.1344 18.5719C16.0208 17.6855 17.223 17.1875 18.4766 17.1875H36.5234C37.777 17.1875 38.9792 17.6855 39.8656 18.5719C40.752 19.4583 41.25 20.6605 41.25 21.9141V33.0859C41.25 34.3395 40.752 35.5417 39.8656 36.4281C38.9792 37.3145 37.777 37.8125 36.5234 37.8125H18.4766C17.223 37.8125 16.0208 37.3145 15.1344 36.4281C14.248 35.5417 13.75 34.3395 13.75 33.0859V21.9141ZM18.4766 18.9062C17.6788 18.9062 16.9138 19.2231 16.3497 19.7872C15.7856 20.3513 15.4688 21.1163 15.4688 21.9141V24.0625H39.5312V21.9141C39.5312 21.1163 39.2144 20.3513 38.6503 19.7872C38.0862 19.2231 37.3212 18.9062 36.5234 18.9062H18.4766ZM39.5312 25.7812H15.4688V33.0859C15.4688 34.7463 16.8162 36.0938 18.4766 36.0938H36.5234C37.3212 36.0938 38.0862 35.7769 38.6503 35.2128C39.2144 34.6487 39.5312 33.8837 39.5312 33.0859V25.7812Z" fill="#F16022"/>
</g>
<defs>
<clipPath id="clip0_5345_750">
<rect width="55" height="55" fill="white"/>
</clipPath>
</defs>
</svg>
