<svg width="60" height="60" viewBox="0 0 60 60" fill="none" xmlns="http://www.w3.org/2000/svg">
<path d="M29.9996 19.2858C30.8521 19.2858 31.6697 18.9472 32.2725 18.3444C32.8753 17.7416 33.2139 16.924 33.2139 16.0715C33.2139 15.219 32.8753 14.4015 32.2725 13.7987C31.6697 13.1959 30.8521 12.8572 29.9996 12.8572C29.1471 12.8572 28.3296 13.1959 27.7268 13.7987C27.124 14.4015 26.7853 15.219 26.7853 16.0715C26.7853 16.924 27.124 17.7416 27.7268 18.3444C28.3296 18.9472 29.1471 19.2858 29.9996 19.2858V19.2858ZM31.9068 4.91794C31.3543 4.51071 30.686 4.29102 29.9996 4.29102C29.3133 4.29102 28.645 4.51071 28.0925 4.91794L7.73534 19.9287C5.24106 21.7694 6.54177 25.7294 9.64248 25.7294H10.7139V41.2479C9.44442 41.7769 8.35995 42.6699 7.59725 43.8143C6.83456 44.9587 6.42778 46.3034 6.4282 47.6787V50.8929C6.4282 51.7801 7.1482 52.5001 8.03534 52.5001H51.9639C52.3902 52.5001 52.7989 52.3308 53.1003 52.0294C53.4017 51.728 53.5711 51.3192 53.5711 50.8929V47.6787C53.5711 46.3037 53.1641 44.9596 52.4014 43.8156C51.6387 42.6716 50.5545 41.7789 49.2853 41.2501V25.7294H50.3546C53.4575 25.7294 54.7582 21.7694 52.2618 19.9287L31.9068 4.91794ZM13.9282 40.7144V25.7294H19.2853V40.7144H13.9282ZM46.0711 25.7294V40.7144H40.7139V25.7294H46.0711ZM37.4996 25.7294V40.7144H31.6068V25.7294H37.4996ZM28.3925 25.7294V40.7144H22.4996V25.7294H28.3925ZM9.64248 22.5151L29.9996 7.50437L50.3546 22.5151H9.64248ZM9.64248 47.6787C9.64248 45.6087 11.3225 43.9287 13.3925 43.9287H46.6068C48.6768 43.9287 50.3568 45.6087 50.3568 47.6787V49.2858H9.64248V47.6787Z" fill="#F16022"/>
</svg>
