<svg width="24" height="24" viewBox="0 0 24 24" fill="none" xmlns="http://www.w3.org/2000/svg">
<rect width="24" height="24" rx="4" fill="#CCE9FF"/>
<g clip-path="url(#clip0_1434_13093)">
<path d="M12.0001 21.091C17.0209 21.091 21.091 17.0209 21.091 12.0001C21.091 6.97932 17.0209 2.90918 12.0001 2.90918C6.97932 2.90918 2.90918 6.97932 2.90918 12.0001C2.90918 17.0209 6.97932 21.091 12.0001 21.091Z" fill="#E7EFFF"/>
<path d="M9.09094 4.36336C9.09084 4.39693 9.08145 4.42983 9.06379 4.45839C9.04614 4.48695 9.02093 4.51007 8.99094 4.52518C8.78123 4.62954 8.59423 4.77436 8.4407 4.95128C8.28718 5.12821 8.17017 5.33376 8.0964 5.55609L8.00003 5.87609C7.98808 5.91246 7.96494 5.94413 7.93393 5.96659C7.90291 5.98904 7.8656 6.00113 7.82731 6.00113C7.78902 6.00113 7.7517 5.98904 7.72069 5.96659C7.68967 5.94413 7.66654 5.91246 7.65458 5.87609L7.54913 5.55609C7.47536 5.33376 7.35834 5.12821 7.20482 4.95128C7.0513 4.77436 6.86429 4.62954 6.65458 4.52518C6.6248 4.50992 6.5998 4.48674 6.58235 4.45819C6.5649 4.42964 6.55566 4.39682 6.55566 4.36336C6.55566 4.3299 6.5649 4.29708 6.58235 4.26853C6.5998 4.23998 6.6248 4.2168 6.65458 4.20154C6.86429 4.09717 7.0513 3.95236 7.20482 3.77543C7.35834 3.59851 7.47536 3.39296 7.54913 3.17063L7.65458 2.85063C7.66654 2.81426 7.68967 2.78258 7.72069 2.76013C7.7517 2.73767 7.78902 2.72559 7.82731 2.72559C7.8656 2.72559 7.90291 2.73767 7.93393 2.76013C7.96494 2.78258 7.98808 2.81426 8.00003 2.85063L8.10549 3.17063C8.17926 3.39296 8.29627 3.59851 8.4498 3.77543C8.60332 3.95236 8.79032 4.09717 9.00003 4.20154C9.02832 4.21786 9.0517 4.2415 9.06769 4.26998C9.08369 4.29845 9.09172 4.33071 9.09094 4.36336ZM21.0909 16.9088C21.0908 16.9424 21.0814 16.9753 21.0638 17.0038C21.0461 17.0324 21.0209 17.0555 20.9909 17.0706C20.7812 17.175 20.5942 17.3198 20.4407 17.4967C20.2872 17.6737 20.1702 17.8792 20.0964 18.1015L20 18.4215C19.9881 18.4579 19.9649 18.4896 19.9339 18.512C19.9029 18.5345 19.8656 18.5466 19.8273 18.5466C19.789 18.5466 19.7517 18.5345 19.7207 18.512C19.6897 18.4896 19.6665 18.4579 19.6546 18.4215L19.5491 18.1015C19.4754 17.8792 19.3583 17.6737 19.2048 17.4967C19.0513 17.3198 18.8643 17.175 18.6546 17.0706C18.6248 17.0554 18.5998 17.0322 18.5824 17.0036C18.5649 16.9751 18.5557 16.9423 18.5557 16.9088C18.5557 16.8753 18.5649 16.8425 18.5824 16.814C18.5998 16.7854 18.6248 16.7623 18.6546 16.747C18.8643 16.6426 19.0513 16.4978 19.2048 16.3209C19.3583 16.144 19.4754 15.9384 19.5491 15.7161L19.6546 15.3961C19.6665 15.3597 19.6897 15.328 19.7207 15.3056C19.7517 15.2831 19.789 15.271 19.8273 15.271C19.8656 15.271 19.9029 15.2831 19.9339 15.3056C19.9649 15.328 19.9881 15.3597 20 15.3961L20.1055 15.7161C20.1793 15.9384 20.2963 16.144 20.4498 16.3209C20.6033 16.4978 20.7903 16.6426 21 16.747C21.0283 16.7633 21.0517 16.787 21.0677 16.8154C21.0837 16.8439 21.0917 16.8762 21.0909 16.9088Z" fill="#FFA100"/>
<path d="M3.8184 3.27255C4.11965 3.27255 4.36386 3.02834 4.36386 2.7271C4.36386 2.42585 4.11965 2.18164 3.8184 2.18164C3.51716 2.18164 3.27295 2.42585 3.27295 2.7271C3.27295 3.02834 3.51716 3.27255 3.8184 3.27255Z" fill="#00C99F"/>
<path d="M21.273 4.72665C21.5742 4.72665 21.8184 4.48244 21.8184 4.1812C21.8184 3.87995 21.5742 3.63574 21.273 3.63574C20.9717 3.63574 20.7275 3.87995 20.7275 4.1812C20.7275 4.48244 20.9717 4.72665 21.273 4.72665Z" fill="#FFA100"/>
<path d="M20.1817 21.8184C20.4829 21.8184 20.7271 21.5742 20.7271 21.273C20.7271 20.9717 20.4829 20.7275 20.1817 20.7275C19.8804 20.7275 19.6362 20.9717 19.6362 21.273C19.6362 21.5742 19.8804 21.8184 20.1817 21.8184Z" fill="#00C99F"/>
<path d="M4.00004 20.9093C4.30129 20.9093 4.5455 20.6651 4.5455 20.3638C4.5455 20.0626 4.30129 19.8184 4.00004 19.8184C3.6988 19.8184 3.45459 20.0626 3.45459 20.3638C3.45459 20.6651 3.6988 20.9093 4.00004 20.9093Z" fill="#FF4D69"/>
<path d="M19.2727 9.31446L17.4708 16.9763C17.4146 17.2161 17.2789 17.4298 17.0858 17.5826C16.8927 17.7354 16.6535 17.8184 16.4072 17.8181H6.72721C6.6817 17.8183 6.63777 17.8014 6.6041 17.7708C6.57044 17.7401 6.54949 17.698 6.54539 17.6526L5.81812 9.289C5.81584 9.26379 5.81885 9.23838 5.82697 9.21439C5.83508 9.19041 5.84811 9.16838 5.86522 9.14972C5.88234 9.13107 5.90316 9.11619 5.92636 9.10605C5.94956 9.09591 5.97462 9.09072 5.99994 9.09082H19.0908C19.1185 9.09067 19.1458 9.09682 19.1706 9.10879C19.1955 9.12076 19.2174 9.13825 19.2345 9.15991C19.2522 9.18109 19.2648 9.20601 19.2714 9.23279C19.278 9.25956 19.2784 9.28749 19.2727 9.31446Z" fill="#4E6AFF"/>
<path d="M7.63638 17.6147C7.63948 17.6401 7.6372 17.6659 7.62968 17.6903C7.62216 17.7147 7.60958 17.7373 7.59274 17.7566C7.5755 17.7762 7.55423 17.7919 7.53039 17.8025C7.50654 17.8132 7.48068 17.8186 7.45456 17.8184H6.54547C6.35258 17.8184 6.1676 17.895 6.03121 18.0314C5.89482 18.1678 5.81819 18.3528 5.81819 18.5457C5.81783 18.589 5.8221 18.6323 5.83092 18.6747C5.50693 18.3775 5.20606 18.0559 4.93092 17.7129C5.07433 17.4329 5.28794 17.1949 5.55085 17.0222C5.81377 16.8495 6.11701 16.7479 6.43092 16.7275L5.20365 6.90929H4.46729C4.72937 6.52449 5.01988 6.15984 5.33638 5.81838H5.51819C5.69632 5.81699 5.86875 5.88101 6.00281 5.9983C6.13686 6.1156 6.22321 6.27802 6.24547 6.45475L7.63638 17.6147ZM17.2727 19.8184C17.2727 19.963 17.2153 20.1018 17.113 20.2041C17.0107 20.3064 16.8719 20.3638 16.7273 20.3638H8.43274C7.76227 20.077 7.12865 19.7108 6.54547 19.2729H16.7273C16.8106 19.2731 16.8927 19.2924 16.9674 19.3293C17.0421 19.3662 17.1074 19.4196 17.1582 19.4857C17.2321 19.5809 17.2724 19.6979 17.2727 19.8184Z" fill="#8FA2FF"/>
<path d="M10.0002 10.9086C10.0002 10.7077 9.83742 10.5449 9.63659 10.5449C9.43575 10.5449 9.27295 10.7077 9.27295 10.9086V15.9995C9.27295 16.2003 9.43575 16.3631 9.63659 16.3631C9.83742 16.3631 10.0002 16.2003 10.0002 15.9995V10.9086Z" fill="#323FD4"/>
<path d="M12.9094 10.9086C12.9094 10.7077 12.7466 10.5449 12.5458 10.5449C12.3449 10.5449 12.1821 10.7077 12.1821 10.9086V15.9995C12.1821 16.2003 12.3449 16.3631 12.5458 16.3631C12.7466 16.3631 12.9094 16.2003 12.9094 15.9995V10.9086Z" fill="#323FD4"/>
<path d="M11.8182 5.81836H16.1819C16.2783 5.81836 16.3708 5.85667 16.439 5.92487C16.5072 5.99306 16.5455 6.08555 16.5455 6.182V9.09109H11.4546V6.182C11.4546 6.08555 11.4929 5.99306 11.5611 5.92487C11.6293 5.85667 11.7218 5.81836 11.8182 5.81836Z" fill="#FF4D69"/>
<path d="M15.8181 10.9086C15.8181 10.7077 15.6553 10.5449 15.4545 10.5449C15.2536 10.5449 15.0908 10.7077 15.0908 10.9086V15.9995C15.0908 16.2003 15.2536 16.3631 15.4545 16.3631C15.6553 16.3631 15.8181 16.2003 15.8181 15.9995V10.9086Z" fill="#323FD4"/>
<path d="M8.182 7.27246H11.8184C11.9148 7.27246 12.0073 7.31077 12.0755 7.37897C12.1437 7.44716 12.182 7.53965 12.182 7.6361V9.09064H7.81836V7.6361C7.81836 7.53965 7.85667 7.44716 7.92487 7.37897C7.99306 7.31077 8.08555 7.27246 8.182 7.27246Z" fill="#FFA100"/>
<path d="M15.8181 5.81836H15.0908V9.09109H15.8181V5.81836Z" fill="#00C99F"/>
<path d="M9.09086 7.27246H8.54541V9.09064H9.09086V7.27246Z" fill="#FF4D69"/>
</g>
<defs>
<clipPath id="clip0_1434_13093">
<rect width="20" height="20" fill="white" transform="translate(2 2)"/>
</clipPath>
</defs>
</svg>
