<svg width="142" height="116" viewBox="0 0 142 116" fill="none" xmlns="http://www.w3.org/2000/svg">
<g filter="url(#filter0_d_1318_2088)">
<g clip-path="url(#clip0_1318_2088)">
<path d="M36.2493 110.044H26.1338V106.827H36.2493V110.044Z" fill="#EBEBEB"/>
<path d="M43.5286 72.9336H33.4131V69.7157H43.5286V72.9336Z" fill="#EBEBEB"/>
<path d="M30.6077 114.099C28.9275 114.073 24.6206 114.001 22.998 113.981H20.4921L20.6244 114.11V110.893L20.4806 111.036C22.1608 111.036 26.4446 111.016 28.0673 110.993L30.5962 110.962L30.5271 110.893L30.5962 114.11L30.6077 114.099ZM30.6077 114.099L30.6738 110.881V110.815H30.6048C29.3418 110.798 26.8071 110.769 25.547 110.757L20.4892 110.737H20.3454V110.881V114.099V114.231H20.4748H23.0267C24.6379 114.214 28.9246 114.139 30.5904 114.11L30.6077 114.099Z" fill="#EBEBEB"/>
<path d="M86.4676 35.6508C84.7874 35.622 80.4805 35.5501 78.8579 35.5329L76.352 35.5185L76.4844 35.6508V32.4329L76.3405 32.5767C78.0207 32.5767 82.3045 32.5566 83.9272 32.5335L86.4561 32.5019L86.387 32.4329L86.4561 35.6508H86.4676ZM86.4676 35.6508L86.5366 32.4329V32.3668H86.4676C85.2046 32.3495 82.6728 32.3207 81.4098 32.3121L76.352 32.292H76.2082V32.4358L76.2225 35.6537V35.7859H76.352L78.9039 35.7716C80.515 35.7543 84.8047 35.6824 86.4676 35.6537V35.6508Z" fill="#EBEBEB"/>
<path d="M80.8265 39.7133C79.1463 39.6845 74.8394 39.6126 73.2168 39.5954H70.7109L70.8432 39.7277V36.5098L70.6994 36.6536C72.3796 36.6536 76.6634 36.6334 78.2861 36.6104L80.815 36.5788L80.7459 36.5098L80.8265 39.7133ZM80.8265 39.7133L80.8955 36.4954V36.4293H80.8265C79.5635 36.412 77.0288 36.3832 75.7687 36.3746L70.7109 36.3545H70.567V36.4983L70.5814 39.7133V39.8456H70.7109L73.2628 39.8312C74.8739 39.8139 79.1607 39.742 80.8265 39.7133Z" fill="#EBEBEB"/>
<path d="M75.2073 35.6504H65.0918V32.4325H75.2073V35.6504Z" fill="#EBEBEB"/>
<path d="M139.508 114.102H129.393V110.884H139.508V114.102Z" fill="#EBEBEB"/>
<path d="M133.868 14.7324L123.752 14.7324V11.5145L133.868 11.5145V14.7324Z" fill="#EBEBEB"/>
<path d="M139.508 18.7872C137.828 18.7585 133.521 18.6866 131.898 18.6693H129.393L129.525 18.7987V15.5809L129.381 15.7246C131.061 15.7246 135.345 15.7045 136.968 15.6815L139.497 15.6499L139.439 15.5578L139.508 18.7757V18.7872ZM139.508 18.7872L139.577 15.5578V15.4917H139.508C138.245 15.4745 135.713 15.4457 134.45 15.4342L129.393 15.4141H129.249V15.5578V18.7757V18.908H129.378H131.93C133.541 18.8879 137.831 18.816 139.494 18.7872H139.508Z" fill="#EBEBEB"/>
<path d="M36.2498 14.7298C34.5696 14.7011 30.2627 14.6321 28.6401 14.6119H26.1342L26.2666 14.7413V11.5235L26.1227 11.6672L31.1805 11.6471C32.4406 11.6471 34.9782 11.6097 36.2383 11.5925L36.1692 11.5235L36.2383 14.7413L36.2498 14.7298ZM36.2498 14.7298L36.3188 11.5119V11.4458H36.2498C34.9868 11.4286 32.4521 11.3998 31.192 11.3883L26.1342 11.3682H25.9904V11.5119L26.0048 14.7298V14.8621H26.1342H28.6861C30.2973 14.842 34.584 14.7701 36.2498 14.7413V14.7298Z" fill="#EBEBEB"/>
<path d="M134.585 11V67.0758H98.1251V11H134.585ZM99.4687 65.7271H133.225V12.3458H99.4687V65.7271Z" fill="#EBEBEB"/>
<path d="M99.4689 12.3457H133.239V65.727H99.4689V12.3457Z" fill="white"/>
<path d="M133.24 39.708L99.4697 39.708V38.3622L133.24 38.3622V39.708Z" fill="#EBEBEB"/>
<path d="M137.063 70.9292H95.6484V67.07H137.063V70.9292Z" fill="#DBDBDB"/>
<path d="M133.242 12.3457H99.4719V46.8798H133.242V12.3457ZM100.715 13.5909H131.996V45.6346H100.715V13.5909Z" fill="#DBDBDB"/>
<path d="M110.249 12.3457H110.922V45.6375H110.249V12.3457Z" fill="#DBDBDB"/>
<path d="M121.789 12.3457H122.462V45.6375H121.789V12.3457Z" fill="#DBDBDB"/>
<path d="M46.7305 34.23H48.707V127.6H46.7305V34.23Z" fill="#DBDBDB"/>
<path d="M46.7305 34.23V41.2495L48.707 42.0116V34.23H46.7305Z" fill="#C7C7C7"/>
<path d="M35.5209 40.03H59.915L58.1428 34.2068L58.0766 33.9997L52.921 17.0591H42.5149L37.3535 34.0055V34.0084L37.296 34.201L35.5209 40.03Z" fill="#F47D21"/>
<path d="M52.0584 20.9733C52.058 20.995 52.062 21.0165 52.0701 21.0365C52.0782 21.0566 52.0902 21.0748 52.1055 21.0901C52.1209 21.1054 52.1391 21.1175 52.1592 21.1256C52.1792 21.1337 52.2007 21.1376 52.2224 21.1373C52.2659 21.1373 52.3076 21.12 52.3383 21.0892C52.3691 21.0585 52.3864 21.0168 52.3864 20.9733C52.3856 20.9301 52.3681 20.8888 52.3375 20.8583C52.3069 20.8277 52.2656 20.8102 52.2224 20.8094C52.1789 20.8094 52.1372 20.8267 52.1064 20.8574C52.0757 20.8882 52.0584 20.9299 52.0584 20.9733ZM49.2188 20.8094C49.262 20.8102 49.3033 20.8277 49.3339 20.8583C49.3645 20.8888 49.382 20.9301 49.3828 20.9733C49.3828 21.0168 49.3655 21.0585 49.3347 21.0892C49.304 21.12 49.2623 21.1373 49.2188 21.1373C49.1971 21.1376 49.1756 21.1337 49.1556 21.1256C49.1355 21.1175 49.1173 21.1054 49.102 21.0901C49.0866 21.0748 49.0746 21.0566 49.0665 21.0365C49.0584 21.0165 49.0544 20.995 49.0548 20.9733C49.0548 20.9304 49.0717 20.8891 49.1018 20.8584C49.1319 20.8278 49.1729 20.8102 49.2159 20.8094H49.2188ZM46.2152 20.8094C46.2584 20.8102 46.2997 20.8277 46.3303 20.8583C46.3609 20.8888 46.3784 20.9301 46.3792 20.9733C46.3792 21.0168 46.3619 21.0585 46.3311 21.0892C46.3004 21.12 46.2587 21.1373 46.2152 21.1373C46.1935 21.1376 46.172 21.1337 46.152 21.1256C46.1319 21.1175 46.1137 21.1054 46.0984 21.0901C46.0831 21.0748 46.071 21.0566 46.0629 21.0365C46.0548 21.0165 46.0508 20.995 46.0512 20.9733C46.0512 20.9299 46.0685 20.8882 46.0992 20.8574C46.13 20.8267 46.1717 20.8094 46.2152 20.8094ZM43.2116 20.8094C43.2548 20.8102 43.2961 20.8277 43.3267 20.8583C43.3573 20.8888 43.3748 20.9301 43.3756 20.9733C43.3756 21.0168 43.3583 21.0585 43.3275 21.0892C43.2968 21.12 43.2551 21.1373 43.2116 21.1373C43.1899 21.1376 43.1684 21.1337 43.1484 21.1256C43.1283 21.1175 43.1101 21.1054 43.0948 21.0901C43.0795 21.0748 43.0674 21.0566 43.0593 21.0365C43.0512 21.0165 43.0472 20.995 43.0476 20.9733C43.0476 20.9299 43.0649 20.8882 43.0956 20.8574C43.1264 20.8267 43.1681 20.8094 43.2116 20.8094ZM50.7206 18.7217C50.7638 18.7224 50.8051 18.7399 50.8357 18.7705C50.8663 18.8011 50.8838 18.8424 50.8846 18.8856C50.8846 18.9291 50.8673 18.9708 50.8365 19.0015C50.8058 19.0322 50.7641 19.0495 50.7206 19.0495C50.6989 19.0499 50.6774 19.0459 50.6574 19.0378C50.6373 19.0297 50.6191 19.0177 50.6038 19.0024C50.5884 18.9871 50.5764 18.9688 50.5683 18.9488C50.5602 18.9287 50.5562 18.9072 50.5566 18.8856C50.5566 18.8421 50.5739 18.8004 50.6046 18.7697C50.6354 18.7389 50.6771 18.7217 50.7206 18.7217ZM47.717 18.7217C47.7602 18.7224 47.8015 18.7399 47.8321 18.7705C47.8627 18.8011 47.8802 18.8424 47.881 18.8856C47.881 18.9291 47.8637 18.9708 47.8329 19.0015C47.8022 19.0322 47.7605 19.0495 47.717 19.0495C47.6953 19.0499 47.6738 19.0459 47.6538 19.0378C47.6337 19.0297 47.6155 19.0177 47.6002 19.0024C47.5849 18.9871 47.5728 18.9688 47.5647 18.9488C47.5566 18.9287 47.5526 18.9072 47.553 18.8856C47.553 18.8421 47.5703 18.8004 47.601 18.7697C47.6318 18.7389 47.6735 18.7217 47.717 18.7217ZM44.7134 18.7217C44.7566 18.7224 44.7979 18.7399 44.8285 18.7705C44.8591 18.8011 44.8766 18.8424 44.8774 18.8856C44.8774 18.9291 44.8601 18.9708 44.8293 19.0015C44.7986 19.0322 44.7569 19.0495 44.7134 19.0495C44.6917 19.0499 44.6702 19.0459 44.6502 19.0378C44.6301 19.0297 44.6119 19.0177 44.5966 19.0024C44.5813 18.9871 44.5692 18.9688 44.5611 18.9488C44.553 18.9287 44.549 18.9072 44.5494 18.8856C44.5494 18.8421 44.5667 18.8004 44.5974 18.7697C44.6282 18.7389 44.6699 18.7217 44.7134 18.7217ZM55.226 25.1747C55.2692 25.1755 55.3105 25.193 55.3411 25.2235C55.3717 25.2541 55.3892 25.2954 55.39 25.3386C55.39 25.3821 55.3727 25.4238 55.3419 25.4545C55.3112 25.4853 55.2695 25.5025 55.226 25.5025C55.2043 25.5029 55.1828 25.499 55.1628 25.4909C55.1427 25.4828 55.1244 25.4707 55.1091 25.4554C55.0938 25.4401 55.0818 25.4219 55.0737 25.4018C55.0656 25.3817 55.0616 25.3603 55.062 25.3386C55.062 25.2952 55.0793 25.2535 55.11 25.2227C55.1408 25.192 55.1825 25.1747 55.226 25.1747ZM52.2224 25.1747C52.2641 25.1769 52.3036 25.1946 52.3329 25.2244C52.3622 25.2542 52.3792 25.294 52.3806 25.3357C52.3806 25.3792 52.3633 25.4209 52.3326 25.4517C52.3018 25.4824 52.2601 25.4997 52.2166 25.4997C52.195 25.5001 52.1735 25.4961 52.1534 25.488C52.1333 25.4799 52.1151 25.4678 52.0998 25.4525C52.0845 25.4372 52.0724 25.419 52.0643 25.3989C52.0562 25.3789 52.0522 25.3574 52.0526 25.3357C52.053 25.314 52.0577 25.2925 52.0665 25.2726C52.0752 25.2526 52.0879 25.2346 52.1037 25.2196C52.1195 25.2046 52.1381 25.1929 52.1585 25.1852C52.1789 25.1775 52.2006 25.1739 52.2224 25.1747ZM49.2188 25.1747C49.262 25.1755 49.3033 25.193 49.3339 25.2235C49.3645 25.2541 49.382 25.2954 49.3828 25.3386C49.3828 25.3821 49.3655 25.4238 49.3347 25.4545C49.304 25.4853 49.2623 25.5025 49.2188 25.5025C49.1971 25.5029 49.1756 25.499 49.1556 25.4909C49.1355 25.4828 49.1173 25.4707 49.102 25.4554C49.0866 25.4401 49.0746 25.4219 49.0665 25.4018C49.0584 25.3817 49.0544 25.3603 49.0548 25.3386C49.0548 25.2956 49.0717 25.2544 49.1018 25.2237C49.1319 25.1931 49.1729 25.1755 49.2159 25.1747H49.2188ZM46.2152 25.1747C46.2584 25.1755 46.2997 25.193 46.3303 25.2235C46.3609 25.2541 46.3784 25.2954 46.3792 25.3386C46.3792 25.3821 46.3619 25.4238 46.3311 25.4545C46.3004 25.4853 46.2587 25.5025 46.2152 25.5025C46.1933 25.5029 46.1715 25.4989 46.1513 25.4906C46.131 25.4823 46.1126 25.47 46.0973 25.4544C46.0819 25.4388 46.0699 25.4202 46.062 25.3998C46.0541 25.3794 46.0504 25.3576 46.0512 25.3357C46.0519 25.2928 46.0696 25.2518 46.1002 25.2217C46.1309 25.1916 46.1722 25.1747 46.2152 25.1747ZM43.2116 25.1747C43.2548 25.1755 43.2961 25.193 43.3267 25.2235C43.3573 25.2541 43.3748 25.2954 43.3756 25.3386C43.3756 25.3821 43.3583 25.4238 43.3275 25.4545C43.2968 25.4853 43.2551 25.5025 43.2116 25.5025C43.1899 25.5029 43.1684 25.499 43.1484 25.4909C43.1283 25.4828 43.1101 25.4707 43.0948 25.4554C43.0795 25.4401 43.0674 25.4219 43.0593 25.4018C43.0512 25.3817 43.0472 25.3603 43.0476 25.3386C43.0476 25.2952 43.0649 25.2535 43.0956 25.2227C43.1264 25.192 43.1681 25.1747 43.2116 25.1747ZM40.208 25.1747C40.2513 25.1755 40.2925 25.193 40.3231 25.2235C40.3537 25.2541 40.3712 25.2954 40.372 25.3386C40.372 25.3821 40.3547 25.4238 40.3239 25.4545C40.2932 25.4853 40.2515 25.5025 40.208 25.5025C40.1863 25.5029 40.1648 25.499 40.1448 25.4909C40.1247 25.4828 40.1065 25.4707 40.0912 25.4554C40.0759 25.4401 40.0638 25.4219 40.0557 25.4018C40.0476 25.3817 40.0436 25.3603 40.044 25.3386C40.044 25.2952 40.0613 25.2535 40.092 25.2227C40.1228 25.192 40.1645 25.1747 40.208 25.1747ZM53.7299 23.0726C53.7732 23.0733 53.8145 23.0908 53.8451 23.1214C53.8757 23.152 53.8932 23.1933 53.8939 23.2365C53.8939 23.28 53.8766 23.3217 53.8459 23.3524C53.8151 23.3831 53.7734 23.4004 53.7299 23.4004C53.7083 23.4008 53.6868 23.3968 53.6667 23.3887C53.6466 23.3806 53.6284 23.3686 53.6131 23.3533C53.5978 23.338 53.5857 23.3197 53.5776 23.2997C53.5695 23.2796 53.5655 23.2581 53.5659 23.2365C53.5659 23.194 53.5824 23.1532 53.6119 23.1226C53.6414 23.092 53.6817 23.0741 53.7242 23.0726H53.7299ZM50.7263 23.0726C50.7696 23.0733 50.8109 23.0908 50.8415 23.1214C50.8721 23.152 50.8896 23.1933 50.8903 23.2365C50.8903 23.28 50.873 23.3217 50.8423 23.3524C50.8115 23.3831 50.7698 23.4004 50.7263 23.4004C50.7047 23.4008 50.6832 23.3968 50.6631 23.3887C50.643 23.3806 50.6248 23.3686 50.6095 23.3533C50.5942 23.338 50.5821 23.3197 50.574 23.2997C50.5659 23.2796 50.5619 23.2581 50.5623 23.2365C50.5623 23.194 50.5788 23.1532 50.6083 23.1226C50.6378 23.092 50.6781 23.0741 50.7206 23.0726H50.7263ZM47.7227 23.0726C47.766 23.0733 47.8073 23.0908 47.8379 23.1214C47.8685 23.152 47.886 23.1933 47.8867 23.2365C47.8867 23.28 47.8694 23.3217 47.8387 23.3524C47.8079 23.3831 47.7662 23.4004 47.7227 23.4004C47.7011 23.4008 47.6796 23.3968 47.6595 23.3887C47.6394 23.3806 47.6212 23.3686 47.6059 23.3533C47.5906 23.338 47.5785 23.3197 47.5704 23.2997C47.5623 23.2796 47.5584 23.2581 47.5587 23.2365C47.5587 23.194 47.5752 23.1532 47.6047 23.1226C47.6342 23.092 47.6745 23.0741 47.717 23.0726H47.7227ZM44.7191 23.0726C44.7624 23.0733 44.8037 23.0908 44.8343 23.1214C44.8649 23.152 44.8824 23.1933 44.8831 23.2365C44.8831 23.28 44.8658 23.3217 44.8351 23.3524C44.8043 23.3831 44.7626 23.4004 44.7191 23.4004C44.6975 23.4008 44.676 23.3968 44.6559 23.3887C44.6358 23.3806 44.6176 23.3686 44.6023 23.3533C44.587 23.338 44.5749 23.3197 44.5668 23.2997C44.5587 23.2796 44.5548 23.2581 44.5551 23.2365C44.5551 23.194 44.5716 23.1532 44.6011 23.1226C44.6306 23.092 44.6709 23.0741 44.7134 23.0726H44.7191ZM41.7155 23.0726C41.7588 23.0733 41.8001 23.0908 41.8307 23.1214C41.8613 23.152 41.8788 23.1933 41.8795 23.2365C41.8795 23.28 41.8623 23.3217 41.8315 23.3524C41.8007 23.3831 41.759 23.4004 41.7155 23.4004C41.6939 23.4008 41.6724 23.3968 41.6523 23.3887C41.6323 23.3806 41.614 23.3686 41.5987 23.3533C41.5834 23.338 41.5713 23.3197 41.5632 23.2997C41.5551 23.2796 41.5512 23.2581 41.5515 23.2365C41.5515 23.194 41.568 23.1532 41.5975 23.1226C41.6271 23.092 41.6673 23.0741 41.7098 23.0726H41.7155ZM55.2375 29.54C55.2807 29.5407 55.322 29.5582 55.3526 29.5888C55.3832 29.6194 55.4007 29.6607 55.4015 29.7039C55.4015 29.7474 55.3842 29.7891 55.3534 29.8198C55.3227 29.8506 55.281 29.8678 55.2375 29.8678C55.2158 29.8682 55.1943 29.8642 55.1743 29.8561C55.1542 29.848 55.136 29.836 55.1207 29.8207C55.1053 29.8054 55.0933 29.7872 55.0852 29.7671C55.0771 29.747 55.0731 29.7255 55.0735 29.7039C55.0734 29.6624 55.0891 29.6223 55.1174 29.5919C55.1457 29.5615 55.1845 29.5429 55.226 29.54H55.2375ZM52.2339 29.54C52.2771 29.5407 52.3184 29.5582 52.349 29.5888C52.3796 29.6194 52.3971 29.6607 52.3979 29.7039C52.3979 29.7474 52.3806 29.7891 52.3498 29.8198C52.3191 29.8506 52.2774 29.8678 52.2339 29.8678C52.2122 29.8682 52.1907 29.8642 52.1707 29.8561C52.1506 29.848 52.1324 29.836 52.1171 29.8207C52.1017 29.8054 52.0897 29.7872 52.0816 29.7671C52.0735 29.747 52.0695 29.7255 52.0699 29.7039C52.0698 29.6624 52.0855 29.6223 52.1138 29.5919C52.1421 29.5615 52.1809 29.5429 52.2224 29.54H52.2339ZM49.2303 29.54C49.2735 29.5407 49.3148 29.5582 49.3454 29.5888C49.376 29.6194 49.3935 29.6607 49.3943 29.7039C49.3943 29.7474 49.377 29.7891 49.3462 29.8198C49.3155 29.8506 49.2738 29.8678 49.2303 29.8678C49.2086 29.8682 49.1871 29.8642 49.1671 29.8561C49.147 29.848 49.1288 29.836 49.1135 29.8207C49.0982 29.8054 49.0861 29.7872 49.078 29.7671C49.0699 29.747 49.0659 29.7255 49.0663 29.7039C49.0661 29.6628 49.0814 29.6232 49.1091 29.5928C49.1368 29.5624 49.1749 29.5436 49.2159 29.54H49.2303ZM46.2267 29.54C46.2699 29.5407 46.3112 29.5582 46.3418 29.5888C46.3724 29.6194 46.3899 29.6607 46.3907 29.7039C46.3907 29.7474 46.3734 29.7891 46.3427 29.8198C46.3119 29.8506 46.2702 29.8678 46.2267 29.8678C46.205 29.8682 46.1836 29.8642 46.1635 29.8561C46.1434 29.848 46.1252 29.836 46.1099 29.8207C46.0946 29.8054 46.0825 29.7872 46.0744 29.7671C46.0663 29.747 46.0623 29.7255 46.0627 29.7039C46.0626 29.6624 46.0783 29.6223 46.1066 29.5919C46.1349 29.5615 46.1737 29.5429 46.2152 29.54H46.2267ZM43.2231 29.54C43.2664 29.5407 43.3076 29.5582 43.3382 29.5888C43.3688 29.6194 43.3863 29.6607 43.3871 29.7039C43.3871 29.7474 43.3698 29.7891 43.3391 29.8198C43.3083 29.8506 43.2666 29.8678 43.2231 29.8678C43.2015 29.8682 43.18 29.8642 43.1599 29.8561C43.1398 29.848 43.1216 29.836 43.1063 29.8207C43.091 29.8054 43.0789 29.7872 43.0708 29.7671C43.0627 29.747 43.0587 29.7255 43.0591 29.7039C43.059 29.6624 43.0747 29.6223 43.103 29.5919C43.1313 29.5615 43.1701 29.5429 43.2116 29.54H43.2231ZM40.2195 29.54C40.2628 29.5407 40.304 29.5582 40.3346 29.5888C40.3652 29.6194 40.3827 29.6607 40.3835 29.7039C40.3835 29.7474 40.3662 29.7891 40.3355 29.8198C40.3047 29.8506 40.263 29.8678 40.2195 29.8678C40.1979 29.8682 40.1764 29.8642 40.1563 29.8561C40.1362 29.848 40.118 29.836 40.1027 29.8207C40.0874 29.8054 40.0753 29.7872 40.0672 29.7671C40.0591 29.747 40.0551 29.7255 40.0555 29.7039C40.0554 29.6624 40.0711 29.6223 40.0994 29.5919C40.1277 29.5615 40.1665 29.5429 40.208 29.54H40.2195ZM53.7414 27.4379C53.7847 27.4386 53.826 27.4561 53.8566 27.4867C53.8872 27.5173 53.9047 27.5585 53.9054 27.6018C53.9054 27.6453 53.8881 27.687 53.8574 27.7177C53.8266 27.7484 53.7849 27.7657 53.7414 27.7657C53.7198 27.7661 53.6983 27.7621 53.6782 27.754C53.6582 27.7459 53.6399 27.7339 53.6246 27.7186C53.6093 27.7033 53.5972 27.685 53.5891 27.665C53.581 27.6449 53.5771 27.6234 53.5774 27.6018C53.5772 27.5611 53.5921 27.5219 53.6192 27.4916C53.6463 27.4613 53.6837 27.4422 53.7242 27.4379H53.7414ZM50.7378 27.4379C50.7811 27.4386 50.8224 27.4561 50.853 27.4867C50.8836 27.5173 50.9011 27.5585 50.9018 27.6018C50.9018 27.6453 50.8846 27.687 50.8538 27.7177C50.823 27.7484 50.7813 27.7657 50.7378 27.7657C50.7162 27.7661 50.6947 27.7621 50.6746 27.754C50.6546 27.7459 50.6363 27.7339 50.621 27.7186C50.6057 27.7033 50.5936 27.685 50.5855 27.665C50.5774 27.6449 50.5735 27.6234 50.5738 27.6018C50.5736 27.5611 50.5885 27.5219 50.6156 27.4916C50.6427 27.4613 50.6801 27.4422 50.7206 27.4379H50.7378ZM47.7342 27.4379C47.7775 27.4386 47.8188 27.4561 47.8494 27.4867C47.88 27.5173 47.8975 27.5585 47.8982 27.6018C47.8982 27.6453 47.881 27.687 47.8502 27.7177C47.8194 27.7484 47.7777 27.7657 47.7342 27.7657C47.7126 27.7661 47.6911 27.7621 47.671 27.754C47.651 27.7459 47.6327 27.7339 47.6174 27.7186C47.6021 27.7033 47.59 27.685 47.5819 27.665C47.5738 27.6449 47.5699 27.6234 47.5703 27.6018C47.57 27.5611 47.5849 27.5219 47.612 27.4916C47.6391 27.4613 47.6765 27.4422 47.717 27.4379H47.7342ZM44.7306 27.4379C44.7739 27.4386 44.8152 27.4561 44.8458 27.4867C44.8764 27.5173 44.8939 27.5585 44.8946 27.6018C44.8946 27.6453 44.8774 27.687 44.8466 27.7177C44.8159 27.7484 44.7741 27.7657 44.7306 27.7657C44.709 27.7661 44.6875 27.7621 44.6674 27.754C44.6474 27.7459 44.6291 27.7339 44.6138 27.7186C44.5985 27.7033 44.5864 27.685 44.5783 27.665C44.5702 27.6449 44.5663 27.6234 44.5667 27.6018C44.5664 27.5611 44.5813 27.5219 44.6084 27.4916C44.6355 27.4613 44.673 27.4422 44.7134 27.4379H44.7306ZM41.7271 27.4379C41.7703 27.4386 41.8116 27.4561 41.8422 27.4867C41.8728 27.5173 41.8903 27.5585 41.891 27.6018C41.891 27.6453 41.8738 27.687 41.843 27.7177C41.8123 27.7484 41.7705 27.7657 41.7271 27.7657C41.7054 27.7661 41.6839 27.7621 41.6638 27.754C41.6438 27.7459 41.6255 27.7339 41.6102 27.7186C41.5949 27.7033 41.5828 27.685 41.5747 27.665C41.5666 27.6449 41.5627 27.6234 41.5631 27.6018C41.5628 27.5611 41.5777 27.5219 41.6048 27.4916C41.6319 27.4613 41.6694 27.4422 41.7098 27.4379H41.7271ZM58.0771 34.0002L58.1433 34.2072C58.1186 34.1937 58.098 34.1737 58.0839 34.1494C58.0697 34.1251 58.0624 34.0973 58.0627 34.0692C58.0619 34.0454 58.0669 34.0217 58.0771 34.0002ZM55.226 33.9082C55.2695 33.9082 55.3112 33.9254 55.3419 33.9562C55.3727 33.9869 55.39 34.0286 55.39 34.0721C55.3892 34.1153 55.3717 34.1566 55.3411 34.1872C55.3105 34.2177 55.2692 34.2352 55.226 34.236C55.1825 34.236 55.1408 34.2187 55.11 34.188C55.0793 34.1572 55.062 34.1155 55.062 34.0721C55.0616 34.0504 55.0656 34.029 55.0737 34.0089C55.0818 33.9888 55.0938 33.9706 55.1091 33.9553C55.1244 33.94 55.1427 33.9279 55.1628 33.9198C55.1828 33.9117 55.2043 33.9078 55.226 33.9082ZM52.2224 33.9082C52.2659 33.9082 52.3076 33.9254 52.3383 33.9562C52.3691 33.9869 52.3864 34.0286 52.3864 34.0721C52.3856 34.1153 52.3681 34.1566 52.3375 34.1872C52.3069 34.2177 52.2656 34.2352 52.2224 34.236C52.1789 34.236 52.1372 34.2187 52.1064 34.188C52.0757 34.1572 52.0584 34.1155 52.0584 34.0721C52.058 34.0504 52.062 34.029 52.0701 34.0089C52.0782 33.9888 52.0902 33.9706 52.1055 33.9553C52.1209 33.94 52.1391 33.9279 52.1592 33.9198C52.1792 33.9117 52.2007 33.9078 52.2224 33.9082ZM49.2188 33.9082C49.2623 33.9082 49.304 33.9254 49.3347 33.9562C49.3655 33.9869 49.3828 34.0286 49.3828 34.0721C49.382 34.1153 49.3645 34.1566 49.3339 34.1872C49.3033 34.2177 49.262 34.2352 49.2188 34.236C49.1753 34.236 49.1336 34.2187 49.1028 34.188C49.0721 34.1572 49.0548 34.1155 49.0548 34.0721C49.0544 34.0507 49.0583 34.0294 49.0662 34.0096C49.0741 33.9897 49.0859 33.9716 49.1009 33.9563C49.1159 33.9411 49.1338 33.929 49.1536 33.9207C49.1733 33.9124 49.1945 33.9082 49.2159 33.9082H49.2188ZM46.2152 33.9082C46.2587 33.9082 46.3004 33.9254 46.3311 33.9562C46.3619 33.9869 46.3792 34.0286 46.3792 34.0721C46.3784 34.1153 46.3609 34.1566 46.3303 34.1872C46.2997 34.2177 46.2584 34.2352 46.2152 34.236C46.1717 34.236 46.13 34.2187 46.0992 34.188C46.0685 34.1572 46.0512 34.1155 46.0512 34.0721C46.0508 34.0504 46.0548 34.029 46.0629 34.0089C46.071 33.9888 46.0831 33.9706 46.0984 33.9553C46.1137 33.94 46.1319 33.9279 46.152 33.9198C46.172 33.9117 46.1935 33.9078 46.2152 33.9082ZM43.2116 33.9082C43.2551 33.9082 43.2968 33.9254 43.3275 33.9562C43.3583 33.9869 43.3756 34.0286 43.3756 34.0721C43.3748 34.1153 43.3573 34.1566 43.3267 34.1872C43.2961 34.2177 43.2548 34.2352 43.2116 34.236C43.1681 34.236 43.1264 34.2187 43.0956 34.188C43.0649 34.1572 43.0476 34.1155 43.0476 34.0721C43.0472 34.0504 43.0512 34.029 43.0593 34.0089C43.0674 33.9888 43.0795 33.9706 43.0948 33.9553C43.1101 33.94 43.1283 33.9279 43.1484 33.9198C43.1684 33.9117 43.1899 33.9078 43.2116 33.9082ZM40.208 33.9082C40.2515 33.9082 40.2932 33.9254 40.3239 33.9562C40.3547 33.9869 40.372 34.0286 40.372 34.0721C40.3712 34.1153 40.3537 34.1566 40.3231 34.1872C40.2925 34.2177 40.2513 34.2352 40.208 34.236C40.1645 34.236 40.1228 34.2187 40.092 34.188C40.0613 34.1572 40.044 34.1155 40.044 34.0721C40.0436 34.0504 40.0476 34.029 40.0557 34.0089C40.0638 33.9888 40.0759 33.9706 40.0912 33.9553C40.1065 33.94 40.1247 33.9279 40.1448 33.9198C40.1648 33.9117 40.1863 33.9078 40.208 33.9082ZM37.354 34.0088C37.3584 34.0287 37.3584 34.0493 37.354 34.0692C37.3551 34.0954 37.3493 34.1213 37.3372 34.1446C37.325 34.1678 37.307 34.1874 37.285 34.2015L37.354 34.0088ZM56.7278 31.8032C56.771 31.8039 56.8123 31.8214 56.8429 31.852C56.8735 31.8826 56.891 31.9238 56.8918 31.9671C56.8918 32.0105 56.8745 32.0522 56.8437 32.083C56.813 32.1137 56.7713 32.131 56.7278 32.131C56.7061 32.1314 56.6846 32.1274 56.6646 32.1193C56.6445 32.1112 56.6262 32.0991 56.6109 32.0838C56.5956 32.0685 56.5836 32.0503 56.5755 32.0303C56.5674 32.0102 56.5634 31.9887 56.5638 31.9671C56.5638 31.9236 56.5811 31.8819 56.6118 31.8512C56.6426 31.8204 56.6843 31.8032 56.7278 31.8032ZM53.7242 31.8032C53.7674 31.8039 53.8087 31.8214 53.8393 31.852C53.8699 31.8826 53.8874 31.9238 53.8882 31.9671C53.8882 32.0105 53.8709 32.0522 53.8401 32.083C53.8094 32.1137 53.7677 32.131 53.7242 32.131C53.7025 32.1314 53.681 32.1274 53.661 32.1193C53.6409 32.1112 53.6226 32.0991 53.6073 32.0838C53.592 32.0685 53.58 32.0503 53.5719 32.0303C53.5638 32.0102 53.5598 31.9887 53.5602 31.9671C53.5602 31.9236 53.5775 31.8819 53.6082 31.8512C53.639 31.8204 53.6807 31.8032 53.7242 31.8032ZM50.7206 31.8032C50.7638 31.8039 50.8051 31.8214 50.8357 31.852C50.8663 31.8826 50.8838 31.9238 50.8846 31.9671C50.8846 32.0105 50.8673 32.0522 50.8365 32.083C50.8058 32.1137 50.7641 32.131 50.7206 32.131C50.6989 32.1314 50.6774 32.1274 50.6574 32.1193C50.6373 32.1112 50.6191 32.0991 50.6038 32.0838C50.5884 32.0685 50.5764 32.0503 50.5683 32.0303C50.5602 32.0102 50.5562 31.9887 50.5566 31.9671C50.5566 31.9236 50.5739 31.8819 50.6046 31.8512C50.6354 31.8204 50.6771 31.8032 50.7206 31.8032ZM47.717 31.8032C47.7602 31.8039 47.8015 31.8214 47.8321 31.852C47.8627 31.8826 47.8802 31.9238 47.881 31.9671C47.881 32.0105 47.8637 32.0522 47.8329 32.083C47.8022 32.1137 47.7605 32.131 47.717 32.131C47.6953 32.1314 47.6738 32.1274 47.6538 32.1193C47.6337 32.1112 47.6155 32.0991 47.6002 32.0838C47.5849 32.0685 47.5728 32.0503 47.5647 32.0303C47.5566 32.0102 47.5526 31.9887 47.553 31.9671C47.553 31.9236 47.5703 31.8819 47.601 31.8512C47.6318 31.8204 47.6735 31.8032 47.717 31.8032ZM44.7134 31.8032C44.7566 31.8039 44.7979 31.8214 44.8285 31.852C44.8591 31.8826 44.8766 31.9238 44.8774 31.9671C44.8774 32.0105 44.8601 32.0522 44.8293 32.083C44.7986 32.1137 44.7569 32.131 44.7134 32.131C44.6917 32.1314 44.6702 32.1274 44.6502 32.1193C44.6301 32.1112 44.6119 32.0991 44.5966 32.0838C44.5813 32.0685 44.5692 32.0503 44.5611 32.0303C44.553 32.0102 44.549 31.9887 44.5494 31.9671C44.5494 31.9236 44.5667 31.8819 44.5974 31.8512C44.6282 31.8204 44.6699 31.8032 44.7134 31.8032ZM41.7098 31.8032C41.7531 31.8039 41.7943 31.8214 41.8249 31.852C41.8555 31.8826 41.873 31.9238 41.8738 31.9671C41.8738 32.0105 41.8565 32.0522 41.8257 32.083C41.795 32.1137 41.7533 32.131 41.7098 32.131C41.6881 32.1314 41.6666 32.1274 41.6466 32.1193C41.6265 32.1112 41.6083 32.0991 41.593 32.0838C41.5777 32.0685 41.5656 32.0503 41.5575 32.0303C41.5494 32.0102 41.5454 31.9887 41.5458 31.9671C41.5458 31.9236 41.5631 31.8819 41.5938 31.8512C41.6246 31.8204 41.6663 31.8032 41.7098 31.8032ZM38.7062 31.8032C38.7495 31.8039 38.7907 31.8214 38.8213 31.852C38.8519 31.8826 38.8694 31.9238 38.8702 31.9671C38.8702 32.0105 38.8529 32.0522 38.8221 32.083C38.7914 32.1137 38.7497 32.131 38.7062 32.131C38.6845 32.1314 38.663 32.1274 38.643 32.1193C38.6229 32.1112 38.6047 32.0991 38.5894 32.0838C38.5741 32.0685 38.562 32.0503 38.5539 32.0303C38.5458 32.0102 38.5418 31.9887 38.5422 31.9671C38.5422 31.9236 38.5595 31.8819 38.5902 31.8512C38.621 31.8204 38.6627 31.8032 38.7062 31.8032ZM58.2296 38.2763C58.2731 38.2763 58.3148 38.2936 58.3455 38.3243C58.3763 38.3551 58.3936 38.3968 58.3936 38.4402C58.3928 38.4835 58.3753 38.5247 58.3447 38.5553C58.3141 38.5859 58.2728 38.6034 58.2296 38.6041C58.1861 38.6041 58.1444 38.5869 58.1136 38.5561C58.0829 38.5254 58.0656 38.4837 58.0656 38.4402C58.0652 38.4186 58.0692 38.3971 58.0773 38.3771C58.0854 38.357 58.0974 38.3388 58.1127 38.3235C58.128 38.3082 58.1463 38.2961 58.1664 38.288C58.1864 38.2799 58.2079 38.2759 58.2296 38.2763ZM55.226 38.2763C55.2695 38.2763 55.3112 38.2936 55.3419 38.3243C55.3727 38.3551 55.39 38.3968 55.39 38.4402C55.3892 38.4835 55.3717 38.5247 55.3411 38.5553C55.3105 38.5859 55.2692 38.6034 55.226 38.6041C55.1825 38.6041 55.1408 38.5869 55.11 38.5561C55.0793 38.5254 55.062 38.4837 55.062 38.4402C55.0616 38.4186 55.0656 38.3971 55.0737 38.3771C55.0818 38.357 55.0938 38.3388 55.1091 38.3235C55.1244 38.3082 55.1427 38.2961 55.1628 38.288C55.1828 38.2799 55.2043 38.2759 55.226 38.2763ZM52.2224 38.2763C52.2659 38.2763 52.3076 38.2936 52.3383 38.3243C52.3691 38.3551 52.3864 38.3968 52.3864 38.4402C52.3856 38.4835 52.3681 38.5247 52.3375 38.5553C52.3069 38.5859 52.2656 38.6034 52.2224 38.6041C52.1789 38.6041 52.1372 38.5869 52.1064 38.5561C52.0757 38.5254 52.0584 38.4837 52.0584 38.4402C52.058 38.4186 52.062 38.3971 52.0701 38.3771C52.0782 38.357 52.0902 38.3388 52.1055 38.3235C52.1209 38.3082 52.1391 38.2961 52.1592 38.288C52.1792 38.2799 52.2007 38.2759 52.2224 38.2763ZM49.2159 38.2763C49.2594 38.2763 49.3011 38.2936 49.3319 38.3243C49.3626 38.3551 49.3799 38.3968 49.3799 38.4402C49.3792 38.4835 49.3616 38.5247 49.331 38.5553C49.3004 38.5859 49.2592 38.6034 49.2159 38.6041C49.1724 38.6041 49.1307 38.5869 49.0999 38.5561C49.0692 38.5254 49.0519 38.4837 49.0519 38.4402C49.0515 38.4186 49.0555 38.3971 49.0636 38.3771C49.0717 38.357 49.0838 38.3388 49.0991 38.3235C49.1144 38.3082 49.1326 38.2961 49.1527 38.288C49.1728 38.2799 49.1943 38.2759 49.2159 38.2763ZM46.2123 38.2763C46.2558 38.2763 46.2975 38.2936 46.3283 38.3243C46.359 38.3551 46.3763 38.3968 46.3763 38.4402C46.3756 38.4835 46.358 38.5247 46.3274 38.5553C46.2969 38.5859 46.2556 38.6034 46.2123 38.6041C46.1688 38.6041 46.1271 38.5869 46.0963 38.5561C46.0656 38.5254 46.0483 38.4837 46.0483 38.4402C46.0479 38.4184 46.052 38.3966 46.0603 38.3764C46.0685 38.3561 46.0809 38.3377 46.0965 38.3224C46.1121 38.3071 46.1307 38.2951 46.1511 38.2871C46.1715 38.2792 46.1933 38.2755 46.2152 38.2763H46.2123ZM43.2087 38.2763C43.2522 38.2763 43.2939 38.2936 43.3247 38.3243C43.3554 38.3551 43.3727 38.3968 43.3727 38.4402C43.372 38.4835 43.3544 38.5247 43.3238 38.5553C43.2933 38.5859 43.252 38.6034 43.2087 38.6041C43.1652 38.6041 43.1235 38.5869 43.0928 38.5561C43.062 38.5254 43.0447 38.4837 43.0447 38.4402C43.0443 38.4184 43.0484 38.3966 43.0567 38.3764C43.0649 38.3561 43.0773 38.3377 43.0929 38.3224C43.1085 38.3071 43.1271 38.2951 43.1475 38.2871C43.1679 38.2792 43.1897 38.2755 43.2116 38.2763H43.2087ZM40.2051 38.2763C40.2486 38.2763 40.2903 38.2936 40.3211 38.3243C40.3518 38.3551 40.3691 38.3968 40.3691 38.4402C40.3684 38.4835 40.3508 38.5247 40.3203 38.5553C40.2897 38.5859 40.2484 38.6034 40.2051 38.6041C40.1616 38.6041 40.1199 38.5869 40.0892 38.5561C40.0584 38.5254 40.0411 38.4837 40.0411 38.4402C40.0407 38.4184 40.0448 38.3966 40.0531 38.3764C40.0613 38.3561 40.0737 38.3377 40.0893 38.3224C40.1049 38.3071 40.1235 38.2951 40.1439 38.2871C40.1643 38.2792 40.1861 38.2755 40.208 38.2763H40.2051ZM37.2015 38.2763C37.245 38.2763 37.2867 38.2936 37.3175 38.3243C37.3482 38.3551 37.3655 38.3968 37.3655 38.4402C37.3648 38.4835 37.3472 38.5247 37.3167 38.5553C37.2861 38.5859 37.2448 38.6034 37.2015 38.6041C37.158 38.6041 37.1163 38.5869 37.0856 38.5561C37.0548 38.5254 37.0375 38.4837 37.0375 38.4402C37.0371 38.4184 37.0412 38.3966 37.0495 38.3764C37.0577 38.3561 37.0701 38.3377 37.0857 38.3224C37.1013 38.3071 37.1199 38.2951 37.1403 38.2871C37.1607 38.2792 37.1825 38.2755 37.2044 38.2763H37.2015ZM56.7249 36.1742C56.7684 36.1742 56.8101 36.1915 56.8409 36.2222C56.8716 36.2529 56.8889 36.2946 56.8889 36.3381C56.8881 36.3813 56.8706 36.4226 56.84 36.4532C56.8094 36.4838 56.7682 36.5013 56.7249 36.502C56.6814 36.502 56.6397 36.4848 56.6089 36.454C56.5782 36.4233 56.5609 36.3816 56.5609 36.3381C56.5601 36.316 56.5639 36.2939 56.572 36.2733C56.5801 36.2527 56.5923 36.234 56.608 36.2184C56.6236 36.2027 56.6424 36.1905 56.663 36.1824C56.6836 36.1743 56.7056 36.1705 56.7278 36.1713L56.7249 36.1742ZM53.7213 36.1742C53.7648 36.1742 53.8065 36.1915 53.8373 36.2222C53.868 36.2529 53.8853 36.2946 53.8853 36.3381C53.8845 36.3813 53.867 36.4226 53.8364 36.4532C53.8058 36.4838 53.7646 36.5013 53.7213 36.502C53.6778 36.502 53.6361 36.4848 53.6053 36.454C53.5746 36.4233 53.5573 36.3816 53.5573 36.3381C53.5565 36.316 53.5603 36.2939 53.5684 36.2733C53.5765 36.2527 53.5887 36.234 53.6044 36.2184C53.6201 36.2027 53.6388 36.1905 53.6594 36.1824C53.68 36.1743 53.702 36.1705 53.7242 36.1713L53.7213 36.1742ZM50.7177 36.1742C50.7612 36.1742 50.8029 36.1915 50.8337 36.2222C50.8644 36.2529 50.8817 36.2946 50.8817 36.3381C50.881 36.3813 50.8634 36.4226 50.8328 36.4532C50.8022 36.4838 50.761 36.5013 50.7177 36.502C50.6742 36.502 50.6325 36.4848 50.6017 36.454C50.571 36.4233 50.5537 36.3816 50.5537 36.3381C50.5529 36.316 50.5567 36.2939 50.5648 36.2733C50.5729 36.2527 50.5851 36.234 50.6008 36.2184C50.6165 36.2027 50.6352 36.1905 50.6558 36.1824C50.6764 36.1743 50.6985 36.1705 50.7206 36.1713L50.7177 36.1742ZM47.7141 36.1742C47.7576 36.1742 47.7993 36.1915 47.8301 36.2222C47.8608 36.2529 47.8781 36.2946 47.8781 36.3381C47.8774 36.3813 47.8598 36.4226 47.8292 36.4532C47.7986 36.4838 47.7574 36.5013 47.7141 36.502C47.6706 36.502 47.6289 36.4848 47.5981 36.454C47.5674 36.4233 47.5501 36.3816 47.5501 36.3381C47.5493 36.316 47.5531 36.2939 47.5612 36.2733C47.5693 36.2527 47.5815 36.234 47.5972 36.2184C47.6129 36.2027 47.6316 36.1905 47.6522 36.1824C47.6728 36.1743 47.6949 36.1705 47.717 36.1713L47.7141 36.1742ZM44.7105 36.1742C44.754 36.1742 44.7957 36.1915 44.8265 36.2222C44.8572 36.2529 44.8745 36.2946 44.8745 36.3381C44.8738 36.3813 44.8562 36.4226 44.8256 36.4532C44.7951 36.4838 44.7538 36.5013 44.7105 36.502C44.667 36.502 44.6253 36.4848 44.5946 36.454C44.5638 36.4233 44.5465 36.3816 44.5465 36.3381C44.5457 36.316 44.5495 36.2939 44.5576 36.2733C44.5657 36.2527 44.5779 36.234 44.5936 36.2184C44.6093 36.2027 44.628 36.1905 44.6486 36.1824C44.6692 36.1743 44.6913 36.1705 44.7134 36.1713L44.7105 36.1742ZM41.7069 36.1742C41.7504 36.1742 41.7921 36.1915 41.8229 36.2222C41.8536 36.2529 41.8709 36.2946 41.8709 36.3381C41.8702 36.3813 41.8526 36.4226 41.8221 36.4532C41.7915 36.4838 41.7502 36.5013 41.7069 36.502C41.6634 36.502 41.6217 36.4848 41.591 36.454C41.5602 36.4233 41.5429 36.3816 41.5429 36.3381C41.5421 36.316 41.5459 36.2939 41.554 36.2733C41.5621 36.2527 41.5743 36.234 41.59 36.2184C41.6057 36.2027 41.6244 36.1905 41.645 36.1824C41.6656 36.1743 41.6877 36.1705 41.7098 36.1713L41.7069 36.1742ZM38.7033 36.1742C38.7468 36.1742 38.7885 36.1915 38.8193 36.2222C38.85 36.2529 38.8673 36.2946 38.8673 36.3381C38.8666 36.3813 38.849 36.4226 38.8185 36.4532C38.7879 36.4838 38.7466 36.5013 38.7033 36.502C38.6598 36.502 38.6181 36.4848 38.5874 36.454C38.5566 36.4233 38.5393 36.3816 38.5393 36.3381C38.5385 36.316 38.5423 36.2939 38.5504 36.2733C38.5585 36.2527 38.5707 36.234 38.5864 36.2184C38.6021 36.2027 38.6208 36.1905 38.6414 36.1824C38.662 36.1743 38.6841 36.1705 38.7062 36.1713L38.7033 36.1742Z" fill="white"/>
<path d="M93.7231 101.084L115.692 129.424H114.452L89.0825 101.084H93.7231Z" fill="#C7C7C7"/>
<path d="M91.6602 101.084L102.515 129.424H101.278L87.9719 101.084H91.6602Z" fill="#C7C7C7"/>
<path d="M86.3376 101.084L75.4826 129.424H76.7197L90.0259 101.084H86.3376Z" fill="#C7C7C7"/>
<path d="M84.4419 101.084L62.4759 129.424H63.7131L89.0825 101.084H84.4419Z" fill="#C7C7C7"/>
<path d="M47.7778 95.7748V88.4102L77.9461 87.1736L93.879 46.8364H130.388L118.311 93.6583L86.6088 104.436H84.6754L47.7778 95.7748Z" fill="#455A64"/>
<path d="M130.388 46.8364H126.211L113.592 89.3304L85.4493 97.6929L47.7778 88.4102V95.7748L84.6754 104.436H86.6088L118.311 93.6583L130.388 46.8364Z" fill="#37474F"/>
<path d="M30.1869 132.497C31.1191 132.75 57.9414 131.005 58.8966 130.303C59.0117 130.231 58.6952 121.339 58.6952 121.339C58.6521 121.216 62.6626 109.308 62.6626 109.308L46.2004 107.801L41.3612 122.956C41.3612 122.956 37.8311 124.681 34.7671 126.383C32.8769 127.422 31.2399 128.368 30.8659 128.698C29.905 129.581 29.2548 132.256 30.1869 132.497Z" fill="#EB9481"/>
<path d="M41.5828 121.3L59.6936 120.616C59.6936 120.616 67.5507 93.5843 69.415 92.3449C71.6648 90.8495 95.17 93.0437 102.316 87.1686C106.413 83.7984 107.147 77.1268 107.147 77.1268L94.1285 71.0591C94.1285 71.0591 91.6831 73.1353 90.9178 73.4315C88.0695 74.5387 64.0005 72.149 57.1475 77.3511C49.7018 83.0047 41.5828 121.3 41.5828 121.3Z" fill="#263238"/>
<path d="M41.5828 121.3L59.6936 120.616C59.6936 120.616 67.5507 93.5843 69.415 92.3449C71.6648 90.8495 95.17 93.0437 102.316 87.1686C106.413 83.7984 107.147 77.1268 107.147 77.1268L94.1285 71.0591C94.1285 71.0591 91.6831 73.1353 90.9178 73.4315C88.0695 74.5387 64.0005 72.149 57.1475 77.3511C49.7018 83.0047 41.5828 121.3 41.5828 121.3Z" fill="#263238"/>
<path d="M103.902 78.0839C102.524 81.3392 100.574 84.6664 97.4435 86.4867C96.8085 86.8071 96.13 87.0328 95.4296 87.1567C88.3118 88.4019 81.0445 88.307 73.8203 88.747C72.0107 88.8649 70.1838 88.9425 68.3799 89.2301C68.0249 89.2725 67.6806 89.3797 67.3643 89.5464C67.0383 89.8509 66.7694 90.2112 66.5703 90.6104C65.0512 93.5177 64.0011 96.6263 62.9079 99.7062C61.0205 105.181 59.278 110.705 57.6803 116.276C59.513 110.783 61.3428 105.291 63.3221 99.8528C64.3349 97.1468 65.3102 94.4149 66.5358 91.8182C66.8609 91.1942 67.1773 90.4522 67.6866 89.9806C68.262 89.7304 68.9208 89.7103 69.5394 89.624C70.9779 89.4774 72.4164 89.3997 73.8549 89.3221C78.9673 89.0345 86.18 88.7872 91.2032 88.2034C93.3466 87.8929 95.6281 87.7663 97.5959 86.7656C100.735 84.8705 102.639 81.4168 103.897 78.0811L103.902 78.0839Z" fill="#37474F"/>
<path d="M67.8617 74.323L89.4939 90.9761C94.7358 90.4182 99.6469 89.3455 102.302 87.1629C106.399 83.7926 107.136 77.121 107.136 77.121L94.1288 71.0591C94.1288 71.0591 91.6862 73.1353 90.9209 73.4315C88.9905 74.1878 77.3184 73.3309 67.8617 74.323Z" fill="#37474F"/>
<path d="M98.5247 50.7539C94.1833 57.8482 87.4425 65.8368 85.3825 66.8088C82.776 68.0396 69.5849 66.6449 68.9059 66.5069C67.7954 66.2797 68.9893 54.5095 69.9905 54.8431C72.6345 55.723 81.09 57.4168 81.8553 57.0229C82.6206 56.6289 88.343 52.8934 94.3847 48.5626C98.5679 45.5661 101.218 46.3512 98.5247 50.7539Z" fill="#EB9481"/>
<path d="M71.0816 54.3802L70.837 68.4394C70.837 68.4394 82.7478 68.9771 85.4522 67.499C88.1566 66.0209 95.5217 56.1918 98.3987 51.191C101.276 46.1902 98.5167 45.4167 94.8946 47.9616C91.2724 50.5066 82.322 56.6232 81.9164 56.6836C81.5107 56.744 71.0816 54.3802 71.0816 54.3802Z" fill="#F47D21"/>
<path d="M73.7858 63.1277C73.8002 61.4655 73.8031 59.8034 73.8808 58.1413C73.924 57.198 73.9642 56.2519 74.016 55.3087C74.016 55.2742 74.0793 55.2713 74.0822 55.3087C74.1311 56.9766 74.1771 58.6503 74.1512 60.321C74.1253 61.9918 74.1138 63.6482 74.0649 65.3103C74.039 66.2536 73.9815 67.1939 73.8981 68.1371C73.8981 68.1417 73.8962 68.1461 73.893 68.1493C73.8898 68.1526 73.8854 68.1544 73.8808 68.1544C73.8762 68.1544 73.8718 68.1526 73.8686 68.1493C73.8653 68.1461 73.8635 68.1417 73.8635 68.1371C73.7571 66.4577 73.7686 64.8013 73.7858 63.1277Z" fill="#263238"/>
<path opacity="0.1" d="M72.5714 68.4853C75.9749 68.5687 83.4034 68.6147 85.4662 67.4875C88.1706 66.0094 95.5357 56.1803 98.4127 51.1823C99.7937 48.7812 99.8771 47.3519 99.1866 46.7998C99.0896 46.8138 98.9935 46.834 98.8989 46.8602C93.1305 51.1737 80.6328 61.8569 72.5714 68.4853Z" fill="black"/>
<path d="M64.6454 53.1175L72.7874 47.1821L79.8418 63.4987L71.6884 68.5111L64.6454 53.1175Z" fill="#455A64"/>
<path opacity="0.1" d="M64.6454 53.1175L72.7874 47.1821L79.8418 63.4987L71.6884 68.5111L64.6454 53.1175Z" fill="black"/>
<path d="M65.7071 53.0366L72.632 48.0674L72.96 48.5735L78.5615 61.6952C77.9736 62.3083 77.4339 62.9659 76.9475 63.6622C76.3347 64.5939 74.574 67.5846 72.3731 67.8377L65.7071 53.0366Z" fill="white"/>
<path d="M66.0751 53.882C66.0751 53.882 67.9394 52.956 68.8543 51.9927C69.7692 51.0293 70.6467 49.9797 71.4033 49.4908C72.16 49.002 72.9224 48.516 72.9224 48.516L72.6347 48.0674L65.7097 53.0366L66.0751 53.882Z" fill="#EBEBEB"/>
<path d="M83.9297 68.5919L70.8825 68.9283L64.6451 53.1178L78.2217 51.7749L83.9297 68.5919Z" fill="#455A64"/>
<path d="M65.155 55.1274C64.6228 56.6228 63.0951 58.5783 63.0749 59.7487C63.0596 60.0393 63.1384 60.3271 63.2995 60.5695C63.4607 60.8119 63.6957 60.996 63.9697 61.0945C63.9697 61.0945 62.8649 61.7933 63.0231 62.8688C63.1037 63.4209 64.056 63.7775 64.056 63.7775C64.056 63.7775 63.1929 64.3756 63.3943 65.3217C63.5554 66.0752 64.4875 66.3196 64.4875 66.3196C64.4875 66.3196 63.9294 67.2801 64.3379 67.9961C65.1636 69.4483 71.7462 68.7783 72.5173 66.2506C72.8769 65.0715 71.2773 65.3217 71.2773 65.3217C71.2773 65.3217 73.4897 64.4073 73.3861 63.0471C73.2825 61.6869 71.2226 62.1384 71.2226 62.1384C71.2226 62.1384 73.3602 61.2325 73.1099 59.8378C72.851 58.3827 70.8687 59.185 70.8687 59.185C70.8687 59.185 72.2324 58.0348 71.7951 57.0168C71.073 55.3201 68.5269 57.8047 67.0452 57.6092L66.0037 55.3086L65.155 55.1274Z" fill="#EB9481"/>
<path d="M64.0472 57.3362C64.4269 55.8753 62.5051 54.3138 62.6691 52.8645C62.8877 50.9061 65.2382 52.5769 66.0035 55.3002L66.2222 57.5288L64.0472 57.3362Z" fill="#EB9481"/>
<path d="M64.6278 66.3795C64.6232 66.3795 64.6188 66.3813 64.6156 66.3845C64.6123 66.3878 64.6105 66.3921 64.6105 66.3967C64.6105 66.4013 64.6123 66.4057 64.6156 66.4089C64.6188 66.4122 64.6232 66.414 64.6278 66.414C66.9351 66.7385 69.2865 66.3523 71.3686 65.3068C71.4348 65.2723 71.406 65.1516 71.3254 65.1774C69.1629 65.9001 66.9068 66.305 64.6278 66.3795Z" fill="#263238"/>
<path d="M64.0269 63.795C64.0011 63.795 64.0011 63.8381 64.0269 63.841C66.3142 64.1458 69.1566 63.68 71.3058 62.1904C71.3777 62.1386 71.3921 62.0178 71.3058 62.0725C69.804 62.9553 66.1646 63.7605 64.0269 63.795Z" fill="#263238"/>
<path d="M70.9924 59.0215C68.8749 60.3731 66.5388 60.908 64.0617 61.1121C64.03 61.1121 64.0358 61.161 64.0617 61.1668C65.3017 61.3968 66.8668 61.1006 68.0665 60.767C69.1851 60.4787 70.2087 59.9027 71.0355 59.0963C71.0816 59.0646 71.0355 58.9812 70.9924 59.0215Z" fill="#263238"/>
<path d="M112.4 77.3567C112.337 77.4228 87.9456 72.0827 87.7155 71.798C87.399 71.3983 91.7577 53.0629 96.3465 47.5934C97.4973 46.2245 101.16 46.3194 102.8 47.6998C110.933 54.5439 112.63 77.1209 112.4 77.3567Z" fill="#F47D21"/>
<path d="M104.782 49.4568C111.532 56.413 118.84 70.1962 117.234 73.1351C115.427 76.3961 106.014 66.6476 106.071 66.0839C106.103 65.6583 103.963 57.6007 101.485 51.1707C99.0083 44.7406 103.114 47.7371 104.782 49.4568Z" fill="#F7A9A0"/>
<path d="M106.008 66.0928C105.72 65.1496 102.406 54.2767 101.137 50.59C100.001 47.2801 100.625 45.9314 103.35 48.0019C108.37 51.8093 116.213 63.0274 118.022 69.0088C119.749 74.7745 115.928 74.8234 112.041 72.1404C108.856 69.9405 106.008 66.0928 106.008 66.0928Z" fill="#F47D21"/>
<path d="M106.601 67.7257C105.375 63.2262 103.96 58.7823 102.355 54.394C103.574 58.8974 104.99 63.3412 106.601 67.7257Z" fill="#263238"/>
<path d="M103.128 56.9876C102.896 56.4181 102.59 55.8815 102.219 55.3916C102.414 55.978 102.723 56.5203 103.128 56.9876Z" fill="#263238"/>
<path d="M102.245 47.8232C102.032 48.1108 101.81 48.3984 101.586 48.6658C101.361 48.9333 101.128 49.2064 100.892 49.471C100.421 49.9973 99.9344 50.5091 99.428 50.998C98.9217 51.4869 98.4038 51.9585 97.8629 52.4013C97.3221 52.8442 96.7639 53.264 96.1943 53.6666L96.387 53.7098C96.3679 53.6777 96.3516 53.644 96.3381 53.6091C96.3209 53.5717 96.3065 53.5286 96.2921 53.4883C96.2633 53.4021 96.2346 53.3187 96.2087 53.2295C96.1569 53.057 96.1137 52.8787 96.0706 52.6975C95.9871 52.3409 95.9152 51.9757 95.849 51.6105C95.7829 51.2453 95.7253 50.8801 95.662 50.512L95.4923 49.4077C95.4923 49.7787 95.5239 50.1525 95.5498 50.5264C95.5757 50.9002 95.6131 51.2712 95.6563 51.6421C95.6994 52.0131 95.757 52.3841 95.8289 52.755C95.8663 52.9391 95.9066 53.1231 95.9555 53.3072C95.9785 53.3992 96.0073 53.4912 96.036 53.5947C96.0498 53.6416 96.0661 53.6877 96.085 53.7328C96.0933 53.7563 96.1029 53.7793 96.1137 53.8018C96.1242 53.83 96.1377 53.857 96.154 53.8823L96.2259 54.0117L96.3468 53.9283C96.9222 53.5228 97.4976 53.1145 98.0413 52.6515C98.329 52.4272 98.5764 52.1885 98.8411 51.9498C98.9735 51.8319 99.0972 51.7025 99.2266 51.5818C99.3561 51.461 99.4798 51.3316 99.6035 51.205C100.102 50.6944 100.574 50.1578 101.016 49.5975C101.466 49.035 101.876 48.4422 102.245 47.8232Z" fill="#263238"/>
<path d="M97.5321 51.5527C98.6455 51.4808 100.723 49.1544 101.43 47.3082C101.476 47.1816 101.128 45.9652 100.772 44.467C100.562 43.5583 100.346 42.5374 100.219 41.5913L94.494 43.8343C94.9927 44.9682 95.3502 46.1591 95.5585 47.3801C95.5712 47.5101 95.5712 47.6411 95.5585 47.7712C95.5599 47.7932 95.5599 47.8153 95.5585 47.8373C95.5527 48.5907 95.7858 51.6648 97.5321 51.5527Z" fill="#EB9481"/>
<path d="M95.5731 47.7663C95.5716 47.7883 95.5716 47.8104 95.5731 47.8324C95.7795 47.8324 95.9854 47.8151 96.1888 47.7806C99.5434 47.2486 99.8081 43.0358 99.8081 41.7417L94.4943 43.8208C94.9932 44.9551 95.3526 46.1457 95.5645 47.3665C95.5778 47.4993 95.5807 47.633 95.5731 47.7663Z" fill="#263238"/>
<path d="M99.0547 34.2156C100.254 36.0762 100.844 42.2676 99.7682 43.993C98.206 46.4919 94.8169 47.648 92.4837 45.5803C90.2223 43.5674 89.6066 35.4982 90.8754 33.8447C92.7627 31.409 97.2825 31.4665 99.0547 34.2156Z" fill="#EB9481"/>
<path d="M95.2257 38.6989C95.0404 38.684 94.856 38.6591 94.6734 38.6241C94.4764 38.6239 94.2848 38.5604 94.1267 38.4429C94.0848 38.3958 94.0596 38.3362 94.0549 38.2733C94.0503 38.2105 94.0664 38.1478 94.1008 38.095C94.1857 38.0008 94.2941 37.9308 94.415 37.8924C94.5358 37.854 94.6647 37.8485 94.7884 37.8764C95.0463 37.8959 95.288 38.0095 95.4674 38.1956C95.506 38.2405 95.5307 38.2957 95.5384 38.3544C95.5461 38.4131 95.5366 38.4728 95.511 38.5261C95.4854 38.5795 95.4447 38.6243 95.3941 38.6549C95.3434 38.6856 95.2849 38.7009 95.2257 38.6989Z" fill="#A6A6A6"/>
<path d="M90.993 39.3024C91.1681 39.2423 91.34 39.1732 91.5079 39.0953C91.7004 39.0495 91.8717 38.9401 91.9942 38.7848C92.0228 38.7289 92.0324 38.6653 92.0215 38.6035C92.0106 38.5417 91.9798 38.4852 91.9337 38.4425C91.8293 38.3716 91.7076 38.3302 91.5815 38.3226C91.4554 38.315 91.3296 38.3415 91.2174 38.3994C90.9733 38.4806 90.7681 38.6498 90.642 38.8739C90.6164 38.9263 90.6065 38.9849 90.6132 39.0428C90.62 39.1007 90.6432 39.1554 90.6802 39.2005C90.7171 39.2456 90.7662 39.2792 90.8216 39.2972C90.8771 39.3153 90.9365 39.3171 90.993 39.3024Z" fill="#A6A6A6"/>
<path d="M95.5099 43.596C95.4236 43.7053 95.3402 43.8519 95.1906 43.8836C95.0356 43.9011 94.8787 43.8855 94.7303 43.8376C94.7285 43.8389 94.727 43.8406 94.726 43.8426C94.725 43.8446 94.7245 43.8468 94.7245 43.8491C94.7245 43.8513 94.725 43.8535 94.726 43.8555C94.727 43.8575 94.7285 43.8592 94.7303 43.8606C94.8007 43.9335 94.8891 43.9865 94.9866 44.0143C95.0841 44.0421 95.1873 44.0436 95.2855 44.0187C95.3688 43.9872 95.4407 43.9314 95.492 43.8586C95.5433 43.7858 95.5716 43.6994 95.5732 43.6104C95.556 43.5845 95.5358 43.5816 95.5099 43.596Z" fill="#263238"/>
<path d="M94.9144 42.4085C94.8296 42.586 94.7092 42.7442 94.5608 42.8733C94.4123 43.0024 94.2389 43.0996 94.0513 43.1591C93.8873 43.211 93.7169 43.2401 93.545 43.2454C93.5116 43.2496 93.4777 43.2496 93.4443 43.2454H93.3522C93.3294 43.2439 93.3077 43.2349 93.2906 43.2198C93.2734 43.2047 93.2617 43.1844 93.2573 43.162C93.2558 43.1476 93.2558 43.1332 93.2573 43.1188V43.0815C93.2084 42.7651 93.1767 42.2734 93.1767 42.2734C93.0674 42.3482 92.5064 42.6904 92.492 42.5236C92.3999 41.1289 92.2964 39.5789 92.492 38.1727C92.4943 38.1642 92.4994 38.1567 92.5064 38.1513C92.5134 38.146 92.522 38.1431 92.5308 38.1431C92.5397 38.1431 92.5482 38.146 92.5553 38.1513C92.5623 38.1567 92.5673 38.1642 92.5697 38.1727C92.7107 39.5099 92.6186 40.8614 92.7394 42.1986C92.9403 42.0741 93.1571 41.9774 93.3839 41.911C93.4299 41.911 93.427 42.86 93.4587 43.0009V43.0182C94.0053 43.0182 94.3908 42.8025 94.8655 42.3769C94.9001 42.3482 94.9346 42.3712 94.9144 42.4085Z" fill="#263238"/>
<path d="M94.3852 39.8638C94.3852 39.8465 94.4198 39.8638 94.4226 39.8954C94.4744 40.3066 94.6039 40.7725 94.998 40.8472C94.998 40.8472 94.998 40.8702 94.998 40.8731C94.5233 40.8789 94.3565 40.2635 94.3852 39.8638Z" fill="#263238"/>
<path d="M94.6726 39.3746C95.3257 39.2193 95.5875 40.5249 94.9833 40.6802C94.3792 40.8355 94.126 39.504 94.6726 39.3746Z" fill="#263238"/>
<path d="M91.9683 40.1769C91.9683 40.1625 91.9396 40.2028 91.9425 40.22C92.0401 40.6255 92.0832 41.1057 91.7445 41.3156C91.7445 41.3156 91.7445 41.3444 91.7445 41.3386C92.1865 41.1834 92.1233 40.545 91.9683 40.1769Z" fill="#263238"/>
<path d="M91.5083 39.829C90.8437 39.9153 91.0652 41.2381 91.6809 41.1604C92.2966 41.0828 92.0837 39.7571 91.5083 39.829Z" fill="#263238"/>
<g opacity="0.2">
<path d="M94.2015 41.439C94.4287 42.3937 95.4357 42.9487 96.3506 43.0608C95.4875 42.7503 94.6244 42.293 94.2015 41.439Z" fill="black"/>
<path d="M92.7655 42.0977C92.7368 42.7504 92.6562 43.3975 92.2563 43.9266C92.8317 43.5326 92.9439 42.7246 92.7655 42.0977Z" fill="black"/>
</g>
<path d="M100.427 39.6243C99.532 39.9867 98.5711 38.73 98.2719 38.1865C97.9727 37.643 97.7368 35.075 97.193 34.2727C96.9581 33.905 96.6057 33.6276 96.193 33.4856C95.7803 33.3436 95.3317 33.3453 94.9202 33.4905C94.1865 33.804 93.3148 34.9111 92.748 34.9284C92.1813 34.9456 91.9137 33.7551 91.5224 33.8011C90.6593 33.9046 90.2709 36.1965 90.2192 37.1484C90.2192 37.1484 89.3273 33.0477 93.6716 32.1102C97.6418 31.2475 99.2386 33.548 99.7133 34.6983C100.66 36.9241 100.427 39.6243 100.427 39.6243Z" fill="#A6A6A6"/>
<path d="M95.8438 41.9112C96.1921 41.8147 96.5063 41.6225 96.7506 41.3563C96.995 41.0902 97.1597 40.7608 97.226 40.4057C97.2923 40.0506 97.2576 39.684 97.1257 39.3477C96.9939 39.0113 96.7702 38.7187 96.4802 38.5032C96.1901 38.2876 95.8454 38.1578 95.4852 38.1285C95.125 38.0991 94.7638 38.1714 94.4426 38.3371C94.1215 38.5029 93.8534 38.7554 93.6687 39.0659C93.4841 39.3765 93.3904 39.7326 93.3983 40.0938C93.4096 40.605 93.6236 41.0909 93.9931 41.4446C94.3626 41.7984 94.8575 41.991 95.3691 41.9802C95.5295 41.9764 95.6889 41.9532 95.8438 41.9112ZM94.88 38.4431C95.0139 38.4051 95.1522 38.3848 95.2914 38.3827C95.7166 38.3738 96.1292 38.5271 96.4452 38.8116C96.7613 39.0961 96.9569 39.4902 96.9924 39.9138C97.0278 40.3375 96.9004 40.7587 96.636 41.0916C96.3717 41.4246 95.9903 41.6444 95.5695 41.7062C95.1487 41.7679 94.7202 41.6671 94.3713 41.4241C94.0223 41.1811 93.7791 40.8143 93.6912 40.3984C93.6033 39.9825 93.6773 39.5487 93.8982 39.1855C94.119 38.8222 94.4701 38.5567 94.88 38.4431Z" fill="#37474F"/>
<path d="M91.4647 42.5667C92.1753 42.3683 92.6155 41.4625 92.463 40.4675C92.3972 39.9915 92.1839 39.548 91.8531 39.1993C91.7205 39.04 91.5488 38.9177 91.3549 38.8445C91.1609 38.7712 90.9513 38.7495 90.7464 38.7813C90.5415 38.8132 90.3484 38.8976 90.1859 39.0263C90.0233 39.155 89.897 39.3236 89.819 39.5156C89.6105 39.949 89.5431 40.4367 89.6263 40.9103C89.7903 41.96 90.5584 42.7163 91.3525 42.5955L91.4647 42.5667ZM90.6908 39.0584L90.7886 39.0383C90.9525 39.0203 91.1183 39.042 91.272 39.1015C91.4258 39.1611 91.5629 39.2568 91.6718 39.3805C91.9633 39.6917 92.1512 40.0855 92.2098 40.5077C92.3508 41.4165 91.9452 42.2332 91.3007 42.3396C90.6563 42.446 90.0233 41.7788 89.8795 40.8701C89.8065 40.4493 89.8658 40.0163 90.0492 39.6307C90.1106 39.496 90.1993 39.3756 90.3098 39.2771C90.4202 39.1786 90.55 39.1041 90.6908 39.0584Z" fill="#37474F"/>
<path d="M93.4961 40.3034L93.6284 40.0849C93.3033 39.8865 92.5841 39.665 92.1899 40.2344L92.4028 40.3782C92.7567 39.8663 93.4673 40.2891 93.4961 40.3034Z" fill="#37474F"/>
<path d="M102.067 39.4725L102.274 39.32C102.205 39.2251 101.563 38.3739 100.982 38.3682C100.401 38.3624 97.0694 39.2309 96.9256 39.2539L96.9889 39.5041C97.9555 39.2597 100.559 38.6241 100.979 38.627C101.399 38.6299 101.894 39.2395 102.067 39.4725Z" fill="#37474F"/>
<path d="M99.1548 39.3686C99.1548 39.3686 99.992 37.1026 100.985 37.3557C101.977 37.6087 101.698 40.6426 100.777 41.2896C100.665 41.3805 100.536 41.4479 100.397 41.4875C100.258 41.5272 100.113 41.5383 99.9696 41.5203C99.8263 41.5023 99.6881 41.4555 99.5635 41.3828C99.4388 41.31 99.3301 41.2128 99.244 41.0969L99.1548 39.3686Z" fill="#EB9481"/>
<path d="M100.885 38.2217V38.2476C100.246 38.7249 100.045 39.487 99.9612 40.2433C99.9836 40.1607 100.024 40.0839 100.079 40.0184C100.134 39.9528 100.202 39.9 100.28 39.8636C100.357 39.8272 100.442 39.8081 100.527 39.8076C100.613 39.8071 100.698 39.8253 100.775 39.8608C100.798 39.8608 100.775 39.904 100.775 39.904C100.639 39.8968 100.504 39.9322 100.388 40.0054C100.273 40.0785 100.183 40.1858 100.131 40.3123C100.044 40.5231 99.9812 40.743 99.944 40.968C99.9267 41.0398 99.803 41.037 99.8088 40.968V40.9478C99.5642 40.0305 99.9296 38.5639 100.885 38.2217Z" fill="#263238"/>
<g opacity="0.2">
<path d="M93.1568 37.189C92.9402 37.2432 92.72 37.2816 92.4979 37.3041C92.2707 37.3041 92.0462 37.2868 91.819 37.3041C91.3943 37.3614 90.9832 37.4939 90.6049 37.6952C90.5703 37.7095 90.579 37.7325 90.6049 37.7182C91.0115 37.5238 91.4547 37.418 91.9053 37.4076C92.2748 37.4293 92.6455 37.4003 93.0072 37.3213C93.8329 37.1143 94.6672 37.0165 95.4785 37.3213C94.7347 37.0488 93.9268 37.0028 93.1568 37.189Z" fill="black"/>
<path d="M93.1131 36.5942C92.9064 36.6427 92.6969 36.6782 92.4859 36.7006C92.273 36.7006 92.0572 36.6862 91.8443 36.7006C91.442 36.7547 91.0525 36.8793 90.6935 37.0687C90.6618 37.0831 90.6676 37.1061 90.6935 37.0917C91.0798 36.9094 91.5006 36.8114 91.9277 36.8041C92.278 36.8254 92.6296 36.7974 92.9721 36.7207C93.7546 36.5252 94.5458 36.4332 95.314 36.7207C94.6092 36.4609 93.843 36.4169 93.1131 36.5942Z" fill="black"/>
</g>
<path d="M95.4955 47.3343L97.0347 50.6241L101.29 46.2588L102.584 47.573C102.584 47.573 98.5279 54.4229 98.4905 54.1209L96.9283 51.2912L94.8971 53.3617V48.3293L95.4955 47.3343Z" fill="#EBEBEB"/>
<path d="M94.7305 50.8741C94.7593 50.043 94.7621 49.2062 94.8283 48.378C94.8283 48.3492 94.8801 48.3349 94.8887 48.378C95.093 49.1717 94.9722 52.3493 95.0038 53.1085C95.0872 53.0165 96.8882 51.2824 96.9084 51.3083C97.2421 51.754 98.3872 53.8159 98.4677 54.0028C99.1093 52.9158 101.84 48.6196 102.608 47.5872C102.631 47.5584 102.68 47.5872 102.662 47.6131C102.087 48.7633 98.577 54.4256 98.5224 54.4112C97.9246 53.4442 97.3791 52.4459 96.8882 51.4205C96.6005 51.7943 94.7765 53.744 94.765 53.6232C94.7025 52.7082 94.691 51.7904 94.7305 50.8741Z" fill="#263238"/>
<path opacity="0.6" d="M86.3604 55.9092C86.3604 55.9092 81.6105 53.7122 81.6133 50.779C81.6162 47.8458 87.7874 45.9651 87.7931 43.6703C87.7989 41.3755 85.1089 40.0239 85.1089 40.0239C85.1089 40.0239 89.3525 41.479 89.3496 44.3806C89.3467 47.2821 85.2758 49.2405 84.8845 51.0867C84.3407 53.6489 86.3604 55.9092 86.3604 55.9092Z" fill="#EBEBEB"/>
<path opacity="0.6" d="M86.1281 55.9094C86.1281 55.9094 90.8838 54.184 90.8867 51.8835C90.8896 49.5829 84.727 48.079 84.7299 46.2759C84.7328 44.4729 87.4228 43.4175 87.4228 43.4175C87.4228 43.4175 83.1648 44.5563 83.1648 46.8367C83.1648 49.1171 87.8285 50.693 88.1593 52.5478C88.4902 54.4026 86.1281 55.9094 86.1281 55.9094Z" fill="#EBEBEB"/>
<path d="M84.0384 63.2824L88.561 63.2896L88.5599 63.9941L84.0373 63.987L84.0384 63.2824Z" fill="#F47D21"/>
<path opacity="0.7" d="M84.0384 63.2824L88.561 63.2896L88.5599 63.9941L84.0373 63.987L84.0384 63.2824Z" fill="white"/>
<path opacity="0.1" d="M84.0384 63.2824L88.561 63.2896L88.5603 63.7554L84.0377 63.7483L84.0384 63.2824Z" fill="black"/>
<path d="M93.9334 61.4048C93.6189 61.884 93.1488 62.2403 92.6023 62.4137C92.0558 62.587 91.4661 62.5669 90.9327 62.3566C90.7077 62.2691 90.4935 62.1562 90.294 62.0202L90.8694 61.1575C90.9762 61.2323 91.0899 61.2968 91.2089 61.3502C91.5379 61.5026 91.911 61.5306 92.2591 61.4291C92.6072 61.3276 92.9066 61.1034 93.102 60.798C93.7234 59.9353 93.9478 57.9396 93.3206 57.1747C93.2804 57.1172 93.0991 57.028 92.3683 57.1747C92.236 57.2063 92.0806 57.2408 91.9109 57.2868C91.7765 57.3316 91.6376 57.3615 91.4966 57.376L91.4793 56.8641L91.4304 56.3551C91.4765 56.3551 91.5513 56.3235 91.6462 56.2976C91.9785 56.2081 92.317 56.1437 92.6589 56.1049C93.1969 56.0503 93.7579 56.1049 94.0974 56.5391C95.1274 57.7872 94.7102 60.3149 93.9334 61.4048Z" fill="#F47D21"/>
<path opacity="0.7" d="M93.9334 61.4048C93.6189 61.884 93.1488 62.2403 92.6023 62.4137C92.0558 62.587 91.4661 62.5669 90.9327 62.3566C90.7077 62.2691 90.4935 62.1562 90.294 62.0202L90.8694 61.1575C90.9762 61.2323 91.0899 61.2968 91.2089 61.3502C91.5379 61.5026 91.911 61.5306 92.2591 61.4291C92.6072 61.3276 92.9066 61.1034 93.102 60.798C93.7234 59.9353 93.9478 57.9396 93.3206 57.1747C93.2804 57.1172 93.0991 57.028 92.3683 57.1747C92.236 57.2063 92.0806 57.2408 91.9109 57.2868C91.7765 57.3316 91.6376 57.3615 91.4966 57.376L91.4793 56.8641L91.4304 56.3551C91.4765 56.3551 91.5513 56.3235 91.6462 56.2976C91.9785 56.2081 92.317 56.1437 92.6589 56.1049C93.1969 56.0503 93.7579 56.1049 94.0974 56.5391C95.1274 57.7872 94.7102 60.3149 93.9334 61.4048Z" fill="white"/>
<path opacity="0.1" d="M90.8636 61.1689C90.9704 61.2438 91.0841 61.3083 91.2031 61.3616L90.9154 62.3566C90.6905 62.269 90.4762 62.1561 90.2767 62.0201L90.8636 61.1689Z" fill="black"/>
<path opacity="0.1" d="M92.6592 56.105L92.3542 57.1949C92.2219 57.2265 92.0665 57.261 91.8968 57.307C91.7624 57.3518 91.6234 57.3817 91.4825 57.3962L91.4652 56.8843L91.4163 56.3753C91.4623 56.3753 91.5371 56.3437 91.6321 56.3178C91.9685 56.2208 92.3119 56.1496 92.6592 56.105Z" fill="black"/>
<path d="M80.2876 54.751C80.2876 54.751 80.8256 59.3521 81.7578 61.3018C82.6899 63.2515 83.999 63.4585 84.8132 63.4614H87.7679C88.5792 63.4614 89.8882 63.2486 90.829 61.3133C91.7698 59.378 92.3164 54.7682 92.3164 54.7682L80.2876 54.751Z" fill="#F47D21"/>
<path opacity="0.7" d="M80.2876 54.751C80.2876 54.751 80.8256 59.3521 81.7578 61.3018C82.6899 63.2515 83.999 63.4585 84.8132 63.4614H87.7679C88.5792 63.4614 89.8882 63.2486 90.829 61.3133C91.7698 59.378 92.3164 54.7682 92.3164 54.7682L80.2876 54.751Z" fill="white"/>
<g opacity="0.1">
<path d="M80.935 58.5781C81.0271 59.0037 81.1278 59.4236 81.24 59.8175L91.3699 59.8348C91.4821 59.438 91.5857 59.0181 91.6807 58.5954L80.935 58.5781Z" fill="black"/>
<path d="M81.3781 60.2866C81.4501 60.508 81.5191 60.7151 81.5968 60.9078L91.0104 60.9221C91.088 60.7324 91.16 60.5224 91.229 60.3039L81.3781 60.2866Z" fill="black"/>
<path d="M80.7024 57.4131C80.7398 57.6144 80.78 57.8214 80.8232 58.0314L91.7932 58.0486C91.8393 57.8387 91.8767 57.6316 91.9141 57.4303L80.7024 57.4131Z" fill="black"/>
</g>
<path d="M117.082 73.5062C114.676 74.6766 110.464 73.1956 100.395 69.9202C98.9996 69.4688 99.9116 58.5843 101.428 58.9927C103.335 59.5045 110.634 61.9086 111.141 62.1559C115.439 64.2034 118.713 72.7125 117.082 73.5062Z" fill="#EB9481"/>
<path d="M88.9475 58.9812C88.9159 60.2522 92.0518 60.0653 92.0518 60.0653C91.5882 60.3564 91.2419 60.8013 91.0736 61.322C90.8176 62.2537 92.1669 63.0474 92.1669 63.0474C91.7492 63.4513 91.4625 63.9712 91.344 64.5399C91.1916 65.4544 92.4344 66.4637 92.4344 66.4637C92.2645 67.0457 92.3011 67.6684 92.538 68.2265C93.6888 70.6766 100.689 70.8463 102.697 70.4724L105.574 60.5197C105.574 60.5197 99.7852 56.6088 96.9427 56.4362C95.3575 56.3356 88.9964 57.0286 88.9475 58.9812Z" fill="#EB9481"/>
<path d="M92.0832 60.0155C93.7518 59.5669 95.5356 59.518 97.2359 59.4893C97.2435 59.4893 97.2508 59.4923 97.2562 59.4977C97.2616 59.5031 97.2646 59.5104 97.2646 59.518C97.2646 59.5256 97.2616 59.533 97.2562 59.5383C97.2508 59.5437 97.2435 59.5468 97.2359 59.5468C95.5356 59.6762 93.7835 60.0184 92.0947 60.096C92.084 60.0976 92.0731 60.0948 92.0645 60.0883C92.0559 60.0818 92.0502 60.0722 92.0486 60.0615C92.0471 60.0508 92.0499 60.04 92.0564 60.0314C92.0628 60.0227 92.0725 60.017 92.0832 60.0155Z" fill="#263238"/>
<path d="M92.1926 63.0067C92.5812 62.9407 92.9769 62.9262 93.3693 62.9636C93.7865 62.9636 94.2036 62.9981 94.6208 63.0268C95.4551 63.0813 96.2866 63.1559 97.118 63.2564C97.1526 63.2564 97.1554 63.3167 97.118 63.3138C96.2866 63.2593 95.4551 63.2191 94.6208 63.2019C94.2036 63.2019 93.7865 63.1847 93.3722 63.1818C92.9778 63.204 92.5823 63.1828 92.1926 63.1186C92.1799 63.1157 92.1685 63.1086 92.1604 63.0985C92.1523 63.0883 92.1478 63.0757 92.1478 63.0627C92.1478 63.0497 92.1523 63.037 92.1604 63.0269C92.1685 63.0167 92.1799 63.0096 92.1926 63.0067Z" fill="#263238"/>
<path d="M92.4685 66.4571C92.821 66.4035 93.18 66.4103 93.5301 66.4771L94.6809 66.569C95.4405 66.6264 96.2 66.6838 96.9595 66.7154C96.9998 66.7154 96.9998 66.7757 96.9595 66.7757C96.1856 66.747 95.4117 66.7297 94.6378 66.6953L93.487 66.6379C93.1388 66.6511 92.791 66.6025 92.4599 66.4944C92.4599 66.4944 92.4513 66.4571 92.4685 66.4571Z" fill="#263238"/>
<path d="M103.401 58.4692L106.117 73.7707C106.117 73.7707 115.899 75.1108 117.824 73.4832C119.188 72.3185 116.008 64.1315 111.224 61.8712L103.401 58.4692Z" fill="#F47D21"/>
<path d="M115.914 66.5352C115.543 65.5604 113.969 63.2081 111.224 61.8594C111.198 61.8594 111.175 61.8824 111.198 61.8968C113.146 63.0988 115.439 65.6351 115.876 66.5554C115.888 66.5812 115.922 66.5611 115.914 66.5352Z" fill="#263238"/>
<path d="M108.462 71.9011C108.315 70.4057 108.091 68.9219 107.861 67.438C107.63 65.9542 107.406 64.4646 107.138 62.9836C106.989 62.1497 106.851 61.31 106.664 60.4789C106.664 60.4588 106.621 60.4616 106.623 60.4789C106.767 61.9714 106.989 63.4581 107.199 64.9419C107.409 66.4258 107.653 67.9154 107.901 69.3992C108.042 70.2361 108.189 71.0729 108.378 71.904C108.396 71.95 108.465 71.9442 108.462 71.9011Z" fill="#263238"/>
<path d="M103.459 58.3514C104.019 58.5195 104.568 58.7241 105.102 58.9639C105.64 59.1911 106.178 59.424 106.71 59.6655C107.772 60.14 110.076 61.0315 111.848 62.199C111.866 62.2134 111.704 62.2421 111.684 62.2278C110.87 61.6296 104.029 58.8575 103.508 58.567C103.508 58.6102 103.655 59.5879 103.646 59.6339C103.637 59.6799 103.594 59.6799 103.58 59.6339C103.545 59.5505 103.384 58.5383 103.355 58.4549C103.352 58.4406 103.352 58.4257 103.356 58.4116C103.361 58.3976 103.368 58.3847 103.378 58.3744C103.389 58.364 103.402 58.3565 103.416 58.3525C103.43 58.3484 103.445 58.348 103.459 58.3514Z" fill="#263238"/>
<path d="M105.683 71.3262C105.787 72.1716 105.908 73.0142 106.031 73.8568C107.329 74.0552 108.621 74.1932 109.941 74.2939C111.863 74.4204 113.814 74.4923 115.727 74.1904C115.937 74.1501 116.147 74.1012 116.357 74.0552C114.657 74.268 112.945 74.1673 111.242 74.0839C109.538 74.0006 107.829 73.8395 106.132 73.6727L106.215 73.7532C106.046 72.9423 105.873 72.1314 105.683 71.3262Z" fill="#263238"/>
<path d="M33.0215 76.1775C35.769 73.7188 47.1965 69.2586 47.7776 68.9883C48.33 68.8071 52.775 68.2464 52.775 68.2464C52.9045 68.2723 64.5851 63.0098 64.5851 63.0098L68.4604 76.6319L54.3948 80.8361C54.3948 80.8361 42.4465 85.003 38.928 84.98C36.635 84.957 31.4909 77.5492 33.0215 76.1775Z" fill="#EB9481"/>
<path d="M38.9275 84.9742C42.4461 84.9972 54.3943 80.8361 54.3943 80.8361L57.4468 79.9245L54.6302 67.4556C53.5513 67.9301 52.8234 68.2435 52.7774 68.2435C52.7774 68.2435 48.3295 68.8043 47.78 68.9854C47.2046 69.273 35.7685 73.7246 33.021 76.1746C31.4904 77.5492 36.6345 84.957 38.9275 84.9742Z" fill="#EBEBEB"/>
<path d="M38.9282 84.974C42.4468 84.9971 54.395 80.8359 54.395 80.8359L55.4365 80.5254C55.0942 79.562 54.2109 77.0429 53.8312 75.7287C53.3507 74.0781 52.7782 68.252 52.7782 68.252C52.7782 68.252 48.3303 68.8127 47.7808 68.9939C47.2054 69.2814 35.7693 73.733 33.0218 76.1831C31.4912 77.549 36.6353 84.9568 38.9282 84.974Z" fill="#F47D21"/>
<path d="M40.044 84.0331C40.4525 81.9396 40.044 79.7599 39.2701 78.4543C38.5364 77.2034 37.4058 76.0474 36.0018 75.8662C35.9615 75.8662 35.9442 75.9582 35.9845 75.9726C38.5335 76.9158 40.3317 80.4529 39.9605 84.0044C39.9519 84.0907 40.0296 84.105 40.044 84.0331Z" fill="#263238"/>
<path d="M49.7106 79.3695C49.8573 77.5722 49.3624 75.4413 47.9642 74.222C47.9124 74.176 47.8434 74.2536 47.8693 74.3083C48.5891 75.9421 49.1312 77.6486 49.4862 79.3982C49.4944 79.4238 49.5113 79.4456 49.534 79.46C49.5567 79.4744 49.5837 79.4804 49.6103 79.477C49.6369 79.4736 49.6615 79.4609 49.6799 79.4413C49.6982 79.4217 49.709 79.3963 49.7106 79.3695Z" fill="#263238"/>
<path d="M48.4308 79.9881C48.5775 78.1879 48.0827 76.057 46.6844 74.8377C46.6298 74.7917 46.5636 74.8693 46.5895 74.924C47.3072 76.5547 47.8493 78.2571 48.2064 80.0024C48.2136 80.0277 48.2292 80.0497 48.2507 80.0648C48.2722 80.0799 48.2982 80.0872 48.3244 80.0856C48.3506 80.0839 48.3754 80.0733 48.3948 80.0556C48.4141 80.0378 48.4268 80.014 48.4308 79.9881Z" fill="#263238"/>
<path d="M47.15 80.6028C47.2967 78.8026 46.8019 76.6718 45.4037 75.4525C45.349 75.4065 45.2828 75.4841 45.3087 75.5387C46.0225 77.1698 46.5607 78.8722 46.9141 80.6172C46.916 80.6485 46.9303 80.6777 46.9537 80.6985C46.9772 80.7192 47.008 80.7298 47.0392 80.7279C47.0705 80.726 47.0998 80.7117 47.1206 80.6883C47.1413 80.6648 47.1519 80.6341 47.15 80.6028Z" fill="#263238"/>
<path d="M45.8702 81.2185C46.017 79.4183 45.5221 77.2875 44.1239 76.0682C44.0692 76.0222 44.0031 76.0998 44.0289 76.1545C44.7467 77.7851 45.2887 79.4875 45.6458 81.2329C45.6531 81.2581 45.6687 81.2801 45.6902 81.2953C45.7116 81.3104 45.7376 81.3177 45.7638 81.316C45.79 81.3144 45.8149 81.3038 45.8342 81.286C45.8536 81.2683 45.8663 81.2445 45.8702 81.2185Z" fill="#263238"/>
<path d="M52.2716 80.2616C50.9597 79.3615 50.085 77.9236 49.1241 76.6929C49.1053 76.6635 49.0936 76.6301 49.0901 76.5954C49.0866 76.5607 49.0914 76.5257 49.104 76.4932C49.1166 76.4607 49.1368 76.4316 49.1628 76.4083C49.1888 76.385 49.2199 76.3682 49.2536 76.3593C49.2512 76.3522 49.2507 76.3446 49.2519 76.3372C49.2531 76.3299 49.2561 76.3229 49.2607 76.317C49.2652 76.311 49.2711 76.3063 49.2779 76.3031C49.2847 76.3 49.2922 76.2985 49.2996 76.2989C50.9609 76.3377 52.5829 76.8117 54.0035 77.6735C54.8206 78.1911 55.6262 79.2982 54.9213 80.2616C54.2567 81.1444 53.0369 80.7734 52.2716 80.2616ZM53.7705 80.2616C55.7211 79.974 54.1128 78.286 53.4828 77.9294C53.0792 77.7095 52.661 77.5174 52.2313 77.3543C51.3363 77.0209 50.4251 76.733 49.501 76.4916C50.0102 77.0667 50.4648 77.6821 50.9539 78.2774C51.5466 78.956 52.6945 80.4054 53.7705 80.2616Z" fill="#263238"/>
<path d="M50.0274 69.6608C51.2127 69.7327 51.5436 71.0613 51.4141 72.0218C51.1634 73.663 50.4847 75.2092 49.4462 76.505C49.4421 76.5115 49.4364 76.5169 49.4296 76.5206C49.4228 76.5243 49.4152 76.5263 49.4074 76.5263C49.3997 76.5263 49.392 76.5243 49.3853 76.5206C49.3785 76.5169 49.3727 76.5115 49.3686 76.505C49.3403 76.5252 49.3076 76.5384 49.2731 76.5434C49.2387 76.5485 49.2036 76.5452 49.1707 76.534C49.1378 76.5227 49.108 76.5038 49.0839 76.4787C49.0597 76.4537 49.0419 76.4232 49.032 76.3899C48.704 74.8601 48.1689 73.2669 48.3185 71.6853C48.4077 70.7709 48.9054 69.589 50.0274 69.6608ZM49.0118 73.9744C49.1528 74.7307 49.3312 75.4726 49.4462 76.2347C49.8551 75.3718 50.22 74.4888 50.5395 73.589C50.6864 73.1505 50.8046 72.7028 50.8934 72.249C51.0171 71.5473 50.7582 69.2352 49.2823 70.5408C48.4681 71.2597 48.8392 73.0714 49.0118 73.9715V73.9744Z" fill="#263238"/>
<path d="M47.9963 69.123C44.5007 70.6357 40.7462 72.3294 37.3053 73.9571C36.0567 74.6041 34.8109 75.2281 33.6227 75.9844C33.4662 76.0742 33.3285 76.1933 33.2171 76.3353C33.162 76.463 33.1289 76.5991 33.1192 76.7379C33.0991 77.914 33.6544 78.9464 34.1694 79.9557C35.2137 81.8709 36.7414 83.812 38.8071 84.6632C38.546 84.5653 38.2992 84.4328 38.0734 84.2693C36.4863 83.1303 35.2103 81.6116 34.3621 79.8522C33.8932 78.8428 33.2516 77.707 33.4098 76.5768C33.453 76.3726 33.6083 76.3324 33.7694 76.2058C36.2408 74.6932 39.3307 73.2957 41.9632 72.0419C43.4678 71.3287 46.5002 69.8592 48.0049 69.123H47.9963Z" fill="#263238"/>
<path d="M111.475 77.1786C111.475 77.1786 111.475 86.5849 108.126 89.5009C105.309 91.9481 98.5482 94.4183 91.7268 91.4132C86.0419 88.8883 78.8493 76.5229 77.3101 75.249C76.8326 74.8521 67.9138 79.0621 58.5003 81.8257L55.1917 64.9598C56.6762 64.6722 78.0783 56.9568 82.4255 57.5463C89.2526 58.4751 99.1927 74.4927 99.1927 74.4927L111.475 77.1786Z" fill="#263238"/>
<path d="M102.82 75.7576C102.82 75.7087 102.9 75.7231 102.9 75.7576C102.897 77.0541 103.345 78.3115 104.166 79.3148C105.099 80.4162 106.468 81.0402 107.719 81.6757C107.84 81.739 107.74 81.8281 107.616 81.7908C106.855 81.5862 106.12 81.2968 105.424 80.9281C104.783 80.5762 104.22 80.0978 103.769 79.5218C103.364 78.9918 103.07 78.3846 102.907 77.7374C102.744 77.0902 102.714 76.4166 102.82 75.7576Z" fill="#37474F"/>
<path d="M61.9176 80.0076C61.2185 77.0169 61.3796 77.8853 60.7121 74.8889C60.387 73.4194 58.7299 66.049 58.6522 64.6313C58.6522 64.6237 58.6552 64.6164 58.6606 64.611C58.666 64.6056 58.6733 64.6025 58.681 64.6025C58.6886 64.6025 58.6959 64.6056 58.7013 64.611C58.7067 64.6164 58.7097 64.6237 58.7097 64.6313C59.219 65.957 60.7236 73.3619 61.0113 74.8342C61.6242 77.8451 61.417 76.9881 61.9982 80.0104C62.0004 80.0171 62.0011 80.0241 62 80.031C61.9989 80.038 61.9962 80.0445 61.992 80.0501C61.9878 80.0557 61.9823 80.0603 61.976 80.0633C61.9697 80.0663 61.9628 80.0678 61.9558 80.0675C61.9488 80.0673 61.942 80.0653 61.9359 80.0619C61.9298 80.0584 61.9247 80.0535 61.9209 80.0476C61.9172 80.0417 61.9149 80.035 61.9143 80.028C61.9137 80.021 61.9149 80.014 61.9176 80.0076Z" fill="#37474F"/>
<path d="M99.0572 74.4404C99.8944 75.6108 100.573 76.8301 101.434 77.9833C100.933 76.6518 100.182 75.3376 99.0572 74.4404Z" fill="#37474F"/>
<path d="M110.108 77.8483C109.918 79.2056 109.696 80.5543 109.435 81.8973C109.197 83.2415 108.855 84.5654 108.413 85.8571C108.179 86.4913 107.795 87.0596 107.294 87.5135C104.506 90.0441 99.4745 91.2864 95.8638 90.1246C90.9039 88.2324 86.3697 81.2675 83.4093 76.9367C82.6526 75.7865 81.919 74.6362 81.1566 73.5032C80.9638 73.2156 80.7682 72.928 80.5582 72.6606C80.4028 72.4593 80.164 72.1372 79.8533 72.2005C79.0825 72.3386 78.3284 72.5573 77.6035 72.8533C75.0372 73.8166 72.5227 74.8979 69.9823 75.9216C67.4419 76.9454 64.9187 78.0151 62.2719 78.7254C64.9303 78.064 67.485 77.0402 70.0398 76.0625C73.2304 74.8662 76.3462 73.3795 79.6289 72.4823C79.7647 72.4467 79.9074 72.4467 80.0432 72.4823C80.1617 72.5838 80.267 72.6997 80.3568 72.8274C81.3608 74.2048 82.2355 75.6772 83.1849 77.0978C86.1568 81.5033 90.7111 88.4567 95.7833 90.3748C99.4716 91.5625 104.59 90.2511 107.412 87.6458C108.477 86.7025 108.805 85.2647 109.11 83.939C109.556 81.926 109.855 79.8987 110.108 77.8598V77.8483Z" fill="#37474F"/>
<path d="M58.0887 79.7262L58.4685 81.834V81.8657H58.503C61.7425 80.9656 64.936 79.893 68.0777 78.7024C70.6008 77.7678 74.3495 76.1143 76.9072 75.4127C77.0087 75.3873 77.1135 75.3777 77.2179 75.3839C77.2179 75.3666 77.2438 75.404 77.2438 75.404C77.8365 76.0539 78.3762 76.7501 78.8578 77.486C82.2297 82.2395 85.59 87.3122 90.4263 90.7142C86.3697 87.6889 83.4208 83.4904 80.515 79.4098C79.8072 78.4206 78.7053 76.7383 77.9659 75.8009C77.8012 75.5835 77.6194 75.3797 77.4222 75.1912C77.3936 75.1617 77.358 75.1399 77.3186 75.128C77.1645 75.0937 77.0043 75.0987 76.8525 75.1423C76.2327 75.2944 75.6234 75.4865 75.0285 75.7175C73.4232 76.2926 69.6284 77.8483 67.9885 78.4867C64.9389 79.7492 61.5066 80.8247 58.526 81.8484L58.0829 79.7549L58.0887 79.7262Z" fill="#37474F"/>
<path d="M124.812 101.116C126.711 96.1954 130.531 93.4261 135.169 94.3809C139.807 95.3356 141.07 101.599 137.828 103.485C134.585 105.372 130.788 100.995 128.909 100.187C127.03 99.3788 124.812 101.116 124.812 101.116Z" fill="#F47D21"/>
<path d="M123.656 113.883C123.618 113.308 123.592 112.733 123.564 112.158C123.509 111.008 123.449 109.878 123.397 108.736C123.296 106.648 123.348 104.586 124.047 102.596C124.662 100.796 125.81 99.2246 127.338 98.0902C127.909 97.6782 128.535 97.3472 129.197 97.1067C129.755 96.4355 130.497 95.9417 131.332 95.6861C132.364 95.3843 133.441 95.2656 134.514 95.3353C134.554 95.3353 134.557 95.3985 134.514 95.3957C133.487 95.3509 132.462 95.5112 131.498 95.8673C131.088 96.0187 130.693 96.2114 130.322 96.4424C130.092 96.5924 129.872 96.7587 129.666 96.9399C130.565 96.6722 131.511 96.6016 132.439 96.7329C132.775 96.7828 133.106 96.8617 133.429 96.9687C133.671 96.8904 133.923 96.8468 134.177 96.8393C134.51 96.821 134.844 96.8403 135.172 96.8968C135.845 97.0243 136.497 97.2449 137.109 97.5524C137.143 97.5524 137.109 97.6214 137.08 97.6042C136.482 97.3407 135.849 97.1625 135.201 97.0751C134.888 97.0301 134.571 97.0108 134.255 97.0175C134.079 97.0175 133.904 97.0434 133.731 97.0636C135.075 97.5507 136.202 98.4983 136.913 99.738C136.933 99.7696 136.881 99.8041 136.864 99.7696C136.053 98.2915 134.514 97.3655 132.871 97.0923C132.77 97.0751 132.666 97.0722 132.563 97.0607C132.601 97.2102 132.63 97.3619 132.649 97.515C132.701 97.7422 132.759 97.9694 132.825 98.1908C132.959 98.6517 133.122 99.104 133.311 99.5453C133.503 99.9911 133.725 100.423 133.976 100.839C134.213 101.282 134.503 101.694 134.839 102.067C134.87 102.099 134.821 102.142 134.795 102.108C134.485 101.702 134.137 101.337 133.849 100.914C133.575 100.511 133.331 100.088 133.121 99.6488C132.91 99.2025 132.735 98.7399 132.597 98.2656C132.526 98.0154 132.465 97.7624 132.413 97.5064C132.369 97.3551 132.346 97.1983 132.344 97.0406C131.804 97.0059 131.262 97.0407 130.73 97.1441C131.018 98.2541 131.343 99.4101 132.059 100.336C132.082 100.368 132.031 100.402 132.008 100.371C131.668 99.8762 131.362 99.3593 131.093 98.8235C130.837 98.3035 130.658 97.7496 130.561 97.1786C129.634 97.384 128.756 97.7636 127.971 98.2972C126.498 99.3294 125.375 100.787 124.755 102.476C124.05 104.296 123.869 106.214 123.912 108.144C123.966 110.571 124.142 113.003 124.105 115.433C124.105 115.592 123.857 115.666 123.817 115.491C123.713 114.961 123.659 114.423 123.656 113.883Z" fill="#263238"/>
<path d="M127.634 97.6875C127.77 97.4915 127.932 97.3145 128.115 97.1612C128.289 96.9883 128.471 96.8242 128.662 96.6695C129.037 96.3627 129.461 96.1206 129.916 95.9535C129.919 95.9521 129.923 95.9515 129.927 95.9517C129.931 95.9518 129.935 95.9527 129.938 95.9543C129.945 95.9576 129.951 95.9635 129.953 95.9707C129.956 95.978 129.956 95.986 129.952 95.993C129.949 96 129.943 96.0054 129.936 96.0081C129.477 96.1688 129.056 96.4223 128.699 96.7529C128.521 96.9082 128.348 97.0778 128.181 97.2475C128.037 97.4298 127.873 97.5956 127.692 97.7421C127.684 97.7478 127.675 97.7506 127.666 97.75C127.656 97.7494 127.647 97.7455 127.64 97.739C127.633 97.7325 127.629 97.7237 127.628 97.7143C127.627 97.7049 127.629 97.6954 127.634 97.6875Z" fill="#263238"/>
<path d="M135.12 98.778C135.536 99.1896 135.928 99.6256 136.294 100.084C136.649 100.547 136.956 101.046 137.208 101.573C137.208 101.588 137.191 101.599 137.183 101.588C136.569 100.603 135.865 99.6775 135.08 98.824C135.051 98.7952 135.091 98.7521 135.12 98.778Z" fill="#263238"/>
<path d="M130.131 98.7313C130.205 99.0222 130.317 99.3018 130.465 99.5624C130.612 99.816 130.78 100.057 130.966 100.284C130.966 100.299 130.966 100.319 130.943 100.304C130.509 99.8824 130.209 99.3424 130.08 98.7515C130.06 98.7141 130.123 98.694 130.131 98.7313Z" fill="#263238"/>
<path d="M125.129 101.197C125.129 101.197 122.177 96.8572 115.779 97.8349C109.694 98.7609 106.109 109.513 112.039 111.279C117.968 113.044 117.683 102.824 120.014 101.271C121.737 100.13 124.039 100.575 125.129 101.197Z" fill="#F47D21"/>
<path d="M110.468 103.45C110.905 103.123 111.362 102.824 111.838 102.556C112.289 102.3 112.773 102.106 113.276 101.981C114.047 100.974 115.046 100.164 116.191 99.6196C116.127 99.6196 116.067 99.5995 116.004 99.5937C115.671 99.5544 115.337 99.5324 115.002 99.5276C114.329 99.5195 113.659 99.6335 113.026 99.864C113.019 99.8645 113.012 99.8627 113.006 99.8589C113.001 99.855 112.996 99.8494 112.994 99.8429C112.992 99.8364 112.992 99.8293 112.994 99.8228C112.996 99.8162 113 99.8105 113.006 99.8065C113.648 99.5864 114.313 99.4397 114.988 99.3694C115.316 99.3392 115.647 99.3392 115.975 99.3694C116.153 99.3838 116.329 99.4097 116.501 99.4384L116.602 99.4557C117.201 99.2077 117.826 99.0302 118.466 98.9266L118.294 98.8633C117.991 98.7736 117.684 98.6997 117.373 98.6419C116.753 98.5217 116.119 98.483 115.489 98.5269C115.451 98.5269 115.445 98.4693 115.489 98.4693C116.125 98.4396 116.763 98.4617 117.396 98.5355C117.928 98.59 118.454 98.6989 118.964 98.8604C119.346 98.8194 119.731 98.804 120.115 98.8144C122.316 98.8863 124.643 99.8871 125.869 101.791C127.094 103.694 127.166 106.122 127.241 108.316C127.38 111.376 127.229 114.443 126.792 117.475C126.764 117.653 126.505 117.601 126.522 117.429C126.634 114.841 126.738 112.252 126.686 109.664C126.66 108.462 126.623 107.255 126.516 106.058C126.448 105.03 126.23 104.018 125.869 103.053C125.475 102.064 124.796 101.215 123.918 100.612C123.036 100.016 122.033 99.6229 120.981 99.4614C120.038 99.3131 119.076 99.3307 118.138 99.5132C118.158 99.6994 118.15 99.8876 118.112 100.071C118.075 100.304 118.012 100.532 117.923 100.75C117.837 100.955 117.734 101.152 117.615 101.339C117.482 101.546 117.327 101.727 117.175 101.914C117.151 101.946 117.103 101.914 117.128 101.877C117.412 101.527 117.61 101.115 117.704 100.675C117.759 100.466 117.801 100.254 117.828 100.039C117.848 99.8784 117.848 99.7145 117.865 99.5535C116.844 99.7853 115.876 100.207 115.011 100.796C114.847 100.905 114.692 101.023 114.536 101.147C114.729 101.355 114.892 101.589 115.02 101.843C115.213 102.173 115.376 102.52 115.506 102.881C115.743 103.603 115.882 104.353 115.92 105.112C115.92 105.15 115.863 105.155 115.863 105.112C115.795 104.375 115.6 103.655 115.287 102.984C115.145 102.653 114.982 102.332 114.801 102.021C114.706 101.863 114.605 101.704 114.513 101.552C114.459 101.469 114.398 101.385 114.346 101.296C113.552 101.963 112.883 102.768 112.373 103.671C112.648 104.006 112.871 104.382 113.032 104.784C113.227 105.207 113.392 105.642 113.526 106.087C113.766 106.948 113.951 107.823 114.082 108.707C114.08 108.713 114.076 108.719 114.07 108.723C114.065 108.727 114.058 108.729 114.052 108.729C114.045 108.729 114.038 108.727 114.033 108.723C114.027 108.719 114.023 108.713 114.021 108.707C113.896 107.819 113.661 106.949 113.322 106.119C113.164 105.71 112.994 105.308 112.813 104.908C112.622 104.535 112.453 104.151 112.307 103.758C111.816 104.643 111.498 105.613 111.369 106.616C111.369 106.654 111.303 106.642 111.308 106.616C111.544 105.046 112.143 103.552 113.058 102.254C112.66 102.389 112.263 102.518 111.878 102.688C111.386 102.902 110.923 103.178 110.5 103.508C110.474 103.525 110.437 103.473 110.468 103.45Z" fill="#263238"/>
<path d="M115.062 104.031C115.206 104.667 115.396 105.288 115.52 105.926C115.647 106.541 115.694 107.169 115.658 107.796C115.658 107.799 115.656 107.803 115.653 107.806C115.651 107.808 115.647 107.81 115.643 107.81C115.639 107.81 115.636 107.808 115.633 107.806C115.63 107.803 115.629 107.799 115.629 107.796C115.553 106.531 115.344 105.278 115.005 104.057C115.001 104.05 115.001 104.041 115.004 104.033C115.007 104.025 115.013 104.019 115.02 104.015C115.028 104.012 115.037 104.012 115.044 104.015C115.052 104.018 115.059 104.024 115.062 104.031Z" fill="#263238"/>
<path d="M111.195 102.191C111.454 101.971 111.745 101.792 112.058 101.659C112.38 101.541 112.711 101.452 113.048 101.392C113.085 101.392 113.094 101.446 113.048 101.449C112.717 101.51 112.395 101.615 112.093 101.763C111.784 101.894 111.484 102.048 111.198 102.223C111.195 102.221 111.193 102.219 111.191 102.216C111.19 102.214 111.189 102.211 111.189 102.208C111.188 102.205 111.189 102.201 111.19 102.199C111.191 102.196 111.193 102.193 111.195 102.191Z" fill="#263238"/>
<path d="M121.668 96.3649C121.668 96.3649 121.064 88.9888 115.578 86.5876C110.995 84.5919 108.385 89.7509 111.613 92.8882C114.237 95.4534 118.435 94.3031 121.668 96.3649Z" fill="#F47D21"/>
<path d="M112.625 88.0256C113.46 88.3611 114.275 88.7452 115.065 89.1759C115.723 89.5545 116.356 89.9742 116.961 90.4326C116.869 90.2457 116.791 90.0501 116.699 89.8574C116.555 89.5699 116.412 89.2823 116.233 89.0235C115.894 88.4661 115.489 87.9523 115.025 87.4936C114.996 87.4677 115.025 87.4246 115.068 87.4534C115.531 87.9114 115.956 88.4057 116.34 88.9315C116.529 89.2003 116.703 89.4797 116.86 89.7683C117.024 90.0367 117.148 90.3272 117.229 90.631L117.289 90.6741C118.247 91.4373 119.125 92.2958 119.91 93.2364C119.91 93.1645 119.881 93.0926 119.861 93.0264C119.758 92.667 119.648 92.3104 119.527 91.9538C119.292 91.1969 118.96 90.4737 118.538 89.8028C118.518 89.7712 118.569 89.7395 118.589 89.774C119.023 90.4453 119.407 91.1469 119.74 91.8733C119.894 92.2265 120.021 92.5908 120.12 92.9632C120.201 93.2039 120.26 93.4512 120.298 93.7022C120.537 94.007 120.773 94.3119 120.995 94.6253C123.351 97.9784 124.533 102.033 124.815 106.088C124.902 107.301 124.925 108.518 124.881 109.734C124.873 110.956 124.766 112.176 124.562 113.381C124.545 113.455 124.427 113.432 124.43 113.358C124.456 112.294 124.565 111.232 124.588 110.165C124.611 109.099 124.571 108.026 124.484 106.962C124.309 104.83 123.905 102.724 123.279 100.679C122.642 98.5862 121.701 96.5982 120.488 94.7777C120.258 94.7317 120.028 94.6684 119.801 94.6109C119.513 94.539 119.254 94.47 118.981 94.3924C118.453 94.2563 117.941 94.0685 117.45 93.8316C117.416 93.8144 117.45 93.7626 117.482 93.7799C117.965 94.0442 118.489 94.225 119.032 94.3147C119.464 94.401 119.896 94.4585 120.339 94.5563C119.943 93.9756 119.518 93.416 119.064 92.8798C118.018 92.9738 116.963 92.8951 115.943 92.6468C115.4 92.5172 114.866 92.351 114.346 92.1494C113.796 91.9394 113.276 91.6662 112.732 91.4391C112.692 91.4218 112.732 91.3614 112.758 91.3844C113.687 91.9596 114.858 92.2471 115.922 92.4197C116.901 92.5758 117.889 92.6575 118.88 92.6641C118.492 92.2184 118.089 91.7813 117.66 91.3729C116.222 90.0012 114.495 88.7417 112.608 88.0831C112.571 88.0803 112.591 88.0256 112.625 88.0256Z" fill="#263238"/>
<path d="M117.091 88.057C117.338 88.3687 117.563 88.6973 117.764 89.0405C117.969 89.4037 118.131 89.7898 118.247 90.1908H118.224C118.043 89.8284 117.887 89.4546 117.703 89.0922C117.522 88.7377 117.302 88.404 117.047 88.0973C117.021 88.0685 117.067 88.0254 117.091 88.057Z" fill="#263238"/>
<path d="M111.989 90.5127C112.346 90.7089 112.723 90.8661 113.114 90.9814C113.491 91.1057 113.876 91.2084 114.265 91.2891C114.282 91.2891 114.265 91.3236 114.265 91.3208C113.861 91.2791 113.464 91.1923 113.079 91.0619C112.699 90.9192 112.328 90.753 111.969 90.5645C111.934 90.5472 111.955 90.4926 111.989 90.5127Z" fill="#263238"/>
<path d="M125.903 92.7904C125.937 93.1096 126.734 90.1131 131.369 87.4502C135.584 85.0347 140.61 78.7513 136.481 74.78C133.15 71.5765 124.366 78.5615 125.903 92.7904Z" fill="#F47D21"/>
<path d="M122.712 109.969C122.778 106.85 123.022 103.738 123.443 100.646C123.811 97.8069 124.468 95.0126 125.405 92.3069C125.75 91.332 126.144 90.3744 126.556 89.4312C126.532 89.0632 126.539 88.6939 126.576 88.3269C126.599 87.8553 126.642 87.3837 126.685 86.915C126.728 86.4463 126.777 85.9718 126.832 85.503C126.886 85.0343 126.987 84.5655 127.007 84.0968C127.007 84.0892 127.01 84.0819 127.016 84.0765C127.021 84.0711 127.028 84.0681 127.036 84.0681C127.044 84.0681 127.051 84.0711 127.056 84.0765C127.062 84.0819 127.065 84.0892 127.065 84.0968C126.973 84.5895 126.918 85.0884 126.901 85.5893C126.863 86.0465 126.838 86.5009 126.823 86.9552C126.809 87.4096 126.823 87.8697 126.823 88.3269C126.823 88.4909 126.823 88.6663 126.823 88.8417C127.26 87.9196 127.73 87.0156 128.233 86.1299C127.919 84.2061 128.328 82.196 128.722 80.3182C128.722 80.2779 128.785 80.2952 128.78 80.3354C128.586 81.317 128.483 82.3143 128.472 83.3146C128.454 84.1026 128.492 84.8934 128.495 85.6813C128.607 85.4944 128.716 85.3046 128.831 85.1062C129.434 84.1227 130.076 83.1641 130.759 82.2305C130.704 81.7747 130.719 81.3132 130.802 80.8617C130.878 80.3548 130.991 79.8541 131.139 79.3634C131.288 78.8717 131.458 78.3886 131.654 77.9256C131.849 77.4626 132.123 76.9766 132.315 76.4878C132.333 76.4475 132.393 76.4878 132.37 76.5136C132.126 76.9765 131.933 77.4644 131.795 77.9687C131.641 78.4404 131.514 78.9205 131.415 79.4066C131.317 79.8954 131.236 80.3843 131.167 80.8789C131.124 81.2039 131.096 81.5432 131.038 81.871C132.031 80.5377 133.116 79.276 134.286 78.0953C134.315 78.0665 134.352 78.0953 134.329 78.1384C132.56 80.124 130.98 82.2709 129.611 84.5512C129.559 84.6374 129.513 84.7237 129.461 84.81C129.717 84.6489 130.011 84.5224 130.253 84.3873C130.701 84.1361 131.152 83.8888 131.605 83.6453C132.045 83.4095 132.468 83.168 132.92 82.9264C133.144 82.8028 133.365 82.6734 133.596 82.5555C133.869 82.4313 134.132 82.2852 134.381 82.1183C134.416 82.0925 134.453 82.1471 134.416 82.1672C133.97 82.4117 133.576 82.7769 133.144 83.0529C132.712 83.329 132.281 83.5964 131.818 83.8466C130.995 84.3067 130.091 84.6374 129.286 85.1119C128.71 86.0983 128.204 87.1105 127.727 88.14C128.219 87.8237 128.722 87.5246 129.231 87.2371C129.562 87.053 129.89 86.8718 130.224 86.6964C130.556 86.5404 130.87 86.3475 131.159 86.1213C131.165 86.116 131.172 86.1131 131.18 86.1134C131.188 86.1137 131.195 86.117 131.201 86.1227C131.206 86.1285 131.209 86.1361 131.208 86.1439C131.208 86.1517 131.205 86.1591 131.199 86.1644C130.66 86.6503 130.061 87.0667 129.418 87.4038C128.823 87.7518 128.219 88.0883 127.6 88.3902C127.105 89.4772 126.657 90.5834 126.256 91.7087C124.306 97.2358 123.587 103.102 123.244 108.928C123.143 110.654 123.089 112.402 123.069 114.142C123.049 115.882 123.155 117.624 123.155 119.37C123.155 119.422 123.072 119.433 123.063 119.37C122.856 117.829 122.818 116.261 122.749 114.711C122.68 113.161 122.675 111.551 122.712 109.969Z" fill="#263238"/>
<path d="M131.139 84.9511C131.987 84.5789 132.81 84.1534 133.604 83.6772C134.41 83.225 135.191 82.7297 135.943 82.1934C135.943 82.1934 135.972 82.1934 135.961 82.2135C135.249 82.7888 134.498 83.3144 133.714 83.7865C132.891 84.2447 132.04 84.6519 131.168 85.0058C131.133 85.0202 131.104 84.9684 131.139 84.9511Z" fill="#263238"/>
<path d="M129.795 78.7054C129.865 78.4351 129.948 78.1705 130.04 77.9089C130.036 77.9046 130.034 77.8989 130.034 77.893C130.034 77.8872 130.036 77.8815 130.04 77.8772C130.098 77.7277 130.161 77.5897 130.221 77.4315C130.227 77.413 130.234 77.3947 130.241 77.3769L130.276 77.2935C130.276 77.2935 130.296 77.2935 130.293 77.2935C130.276 77.3452 130.264 77.397 130.247 77.4487C130.23 77.5005 130.247 77.5034 130.221 77.5321C129.915 78.5684 129.685 79.6256 129.534 80.6954C129.534 80.7299 129.479 80.7299 129.479 80.6954C129.52 80.0235 129.626 79.3571 129.795 78.7054Z" fill="#263238"/>
</g>
</g>
<defs>
<filter id="filter0_d_1318_2088" x="-2" y="0" width="144" height="116" filterUnits="userSpaceOnUse" color-interpolation-filters="sRGB">
<feFlood flood-opacity="0" result="BackgroundImageFix"/>
<feColorMatrix in="SourceAlpha" type="matrix" values="0 0 0 0 0 0 0 0 0 0 0 0 0 0 0 0 0 0 127 0" result="hardAlpha"/>
<feOffset dy="2"/>
<feGaussianBlur stdDeviation="1"/>
<feComposite in2="hardAlpha" operator="out"/>
<feColorMatrix type="matrix" values="0 0 0 0 0 0 0 0 0 0 0 0 0 0 0 0 0 0 0.25 0"/>
<feBlend mode="normal" in2="BackgroundImageFix" result="effect1_dropShadow_1318_2088"/>
<feBlend mode="normal" in="SourceGraphic" in2="effect1_dropShadow_1318_2088" result="shape"/>
</filter>
<clipPath id="clip0_1318_2088">
<rect width="140" height="112" rx="12" fill="white"/>
</clipPath>
</defs>
</svg>
