<svg width="320" height="320" viewBox="0 0 320 320" fill="none" xmlns="http://www.w3.org/2000/svg">
<g clip-path="url(#clip0_761_2909)">
<rect width="320" height="320" rx="160" fill="url(#paint0_linear_761_2909)"/>
<path fill-rule="evenodd" clip-rule="evenodd" d="M342.848 194.065C344.195 199.526 345.439 205.038 346.532 210.576C346.938 214.234 346.989 217.866 346.659 221.499C345.795 232.371 342.264 242.278 336.117 251.22C333.78 254.471 331.189 257.519 328.369 260.364C312.036 245.631 295.702 230.898 279.343 216.165C282.086 210.297 283.356 204.175 283.153 197.748C282.544 197.265 281.858 196.935 281.121 196.732C269.893 194.115 259.301 189.873 249.368 184.031C251.985 181.465 254.169 178.645 255.973 175.521C264.127 178.061 272.357 180.474 280.613 182.761C283.636 186.292 286.76 189.772 290.012 193.176C292.4 194.7 294.787 194.623 297.124 192.921C297.556 192.413 298.064 191.982 298.649 191.651C295.981 190.635 293.441 189.365 291.028 187.841C290.469 187.46 290.012 187.003 289.631 186.444C289.478 185.936 289.605 185.529 290.012 185.174C292.273 186.139 294.381 187.358 296.362 188.857C297.658 189.213 298.75 189.899 299.665 190.889C299.461 190.966 299.284 191.093 299.157 191.27C301.798 192.337 304.339 192.21 306.777 190.889C307.666 189.645 308.479 188.324 309.19 186.952C309.394 186.012 309.267 185.123 308.809 184.285C310.054 183.091 310.892 181.643 311.35 179.966C310.765 178.366 309.8 177.071 308.428 176.029C308.352 175.394 308.53 174.81 308.936 174.251C309.419 171.736 308.657 169.704 306.65 168.154C306.523 167.519 306.574 166.884 306.777 166.249C306.803 165.208 306.371 164.446 305.507 163.963C302.942 163.074 300.376 162.439 297.759 162.058C296.21 162.413 294.635 162.718 293.06 162.947C292.019 163.607 290.926 164.115 289.758 164.471C287.421 165.157 285.135 165.868 282.899 166.63C275.761 164.039 268.75 161.245 261.815 158.247C262.552 154.386 262.476 150.525 261.561 146.689C261.409 146.283 261.155 145.953 260.799 145.673C245.609 143.768 230.444 141.584 215.329 139.069C213.373 138.815 211.443 138.586 209.487 138.434C207.531 138.662 205.6 138.866 203.644 139.069C198.234 141.101 193.001 143.387 187.895 145.927C185.837 146.816 183.704 147.553 181.544 148.087C182.459 144.251 184.669 141.406 188.149 139.577C192.315 138.764 196.456 137.9 200.596 137.037C222.493 129.01 244.085 120.195 265.372 110.618C287.548 100.127 309.749 89.6107 331.925 79.1196C334.135 78.129 336.422 77.3923 338.784 76.9604C340.232 77.1891 341.578 77.6717 342.848 78.3576C344.576 80.593 345.338 83.1332 345.135 85.9782C345.135 87.9088 344.931 89.814 344.5 91.6937C343.153 96.7234 341.731 101.728 340.181 106.681C339.267 111.253 339.953 115.572 342.213 119.636C346.989 124.742 350.952 130.432 354.152 136.656C359.842 148.391 359.182 159.721 352.12 170.695C350.444 173.311 348.666 175.851 346.786 178.315C344.22 182.151 342.747 186.393 342.34 191.016C342.417 192.083 342.594 193.099 342.848 194.065Z" fill="#EF6036"/>
<path fill-rule="evenodd" clip-rule="evenodd" d="M170.368 109.729C167.446 108.789 164.957 109.475 162.874 111.761C157.819 106.783 152.027 102.921 145.473 100.203C143.619 99.7461 141.765 99.4921 139.885 99.4413C139.224 100.457 138.539 101.473 137.853 102.49C137.014 102.896 136.252 103.404 135.566 104.014C132.442 105.309 129.394 106.757 126.422 108.332C123.094 110.796 120.935 114.048 119.944 118.112C119.563 119.89 119.309 121.668 119.182 123.446C121.163 121.389 123.577 120.322 126.422 120.271C127.006 120.525 127.438 120.957 127.692 121.541C124.72 121.643 122.23 122.786 120.198 124.97C119.461 126.85 119.08 128.781 119.055 130.813C118.471 130.889 117.963 130.711 117.531 130.305C116.845 131.651 116.185 133.023 115.499 134.369C118.572 139.374 122.027 144.073 125.914 148.468C123.754 150.093 122.738 152.252 122.865 154.945C120.833 153.599 118.623 152.659 116.261 152.151C116.718 151.44 116.845 150.678 116.642 149.865C114.94 147.909 113.162 146.054 111.307 144.276C110.444 142.93 109.809 141.507 109.402 139.958C105.516 141.761 101.705 141.634 97.9712 139.577C96.3455 138.484 95.7612 136.986 96.1931 135.131C97.26 135.512 98.2761 135.385 99.2413 134.75C100.689 133.633 101.756 132.236 102.417 130.559C103.001 128.4 103.433 126.19 103.687 123.954C103.661 119.077 104.068 114.251 104.957 109.475C108.132 99.2381 115.042 93.3448 125.66 91.8206C127.793 91.6682 129.927 91.7444 132.01 92.0746C130.892 89.4836 131.147 87.045 132.772 84.708C133.788 83.6157 134.881 82.5996 136.075 81.6597C136.938 81.1771 137.878 80.9739 138.869 81.0247C138.666 83.8697 139.123 86.5878 140.266 89.1534C140.774 89.6614 141.282 90.1695 141.79 90.6775C144.533 89.4074 147.379 89.1788 150.3 90.0425C152.891 91.1094 155.228 92.6081 157.285 94.4879C158.784 96.3676 160.054 98.3998 161.096 100.584C161.629 101.372 162.264 102.109 163.001 102.744C163.585 102.921 164.195 102.921 164.779 102.744C165.668 101.804 166.608 100.915 167.573 100.076C170.19 101.727 171.638 104.141 171.892 107.316C171.892 108.459 171.384 109.272 170.368 109.729Z" fill="#3F3E41"/>
<path fill-rule="evenodd" clip-rule="evenodd" d="M170.368 109.729C174.483 112.955 175.524 117.019 173.543 121.922C172.882 123.065 171.892 123.573 170.622 123.446C172.857 129.568 172.933 135.715 170.876 141.863C171.028 141.964 171.104 142.091 171.13 142.244C170.088 144.682 168.767 146.968 167.192 149.102C164.347 151.82 161.172 154.106 157.666 155.961C157.463 156.088 157.387 156.24 157.412 156.469C157.133 156.342 156.854 156.24 156.523 156.215C150.782 157.942 144.991 158.171 139.123 156.85C138.716 156.672 138.335 156.469 137.98 156.215C137.395 158.12 136.176 159.39 134.296 160.025C132.137 159.416 130.105 158.577 128.2 157.485C128.53 157.485 128.886 157.485 129.216 157.485C129.089 156.621 128.937 155.783 128.708 154.945C128.81 153.395 129.648 152.633 131.248 152.659C131.223 151.744 130.766 151.338 129.851 151.388C129.419 151.414 128.987 151.515 128.581 151.642C126.752 153.217 126.447 155.072 127.692 157.231C126.041 156.545 124.44 155.783 122.865 154.945C122.738 152.252 123.754 150.093 125.914 148.467C122.027 144.073 118.572 139.373 115.499 134.369C116.185 133.023 116.845 131.651 117.531 130.305C117.963 130.711 118.471 130.889 119.055 130.813C119.08 128.78 119.462 126.85 120.198 124.97C122.23 122.786 124.72 121.642 127.692 121.541C127.438 120.957 127.006 120.525 126.422 120.271C123.577 120.322 121.163 121.388 119.182 123.446C119.309 121.668 119.563 119.89 119.944 118.112C120.935 114.047 123.094 110.796 126.422 108.332C129.394 106.757 132.442 105.309 135.567 104.013C136.252 103.404 137.014 102.896 137.853 102.489C138.539 101.473 139.224 100.457 139.885 99.4409C141.765 99.4917 143.619 99.7457 145.473 100.203C152.027 102.921 157.819 106.782 162.874 111.761C164.957 109.475 167.446 108.789 170.368 109.729Z" fill="#F9D2B9"/>
<path fill-rule="evenodd" clip-rule="evenodd" d="M141.155 104.395C142.73 104.217 144.178 104.547 145.473 105.411C145.651 105.716 145.753 106.071 145.727 106.427C139.453 105.335 136.227 107.976 136.074 114.302C135.008 114.276 134.5 113.743 134.55 112.65C134.754 108.256 136.938 105.512 141.155 104.395Z" fill="#403F41"/>
<path fill-rule="evenodd" clip-rule="evenodd" d="M139.631 111.507C142.857 111.736 144.813 113.463 145.473 116.715C144.864 120.068 143.086 120.83 140.139 119.001C139.047 118.036 138.158 116.893 137.472 115.572C137.065 113.616 137.776 112.244 139.631 111.507Z" fill="#3E3E40"/>
<path fill-rule="evenodd" clip-rule="evenodd" d="M168.335 112.523C170.571 112.574 171.688 113.667 171.638 115.826C171.003 115.064 170.19 114.556 169.224 114.302C168.361 114.784 167.929 115.546 167.954 116.588C167.472 116.943 167.04 116.842 166.684 116.334C166.506 115.572 166.506 114.81 166.684 114.048C167.167 113.438 167.726 112.93 168.335 112.523Z" fill="#EF6036"/>
<path fill-rule="evenodd" clip-rule="evenodd" d="M333.196 119.636C336.142 119.56 336.498 120.449 334.212 122.303C315.897 126.469 298.318 132.693 281.502 140.974C280.435 140.059 280.13 138.916 280.613 137.544C291.561 133.531 302.484 129.467 313.382 125.351C319.936 123.192 326.54 121.287 333.196 119.636Z" fill="#F9D2B9"/>
<path fill-rule="evenodd" clip-rule="evenodd" d="M143.695 126.494C145.55 126.317 147.328 126.571 149.03 127.256C149.284 127.587 149.538 127.942 149.792 128.273C149.69 128.577 149.487 128.755 149.157 128.781C147.252 127.637 145.346 127.612 143.441 128.654C142.578 129.339 142.247 130.228 142.425 131.321C142.679 132.667 142.933 134.039 143.187 135.385C142.527 135.385 141.968 135.131 141.536 134.623C140.393 132.388 140.393 130.203 141.536 128.018C142.374 127.663 143.086 127.155 143.695 126.494Z" fill="#EF6036"/>
<path fill-rule="evenodd" clip-rule="evenodd" d="M123.627 127.765C126.93 128.095 128.962 129.873 129.724 133.099C129.749 135.741 128.479 136.884 125.914 136.528C123.145 135.335 121.671 133.252 121.468 130.305C121.798 129.086 122.51 128.247 123.627 127.765Z" fill="#3E3E40"/>
<path fill-rule="evenodd" clip-rule="evenodd" d="M156.65 129.797C157.717 129.797 158.606 130.229 159.317 131.067C161.604 133.785 162.366 136.909 161.604 140.466C160.842 143.768 158.86 145.927 155.634 146.943C151.417 147.858 147.836 146.816 144.838 143.768C144.508 143.184 144.457 142.574 144.711 141.99C145.854 140.313 147.277 138.916 149.03 137.799C151.722 135.233 154.262 132.566 156.65 129.797Z" fill="#EF6036"/>
<path fill-rule="evenodd" clip-rule="evenodd" d="M114.229 154.691C111.815 160.534 110.393 166.63 109.91 172.981C102.112 167.85 94.0593 163.074 85.7782 158.629C85.448 158.451 85.0924 158.451 84.7621 158.629C81.8409 160.661 78.6148 161.423 75.1093 160.915C74.1186 160.661 73.1787 160.28 72.315 159.772C72.5183 158.552 72.2642 157.409 71.553 156.342C74.525 156.419 76.0238 154.92 75.9984 151.897C77.1161 153.192 78.5132 153.929 80.1897 154.056C80.5454 153.421 80.3675 152.913 79.6817 152.532C78.8434 152.024 77.9797 151.516 77.1415 151.008C75.3125 149.306 73.4581 147.655 71.553 146.054C71.2736 146.207 71.0195 146.435 70.7909 146.689C71.7562 148.163 72.7215 149.636 73.7122 151.135C74.017 153.624 72.9755 154.59 70.5369 154.056C69.343 153.878 68.2761 153.421 67.3616 152.659C66.8028 149.763 66.879 146.867 67.6156 144.022C67.9967 143.54 68.4793 143.159 69.0128 142.879C71.9848 141.711 75.0331 141.025 78.1576 140.847C78.6148 139.653 78.2084 139.196 76.8874 139.45C75.4395 139.678 74.017 139.805 72.5691 139.831C71.68 138.764 70.8671 137.621 70.1559 136.402C69.9018 136.198 69.597 136.097 69.2668 136.148C69.3938 137.748 69.978 139.145 71.0449 140.339C69.2668 140.771 67.641 141.584 66.2185 142.752C65.4565 142.397 64.7452 141.965 64.0593 141.482C63.4243 139.069 62.6876 136.706 61.9001 134.369C62.5352 132.591 63.7037 131.372 65.4565 130.686C65.9645 130.508 66.4725 130.508 66.9806 130.686C73.9154 132.718 80.0119 136.173 85.2702 141.101C94.8468 145.851 104.5 150.373 114.229 154.691Z" fill="#F9D2B9"/>
<path fill-rule="evenodd" clip-rule="evenodd" d="M155.38 133.099C156.498 137.799 154.593 140.517 149.665 141.228C149.08 141.228 148.522 141.101 148.014 140.847C150.274 138.51 152.611 136.249 154.999 134.115C155.101 133.76 155.228 133.429 155.38 133.099Z" fill="#FCF7F5"/>
<path fill-rule="evenodd" clip-rule="evenodd" d="M61.9 134.369C62.6875 136.706 63.4242 139.069 64.0592 141.482C64.7451 141.964 65.4563 142.396 66.2184 142.752C67.6409 141.583 69.2667 140.77 71.0448 140.339C69.9779 139.145 69.3937 137.748 69.2667 136.147C69.5969 136.096 69.9017 136.198 70.1557 136.401C70.867 137.621 71.6799 138.764 72.569 139.831C74.0169 139.805 75.4394 139.678 76.8873 139.45C78.2082 139.196 78.6147 139.653 78.1574 140.847C75.033 141.025 71.9847 141.71 69.0126 142.879C68.4792 143.158 67.9966 143.539 67.6155 144.022C66.8789 146.867 66.8027 149.763 67.3615 152.659C68.276 153.421 69.3429 153.878 70.5368 154.056C72.9754 154.589 74.0169 153.624 73.7121 151.135C72.7214 149.636 71.7561 148.163 70.7908 146.689C71.0194 146.435 71.2734 146.207 71.5529 146.054C73.458 147.654 75.3124 149.306 77.1414 151.008C77.9796 151.516 78.8433 152.024 79.6816 152.532C80.3674 152.913 80.5452 153.421 80.1896 154.056C78.5131 153.929 77.116 153.192 75.9983 151.897C76.0237 154.92 74.5249 156.418 71.5529 156.342C72.2641 157.409 72.5182 158.552 72.3149 159.771C72.1371 160.457 71.9085 161.118 71.6799 161.804C71.3242 162.235 70.8416 162.388 70.2828 162.312C70.1557 162.058 70.0033 161.854 69.7747 161.677C70.7654 160.254 70.8924 158.755 70.1557 157.231C69.5207 158.45 68.6316 159.416 67.4885 160.152C64.9229 160.381 62.5605 159.848 60.3759 158.501C60.3759 158.323 60.3759 158.171 60.3759 157.993C60.6553 157.866 60.9347 157.765 61.265 157.739C63.0685 158.247 64.8721 158.552 66.7265 158.628C67.5901 157.688 68.3522 156.672 69.0126 155.58C68.4538 155.326 67.895 155.021 67.3615 154.691C65.3547 156.494 63.2972 156.621 61.138 155.072C60.1727 154.107 59.182 153.116 58.2167 152.151C57.7087 151.566 57.4038 150.881 57.3276 150.119C57.3276 150.042 57.3276 149.941 57.3276 149.864C57.6833 149.839 58.0389 149.941 58.3437 150.119C59.69 151.846 61.2904 153.243 63.1701 154.31C64.237 154.564 65.1769 154.31 65.9644 153.548C65.6596 152.862 65.4055 152.125 65.2023 151.389C63.5258 151.693 62.0524 151.262 60.7569 150.119C59.2836 147.832 58.2167 145.368 57.5817 142.752C57.7595 142.752 57.8357 142.676 57.8357 142.498C58.2167 142.498 58.5215 142.676 58.7248 143.006C59.6646 144.86 60.5791 146.715 61.519 148.594C62.4843 149.585 63.6782 150.093 65.0753 150.119C65.1769 148.163 65.3039 146.232 65.4563 144.276C63.9068 143.946 62.7637 143.107 62.027 141.736C61.519 139.475 61.2142 137.189 61.138 134.877C61.392 134.699 61.646 134.547 61.9 134.369Z" fill="#EF6036"/>
<path fill-rule="evenodd" clip-rule="evenodd" d="M61.138 134.877C61.2142 137.189 61.519 139.475 62.0271 141.736C62.7637 143.108 63.9068 143.946 65.4564 144.276C65.304 146.232 65.177 148.163 65.0753 150.119C63.6782 150.093 62.4843 149.585 61.519 148.595C60.5792 146.715 59.6647 144.861 58.7248 143.006C58.5216 142.676 58.2168 142.498 57.8357 142.498C57.0228 140.974 56.7434 139.374 56.9466 137.672C58.0135 136.275 59.4107 135.335 61.138 134.877Z" fill="#F9D2B9"/>
<path fill-rule="evenodd" clip-rule="evenodd" d="M261.815 158.247C260.672 164.293 258.742 170.034 255.973 175.521C254.169 178.645 251.985 181.465 249.368 184.031C259.301 189.873 269.893 194.115 281.121 196.732C281.858 196.935 282.544 197.265 283.153 197.748C283.356 204.149 282.086 210.296 279.343 216.164C277.463 219.797 275.202 223.175 272.611 226.325C270.224 228.967 267.937 231.66 265.753 234.454C263.213 237.299 260.545 240.017 257.751 242.583C256.659 243.523 255.643 244.539 254.703 245.631C245.863 253.861 236.362 261.228 226.252 267.731C225.262 268.239 224.195 268.594 223.077 268.747C222.417 268.34 221.832 267.832 221.299 267.223C214.135 255.97 206.616 244.97 198.691 234.2C190.308 223.836 181.265 213.954 171.638 204.606C160.181 202.777 148.674 202.092 137.091 202.574C129.521 202.981 121.925 203.362 114.356 203.717C112.781 203.692 111.307 203.616 109.91 203.463C109.555 203.006 109.25 202.498 109.021 201.939C108.157 192.261 108.437 182.608 109.91 172.981C110.393 166.63 111.815 160.534 114.229 154.691C114.305 154.513 114.406 154.361 114.483 154.183C114.965 153.395 115.55 152.735 116.261 152.151C118.623 152.659 120.833 153.599 122.865 154.945C124.44 155.783 126.041 156.545 127.692 157.231C127.768 157.434 127.946 157.536 128.2 157.485C130.105 158.578 132.137 159.416 134.296 160.025C136.456 160.965 138.64 161.854 140.901 162.693C142.273 162.744 143.619 162.921 144.965 163.201C148.649 165.055 152.535 166.122 156.65 166.376C158.505 166.376 160.283 166.122 161.985 165.614C164.55 165.69 167.091 165.563 169.605 165.233C173.67 169.221 177.658 173.285 181.544 177.426C181.798 177.553 182.052 177.68 182.306 177.807C182.459 178.366 182.789 178.798 183.323 179.077C185.177 181.058 187.082 182.989 189.038 184.92C192.137 182.329 195.109 179.534 197.929 176.537C197.98 176.359 198.005 176.207 198.056 176.029C191.832 169.932 185.609 163.76 179.385 157.485C180.376 154.437 181.113 151.313 181.544 148.086C183.704 147.553 185.837 146.816 187.895 145.927C193.001 143.387 198.234 141.101 203.644 139.069C205.6 138.865 207.531 138.662 209.487 138.434C211.443 138.586 213.373 138.815 215.329 139.069C230.444 141.583 245.609 143.768 260.799 145.673C261.155 145.953 261.409 146.283 261.561 146.689C262.476 150.525 262.552 154.386 261.815 158.247Z" fill="#2E3192"/>
<path fill-rule="evenodd" clip-rule="evenodd" d="M57.5817 142.752C58.2167 145.368 59.2836 147.832 60.7569 150.119C62.0524 151.262 63.5258 151.694 65.2023 151.389C65.4055 152.125 65.6596 152.862 65.9644 153.548C65.1769 154.31 64.237 154.564 63.1701 154.31C61.2904 153.243 59.69 151.846 58.3437 150.119C58.0389 149.941 57.6833 149.839 57.3276 149.865C54.9144 147.375 55.016 145.013 57.5817 142.752Z" fill="#F9D2B9"/>
<path fill-rule="evenodd" clip-rule="evenodd" d="M171.13 142.244C170.317 146.968 168.793 151.465 166.557 155.707C166.633 155.783 166.735 155.885 166.811 155.961C168.64 156.799 170.495 157.561 172.4 158.247C172.476 158.171 172.578 158.069 172.654 157.993C171.663 155.326 170.825 152.608 170.114 149.864C171.384 148.162 172.654 146.486 173.924 144.784C174.432 144.123 175.016 143.514 175.702 143.006C177.658 144.708 179.614 146.41 181.545 148.086C181.113 151.312 180.376 154.437 179.385 157.485C185.609 163.759 191.832 169.932 198.056 176.029C198.005 176.206 197.98 176.359 197.929 176.537C195.109 179.534 192.137 182.328 189.038 184.919C187.082 182.989 185.177 181.058 183.323 179.077C183.17 178.518 182.84 178.086 182.307 177.807C182.053 177.68 181.799 177.553 181.545 177.426C177.658 173.285 173.67 169.221 169.605 165.233C167.091 165.563 164.55 165.69 161.985 165.614C161.096 164.09 159.953 162.718 158.556 161.549C158.378 161.295 158.378 161.041 158.556 160.787C159.064 160.305 159.546 159.797 159.953 159.263C159.089 158.323 158.251 157.383 157.412 156.469C157.387 156.24 157.463 156.088 157.666 155.961C161.172 154.106 164.347 151.82 167.192 149.102C168.767 146.968 170.088 144.682 171.13 142.244Z" fill="#EF6036"/>
<path fill-rule="evenodd" clip-rule="evenodd" d="M252.163 149.103C254.271 149.56 256.379 149.992 258.513 150.373C258.513 151.135 258.437 151.897 258.259 152.659C256.278 152.405 254.347 152.024 252.417 151.516C252.188 150.728 252.086 149.941 252.163 149.103Z" fill="#EF6036"/>
<path fill-rule="evenodd" clip-rule="evenodd" d="M171.13 142.244C172.069 143.107 173.009 143.946 173.924 144.784C172.654 146.486 171.384 148.162 170.113 149.864C170.825 152.608 171.663 155.326 172.654 157.993C172.577 158.069 172.476 158.171 172.4 158.247C170.494 157.561 168.64 156.799 166.811 155.961C166.735 155.885 166.633 155.783 166.557 155.707C168.793 151.465 170.317 146.968 171.13 142.244Z" fill="#F9D2B9"/>
<path fill-rule="evenodd" clip-rule="evenodd" d="M57.3277 150.119C57.4039 150.881 57.7087 151.567 58.2167 152.151C59.182 153.116 60.1727 154.107 61.138 155.072C63.2972 156.622 65.3547 156.495 67.3615 154.691C67.895 155.021 68.4538 155.326 69.0127 155.58C68.3522 156.672 67.5901 157.689 66.7265 158.628C64.8721 158.552 63.0686 158.247 61.265 157.739C60.9348 157.765 60.6553 157.866 60.3759 157.993C58.8772 157.257 57.5563 156.241 56.4386 154.945C55.8797 153.167 56.1846 151.567 57.3277 150.119Z" fill="#F9D2B9"/>
<path fill-rule="evenodd" clip-rule="evenodd" d="M128.2 157.485C127.946 157.536 127.768 157.434 127.692 157.231C126.447 155.072 126.752 153.217 128.581 151.643C128.987 151.516 129.419 151.414 129.851 151.389C130.765 151.338 131.223 151.744 131.248 152.659C129.648 152.633 128.809 153.395 128.708 154.945C128.936 155.783 129.089 156.621 129.216 157.485C128.886 157.485 128.53 157.485 128.2 157.485Z" fill="#EF6036"/>
<path fill-rule="evenodd" clip-rule="evenodd" d="M116.261 152.151C115.549 152.735 114.965 153.396 114.483 154.183C114.203 153.777 114.076 153.37 114.102 152.913C114.737 152.456 115.448 152.202 116.261 152.151Z" fill="#424144"/>
<path fill-rule="evenodd" clip-rule="evenodd" d="M157.412 156.469C158.251 157.383 159.089 158.323 159.953 159.263C159.546 159.797 159.064 160.305 158.555 160.787C158.378 161.041 158.378 161.295 158.555 161.549C159.953 162.718 161.096 164.09 161.985 165.614C160.283 166.122 158.505 166.376 156.65 166.376C152.535 166.122 148.649 165.055 144.965 163.2C143.619 162.921 142.273 162.743 140.901 162.692C138.64 161.854 136.456 160.965 134.296 160.025C136.176 159.39 137.395 158.12 137.98 156.215C138.335 156.469 138.716 156.672 139.123 156.85C144.991 158.171 150.782 157.942 156.523 156.215C156.854 156.24 157.133 156.342 157.412 156.469Z" fill="#FEFEFE"/>
<path fill-rule="evenodd" clip-rule="evenodd" d="M118.547 156.723C120.833 157.612 123.119 158.501 125.406 159.39C124.974 160.051 124.72 160.762 124.644 161.55C122.459 160.864 120.249 160.203 118.039 159.517C117.963 159.441 117.861 159.34 117.785 159.263C118.115 158.425 118.369 157.587 118.547 156.723Z" fill="#EF6036"/>
<path fill-rule="evenodd" clip-rule="evenodd" d="M70.2828 162.311C67.8188 163.023 65.3548 162.972 62.9162 162.184C61.2142 161.549 60.376 160.305 60.376 158.501C62.5606 159.847 64.923 160.381 67.4886 160.152C68.6317 159.416 69.5208 158.45 70.1558 157.231C70.8925 158.755 70.7655 160.254 69.7748 161.676C70.0034 161.854 70.1558 162.057 70.2828 162.311Z" fill="#F9D2B9"/>
<path fill-rule="evenodd" clip-rule="evenodd" d="M250.638 157.739C252.848 158.425 255.033 159.162 257.243 159.898C256.938 160.584 256.76 161.296 256.735 162.058C254.398 161.524 252.112 160.788 249.876 159.898C250.181 159.187 250.435 158.476 250.638 157.739Z" fill="#EF6036"/>
<path fill-rule="evenodd" clip-rule="evenodd" d="M261.815 158.247C268.75 161.245 275.761 164.039 282.899 166.63C285.135 165.868 287.421 165.156 289.758 164.471C290.926 164.115 292.019 163.607 293.06 162.946C294.635 162.718 296.21 162.413 297.76 162.057C300.351 162.438 302.942 163.073 305.507 163.963C306.371 164.445 306.803 165.207 306.777 166.249C306.574 166.884 306.523 167.519 306.65 168.154C308.657 169.703 309.419 171.736 308.936 174.25C308.53 174.809 308.352 175.394 308.428 176.029C309.8 177.07 310.765 178.366 311.35 179.966C310.892 181.642 310.054 183.09 308.809 184.284C309.267 185.123 309.394 186.012 309.191 186.952C308.479 188.323 307.666 189.644 306.777 190.889C304.339 192.21 301.798 192.337 299.157 191.27C299.284 191.092 299.461 190.965 299.665 190.889C298.75 189.898 297.658 189.212 296.362 188.857C294.381 187.358 292.273 186.139 290.012 185.173C289.605 185.529 289.478 185.935 289.631 186.444C290.012 187.002 290.469 187.46 291.028 187.841C293.441 189.365 295.981 190.635 298.649 191.651C298.064 191.981 297.556 192.413 297.124 192.921C294.787 194.623 292.4 194.699 290.012 193.175C286.76 189.771 283.636 186.291 280.613 182.76C272.357 180.474 264.127 178.061 255.973 175.521C258.742 170.034 260.672 164.293 261.815 158.247Z" fill="#F9D2B9"/>
<path fill-rule="evenodd" clip-rule="evenodd" d="M173.67 159.518C174.914 159.391 175.702 159.899 176.083 161.042C179.258 164.42 182.307 167.875 185.228 171.457C187.641 173.87 190.054 176.283 192.467 178.696C191.959 179.611 191.274 179.763 190.435 179.204C186.854 175.115 183.094 171.177 179.131 167.392C179.055 167.138 178.953 166.884 178.877 166.63C176.997 164.827 175.219 162.972 173.543 161.042C173.365 160.508 173.416 160 173.67 159.518Z" fill="#2E3192"/>
<path fill-rule="evenodd" clip-rule="evenodd" d="M214.313 163.582C215.228 163.709 216.066 163.988 216.854 164.471C226.735 170.72 236.972 176.41 247.59 181.49C247.819 181.668 247.87 181.897 247.717 182.125C247.285 182.608 246.828 183.014 246.32 183.395C235.194 178.518 224.601 172.701 214.567 165.995C213.704 165.233 213.627 164.445 214.313 163.582Z" fill="#EF6036"/>
<path fill-rule="evenodd" clip-rule="evenodd" d="M116.007 165.106C118.369 165.563 120.732 166.02 123.119 166.503C123.297 167.316 123.196 168.103 122.865 168.916C122.738 168.992 122.611 169.094 122.484 169.17C120.046 168.789 117.633 168.332 115.245 167.773C115.55 166.91 115.804 166.02 116.007 165.106Z" fill="#EF6036"/>
<path fill-rule="evenodd" clip-rule="evenodd" d="M247.844 165.36C250.156 166.3 252.442 167.316 254.703 168.408C254.398 169.119 254.068 169.805 253.687 170.44C251.375 169.678 249.165 168.662 247.082 167.392C247.438 166.757 247.692 166.071 247.844 165.36Z" fill="#EF6036"/>
<path fill-rule="evenodd" clip-rule="evenodd" d="M244.542 173.234C246.676 174.098 248.708 175.165 250.639 176.41C250.41 177.146 250.029 177.781 249.495 178.315C247.666 177.553 245.939 176.613 244.288 175.521C244.212 175.343 244.11 175.19 244.034 175.013C244.288 174.428 244.44 173.844 244.542 173.234Z" fill="#EF6036"/>
<path fill-rule="evenodd" clip-rule="evenodd" d="M113.975 173.997C116.515 174.149 119.055 174.301 121.595 174.505C121.57 175.368 121.494 176.207 121.341 177.045C118.801 176.842 116.261 176.765 113.721 176.791C113.771 175.851 113.873 174.936 113.975 173.997Z" fill="#EF6036"/>
<path fill-rule="evenodd" clip-rule="evenodd" d="M182.307 177.807C182.84 178.087 183.17 178.518 183.323 179.077C182.789 178.798 182.459 178.366 182.307 177.807Z" fill="#744478"/>
<path fill-rule="evenodd" clip-rule="evenodd" d="M335.736 178.569C337.285 178.467 338.809 178.594 340.308 178.95C340.765 179.941 340.41 180.55 339.292 180.728C332.764 181.262 326.261 181.821 319.732 182.379C319.656 181.592 319.91 180.957 320.494 180.474C325.575 179.56 330.655 178.925 335.736 178.569Z" fill="#F9D2B9"/>
<path fill-rule="evenodd" clip-rule="evenodd" d="M112.705 182.125C115.245 182.329 117.785 182.583 120.325 182.888C120.3 183.827 120.224 184.767 120.071 185.682C117.607 185.529 115.169 185.301 112.705 185.047C112.552 184.107 112.552 183.116 112.705 182.125Z" fill="#EF6036"/>
<path fill-rule="evenodd" clip-rule="evenodd" d="M112.196 191.27C114.559 191.27 116.947 191.27 119.309 191.27C119.309 192.032 119.309 192.794 119.309 193.556C116.947 193.709 114.559 193.886 112.196 194.064C112.196 193.124 112.196 192.21 112.196 191.27Z" fill="#EF6036"/>
<path fill-rule="evenodd" clip-rule="evenodd" d="M115.753 198.383C116.769 198.383 117.785 198.383 118.801 198.383C118.801 199.145 118.801 199.907 118.801 200.669C116.591 200.898 114.406 201.152 112.196 201.431C112.196 200.491 112.196 199.577 112.196 198.637C113.441 198.713 114.61 198.637 115.753 198.383Z" fill="#EF6036"/>
<path fill-rule="evenodd" clip-rule="evenodd" d="M271.976 200.415C273.754 201.304 275.533 202.193 277.311 203.082C277.539 203.26 277.692 203.463 277.819 203.717C277.514 204.175 277.336 204.683 277.311 205.241C276.599 205.267 275.939 205.14 275.279 204.86C273.831 204.048 272.408 203.26 270.96 202.447C271.29 201.761 271.646 201.075 271.976 200.415Z" fill="#EF6036"/>
<path fill-rule="evenodd" clip-rule="evenodd" d="M266.642 210.83C268.649 212.405 270.757 213.852 272.992 215.148C272.459 215.961 271.875 216.723 271.214 217.434C269.08 216.189 267.074 214.767 265.245 213.116C265.448 212.227 265.905 211.465 266.642 210.83Z" fill="#EF6036"/>
<path fill-rule="evenodd" clip-rule="evenodd" d="M279.343 216.164C295.702 230.897 312.036 245.631 328.369 260.364C333.729 264.936 339.216 269.356 344.881 273.573C345.058 274.157 345.211 274.767 345.389 275.351C344.804 277.002 344.119 278.628 343.356 280.178C339.597 286.249 335.533 292.091 331.163 297.705C329.893 298.721 328.801 299.915 327.861 301.261C326.312 302.684 324.61 303.903 322.781 304.945C321.968 305.275 321.13 305.402 320.24 305.326C314.855 301.007 309.749 296.359 304.872 291.355C303.551 298.34 301.722 305.199 299.411 311.93C298.674 313.099 298.166 314.369 297.887 315.741C296.82 317.798 295.55 319.754 294.076 321.583C293.492 322.218 292.755 322.65 291.917 322.853C289.555 322.244 287.218 321.507 284.931 320.694C278.86 317.798 272.688 315.08 266.388 312.565C259.986 309.695 253.712 306.57 247.59 303.167C246.447 302.278 245.406 301.312 244.415 300.245C237.251 290.084 231.206 279.238 226.252 267.731C236.362 261.228 245.863 253.861 254.703 245.631C257.599 253.099 261.282 260.135 265.753 266.714C267.734 268.696 269.741 270.703 271.722 272.684C275.38 274.208 279.038 275.834 282.645 277.51C286.506 278.933 290.418 280.279 294.33 281.575C294.66 281.753 295.016 281.753 295.346 281.575C282.467 268.848 269.944 255.842 257.751 242.582C260.545 240.017 263.213 237.299 265.753 234.454C267.937 231.659 270.224 228.967 272.611 226.325C275.202 223.175 277.463 219.797 279.343 216.164Z" fill="#3E3E40"/>
<path fill-rule="evenodd" clip-rule="evenodd" d="M258.513 220.482C259.275 220.508 259.783 220.889 260.037 221.626C260.291 221.702 260.545 221.803 260.799 221.88C262.171 223.073 263.517 224.267 264.864 225.436C264.102 226.02 263.568 226.731 263.213 227.595C261.028 225.944 258.869 224.267 256.735 222.515C257.345 221.829 257.929 221.143 258.513 220.482Z" fill="#EF6036"/>
<path fill-rule="evenodd" clip-rule="evenodd" d="M98.9874 222.515C104.982 222.642 108.92 225.512 110.799 231.151C113.822 227.646 117.404 226.909 121.595 228.992C123.602 230.288 124.618 232.167 124.644 234.581C124.542 235.724 124.288 236.841 123.882 237.883C125.025 237.629 126.219 237.426 127.438 237.248C129.724 237.299 131.629 238.137 133.153 239.788C133.382 240.296 133.611 240.804 133.788 241.312C111.688 241.566 89.5885 241.643 67.4886 241.566C67.2092 236.283 69.6732 234.2 74.8553 235.343C75.5665 235.724 76.2016 236.181 76.7604 236.74C77.3955 230.897 80.393 229.068 85.7782 231.278C86.6673 231.837 87.3786 232.549 87.9374 233.438C88.9027 227.011 92.586 223.353 98.9874 222.515Z" fill="white"/>
<path fill-rule="evenodd" clip-rule="evenodd" d="M250.384 228.865C252.315 230.669 254.22 232.549 256.1 234.454C255.871 235.19 255.414 235.825 254.703 236.359C252.518 234.962 250.537 233.209 248.733 231.151C248.555 230.897 248.555 230.643 248.733 230.389C249.317 229.907 249.876 229.399 250.384 228.865Z" fill="#EF6036"/>
<path fill-rule="evenodd" clip-rule="evenodd" d="M242.51 235.978C244.669 237.934 246.701 239.992 248.606 242.202C247.971 242.837 247.336 243.472 246.701 244.107C244.923 242.075 243.069 240.144 241.113 238.264C240.935 238.01 240.935 237.756 241.113 237.502C241.621 237.02 242.103 236.511 242.51 235.978Z" fill="#EF6036"/>
<path fill-rule="evenodd" clip-rule="evenodd" d="M257.751 242.583C269.944 255.842 282.467 268.848 295.346 281.575C295.016 281.753 294.66 281.753 294.33 281.575C290.418 280.279 286.506 278.933 282.645 277.511C279.038 275.834 275.38 274.208 271.722 272.684C269.741 270.703 267.734 268.696 265.753 266.715C261.282 260.135 257.599 253.099 254.703 245.631C255.643 244.538 256.659 243.522 257.751 242.583Z" fill="#EF6036"/>
<path fill-rule="evenodd" clip-rule="evenodd" d="M234.127 243.091C236.439 245.098 238.547 247.358 240.478 249.822C239.97 250.61 239.284 251.016 238.445 251.093C236.54 249.187 234.711 247.181 232.984 245.123C232.806 244.869 232.806 244.615 232.984 244.361C233.416 243.98 233.797 243.548 234.127 243.091Z" fill="#EF6036"/>
<path fill-rule="evenodd" clip-rule="evenodd" d="M227.268 248.933C229.529 251.143 231.638 253.48 233.619 255.919C232.958 256.605 232.196 257.036 231.333 257.189C229.402 255.055 227.624 252.82 225.998 250.457C226.43 249.949 226.862 249.441 227.268 248.933Z" fill="#EF6036"/>
<path fill-rule="evenodd" clip-rule="evenodd" d="M220.156 255.03C220.765 255.004 221.223 255.258 221.553 255.792C223.077 257.798 224.576 259.831 225.998 261.888C225.338 262.472 224.652 263.082 223.966 263.666C223.483 263.184 223.001 262.676 222.569 262.142C221.705 260.085 220.435 258.306 218.759 256.808C218.555 256.528 218.606 256.274 218.886 256.046C219.216 255.893 219.546 255.766 219.902 255.665C220.08 255.487 220.181 255.284 220.156 255.03Z" fill="#EF6036"/>
<path fill-rule="evenodd" clip-rule="evenodd" d="M165.287 260.364C178.293 259.78 186.726 265.699 190.562 278.146C190.867 280.254 191.121 282.362 191.324 284.496C195.414 279.594 200.621 277.79 206.947 279.035C211.646 280.33 214.644 283.353 215.964 288.052C216.752 291.507 216.803 294.987 216.091 298.467C220.156 297.527 224.22 297.502 228.284 298.34C230.698 299.153 232.704 300.55 234.254 302.532C234.432 303.141 234.66 303.726 234.889 304.31C182.891 304.615 130.918 304.64 78.9196 304.437C81.3074 299.839 85.1177 297.604 90.3505 297.705C92.2557 297.604 94.0847 297.934 95.812 298.721C95.431 293.438 97.5902 289.5 102.29 286.909C106.176 285.106 109.707 285.665 112.831 288.561C113.67 280.864 117.861 276.088 125.406 274.208C130.791 273.345 135.16 275.097 138.488 279.416C139.072 280.356 139.682 281.27 140.266 282.21C144.483 270.169 152.815 262.879 165.287 260.364Z" fill="white"/>
<path fill-rule="evenodd" clip-rule="evenodd" d="M343.357 280.178C346.989 282.007 350.342 284.293 353.39 287.036C354.406 288.306 354.838 289.754 354.661 291.355C354.432 292.701 354.025 293.971 353.39 295.165C353.263 296.257 353.136 297.375 353.009 298.467C353.568 301.033 354.203 303.573 354.915 306.088C355.753 310.686 354.635 314.75 351.612 318.281C349.504 320.212 347.268 321.939 344.881 323.488C337.489 326.13 331.443 324.327 326.718 318.027C326.286 324.378 323.619 329.585 318.716 333.649C312.366 336.875 306.447 336.24 300.935 331.744C300.147 330.906 299.563 329.991 299.157 328.95C299.512 328.798 299.69 328.493 299.665 328.061C298.471 323.234 298.852 318.535 300.808 313.963C302.18 311.321 304.186 309.238 306.777 307.739C307.26 307.536 307.768 307.409 308.302 307.358C308.327 305.631 307.59 305.123 306.142 305.834C303.45 307.383 301.214 309.416 299.411 311.93C301.722 305.199 303.551 298.34 304.872 291.355C309.749 296.359 314.855 301.008 320.241 305.326C321.307 307.333 322.578 309.187 324.051 310.914C323.924 312.159 324.381 313.099 325.448 313.709C326.21 308.425 328.369 303.827 331.926 299.864C334.618 297.604 337.717 296.308 341.197 295.927C341.375 295.394 341.324 294.886 341.07 294.403C337.438 294.428 334.136 295.521 331.163 297.705C335.533 292.091 339.597 286.249 343.357 280.178Z" fill="#2E3192"/>
<path fill-rule="evenodd" clip-rule="evenodd" d="M299.157 328.95C298.369 328.874 297.81 328.442 297.506 327.68C296.566 323.666 296.693 319.678 297.887 315.741C298.166 314.369 298.674 313.099 299.411 311.931C301.214 309.416 303.45 307.384 306.142 305.834C307.59 305.123 308.327 305.631 308.301 307.358C307.768 307.409 307.26 307.536 306.777 307.739C304.186 309.238 302.18 311.321 300.808 313.963C298.852 318.535 298.471 323.235 299.665 328.061C299.69 328.493 299.512 328.798 299.157 328.95Z" fill="#EF6036"/>
<path opacity="0.996" fill-rule="evenodd" clip-rule="evenodd" d="M200.977 173.565C201.231 173.311 201.536 173.209 201.892 173.209C202.755 173.336 203.644 173.463 204.508 173.616C204.406 172.752 204.279 171.914 204.178 171.05C204.152 170.695 204.279 170.364 204.533 170.11C205.143 169.526 205.727 168.942 206.337 168.358C206.489 168.205 206.693 168.078 206.896 168.027C206.743 168.154 206.616 168.307 206.515 168.485C206.413 168.637 206.362 168.815 206.337 168.993C206.337 169.145 206.337 169.297 206.337 169.45C206.362 169.704 206.362 169.958 206.388 170.237C206.464 170.796 206.566 171.355 206.616 171.914C206.718 172.778 206.82 173.616 206.921 174.48C207.378 174.962 207.861 175.445 208.318 175.927C208.598 176.308 208.649 176.715 208.445 177.147C208.42 177.223 208.369 177.274 208.344 177.325C208.039 177.655 207.709 177.96 207.404 178.264C206.693 177.528 205.981 176.817 205.27 176.105C204.051 175.927 202.806 175.724 201.587 175.546C201.18 175.445 200.901 175.216 200.723 174.835C200.571 174.327 200.672 173.921 200.977 173.565Z" fill="#FEFFFE"/>
<path opacity="0.997" fill-rule="evenodd" clip-rule="evenodd" d="M210.147 164.623C210.427 164.344 210.706 164.065 210.986 163.811C212.586 165.436 214.186 167.087 215.761 168.713C216.015 169.069 216.066 169.475 215.888 169.882C215.634 170.364 215.253 170.593 214.72 170.568C214.466 170.542 214.262 170.441 214.085 170.288C213.348 169.526 212.611 168.789 211.875 168.027C211.925 168.815 211.976 169.602 212.027 170.364C211.24 170.288 210.478 170.237 209.69 170.161C210.452 170.949 211.214 171.736 212.002 172.524C212.306 172.879 212.332 173.26 212.052 173.667C212.027 173.717 211.976 173.768 211.925 173.819C211.595 174.149 211.29 174.454 210.96 174.759C209.512 173.26 208.039 171.761 206.591 170.288C206.54 169.907 206.515 169.501 206.515 169.12C206.515 168.967 206.54 168.815 206.616 168.662C206.667 168.535 206.743 168.434 206.845 168.332C206.972 168.205 207.099 168.078 207.251 167.951C208.14 168.027 209.03 168.129 209.919 168.205C209.842 167.316 209.766 166.427 209.715 165.538C209.741 165.182 209.893 164.877 210.147 164.623Z" fill="#FEFFFE"/>
<path opacity="0.955" fill-rule="evenodd" clip-rule="evenodd" d="M208.953 177.579C209.055 177.502 209.131 177.502 209.233 177.579C209.309 177.68 209.309 177.756 209.233 177.858C209.106 177.934 209.004 177.934 208.928 177.782C208.903 177.706 208.928 177.655 208.953 177.579Z" fill="#FEFFFE"/>
<path opacity="0.957" fill-rule="evenodd" clip-rule="evenodd" d="M215.66 171.05C215.761 170.974 215.863 170.974 215.964 171.076C216.015 171.203 215.99 171.279 215.863 171.355C215.761 171.381 215.685 171.355 215.634 171.254C215.609 171.177 215.609 171.101 215.66 171.05Z" fill="#FEFFFE"/>
<path opacity="0.959" fill-rule="evenodd" clip-rule="evenodd" d="M216.752 169.983C216.879 169.882 216.981 169.907 217.057 170.034C217.082 170.136 217.057 170.237 216.955 170.288C216.854 170.313 216.777 170.288 216.727 170.212C216.701 170.11 216.701 170.034 216.752 169.983Z" fill="#FEFFFE"/>
<path opacity="0.972" fill-rule="evenodd" clip-rule="evenodd" d="M206.134 180.449C206.21 180.373 206.286 180.271 206.388 180.221C206.667 180.322 206.947 180.449 207.226 180.551C207.124 180.271 207.023 179.967 206.921 179.687C206.997 179.611 207.074 179.535 207.15 179.458C207.277 179.865 207.404 180.246 207.556 180.652C207.734 180.83 207.887 181.008 208.064 181.186C207.988 181.262 207.912 181.313 207.861 181.389C207.683 181.211 207.531 181.033 207.353 180.881C206.921 180.729 206.54 180.602 206.134 180.449Z" fill="#FEFFFE"/>
<path opacity="0.968" fill-rule="evenodd" clip-rule="evenodd" d="M211.341 175.369C211.417 175.292 211.494 175.216 211.57 175.165C211.951 175.318 212.306 175.496 212.687 175.648C212.535 175.267 212.383 174.886 212.23 174.505C212.306 174.429 212.383 174.378 212.433 174.302C212.865 174.759 213.297 175.191 213.754 175.648C213.678 175.724 213.627 175.775 213.551 175.851C213.246 175.546 212.942 175.242 212.662 174.937C212.789 175.267 212.942 175.597 213.069 175.927C213.043 175.978 212.992 176.004 212.967 176.029C212.662 175.902 212.332 175.75 212.027 175.623C212.306 175.928 212.611 176.232 212.916 176.537C212.84 176.613 212.789 176.664 212.713 176.74C212.205 176.258 211.773 175.8 211.341 175.369Z" fill="#FEFFFE"/>
<path opacity="0.968" fill-rule="evenodd" clip-rule="evenodd" d="M215.177 171.634C215.253 171.558 215.304 171.507 215.38 171.431C215.812 171.888 216.244 172.32 216.701 172.777C216.65 172.828 216.574 172.904 216.523 172.955C216.498 172.93 216.447 172.904 216.422 172.879C216.447 173.057 216.371 173.209 216.193 173.311C215.99 173.438 215.812 173.438 215.634 173.26C215.507 173.133 215.38 173.006 215.253 172.879C215.05 172.625 215.075 172.396 215.329 172.168C215.406 172.092 215.507 172.066 215.609 172.092C215.456 171.914 215.329 171.761 215.177 171.634ZM215.456 172.346C215.583 172.219 215.71 172.193 215.863 172.32C215.99 172.422 216.091 172.549 216.193 172.676C216.269 172.828 216.244 172.955 216.091 173.031C215.99 173.082 215.888 173.082 215.812 173.006C215.685 172.879 215.558 172.752 215.456 172.625C215.38 172.549 215.38 172.447 215.456 172.346Z" fill="#FEFFFE"/>
<path opacity="0.973" fill-rule="evenodd" clip-rule="evenodd" d="M208.395 178.467C208.471 178.391 208.522 178.34 208.598 178.264C208.674 178.34 208.75 178.417 208.826 178.518C208.928 178.442 209.004 178.34 209.106 178.264C209.157 178.315 209.207 178.366 209.258 178.417C209.157 178.518 209.08 178.594 208.979 178.696C209.182 178.899 209.36 179.102 209.563 179.28C209.614 179.306 209.665 179.306 209.715 179.28C209.766 179.229 209.817 179.179 209.868 179.102C209.919 179.153 209.995 179.179 210.046 179.229V179.255C209.969 179.382 209.868 179.483 209.766 179.56C209.639 179.61 209.538 179.61 209.411 179.534C209.207 179.331 208.979 179.102 208.776 178.899C208.725 178.95 208.674 179.001 208.623 179.052C208.572 179.001 208.522 178.95 208.471 178.899C208.522 178.848 208.572 178.798 208.623 178.747C208.547 178.62 208.471 178.544 208.395 178.467Z" fill="#FEFFFE"/>
<path opacity="0.973" fill-rule="evenodd" clip-rule="evenodd" d="M207.861 179.408C207.963 179.306 208.064 179.23 208.217 179.179C208.369 179.154 208.522 179.179 208.649 179.281C208.877 179.509 209.106 179.738 209.309 179.967C209.258 180.017 209.207 180.068 209.157 180.119C209.131 180.094 209.106 180.068 209.055 180.068C209.055 180.221 209.004 180.322 208.877 180.424C208.725 180.576 208.572 180.627 208.369 180.551C208.09 180.373 208.039 180.17 208.217 179.89C208.293 179.814 208.369 179.738 208.471 179.687C208.522 179.662 208.572 179.662 208.598 179.662C208.369 179.408 208.166 179.408 207.963 179.713C207.937 179.763 207.912 179.814 207.887 179.865C207.81 179.84 207.734 179.789 207.683 179.763C207.683 179.713 207.709 179.687 207.734 179.636C207.76 179.56 207.81 179.484 207.861 179.408ZM208.42 179.967C208.496 179.865 208.598 179.814 208.75 179.814C208.903 179.916 208.928 180.017 208.826 180.17C208.75 180.271 208.649 180.297 208.547 180.297C208.369 180.221 208.344 180.119 208.42 179.967Z" fill="#FEFFFE"/>
<path opacity="0.978" fill-rule="evenodd" clip-rule="evenodd" d="M210.071 177.249C210.173 177.122 210.3 177.071 210.452 177.071C210.478 177.071 210.528 177.096 210.554 177.096C210.503 176.893 210.554 176.74 210.732 176.613C210.859 176.512 210.986 176.512 211.138 176.563C211.189 176.588 211.214 176.613 211.265 176.639C211.494 176.868 211.748 177.122 211.976 177.35C211.9 177.426 211.849 177.477 211.773 177.553C211.544 177.325 211.316 177.096 211.087 176.867C210.935 176.766 210.808 176.817 210.732 176.969C210.706 177.045 210.706 177.122 210.757 177.172C210.96 177.401 211.189 177.655 211.417 177.884C211.341 177.96 211.29 178.011 211.214 178.087C210.986 177.858 210.757 177.63 210.528 177.401C210.401 177.325 210.274 177.35 210.198 177.477C210.173 177.553 210.173 177.63 210.198 177.706C210.401 177.934 210.63 178.188 210.859 178.417C210.782 178.493 210.732 178.544 210.655 178.62C210.325 178.29 210.02 177.96 209.69 177.63C209.741 177.579 209.817 177.528 209.868 177.452C209.919 177.477 209.944 177.528 209.995 177.553C209.969 177.452 209.995 177.35 210.071 177.249Z" fill="#FEFFFE"/>
<path opacity="0.97" fill-rule="evenodd" clip-rule="evenodd" d="M213.272 174.124C213.373 173.997 213.526 173.92 213.678 173.87C213.805 173.87 213.932 173.895 214.034 173.997C214.263 174.225 214.491 174.454 214.694 174.683C214.644 174.733 214.593 174.784 214.542 174.835C214.517 174.81 214.491 174.784 214.44 174.784C214.44 174.937 214.39 175.038 214.263 175.14C214.059 175.343 213.856 175.343 213.627 175.165C213.475 174.987 213.475 174.784 213.602 174.606C213.704 174.479 213.805 174.403 213.958 174.378C213.907 174.301 213.831 174.251 213.78 174.2C213.653 174.149 213.551 174.174 213.45 174.276C213.373 174.352 213.323 174.454 213.272 174.555C213.196 174.53 213.145 174.505 213.069 174.454C213.043 174.454 213.043 174.428 213.043 174.428C213.043 174.378 213.069 174.327 213.094 174.301C213.17 174.251 213.221 174.2 213.272 174.124ZM213.831 174.683C213.907 174.581 214.008 174.53 214.11 174.53C214.288 174.581 214.313 174.708 214.237 174.86C214.186 174.937 214.11 174.987 214.009 175.013C213.881 175.038 213.805 174.987 213.754 174.86C213.78 174.81 213.805 174.733 213.831 174.683Z" fill="#FEFFFE"/>
<path opacity="0.976" fill-rule="evenodd" clip-rule="evenodd" d="M214.364 173.082C214.491 172.904 214.669 172.854 214.872 172.93C214.923 172.955 214.999 172.981 215.025 173.031C215.253 173.26 215.482 173.489 215.71 173.717C215.634 173.793 215.583 173.844 215.507 173.92C215.279 173.692 215.05 173.463 214.821 173.235C214.669 173.158 214.567 173.184 214.466 173.336C214.415 173.412 214.44 173.514 214.491 173.59C214.694 173.819 214.923 174.047 215.152 174.276C215.075 174.352 215.025 174.403 214.948 174.479C214.618 174.149 214.313 173.819 213.983 173.489C214.034 173.438 214.11 173.387 214.161 173.336C214.212 173.362 214.237 173.412 214.288 173.438C214.237 173.311 214.262 173.184 214.364 173.082Z" fill="#FEFFFE"/>
<path opacity="0.978" fill-rule="evenodd" clip-rule="evenodd" d="M216.828 170.644C216.854 170.618 216.853 170.618 216.879 170.593C216.955 170.669 217.006 170.72 217.082 170.796C217.006 170.847 216.955 170.923 216.904 170.999C216.879 171.126 216.904 171.253 217.006 171.355C217.184 171.533 217.362 171.736 217.539 171.914C217.463 171.99 217.412 172.041 217.336 172.117C217.006 171.787 216.701 171.456 216.371 171.126C216.422 171.075 216.498 170.999 216.549 170.948C216.599 170.999 216.65 171.05 216.701 171.101C216.701 170.923 216.726 170.796 216.828 170.644Z" fill="#FEFFFE"/>
<path opacity="0.988" fill-rule="evenodd" clip-rule="evenodd" d="M209.258 178.087C209.334 178.01 209.385 177.96 209.461 177.883C209.792 178.214 210.096 178.544 210.427 178.874C210.35 178.95 210.3 179.001 210.223 179.077C209.893 178.747 209.588 178.417 209.258 178.087Z" fill="#FEFFFE"/>
<path opacity="0.98" fill-rule="evenodd" clip-rule="evenodd" d="M215.964 171.558C216.041 171.482 216.091 171.431 216.168 171.355C216.498 171.685 216.803 172.015 217.133 172.346C217.057 172.422 217.006 172.473 216.93 172.549C216.599 172.219 216.269 171.888 215.964 171.558Z" fill="#FEFFFE"/>
<path opacity="0.98" fill-rule="evenodd" clip-rule="evenodd" d="M217.057 170.466C217.133 170.39 217.184 170.339 217.26 170.263C217.59 170.593 217.895 170.923 218.225 171.253C218.149 171.33 218.098 171.38 218.022 171.457C217.692 171.126 217.387 170.796 217.057 170.466Z" fill="#FEFFFE"/>
</g>
<defs>
<linearGradient id="paint0_linear_761_2909" x1="160" y1="381.5" x2="160" y2="160" gradientUnits="userSpaceOnUse">
<stop stop-color="#F47D21"/>
<stop offset="1" stop-color="#F47D21" stop-opacity="0"/>
</linearGradient>
<clipPath id="clip0_761_2909">
<rect width="320" height="320" rx="160" fill="white"/>
</clipPath>
</defs>
</svg>
