<svg width="320" height="320" viewBox="0 0 320 320" fill="none" xmlns="http://www.w3.org/2000/svg">
<g clip-path="url(#clip0_761_1885)">
<rect width="320" height="320" rx="160" fill="url(#paint0_linear_761_1885)"/>
<path fill-rule="evenodd" clip-rule="evenodd" d="M123.573 103.69C122.445 99.819 119.915 98.4168 115.952 99.4227C115.556 91.985 114.367 84.6691 112.447 77.4752C111.289 73.9392 109.368 70.891 106.655 68.3304C104.125 69.1839 101.656 69.0315 99.187 67.8732C95.8035 65.9223 92.237 64.3982 88.5181 63.3008C83.9457 62.4473 79.5867 63.0569 75.4106 65.1297C71.0211 68.239 66.7535 71.4701 62.6079 74.8842C60.3826 76.3474 58.0659 77.5667 55.5969 78.5421C54.0118 85.7055 53.3411 92.9604 53.6155 100.337C50.7501 99.2093 48.1591 99.6361 45.8424 101.557C44.0135 100.916 42.3369 100.002 40.8128 98.8131C39.563 97.228 38.9838 95.399 39.1362 93.3262C41.3615 94.7284 43.3428 94.4236 45.0803 92.4117C45.2328 91.9545 45.3852 91.4972 45.5376 91.04C44.7146 88.2966 44.3488 85.4922 44.4707 82.6573C44.7755 80.8588 45.5376 79.2737 46.7569 77.9325C43.6781 76.7741 40.9652 75.0061 38.679 72.598C36.8805 69.7326 36.6976 66.7758 38.0693 63.758C38.4046 63.2398 38.8619 63.0874 39.4411 63.3008C40.5384 64.9469 42.1235 65.8308 44.1659 65.8918C47.519 65.4651 50.4148 64.0933 52.8534 61.7767C56.6333 58.1187 60.4741 54.5523 64.4368 51.1077C72.6062 45.0722 81.6595 43.1518 91.5664 45.316C97.1447 47.5413 101.778 51.0468 105.436 55.8325C107.722 52.3575 110.953 50.5286 115.19 50.3457C117.202 50.3152 119.001 50.9248 120.525 52.1746C117.873 53.9731 116.074 56.4117 115.19 59.4905C114.977 60.9231 114.825 62.3253 114.733 63.758C121.561 65.9833 125.128 70.7081 125.402 77.9325C125.189 82.1086 124.213 86.1323 122.506 89.9731C121.927 91.924 122.476 93.3872 124.183 94.3931C125.646 94.3626 127.048 94.1797 128.45 93.7834C129.182 95.7648 129.03 97.7462 127.993 99.7275C126.835 101.435 125.372 102.776 123.573 103.69Z" fill="#3E3E40"/>
<path fill-rule="evenodd" clip-rule="evenodd" d="M123.573 103.69C124.213 109.147 122.08 113.17 117.172 115.731C115.556 116.371 113.971 116.31 112.447 115.578C110.77 119.572 108.301 122.986 104.979 125.79C102.357 127.65 99.7358 129.418 97.0533 131.125C93.4563 132.954 89.646 134.051 85.6223 134.478C81.3547 133.868 77.2396 132.771 73.2768 131.125C66.0524 127.528 60.4741 122.193 56.5114 115.121C52.2743 116.889 48.7688 115.914 45.9949 112.225C43.4953 108.689 43.4343 105.123 45.8424 101.556C48.1591 99.636 50.7502 99.2092 53.6155 100.337C53.3412 92.9603 54.0118 85.7054 55.5969 78.542C58.066 77.5665 60.3827 76.3472 62.6079 74.8841C66.7535 71.47 71.0211 68.2388 75.4106 65.1296C79.5867 63.0568 83.9458 62.4471 88.5181 63.3007C92.237 64.398 95.8035 65.9222 99.1871 67.8731C101.656 69.0314 104.125 69.1838 106.655 68.3303C109.368 70.8908 111.289 73.9391 112.447 77.4751C114.367 84.669 115.556 91.9848 115.953 99.4226C119.915 98.4167 122.445 99.8189 123.573 103.69Z" fill="#F9D2B9"/>
<path fill-rule="evenodd" clip-rule="evenodd" d="M286.046 210.075C285.527 210.014 285.009 210.075 284.522 210.227C280.01 212.3 275.986 215.104 272.481 218.61C268.549 224.554 264.677 230.559 260.898 236.595C253.399 246.837 245.138 256.439 236.054 265.401C232.853 268.175 229.5 270.705 225.995 273.021C225.477 273.235 224.989 273.235 224.471 273.021C223.008 272.198 221.758 271.131 220.66 269.821C215.295 263.236 210.418 256.347 206.029 249.093C206.151 236.96 206.608 224.798 207.4 212.666C207.522 209.16 206.974 205.746 205.724 202.454C204.017 200.442 202.036 198.766 199.78 197.424C197.524 196.175 195.177 195.108 192.769 194.224C195.299 192.944 196.457 190.901 196.274 188.127C195.329 186.359 193.836 185.689 191.854 186.146C190.117 186.695 188.715 187.731 187.587 189.194C187.312 189.408 187.099 189.347 186.977 189.042C186.703 185.049 187.008 181.086 187.892 177.153C190.696 180.171 194.141 181.482 198.256 181.116C203.499 198.247 210.997 214.281 220.66 229.279C221.362 230.315 222.215 231.169 223.251 231.87C223.739 232.022 224.257 232.083 224.776 232.022C224.806 231.352 224.654 230.742 224.318 230.193C213.741 215.013 205.663 198.552 200.085 180.811C204.291 179.257 207.035 176.3 208.315 171.971C225.751 175.386 242.821 174.014 259.526 167.856C260.166 167.551 260.684 167.094 261.05 166.485C260.806 165.936 260.41 165.631 259.831 165.57C243.035 170.935 225.964 172.246 208.62 169.533C208.62 169.228 208.62 168.923 208.62 168.618C220.904 166.485 232.488 162.369 243.37 156.273C250.655 151.609 256.508 145.573 260.898 138.136C261.69 136.703 262.147 135.179 262.269 133.563C261.812 133.472 261.416 133.594 261.05 133.868C255.075 145.695 245.931 154.078 233.616 159.016C225.446 162.187 217.124 164.778 208.62 166.789C207.126 160.449 203.102 157.004 196.579 156.425C194.903 156.486 193.317 156.883 191.854 157.645C191.763 156.364 192.007 155.145 192.616 153.987C193.958 152.737 195.177 151.426 196.274 150.024C196.61 148.622 196.853 147.189 197.036 145.756C194.384 137.8 192.403 129.662 191.092 121.37C190.147 100.916 198.439 85.5227 215.936 75.189C232.701 67.6598 247.485 70.4338 260.288 83.5718C264.251 89.2415 266.567 95.521 267.299 102.471C268.853 115.579 268.914 128.686 267.451 141.794C267.878 145.543 268.335 149.323 268.823 153.072C269.219 154.627 269.707 156.151 270.347 157.645C274.096 162.827 277.145 168.405 279.492 174.41C282.967 184.53 286.625 194.59 290.466 204.588C290.679 205.411 290.679 206.203 290.466 207.026C289.277 208.459 287.783 209.465 286.046 210.075Z" fill="#EF6036"/>
<path fill-rule="evenodd" clip-rule="evenodd" d="M95.5293 73.5121C100.711 72.8719 104.43 74.9143 106.655 79.6086C106.93 80.4926 106.808 81.2852 106.351 82.0472C105.253 80.5841 104.247 79.0599 103.302 77.4748C101.23 75.4325 98.7299 74.6704 95.8341 75.1886C94.4928 75.7678 93.1821 76.3165 91.8713 76.8652C92.0542 75.9202 92.5724 75.1581 93.3955 74.579C94.1271 74.2132 94.8586 73.8474 95.5293 73.5121Z" fill="#3F3F41"/>
<path fill-rule="evenodd" clip-rule="evenodd" d="M69.0093 74.122C70.6249 74.061 72.2709 74.122 73.8865 74.2744C75.3192 74.7621 76.4471 75.6156 77.2396 76.8654C77.1482 76.9569 77.0262 77.0788 76.9348 77.1703C72.9111 74.8841 69.1617 75.2499 65.6562 78.2372C64.8332 79.2431 64.0406 80.2795 63.2176 81.2854C62.5165 81.4378 62.0897 81.133 61.9983 80.3709C63.5224 77.3532 65.8696 75.2803 69.0093 74.122Z" fill="#403F41"/>
<path fill-rule="evenodd" clip-rule="evenodd" d="M96.1388 82.6572C99.1566 82.8401 100.559 84.4557 100.406 87.5344C100.467 90.0035 99.37 91.6191 97.0533 92.4117C96.4741 92.1373 95.9255 91.8325 95.3768 91.4972C93.7612 89.0891 93.4564 86.5285 94.4623 83.8765C94.9195 83.2669 95.4682 82.8706 96.1388 82.6572Z" fill="#3E3E40"/>
<path fill-rule="evenodd" clip-rule="evenodd" d="M229.958 82.3521C231.634 82.7788 233.158 83.5409 234.53 84.6382C242.669 91.6797 248.827 100.154 252.972 110.091C255.319 118.169 256.325 126.399 256.02 134.782C253.521 140.452 249.589 144.872 244.285 148.042C239.712 151.151 234.683 153.041 229.196 153.681C218.07 152.188 209.138 147.006 202.371 138.135C200.085 127.802 201.213 117.834 205.724 108.262C209.87 99.0565 216.027 91.4664 224.166 85.5527C226.056 84.3029 227.976 83.236 229.958 82.3521Z" fill="#F9D2B9"/>
<path fill-rule="evenodd" clip-rule="evenodd" d="M72.3623 83.2666C74.4656 82.8704 75.8373 83.6934 76.4774 85.7053C76.7822 87.6866 76.5689 89.6375 75.8678 91.497C73.9778 93.1735 72.2403 92.9601 70.6857 90.8873C69.8932 88.9974 69.8932 87.0465 70.6857 85.0956C71.1125 84.3335 71.6612 83.7239 72.3623 83.2666Z" fill="#3E3E40"/>
<path fill-rule="evenodd" clip-rule="evenodd" d="M84.8602 95.7646C88.4572 95.6122 90.2861 97.3497 90.3471 100.947C90.3166 102.074 90.0118 103.08 89.4326 103.995C89.2192 103.842 89.0668 103.629 88.9754 103.385C88.9449 101.648 88.7315 99.9102 88.3657 98.2032C85.8661 96.6791 83.8238 97.1668 82.2692 99.7273C81.9948 100.672 81.5376 101.495 80.8975 102.166C79.8915 101.556 79.7391 100.764 80.4402 99.7273C81.4157 97.8069 82.8788 96.4657 84.8602 95.7646Z" fill="#EF6036"/>
<path fill-rule="evenodd" clip-rule="evenodd" d="M238.188 97.5938C241.937 97.167 243.644 98.8131 243.37 102.471C242.608 101.496 241.785 100.52 240.931 99.5752C238.889 98.9655 237.182 99.4837 235.749 101.099C234.469 101.13 234.225 100.581 234.987 99.4228C235.993 98.6912 237.06 98.0815 238.188 97.5938Z" fill="#3E3E40"/>
<path fill-rule="evenodd" clip-rule="evenodd" d="M216.545 98.5079C219.746 98.2031 221.544 99.6358 221.88 102.775C221.544 103.019 221.209 102.958 220.813 102.623C219.502 100.581 217.673 99.9711 215.326 100.794C214.351 101.312 213.649 102.074 213.192 103.08C212.491 103.507 212.095 103.324 211.973 102.471C212.857 100.367 214.381 99.0566 216.545 98.5079Z" fill="#3E3E40"/>
<path fill-rule="evenodd" clip-rule="evenodd" d="M116.562 103.69C119.245 103.263 120.769 104.361 121.135 107.043C120.251 110.732 119.671 110.64 119.458 106.738C118.787 105.885 117.934 105.641 116.867 105.976C116.593 106.586 116.166 107.074 115.648 107.5C115.373 107.683 115.099 107.653 114.886 107.348C114.855 105.885 115.434 104.665 116.562 103.69Z" fill="#EF6036"/>
<path fill-rule="evenodd" clip-rule="evenodd" d="M50.7197 103.995C52.762 103.934 54.1032 104.849 54.6824 106.738C53.9203 106.647 53.2192 106.403 52.5486 105.976C50.0186 105.458 48.7383 106.525 48.7383 109.177C48.0372 109.451 47.6714 109.147 47.6714 108.263C47.8238 106.129 48.8297 104.727 50.7197 103.995Z" fill="#EF6036"/>
<path fill-rule="evenodd" clip-rule="evenodd" d="M238.188 107.653C239.194 107.531 240.108 107.714 240.931 108.262C242.212 110.823 241.998 113.262 240.322 115.578C239.468 116.005 238.676 115.944 237.883 115.426C236.176 113.323 235.932 111.036 237.121 108.567C237.578 108.354 237.944 108.049 238.188 107.653Z" fill="#3F3F41"/>
<path fill-rule="evenodd" clip-rule="evenodd" d="M96.1389 109.177C96.7485 109.116 97.3582 109.177 97.9678 109.33C100.102 115.457 98.6689 120.639 93.7003 124.876C85.0737 128.93 78.6114 126.766 74.3438 118.322C73.2159 115.548 73.0635 112.774 73.8865 109.939C75.685 110.122 77.514 110.336 79.3734 110.549C83.0313 110.762 86.6893 110.762 90.3472 110.549C92.359 110.336 94.3099 109.878 96.1389 109.177Z" fill="#EF6036"/>
<path fill-rule="evenodd" clip-rule="evenodd" d="M217.46 108.872C218.496 108.75 219.35 109.055 220.051 109.787C221.514 112.347 221.362 114.786 219.594 117.103C217.521 117.621 216.241 116.828 215.783 114.664C215.57 113.231 215.57 111.829 215.783 110.396C216.302 109.817 216.881 109.299 217.46 108.872Z" fill="#3E3E40"/>
<path fill-rule="evenodd" clip-rule="evenodd" d="M77.8494 111.616C83.6716 113.14 89.4633 113.17 95.2245 111.768C92.481 116.066 88.6402 117.499 83.6411 116.036C81.5073 115.548 79.7393 114.481 78.3066 112.835C78.0627 112.469 77.9103 112.042 77.8494 111.616Z" fill="#FEFDFD"/>
<path fill-rule="evenodd" clip-rule="evenodd" d="M32.1253 139.355C29.4428 140.209 26.8823 141.428 24.5046 143.013C22.3099 136.733 20.42 130.332 18.8653 123.809C18.1338 120.73 19.1092 118.383 21.7612 116.798C23.011 116.554 24.0779 116.981 24.9619 118.017C27.6748 125.028 30.0829 132.131 32.1253 139.355Z" fill="#EED8C1"/>
<path fill-rule="evenodd" clip-rule="evenodd" d="M226.3 117.103C231.146 116.828 233.341 119.054 232.853 123.809C231.878 122.193 230.689 120.73 229.348 119.389C228.007 118.749 226.818 119.023 225.842 120.151C225.141 121.706 224.745 123.321 224.623 125.028C223.983 125.912 223.587 125.821 223.404 124.723C223.008 122.59 223.312 120.547 224.318 118.627C224.928 118.017 225.568 117.499 226.3 117.103Z" fill="#EF6036"/>
<path fill-rule="evenodd" clip-rule="evenodd" d="M41.2701 143.623C34.9602 146.671 30.8146 151.548 28.7722 158.254C28.9856 159.382 29.2295 160.51 29.5343 161.607C30.3269 161.943 30.7231 161.638 30.7536 160.693C30.6622 158.01 31.3633 155.572 32.8874 153.377C34.0153 152.066 35.1126 150.725 36.2405 149.414C37.8561 148.104 39.3802 146.671 40.8129 145.147C41.1482 144.659 41.3921 144.171 41.575 143.623C43.4344 141.397 45.5682 139.416 47.9763 137.678C49.7443 137.038 51.4818 137.16 53.1584 137.983C53.9509 139.142 54.1948 140.422 53.9204 141.794C52.823 145.208 51.5428 148.561 50.1101 151.853C47.7934 156.395 45.7206 161.059 43.8611 165.875C43.6173 168.557 43.3734 171.27 43.0991 173.953C45.1719 192.486 45.4462 211.02 43.8611 229.584C43.3125 231.108 42.7333 232.632 42.1846 234.156C39.9289 234.827 37.7037 235.589 35.4784 236.442C28.1321 236.93 22.9501 233.821 19.9323 227.145C19.7799 226.84 19.6274 226.535 19.475 226.231C19.3226 223.091 19.2617 219.921 19.3226 216.781C19.536 214.952 19.7494 213.123 19.9323 211.294C20.2371 207.514 20.6639 203.765 21.1516 200.015C21.9441 193.492 22.7976 186.999 23.7426 180.507C23.8645 177.916 23.9255 175.385 23.895 172.886C21.1821 168.283 18.8044 163.497 16.7316 158.559C11.9153 153.804 7.70873 148.622 4.0813 143.013C4.32516 141.55 5.14819 140.544 6.51991 139.965C9.78155 141.977 12.9517 144.141 15.9695 146.518C16.1829 146.732 16.3658 146.732 16.5792 146.518C13.7443 141.123 11.0618 135.697 8.50128 130.21C8.22694 127.65 9.32431 126.126 11.8544 125.638C13.7748 125.943 15.2075 126.949 16.1219 128.686C18.8044 133.533 21.3954 138.41 23.895 143.318C22.0661 144.994 20.2981 146.732 18.5606 148.5C18.1643 149.231 17.7985 149.993 17.4937 150.786C17.6156 151.304 17.8899 151.761 18.2557 152.158C22.4319 146.366 27.9797 142.464 34.8688 140.422C35.4479 140.087 35.5394 139.69 35.1736 139.203C34.3506 139.02 33.5275 139.081 32.735 139.355C32.0948 133.685 31.851 128.015 31.9729 122.285C32.3997 119.419 33.9848 118.352 36.6977 119.084C37.8866 120.303 38.5267 121.797 38.6791 123.504C39.7155 130.18 40.5995 136.886 41.2701 143.623Z" fill="#F9D2B9"/>
<path fill-rule="evenodd" clip-rule="evenodd" d="M238.188 130.21C239.865 129.905 240.627 130.637 240.474 132.344C241.084 136.733 239.804 140.422 236.664 143.47C231.451 146.274 226.94 145.421 223.099 140.879C221.331 138.318 220.478 135.453 220.508 132.344C226.483 131.978 232.366 131.246 238.188 130.21Z" fill="#EF6036"/>
<path fill-rule="evenodd" clip-rule="evenodd" d="M73.2769 131.125C77.2396 132.771 81.3548 133.868 85.6224 134.478C89.6461 134.051 93.4564 132.953 97.0534 131.125C97.0534 131.429 97.0534 131.734 97.0534 132.039C92.2981 135.423 87.116 138.014 81.5072 139.812C82.6046 142.129 83.702 144.415 84.8603 146.671C86.4759 143.622 88.1219 140.574 89.7375 137.526C92.2371 137.191 94.6757 136.794 97.0534 136.307C98.1812 136.307 99.2786 136.307 100.406 136.307C100.681 139.446 100.772 142.586 100.711 145.756C97.9678 148.164 94.8586 150.115 91.4141 151.548C91.2007 162.125 91.2921 172.703 91.7189 183.25C91.5665 183.402 91.4141 183.555 91.2617 183.707C86.3844 183.951 81.5072 183.92 76.63 183.555C76.5081 172.398 76.3556 161.211 76.1728 150.024C73.9475 148.561 71.8747 146.945 69.9238 145.147C69.8324 142.525 69.8324 139.873 69.9238 137.221C71.0517 137.221 72.149 137.221 73.2769 137.221C73.2769 135.179 73.2769 133.167 73.2769 131.125Z" fill="#EF6036"/>
<path fill-rule="evenodd" clip-rule="evenodd" d="M236.664 132.039C237.03 131.978 237.335 132.07 237.578 132.344C235.231 135.788 232 137.16 227.824 136.459C226.086 135.606 224.471 134.569 222.947 133.411C225.782 133.319 228.647 133.197 231.482 133.106C233.311 133.075 235.048 132.71 236.664 132.039Z" fill="#FEFCFB"/>
<path fill-rule="evenodd" clip-rule="evenodd" d="M208.62 168.618C208.62 168.009 208.62 167.399 208.62 166.789C217.125 164.777 225.446 162.186 233.616 159.016C245.931 154.078 255.075 145.695 261.05 133.868C261.416 133.594 261.812 133.472 262.269 133.563C262.147 135.179 261.69 136.703 260.898 138.136C256.508 145.573 250.655 151.609 243.37 156.273C232.488 162.369 220.904 166.484 208.62 168.618Z" fill="#F9D2B9"/>
<path fill-rule="evenodd" clip-rule="evenodd" d="M97.0535 132.039C97.0535 133.472 97.0535 134.874 97.0535 136.307C94.6758 136.794 92.2372 137.191 89.7376 137.526C88.1221 140.574 86.476 143.622 84.8604 146.671C83.7021 144.415 82.6047 142.129 81.5073 139.812C87.1161 138.014 92.2982 135.423 97.0535 132.039Z" fill="#F9D2B9"/>
<path fill-rule="evenodd" clip-rule="evenodd" d="M23.895 143.317C24.1084 143.226 24.2913 143.104 24.5047 143.013C26.8823 141.427 29.4428 140.208 32.1253 139.355C32.3387 139.355 32.5216 139.355 32.735 139.355C33.5275 139.08 34.3506 139.019 35.1736 139.202C35.5394 139.69 35.4479 140.086 34.8688 140.422C27.9797 142.464 22.4318 146.366 18.2557 152.157C17.8899 151.761 17.6156 151.304 17.4937 150.786C17.7985 149.993 18.1643 149.231 18.5605 148.499C20.2981 146.731 22.066 144.994 23.895 143.317Z" fill="#EF6036"/>
<path fill-rule="evenodd" clip-rule="evenodd" d="M41.2701 143.623C41.3615 143.623 41.4835 143.623 41.5749 143.623C41.392 144.171 41.1482 144.659 40.8129 145.147C39.3802 146.671 37.856 148.104 36.2405 149.414C35.1126 150.725 34.0152 152.066 32.8874 153.377C31.3632 155.572 30.6621 158.01 30.7536 160.693C30.7231 161.638 30.3268 161.943 29.5343 161.607C29.2295 160.51 28.9856 159.382 28.7722 158.254C30.8146 151.548 34.9602 146.671 41.2701 143.623Z" fill="#EF6036"/>
<path fill-rule="evenodd" clip-rule="evenodd" d="M69.9238 145.146C71.8747 146.945 73.9475 148.561 76.1728 150.024C76.3557 161.211 76.5081 172.398 76.63 183.555C81.5072 183.92 86.3845 183.951 91.2617 183.707C91.4141 183.555 91.5665 183.402 91.7189 183.25C91.2922 172.703 91.2007 162.125 91.4141 151.548C94.8586 150.115 97.9679 148.164 100.711 145.756C105.802 148.286 111.075 150.359 116.562 152.005C120.342 153.56 124.122 155.175 127.841 156.882C130.584 159.199 132.87 161.912 134.699 164.96C136.406 168.13 137.931 171.392 139.272 174.715C143.753 187.731 148.203 200.716 152.684 213.732C153.843 216.842 155.306 219.798 157.104 222.572C156.86 223.182 156.464 223.639 155.885 223.944C151.892 225.925 147.929 227.907 143.997 229.888C138.266 231.839 132.383 232.845 126.317 232.936C127.14 241.045 127.81 249.184 128.298 257.323C129.426 266.041 130.371 274.789 131.194 283.538C130.859 283.507 130.554 283.538 130.279 283.69C129.304 284.544 128.268 285.306 127.231 285.976C117.629 288.72 107.814 289.939 97.8154 289.634C94.0051 289.573 90.1948 289.482 86.3845 289.329C84.5555 289.299 82.7265 289.207 80.8976 289.025C71.9662 288.72 63.0043 288.354 54.0729 287.958C49.1347 287.348 44.2574 286.495 39.4412 285.367C37.8866 284.94 36.3624 284.391 34.8688 283.69C34.6859 283.202 34.564 282.715 34.564 282.166C36.5149 270.583 38.1914 258.938 39.5936 247.263C40.3252 242.843 41.1787 238.484 42.1846 234.156C42.7333 232.632 43.3125 231.108 43.8612 229.583C45.4463 211.019 45.1719 192.486 43.0991 173.953C43.3734 171.27 43.6173 168.557 43.8612 165.875C45.7206 161.058 47.7934 156.395 50.1101 151.853C56.5115 149.018 63.0957 146.762 69.9238 145.146Z" fill="#2E3192"/>
<path fill-rule="evenodd" clip-rule="evenodd" d="M83.9459 148.804C85.1957 148.926 85.8054 149.658 85.7749 150.938C84.7385 160.967 84.3422 171.026 84.5556 181.116C83.9459 181.177 83.3972 181.085 82.879 180.811C82.5437 179.317 82.3913 177.793 82.4218 176.239C82.6352 168.1 82.879 159.991 83.1838 151.852C83.1838 150.755 83.4582 149.719 83.9459 148.804Z" fill="#2E3192"/>
<path fill-rule="evenodd" clip-rule="evenodd" d="M178.137 169.838C176.552 171.392 174.845 172.916 173.108 174.41C170.486 177.397 169.48 180.842 170.059 184.774C170.364 184.987 170.669 185.17 170.974 185.384C171.126 182.305 172.041 179.44 173.717 176.849C175.455 175.203 177.07 173.495 178.595 171.667C179.021 170.935 179.082 170.203 178.747 169.533C179.905 166.484 181.734 163.893 184.234 161.76C185.24 161.272 186.276 161.211 187.282 161.607C187.8 162.156 188.258 162.766 188.654 163.436C189.02 164.747 189.263 166.058 189.416 167.399C189.02 170.661 188.501 173.922 187.892 177.153C187.008 181.086 186.703 185.048 186.977 189.042C186.459 188.737 186.063 188.341 185.758 187.822C184.904 186.329 183.594 185.506 181.795 185.384C179.296 185.719 177.802 187.152 177.375 189.651C173.595 187.457 171.157 188.462 170.059 192.7C169.937 193.431 169.937 194.132 170.059 194.833C168.657 194.041 167.194 193.858 165.639 194.224C164.39 193.126 163.17 191.937 161.981 190.718C156.738 188.219 151.8 185.231 147.197 181.726C146.466 179.653 147.167 178.617 149.331 178.678C152.745 179.562 156.159 180.415 159.543 181.269C154.97 177.641 150.764 173.617 146.893 169.228C146.161 165.905 147.441 164.625 150.703 165.418C154.544 168.588 158.506 171.575 162.591 174.41C162.683 174.319 162.805 174.197 162.896 174.105C160.457 170.447 157.866 166.881 155.123 163.436C153.782 161.638 152.837 159.656 152.227 157.492C152.532 156.181 153.142 155.084 154.056 154.139C154.757 153.926 155.489 153.926 156.19 154.139C160.579 158.529 164.633 163.162 168.383 168.009C164.938 171.423 162.256 175.385 160.305 179.897C159.817 181.177 159.451 182.488 159.238 183.86C159.421 184.53 159.817 185.048 160.457 185.384C161.646 181.055 163.445 177.001 165.792 173.191C167.529 171.331 169.358 169.624 171.279 168.009C171.523 167.368 171.34 166.972 170.669 166.789C169.968 167.064 169.328 167.368 168.688 167.704C166.401 163.345 164.573 158.772 163.201 153.987C163.749 152.127 164.969 151.487 166.859 152.005C167.773 152.462 168.535 153.133 169.145 153.987C172.528 159.047 175.546 164.32 178.137 169.838Z" fill="#F9D2B9"/>
<path fill-rule="evenodd" clip-rule="evenodd" d="M208.62 166.789C208.62 167.399 208.62 168.009 208.62 168.618C208.62 168.923 208.62 169.228 208.62 169.533C208.376 170.325 208.285 171.148 208.315 171.971C207.035 176.3 204.291 179.257 200.085 180.811C199.445 180.811 198.835 180.933 198.256 181.116C194.141 181.482 190.696 180.171 187.892 177.153C188.501 173.922 189.019 170.661 189.416 167.399C189.263 166.058 189.019 164.747 188.654 163.436C188.257 162.766 187.8 162.156 187.282 161.607C188.532 159.961 190.056 158.62 191.854 157.645C193.318 156.883 194.903 156.486 196.579 156.425C203.102 157.004 207.126 160.449 208.62 166.789Z" fill="#2E3192"/>
<path fill-rule="evenodd" clip-rule="evenodd" d="M168.383 168.008C168.596 168.008 168.687 167.917 168.687 167.704C169.328 167.368 169.968 167.063 170.669 166.789C171.339 166.972 171.522 167.368 171.278 168.008C169.358 169.624 167.529 171.331 165.792 173.19C163.414 177.001 161.646 181.055 160.457 185.383C159.817 185.048 159.421 184.53 159.238 183.859C159.451 182.488 159.817 181.177 160.305 179.897C162.256 175.385 164.938 171.422 168.383 168.008Z" fill="#EF6036"/>
<path fill-rule="evenodd" clip-rule="evenodd" d="M178.747 169.533C179.082 170.203 179.021 170.935 178.595 171.666C177.07 173.495 175.455 175.202 173.717 176.849C172.041 179.44 171.126 182.305 170.974 185.384C170.669 185.17 170.364 184.987 170.059 184.774C169.48 180.842 170.486 177.397 173.108 174.41C174.876 172.916 176.522 171.392 178.137 169.838C178.351 169.746 178.534 169.624 178.747 169.533Z" fill="#EF6036"/>
<path fill-rule="evenodd" clip-rule="evenodd" d="M208.315 171.971C208.285 171.148 208.376 170.325 208.62 169.533C225.964 172.246 243.035 170.935 259.831 165.57C260.41 165.631 260.806 165.936 261.05 166.484C260.684 167.094 260.166 167.551 259.526 167.856C242.821 174.014 225.751 175.385 208.315 171.971Z" fill="#F9D2B9"/>
<path fill-rule="evenodd" clip-rule="evenodd" d="M121.439 182.335C121.897 182.335 122.262 182.549 122.506 182.945C122.781 190.566 123.177 198.186 123.726 205.807C124.61 214.434 125.372 223.06 126.012 231.717C125.524 231.778 125.067 231.687 124.64 231.413C123.634 222.969 122.628 214.556 121.592 206.112C120.891 198.4 120.677 190.688 120.982 182.945C121.196 182.793 121.348 182.579 121.439 182.335Z" fill="#EF6036"/>
<path fill-rule="evenodd" clip-rule="evenodd" d="M185.758 187.822C182.527 187.06 180.393 188.28 179.356 191.48C176.582 189.926 174.296 190.444 172.498 193.004C172.254 194.041 172.315 195.047 172.65 196.053C171.035 195.992 169.419 196.083 167.773 196.358C166.95 195.748 166.249 195.047 165.639 194.224C167.194 193.858 168.657 194.041 170.059 194.833C169.937 194.132 169.937 193.431 170.059 192.7C171.157 188.463 173.595 187.457 177.375 189.651C177.802 187.152 179.265 185.719 181.795 185.384C183.593 185.506 184.904 186.329 185.758 187.822Z" fill="#EF6036"/>
<path fill-rule="evenodd" clip-rule="evenodd" d="M286.046 210.075C289.947 218.671 294.154 227.114 298.696 235.375C300.891 240.771 300.891 246.166 298.696 251.531C296.654 254.975 294.185 258.085 291.228 260.828C292.478 261.102 293.087 261.865 293.057 263.114C293.026 264.547 292.508 265.766 291.533 266.772C290.069 267.565 288.576 267.565 287.113 266.772C286.838 268.205 285.985 269.058 284.522 269.363C284.887 270.156 285.314 270.918 285.741 271.649C287.509 276.466 289.338 281.251 291.228 285.976C297.873 306.644 304.305 327.372 310.584 348.161C311.59 352.611 312.535 357.092 313.48 361.573C312.84 363.463 311.864 365.201 310.584 366.755C306.743 371.267 302.232 374.894 297.019 377.577C296.349 377.881 295.617 378.034 294.886 378.034C294.733 384.222 292.081 388.947 286.96 392.208C280.742 395.592 274.127 397.848 267.146 398.914C263.092 399.036 259.008 399.189 254.953 399.372C254.313 398.975 253.551 398.762 252.667 398.762C251.905 398.823 251.143 398.854 250.381 398.914C242.638 401.932 234.621 403.304 226.3 403.03C221.27 402.755 216.301 402.115 211.363 401.048C207.949 400.682 204.566 400.622 201.152 400.896C197.402 399.829 193.805 400.134 190.33 401.81C187.008 401.079 183.776 400.103 180.576 398.914C175.942 397.055 171.37 395.135 166.859 393.123C165.67 392.147 164.694 390.959 163.963 389.617C163.566 387.301 163.414 384.953 163.505 382.606C158.933 382.119 155.214 380.076 152.379 376.51C151.373 374.681 150.337 372.852 149.331 371.023C149.087 368.249 149.301 365.506 149.941 362.793C153.019 347.521 157.287 332.584 162.743 317.983C169.48 299.236 177.131 280.886 185.758 262.962C183.868 261.377 182.283 259.487 181.033 257.323C177.07 249.214 172.498 241.502 167.316 234.156C165.761 231.29 164.45 228.364 163.353 225.316C162.53 222.298 162.408 219.25 163.048 216.171C164.024 212.452 165.578 209.069 167.773 205.959C165.182 205.319 163.871 203.643 163.81 200.93C164.176 198.552 165.487 197.028 167.773 196.357C169.419 196.083 171.035 195.992 172.65 196.052C172.315 195.047 172.284 194.041 172.498 193.004C174.296 190.444 176.583 189.925 179.356 191.48C180.393 188.279 182.527 187.06 185.758 187.822C186.063 188.34 186.459 188.737 186.977 189.041C187.099 189.346 187.312 189.407 187.587 189.194C188.715 187.731 190.117 186.694 191.854 186.146C193.836 185.688 195.329 186.359 196.274 188.127C196.457 190.901 195.299 192.943 192.769 194.224C195.177 195.108 197.524 196.174 199.78 197.424C202.036 198.765 204.017 200.442 205.724 202.454C206.974 205.746 207.522 209.16 207.4 212.666C206.608 224.798 206.151 236.96 206.029 249.092C210.418 256.347 215.295 263.236 220.66 269.82C221.758 271.131 223.038 272.198 224.471 273.021C224.989 273.235 225.477 273.235 225.995 273.021C229.5 270.704 232.853 268.174 236.054 265.4C245.138 256.439 253.399 246.837 260.898 236.594C264.677 230.559 268.549 224.554 272.481 218.61C275.986 215.104 280.01 212.3 284.522 210.227C285.009 210.075 285.527 210.014 286.046 210.075Z" fill="#2E3192"/>
<path fill-rule="evenodd" clip-rule="evenodd" d="M200.085 180.811C205.663 198.552 213.741 215.013 224.318 230.193C224.654 230.742 224.806 231.351 224.776 232.022C224.257 232.083 223.739 232.022 223.251 231.869C222.215 231.168 221.361 230.315 220.66 229.278C210.967 214.281 203.529 198.247 198.256 181.116C198.835 180.933 199.444 180.811 200.085 180.811Z" fill="#F9D2B9"/>
<path fill-rule="evenodd" clip-rule="evenodd" d="M21.1516 200.015C20.6639 203.765 20.2371 207.514 19.9323 211.294C17.9509 213.458 16.2134 215.866 14.7503 218.457C15.4819 219.067 16.2439 219.615 17.0365 220.134C17.9509 219.097 18.713 218 19.3227 216.781C19.2617 219.92 19.3227 223.091 19.4751 226.23C19.6275 226.535 19.7799 226.84 19.9323 227.145C16.0915 224.98 12.7384 222.176 9.87305 218.762C13.9882 212.726 17.7376 206.477 21.1516 200.015Z" fill="#2E3192"/>
<path fill-rule="evenodd" clip-rule="evenodd" d="M19.9323 211.294C19.7494 213.123 19.536 214.952 19.3226 216.781C18.713 218 17.9509 219.098 17.0364 220.134C16.2439 219.616 15.4818 219.067 14.7502 218.457C16.2134 215.866 17.9509 213.458 19.9323 211.294Z" fill="#EF6036"/>
<path fill-rule="evenodd" clip-rule="evenodd" d="M146.435 214.952C147.563 217.238 148.478 219.616 149.179 222.115C149.148 222.359 149.026 222.542 148.874 222.725C148.051 222.969 147.289 223.304 146.588 223.792C146.13 223.273 145.826 222.664 145.673 221.963C145.186 220.073 144.728 218.183 144.302 216.323C145.155 216.049 145.856 215.592 146.435 214.952Z" fill="#EF6036"/>
<path fill-rule="evenodd" clip-rule="evenodd" d="M137.595 218C137.961 218.03 138.235 218.213 138.357 218.61C138.906 221.048 139.546 223.426 140.339 225.773C139.485 225.925 138.693 226.2 137.9 226.535C137.443 226.261 137.199 225.865 137.138 225.316C136.589 222.999 136.132 220.652 135.766 218.305C136.437 218.396 137.047 218.305 137.595 218Z" fill="#EF6036"/>
<path fill-rule="evenodd" clip-rule="evenodd" d="M129.67 219.219C130.035 219.433 130.249 219.768 130.279 220.286C130.462 222.786 130.858 225.224 131.499 227.602C130.584 227.754 129.67 227.815 128.755 227.754C128.359 225.102 127.932 222.481 127.536 219.829C128.328 219.768 129.03 219.555 129.67 219.219Z" fill="#EF6036"/>
<path fill-rule="evenodd" clip-rule="evenodd" d="M143.997 229.888C145.003 244.276 146.13 258.664 147.35 273.021C147.35 273.57 147.228 274.058 147.045 274.545C149.697 279.27 151.617 284.239 152.837 289.482C152.105 292.408 150.794 294.999 148.874 297.255C149.179 293.597 149.24 289.939 149.026 286.281C148.813 286.494 148.63 286.677 148.417 286.891C147.685 290.732 147.38 294.572 147.502 298.474C147.624 298.657 147.776 298.748 147.959 298.779C147.99 299.358 147.868 299.907 147.655 300.456C146.862 302.041 146.1 303.595 145.368 305.18C143.052 307.467 140.826 309.783 138.662 312.191C137.992 313.411 137.016 314.325 135.766 314.935C135.187 312.405 135.431 309.966 136.528 307.619C138.083 305.15 139.516 302.62 140.796 299.998C141.131 295.487 140.918 291.036 140.186 286.586C139.455 284.818 138.632 283.08 137.748 281.404C137.016 280.611 136.315 280.611 135.614 281.404C134.334 287.165 134.212 292.957 135.309 298.779C135.858 302.315 135.4 305.668 133.937 308.838C133.236 307.985 132.474 307.192 131.651 306.4C130.249 301.583 128.877 296.828 127.536 292.073C127.414 290.03 127.292 288.019 127.231 285.976C128.268 285.306 129.304 284.544 130.279 283.69C130.554 283.538 130.859 283.507 131.194 283.538C130.371 274.789 129.426 266.041 128.298 257.323C127.81 249.184 127.14 241.045 126.317 232.936C132.383 232.845 138.266 231.839 143.997 229.888Z" fill="#F9D2B9"/>
<path fill-rule="evenodd" clip-rule="evenodd" d="M262.574 243.91C263.153 244.032 263.61 244.337 263.946 244.825C267.634 254.549 271.749 264.09 276.291 273.478C275.742 274.728 275.011 274.941 274.005 274.088C269.341 264.334 265.531 254.274 262.574 243.91Z" fill="#EF6036"/>
<path fill-rule="evenodd" clip-rule="evenodd" d="M254.649 250.921C255.075 250.86 255.472 250.921 255.868 251.074C255.715 251.196 255.624 251.348 255.563 251.531C266.232 288.598 277.937 325.329 290.618 361.726C290.161 362.61 289.49 362.884 288.637 362.488C280.742 339.839 273.243 317.099 266.08 294.207C260.837 281.282 256.935 267.961 254.344 254.274C254.405 253.147 254.496 252.019 254.649 250.921Z" fill="#EF6036"/>
<path fill-rule="evenodd" clip-rule="evenodd" d="M245.504 260.371C246.632 260.889 247.455 261.773 247.942 262.962C247.577 268.601 247.546 274.241 247.79 279.88C248.674 292.683 249.345 305.485 249.771 318.288C249.162 318.441 248.552 318.502 247.942 318.441C247.485 317.648 247.241 316.794 247.18 315.85C245.717 297.347 245.138 278.874 245.504 260.371Z" fill="#EF6036"/>
<path fill-rule="evenodd" clip-rule="evenodd" d="M291.532 266.772C292.081 267.26 292.508 267.87 292.752 268.601C290.953 271.01 289.063 271.01 287.113 268.601C287.052 269.821 286.594 270.857 285.741 271.65C285.314 270.918 284.887 270.156 284.521 269.363C285.985 269.059 286.838 268.205 287.113 266.772C288.576 267.565 290.069 267.565 291.532 266.772Z" fill="#EF6036"/>
<path fill-rule="evenodd" clip-rule="evenodd" d="M292.752 268.601C294.063 270.308 294.977 272.259 295.495 274.393C294.642 277.35 293.484 280.215 291.99 282.928C291.594 283.903 291.319 284.94 291.228 285.976C289.338 281.251 287.509 276.466 285.741 271.649C286.594 270.857 287.052 269.82 287.113 268.601C289.064 271.009 290.953 271.009 292.752 268.601Z" fill="#F9D2B9"/>
<path fill-rule="evenodd" clip-rule="evenodd" d="M41.5751 269.211C42.4286 269.638 43.343 269.851 44.3185 269.821C43.9222 273.387 43.5259 276.923 43.0992 280.49C42.0018 280.307 40.874 280.215 39.7461 280.185C40.4472 276.527 41.0568 272.869 41.5751 269.211Z" fill="#EF6036"/>
<path fill-rule="evenodd" clip-rule="evenodd" d="M52.5488 270.43C53.4632 270.43 54.3777 270.43 55.2922 270.43C55.0483 274.18 54.8654 277.959 54.6825 281.709C53.6766 281.526 52.6707 281.434 51.6343 281.404C51.7867 277.746 52.0915 274.088 52.5488 270.43Z" fill="#EF6036"/>
<path fill-rule="evenodd" clip-rule="evenodd" d="M119.001 271.04C119.702 271.04 120.433 271.04 121.135 271.04C121.226 274.057 121.714 277.014 122.659 279.88C121.5 280.245 120.312 280.55 119.153 280.794C118.422 277.685 117.964 274.545 117.781 271.344C118.269 271.436 118.665 271.314 119.001 271.04Z" fill="#EF6036"/>
<path fill-rule="evenodd" clip-rule="evenodd" d="M63.2175 271.345C64.0406 271.284 64.8636 271.345 65.6562 271.497C65.961 271.649 66.1744 271.924 66.2658 272.259C66.0219 275.612 65.8086 278.965 65.6562 282.318C64.7722 282.41 63.8882 282.288 63.0651 282.014C62.9127 278.447 62.9432 274.911 63.2175 271.345Z" fill="#EF6036"/>
<path fill-rule="evenodd" clip-rule="evenodd" d="M76.0204 272.259C77.0263 272.259 78.0627 272.259 79.0687 272.259C79.0687 275.704 79.0687 279.179 79.0687 282.623C77.9408 282.623 76.8434 282.623 75.7156 282.623C75.868 279.179 75.9594 275.704 76.0204 272.259Z" fill="#EF6036"/>
<path fill-rule="evenodd" clip-rule="evenodd" d="M102.54 272.564C103.76 272.564 104.979 272.564 106.198 272.564C106.412 275.734 106.716 278.874 107.113 282.014C105.985 282.044 104.857 282.136 103.76 282.318C103.333 279.057 102.937 275.826 102.54 272.564Z" fill="#EF6036"/>
<path fill-rule="evenodd" clip-rule="evenodd" d="M88.5181 272.869C89.646 272.869 90.7433 272.869 91.8712 272.869C91.8712 276.13 91.8712 279.361 91.8712 282.623C90.8653 282.623 89.8289 282.623 88.8229 282.623C88.5791 279.392 88.4876 276.13 88.5181 272.869Z" fill="#EF6036"/>
<path fill-rule="evenodd" clip-rule="evenodd" d="M209.23 283.538C209.992 283.477 210.54 283.782 210.906 284.452C210.876 290.549 210.784 296.645 210.601 302.742C208.894 325.391 207.37 348.07 206.029 370.718C204.505 371.968 203.743 371.511 203.743 369.347C205.175 341.333 206.76 313.35 208.467 285.367C208.528 284.666 208.803 284.056 209.23 283.538Z" fill="#EF6036"/>
<path fill-rule="evenodd" clip-rule="evenodd" d="M140.186 286.586C139.455 284.818 138.632 283.081 137.748 281.404C137.016 280.611 136.315 280.611 135.614 281.404C134.334 287.165 134.212 292.957 135.309 298.779C135.858 302.315 135.401 305.668 133.937 308.838C133.267 310.545 133.236 312.283 133.785 314.02C134.12 315.118 134.791 315.423 135.766 314.935C135.187 312.405 135.431 309.966 136.528 307.619C138.083 305.15 139.516 302.62 140.796 299.998C141.131 295.487 140.918 291.036 140.186 286.586ZM138.815 296.036C138.083 296.493 137.534 297.103 137.138 297.865C136.742 295.396 136.376 292.896 136.071 290.396C136.346 288.202 136.528 286.037 136.681 283.843C136.955 283.812 137.138 283.904 137.29 284.147C138.815 287.988 139.333 291.951 138.815 296.036Z" fill="#EF6036"/>
<path fill-rule="evenodd" clip-rule="evenodd" d="M39.4412 285.367C44.2575 286.495 49.1347 287.348 54.0729 287.958C63.0043 288.354 71.9662 288.72 80.8976 289.025C80.6538 303.87 80.3489 318.684 79.9831 333.529C80.1356 353.587 80.9586 373.583 82.4218 393.58C82.3608 394.586 82.3303 395.622 82.2693 396.628C82.1169 397.055 81.8731 397.421 81.5073 397.695C79.7393 398.274 77.9103 398.64 76.0204 398.762C68.2168 399.341 60.3828 399.646 52.5488 399.677C48.2812 399.677 44.0136 399.677 39.7461 399.677C37.9781 399.433 36.1491 399.28 34.2592 399.219C34.0763 398.976 33.9239 398.732 33.8019 398.457C33.2228 393.458 32.9789 388.429 33.0399 383.368C33.3447 350.569 35.4785 317.922 39.4412 285.367Z" fill="#3E3E40"/>
<path fill-rule="evenodd" clip-rule="evenodd" d="M148.874 297.255C148.813 297.926 148.508 298.413 147.959 298.779C147.777 298.749 147.624 298.657 147.502 298.474C147.38 294.573 147.685 290.732 148.417 286.891C148.63 286.678 148.813 286.495 149.026 286.281C149.24 289.939 149.179 293.597 148.874 297.255Z" fill="#EF6036"/>
<path fill-rule="evenodd" clip-rule="evenodd" d="M127.231 285.977C127.292 288.019 127.414 290.031 127.536 292.073C129.121 317.861 130.493 343.68 131.651 369.499C132.261 377.668 132.901 385.868 133.633 394.038C133.572 395.196 133.175 396.232 132.413 397.086C129.091 397.909 125.738 398.549 122.354 399.067C112.813 399.86 103.241 399.86 93.7004 399.067C91.719 398.854 89.7681 398.397 87.9087 397.695C87.6648 397.452 87.3905 397.177 87.1466 396.933C85.9578 378.674 85.5006 360.385 85.7749 342.065C85.7444 324.476 85.9273 306.918 86.3846 289.33C90.1949 289.482 94.0052 289.574 97.8156 289.634C107.814 289.939 117.629 288.72 127.231 285.977Z" fill="#3E3E40"/>
<path fill-rule="evenodd" clip-rule="evenodd" d="M179.661 304.875C180.454 304.906 181.063 305.241 181.49 305.942C176.491 328.865 171.217 351.727 165.639 374.528C164.755 374.833 164.054 374.62 163.505 373.919C164.816 366.725 166.31 359.561 167.925 352.428C171.278 337.675 174.875 322.982 178.747 308.381C178.564 307.131 178.869 305.942 179.661 304.875Z" fill="#EF6036"/>
<path opacity="0.996" fill-rule="evenodd" clip-rule="evenodd" d="M95.5597 181.146C96.1389 181.146 96.6266 181.36 97.0229 181.787C97.9069 182.945 98.7604 184.103 99.6444 185.262C100.498 184.134 101.351 183.006 102.205 181.878C102.601 181.421 103.089 181.177 103.699 181.177C105.07 181.177 106.442 181.207 107.844 181.177C108.21 181.177 108.576 181.238 108.911 181.421C108.576 181.421 108.271 181.451 107.966 181.512C107.661 181.604 107.417 181.726 107.174 181.939C106.991 182.122 106.808 182.274 106.625 182.457C106.351 182.793 106.076 183.097 105.802 183.433C105.253 184.195 104.705 184.926 104.156 185.658C103.302 186.786 102.449 187.914 101.565 189.041C101.565 190.139 101.565 191.236 101.565 192.334C101.443 193.096 101.047 193.644 100.315 193.919C100.193 193.949 100.102 193.98 99.9797 194.01C99.2481 194.041 98.5165 194.041 97.785 194.041C97.785 192.364 97.785 190.718 97.785 189.041C96.5656 187.395 95.3158 185.78 94.0965 184.134C93.7307 183.555 93.6698 182.945 93.9137 182.305C94.188 181.573 94.7672 181.177 95.5597 181.146Z" fill="#FEFFFE"/>
<path opacity="0.997" fill-rule="evenodd" clip-rule="evenodd" d="M116.593 181.146C117.233 181.146 117.873 181.146 118.543 181.146C118.543 184.896 118.543 188.676 118.543 192.425C118.422 193.157 118.025 193.675 117.355 193.949C116.532 194.224 115.8 194.041 115.221 193.401C114.977 193.096 114.825 192.73 114.764 192.334C114.764 190.596 114.764 188.889 114.764 187.152C113.941 188.127 113.087 189.102 112.264 190.078C111.411 189.102 110.588 188.127 109.764 187.152C109.764 188.95 109.764 190.779 109.764 192.577C109.704 193.37 109.277 193.827 108.515 193.98C108.423 194.01 108.301 194.01 108.21 194.01C107.478 194.01 106.716 194.01 105.985 194.01C105.985 190.596 105.985 187.152 105.985 183.738C106.35 183.219 106.777 182.732 107.234 182.274C107.417 182.091 107.631 181.939 107.875 181.817C108.088 181.726 108.301 181.695 108.545 181.695C108.85 181.695 109.155 181.695 109.46 181.695C110.405 182.823 111.35 183.92 112.295 185.048C113.239 183.92 114.184 182.793 115.129 181.665C115.495 181.329 116.013 181.146 116.593 181.146Z" fill="#FEFFFE"/>
<path opacity="0.955" fill-rule="evenodd" clip-rule="evenodd" d="M100.315 195.046C100.528 195.046 100.62 195.168 100.65 195.351C100.62 195.534 100.528 195.656 100.345 195.656C100.101 195.626 100.01 195.473 100.071 195.229C100.102 195.107 100.193 195.046 100.315 195.046Z" fill="#FEFFFE"/>
<path opacity="0.957" fill-rule="evenodd" clip-rule="evenodd" d="M115.678 195.046C115.922 195.077 116.013 195.199 115.983 195.443C115.891 195.626 115.77 195.717 115.556 195.656C115.404 195.565 115.343 195.443 115.404 195.26C115.465 195.107 115.556 195.046 115.678 195.046Z" fill="#FEFFFE"/>
<path opacity="0.959" fill-rule="evenodd" clip-rule="evenodd" d="M118.208 195.046C118.452 195.077 118.544 195.199 118.513 195.473C118.422 195.656 118.3 195.717 118.117 195.656C117.964 195.595 117.903 195.473 117.934 195.29C117.995 195.138 118.086 195.046 118.208 195.046Z" fill="#FEFFFE"/>
<path opacity="0.972" fill-rule="evenodd" clip-rule="evenodd" d="M93.7002 195.168C93.8831 195.138 94.066 195.138 94.2489 195.168C94.4623 195.626 94.6452 196.083 94.8585 196.54C95.0719 196.083 95.2853 195.626 95.4682 195.168C95.6511 195.138 95.834 195.138 95.9864 195.168C95.6816 195.778 95.3767 196.418 95.0719 197.028C95.0719 197.424 95.0719 197.82 95.0719 198.217C94.9195 198.217 94.7366 198.217 94.5842 198.217C94.5842 197.82 94.5842 197.424 94.5842 197.028C94.3099 196.418 94.005 195.778 93.7002 195.168Z" fill="#FEFFFE"/>
<path opacity="0.968" fill-rule="evenodd" clip-rule="evenodd" d="M105.649 195.138C105.802 195.138 105.985 195.138 106.137 195.138C106.381 195.748 106.625 196.388 106.899 196.998C107.174 196.388 107.417 195.748 107.661 195.138C107.814 195.138 107.997 195.138 108.149 195.138C108.149 196.175 108.149 197.181 108.149 198.217C107.997 198.217 107.844 198.217 107.692 198.217C107.692 197.516 107.692 196.815 107.692 196.114C107.478 196.662 107.265 197.181 107.021 197.729C106.93 197.729 106.869 197.729 106.777 197.729C106.564 197.211 106.351 196.662 106.137 196.144C106.137 196.845 106.137 197.546 106.137 198.217C105.985 198.217 105.832 198.217 105.68 198.217C105.649 197.211 105.649 196.175 105.649 195.138Z" fill="#FEFFFE"/>
<path opacity="0.968" fill-rule="evenodd" clip-rule="evenodd" d="M114.459 195.138C114.611 195.138 114.764 195.138 114.916 195.138C114.916 196.175 114.916 197.181 114.916 198.217C114.764 198.217 114.642 198.217 114.489 198.217C114.489 198.125 114.459 198.065 114.459 198.004C114.276 198.247 114.002 198.339 113.697 198.278C113.301 198.217 113.087 197.973 113.087 197.577C113.087 197.272 113.087 196.967 113.087 196.693C113.148 196.175 113.453 195.931 114.002 195.961C114.185 195.992 114.306 196.053 114.428 196.175C114.459 195.809 114.459 195.473 114.459 195.138ZM113.941 196.327C114.246 196.327 114.398 196.449 114.459 196.754C114.459 197.028 114.459 197.272 114.459 197.546C114.367 197.79 114.185 197.912 113.91 197.882C113.727 197.821 113.636 197.699 113.575 197.546C113.575 197.272 113.575 196.967 113.575 196.693C113.666 196.479 113.788 196.357 113.941 196.327Z" fill="#FEFFFE"/>
<path opacity="0.973" fill-rule="evenodd" clip-rule="evenodd" d="M98.6383 195.413C98.7907 195.413 98.9431 195.413 99.0956 195.413C99.0956 195.595 99.0956 195.778 99.0956 195.961C99.3089 195.961 99.5223 195.961 99.7357 195.961C99.7357 196.083 99.7357 196.205 99.7357 196.327C99.5223 196.327 99.3089 196.327 99.0956 196.327C99.0956 196.784 99.0956 197.242 99.126 197.699C99.1565 197.79 99.2175 197.821 99.3089 197.851C99.4309 197.851 99.5528 197.851 99.6747 197.821C99.7052 197.943 99.7052 198.065 99.7357 198.156V198.187C99.5223 198.247 99.2784 198.247 99.0651 198.217C98.8517 198.156 98.7298 198.004 98.6993 197.79C98.6993 197.303 98.6993 196.815 98.6993 196.297C98.5774 196.297 98.4554 196.297 98.3335 196.297C98.3335 196.175 98.3335 196.053 98.3335 195.931C98.4554 195.931 98.5774 195.931 98.6993 195.931C98.6383 195.778 98.6383 195.595 98.6383 195.413Z" fill="#FEFFFE"/>
<path opacity="0.973" fill-rule="evenodd" clip-rule="evenodd" d="M96.9008 195.931C97.1446 195.9 97.358 195.961 97.5714 196.053C97.7848 196.205 97.9372 196.419 97.9372 196.662C97.9372 197.181 97.9372 197.699 97.9372 198.217C97.8153 198.217 97.6933 198.217 97.5714 198.217C97.5714 198.156 97.5409 198.095 97.5409 198.034C97.3885 198.187 97.1751 198.278 96.9312 198.247C96.5959 198.278 96.3521 198.126 96.1997 197.821C96.0777 197.303 96.2606 196.998 96.7788 196.845C96.9617 196.815 97.1141 196.845 97.297 196.876C97.358 196.906 97.419 196.937 97.4799 196.998C97.5104 196.419 97.2666 196.205 96.6874 196.327C96.5959 196.358 96.5045 196.388 96.4131 196.449C96.3521 196.327 96.3216 196.205 96.2911 196.083C96.3521 196.053 96.413 196.022 96.474 195.992C96.6264 195.961 96.7788 195.931 96.9008 195.931ZM96.9617 197.211C97.1751 197.181 97.358 197.242 97.5104 197.424C97.6019 197.699 97.4799 197.882 97.1751 197.943C96.9922 197.973 96.8093 197.912 96.6874 197.76C96.5959 197.485 96.6874 197.303 96.9617 197.211Z" fill="#FEFFFE"/>
<path opacity="0.978" fill-rule="evenodd" clip-rule="evenodd" d="M102.022 195.931C102.266 195.9 102.479 195.961 102.662 196.144C102.693 196.205 102.723 196.236 102.753 196.297C102.906 195.992 103.18 195.87 103.516 195.931C103.759 195.961 103.942 196.114 104.064 196.327C104.095 196.419 104.095 196.479 104.125 196.571C104.125 197.12 104.125 197.668 104.125 198.217C103.973 198.217 103.82 198.217 103.668 198.217C103.668 197.699 103.668 197.181 103.637 196.662C103.546 196.388 103.394 196.297 103.089 196.358C102.967 196.418 102.906 196.51 102.875 196.632C102.845 197.15 102.845 197.699 102.845 198.217C102.693 198.217 102.54 198.217 102.388 198.217C102.388 197.699 102.388 197.15 102.357 196.632C102.296 196.358 102.113 196.266 101.869 196.327C101.717 196.388 101.656 196.479 101.595 196.632C101.565 197.15 101.565 197.699 101.565 198.217C101.412 198.217 101.26 198.217 101.107 198.217C101.107 197.455 101.107 196.693 101.107 195.961C101.229 195.961 101.382 195.961 101.504 195.961C101.504 196.053 101.534 196.144 101.534 196.236C101.656 196.053 101.809 195.961 102.022 195.931Z" fill="#FEFFFE"/>
<path opacity="0.97" fill-rule="evenodd" clip-rule="evenodd" d="M109.338 195.93C109.612 195.9 109.856 195.961 110.1 196.113C110.283 196.266 110.374 196.449 110.405 196.662C110.405 197.18 110.405 197.698 110.405 198.217C110.283 198.217 110.161 198.217 110.039 198.217C110.039 198.156 110.008 198.095 110.008 198.034C109.856 198.186 109.643 198.278 109.399 198.247C108.942 198.247 108.667 198.034 108.606 197.546C108.637 197.15 108.85 196.936 109.246 196.845C109.49 196.814 109.734 196.845 109.947 196.997C109.978 196.845 109.947 196.723 109.917 196.571C109.826 196.357 109.643 196.266 109.429 196.296C109.246 196.296 109.063 196.357 108.881 196.449C108.82 196.357 108.789 196.235 108.759 196.113C108.759 196.083 108.759 196.083 108.759 196.052C108.82 196.022 108.881 195.991 108.972 195.961C109.094 195.961 109.216 195.93 109.338 195.93ZM109.399 197.211C109.582 197.18 109.765 197.241 109.917 197.363C110.039 197.638 109.978 197.82 109.704 197.912C109.551 197.942 109.399 197.942 109.246 197.851C109.094 197.729 109.063 197.577 109.124 197.394C109.185 197.302 109.277 197.241 109.399 197.211Z" fill="#FEFFFE"/>
<path opacity="0.976" fill-rule="evenodd" clip-rule="evenodd" d="M111.837 195.931C112.173 195.9 112.447 196.022 112.599 196.327C112.63 196.419 112.66 196.54 112.66 196.632C112.66 197.15 112.66 197.699 112.66 198.217C112.508 198.217 112.355 198.217 112.203 198.217C112.203 197.699 112.203 197.15 112.173 196.632C112.081 196.358 111.929 196.266 111.654 196.327C111.502 196.388 111.411 196.48 111.38 196.662C111.35 197.181 111.35 197.699 111.35 198.217C111.197 198.217 111.045 198.217 110.892 198.217C110.892 197.455 110.892 196.693 110.892 195.961C111.014 195.961 111.167 195.961 111.289 195.961C111.289 196.053 111.319 196.144 111.319 196.205C111.441 196.053 111.624 195.961 111.837 195.931Z" fill="#FEFFFE"/>
<path opacity="0.978" fill-rule="evenodd" clip-rule="evenodd" d="M117.538 195.931C117.568 195.931 117.629 195.931 117.66 195.931C117.66 196.083 117.66 196.235 117.66 196.388C117.507 196.388 117.385 196.388 117.233 196.449C117.05 196.571 116.928 196.723 116.928 196.967C116.928 197.394 116.928 197.821 116.928 198.247C116.776 198.247 116.623 198.247 116.471 198.247C116.471 197.485 116.471 196.723 116.471 195.992C116.623 195.992 116.745 195.992 116.897 195.992C116.897 196.114 116.897 196.235 116.928 196.357C117.05 196.083 117.263 195.931 117.538 195.931Z" fill="#FEFFFE"/>
<path opacity="0.988" fill-rule="evenodd" clip-rule="evenodd" d="M100.102 195.961C100.254 195.961 100.406 195.961 100.559 195.961C100.559 196.723 100.559 197.485 100.559 198.217C100.406 198.217 100.254 198.217 100.102 198.217C100.102 197.485 100.102 196.723 100.102 195.961Z" fill="#FEFFFE"/>
<path opacity="0.98" fill-rule="evenodd" clip-rule="evenodd" d="M115.465 195.961C115.617 195.961 115.77 195.961 115.922 195.961C115.922 196.723 115.922 197.485 115.922 198.217C115.77 198.217 115.617 198.217 115.465 198.217C115.465 197.485 115.465 196.723 115.465 195.961Z" fill="#FEFFFE"/>
<path opacity="0.98" fill-rule="evenodd" clip-rule="evenodd" d="M117.995 195.961C118.147 195.961 118.3 195.961 118.452 195.961C118.452 196.723 118.452 197.485 118.452 198.217C118.3 198.217 118.147 198.217 117.995 198.217C117.995 197.485 117.995 196.723 117.995 195.961Z" fill="#FEFFFE"/>
<path opacity="0.996" fill-rule="evenodd" clip-rule="evenodd" d="M188.806 162.613C189.233 162.613 189.568 162.766 189.873 163.071C190.513 163.894 191.123 164.747 191.763 165.57C192.373 164.747 192.982 163.955 193.592 163.131C193.866 162.796 194.232 162.613 194.659 162.613C195.665 162.613 196.64 162.613 197.646 162.613C197.921 162.613 198.164 162.674 198.408 162.796C198.164 162.796 197.951 162.827 197.707 162.857C197.494 162.918 197.311 163.01 197.128 163.162C197.006 163.284 196.854 163.406 196.732 163.528C196.518 163.772 196.335 163.985 196.122 164.229C195.726 164.778 195.329 165.326 194.933 165.844C194.324 166.667 193.683 167.46 193.074 168.283C193.074 169.076 193.074 169.868 193.074 170.661C192.982 171.209 192.708 171.606 192.159 171.819C192.068 171.85 192.007 171.88 191.915 171.88C191.397 171.88 190.849 171.91 190.33 171.91C190.33 170.722 190.33 169.502 190.33 168.314C189.446 167.125 188.562 165.966 187.678 164.778C187.404 164.351 187.374 163.924 187.556 163.436C187.831 162.918 188.227 162.644 188.806 162.613Z" fill="#FEFFFE"/>
<path opacity="0.997" fill-rule="evenodd" clip-rule="evenodd" d="M203.987 162.613C204.444 162.613 204.932 162.613 205.389 162.613C205.389 165.326 205.389 168.039 205.389 170.752C205.297 171.27 205.023 171.636 204.535 171.85C203.926 172.063 203.407 171.91 202.981 171.453C202.798 171.24 202.676 170.966 202.676 170.691C202.676 169.441 202.676 168.192 202.676 166.942C202.066 167.643 201.457 168.344 200.877 169.076C200.268 168.375 199.658 167.673 199.079 166.972C199.079 168.283 199.079 169.594 199.079 170.905C199.048 171.484 198.744 171.819 198.164 171.91C198.103 171.91 198.012 171.941 197.951 171.941C197.402 171.941 196.884 171.941 196.335 171.941C196.335 169.472 196.335 167.003 196.335 164.503C196.61 164.137 196.915 163.772 197.25 163.436C197.402 163.314 197.555 163.192 197.707 163.131C197.86 163.071 198.012 163.04 198.195 163.04C198.408 163.04 198.652 163.04 198.866 163.04C199.536 163.833 200.237 164.656 200.908 165.479C201.578 164.656 202.28 163.833 202.95 163.04C203.194 162.766 203.56 162.613 203.987 162.613Z" fill="#FEFFFE"/>
<path opacity="0.955" fill-rule="evenodd" clip-rule="evenodd" d="M192.22 172.642C192.373 172.642 192.434 172.734 192.464 172.855C192.464 173.008 192.373 173.069 192.251 173.069C192.068 173.038 192.007 172.947 192.037 172.764C192.068 172.703 192.159 172.642 192.22 172.642Z" fill="#FEFFFE"/>
<path opacity="0.957" fill-rule="evenodd" clip-rule="evenodd" d="M203.316 172.642C203.468 172.673 203.56 172.764 203.529 172.916C203.468 173.069 203.377 173.099 203.224 173.069C203.103 173.008 203.072 172.916 203.103 172.795C203.164 172.703 203.224 172.642 203.316 172.642Z" fill="#FEFFFE"/>
<path opacity="0.959" fill-rule="evenodd" clip-rule="evenodd" d="M205.145 172.642C205.328 172.673 205.389 172.764 205.358 172.947C205.297 173.069 205.206 173.099 205.054 173.069C204.932 173.008 204.901 172.916 204.932 172.795C204.993 172.703 205.054 172.642 205.145 172.642Z" fill="#FEFFFE"/>
<path opacity="0.972" fill-rule="evenodd" clip-rule="evenodd" d="M187.465 172.733C187.587 172.733 187.739 172.733 187.861 172.733C188.014 173.069 188.166 173.404 188.318 173.709C188.471 173.374 188.623 173.038 188.776 172.733C188.898 172.733 189.019 172.733 189.141 172.733C188.928 173.191 188.715 173.617 188.501 174.075C188.501 174.349 188.501 174.654 188.501 174.928C188.379 174.928 188.257 174.928 188.166 174.928C188.166 174.654 188.166 174.349 188.166 174.075C187.892 173.617 187.678 173.191 187.465 172.733Z" fill="#FEFFFE"/>
<path opacity="0.968" fill-rule="evenodd" clip-rule="evenodd" d="M196.092 172.733C196.213 172.733 196.335 172.733 196.457 172.733C196.64 173.191 196.823 173.617 197.006 174.075C197.189 173.617 197.372 173.191 197.555 172.733C197.677 172.733 197.799 172.733 197.89 172.733C197.89 173.465 197.89 174.227 197.89 174.959C197.768 174.959 197.677 174.959 197.555 174.959C197.555 174.44 197.555 173.953 197.555 173.434C197.402 173.831 197.25 174.227 197.067 174.593C197.006 174.593 196.945 174.593 196.884 174.593C196.732 174.227 196.579 173.831 196.427 173.465C196.427 173.953 196.427 174.471 196.427 174.959C196.305 174.959 196.213 174.959 196.092 174.959C196.092 174.197 196.092 173.465 196.092 172.733Z" fill="#FEFFFE"/>
<path opacity="0.968" fill-rule="evenodd" clip-rule="evenodd" d="M202.432 172.733C202.554 172.733 202.645 172.733 202.767 172.733C202.767 173.465 202.767 174.227 202.767 174.959C202.676 174.959 202.554 174.959 202.462 174.959C202.462 174.898 202.462 174.837 202.432 174.806C202.28 174.989 202.097 175.05 201.883 174.989C201.609 174.928 201.457 174.776 201.426 174.471C201.426 174.258 201.426 174.044 201.426 173.831C201.487 173.465 201.7 173.282 202.066 173.313C202.188 173.313 202.31 173.374 202.371 173.465C202.432 173.221 202.462 172.977 202.432 172.733ZM202.066 173.587C202.28 173.587 202.401 173.678 202.432 173.892C202.432 174.075 202.432 174.258 202.432 174.471C202.371 174.654 202.249 174.745 202.036 174.715C201.914 174.684 201.822 174.593 201.792 174.471C201.792 174.258 201.792 174.044 201.792 173.861C201.853 173.678 201.944 173.617 202.066 173.587Z" fill="#FEFFFE"/>
<path opacity="0.973" fill-rule="evenodd" clip-rule="evenodd" d="M191.032 172.917C191.153 172.917 191.245 172.917 191.367 172.917C191.367 173.038 191.367 173.191 191.367 173.313C191.519 173.313 191.672 173.313 191.824 173.313C191.824 173.404 191.824 173.496 191.824 173.587C191.672 173.587 191.519 173.587 191.367 173.587C191.367 173.922 191.367 174.258 191.397 174.563C191.428 174.624 191.458 174.654 191.519 174.684C191.611 174.684 191.702 174.684 191.794 174.654C191.794 174.745 191.824 174.837 191.824 174.898V174.928C191.672 174.959 191.489 174.989 191.336 174.959C191.184 174.898 191.092 174.806 191.062 174.654C191.062 174.288 191.062 173.953 191.062 173.587C190.971 173.587 190.879 173.587 190.818 173.587C190.818 173.496 190.818 173.404 190.818 173.313C190.91 173.313 191.001 173.313 191.062 173.313C191.032 173.191 191.032 173.038 191.032 172.917Z" fill="#FEFFFE"/>
<path opacity="0.973" fill-rule="evenodd" clip-rule="evenodd" d="M189.782 173.282C189.965 173.282 190.117 173.282 190.269 173.374C190.422 173.465 190.513 173.618 190.544 173.831C190.544 174.197 190.544 174.593 190.544 174.959C190.452 174.959 190.361 174.959 190.269 174.959C190.269 174.928 190.239 174.867 190.239 174.837C190.117 174.959 189.965 175.02 189.812 174.989C189.568 174.989 189.385 174.898 189.294 174.684C189.203 174.319 189.355 174.075 189.721 173.983C189.843 173.983 189.965 173.983 190.087 174.014C190.147 174.044 190.178 174.075 190.239 174.105C190.269 173.679 190.087 173.526 189.66 173.618C189.599 173.618 189.538 173.648 189.477 173.709C189.446 173.618 189.416 173.526 189.385 173.435C189.416 173.404 189.477 173.374 189.507 173.374C189.568 173.313 189.69 173.282 189.782 173.282ZM189.812 174.197C189.965 174.166 190.087 174.227 190.208 174.349C190.269 174.562 190.178 174.684 189.965 174.715C189.812 174.745 189.721 174.684 189.629 174.593C189.538 174.41 189.629 174.288 189.812 174.197Z" fill="#FEFFFE"/>
<path opacity="0.978" fill-rule="evenodd" clip-rule="evenodd" d="M193.47 173.282C193.653 173.252 193.805 173.313 193.927 173.435C193.958 173.465 193.958 173.496 193.988 173.557C194.11 173.343 194.293 173.252 194.537 173.282C194.72 173.313 194.842 173.404 194.933 173.587C194.964 173.648 194.964 173.709 194.964 173.77C194.964 174.166 194.964 174.562 194.964 174.959C194.842 174.959 194.75 174.959 194.628 174.959C194.628 174.593 194.628 174.197 194.598 173.831C194.537 173.617 194.415 173.557 194.202 173.617C194.11 173.648 194.049 173.739 194.049 173.831C194.049 174.197 194.019 174.593 194.019 174.959C193.897 174.959 193.805 174.959 193.683 174.959C193.683 174.562 193.683 174.197 193.653 173.831C193.592 173.648 193.501 173.587 193.287 173.617C193.196 173.648 193.135 173.739 193.104 173.831C193.104 174.197 193.074 174.593 193.074 174.959C192.952 174.959 192.86 174.959 192.739 174.959C192.739 174.41 192.739 173.861 192.739 173.313C192.83 173.313 192.921 173.313 193.013 173.313C193.013 173.374 193.013 173.435 193.043 173.496C193.196 173.374 193.318 173.313 193.47 173.282Z" fill="#FEFFFE"/>
<path opacity="0.97" fill-rule="evenodd" clip-rule="evenodd" d="M198.743 173.282C198.926 173.252 199.109 173.313 199.292 173.404C199.414 173.526 199.475 173.648 199.506 173.801C199.506 174.166 199.506 174.563 199.506 174.928C199.414 174.928 199.323 174.928 199.231 174.928C199.231 174.898 199.201 174.837 199.201 174.806C199.079 174.928 198.926 174.989 198.774 174.959C198.439 174.959 198.256 174.806 198.195 174.471C198.225 174.197 198.378 174.014 198.652 173.953C198.835 173.922 198.987 173.953 199.14 174.075C199.14 173.983 199.14 173.862 199.109 173.77C199.048 173.618 198.926 173.557 198.774 173.557C198.622 173.557 198.5 173.587 198.378 173.648C198.347 173.557 198.317 173.496 198.286 173.404V173.374C198.347 173.343 198.378 173.313 198.439 173.313C198.561 173.313 198.652 173.282 198.743 173.282ZM198.774 174.197C198.926 174.166 199.048 174.197 199.14 174.319C199.231 174.502 199.17 174.654 198.987 174.715C198.865 174.746 198.774 174.715 198.683 174.685C198.561 174.593 198.53 174.502 198.591 174.349C198.622 174.288 198.683 174.227 198.774 174.197Z" fill="#FEFFFE"/>
<path opacity="0.976" fill-rule="evenodd" clip-rule="evenodd" d="M200.542 173.282C200.786 173.252 200.969 173.343 201.091 173.556C201.121 173.617 201.152 173.709 201.152 173.77C201.152 174.166 201.152 174.532 201.152 174.928C201.03 174.928 200.938 174.928 200.816 174.928C200.816 174.532 200.816 174.166 200.786 173.8C200.725 173.617 200.603 173.526 200.42 173.587C200.298 173.617 200.237 173.709 200.207 173.831C200.207 174.197 200.176 174.593 200.176 174.959C200.054 174.959 199.963 174.959 199.841 174.959C199.841 174.41 199.841 173.861 199.841 173.313C199.932 173.313 200.024 173.313 200.115 173.313C200.115 173.374 200.115 173.434 200.146 173.495C200.268 173.374 200.39 173.313 200.542 173.282Z" fill="#FEFFFE"/>
<path opacity="0.978" fill-rule="evenodd" clip-rule="evenodd" d="M204.657 173.282C204.688 173.282 204.718 173.282 204.749 173.282C204.749 173.404 204.749 173.496 204.749 173.618C204.657 173.618 204.535 173.618 204.444 173.648C204.291 173.739 204.23 173.861 204.23 174.014C204.23 174.319 204.23 174.623 204.23 174.928C204.108 174.928 204.017 174.928 203.895 174.928C203.895 174.38 203.895 173.831 203.895 173.282C203.986 173.282 204.108 173.282 204.2 173.282C204.2 173.374 204.2 173.465 204.23 173.526C204.322 173.404 204.444 173.313 204.657 173.282Z" fill="#FEFFFE"/>
<path opacity="0.988" fill-rule="evenodd" clip-rule="evenodd" d="M192.068 173.312C192.19 173.312 192.281 173.312 192.403 173.312C192.403 173.861 192.403 174.41 192.403 174.959C192.281 174.959 192.19 174.959 192.068 174.959C192.068 174.41 192.068 173.861 192.068 173.312Z" fill="#FEFFFE"/>
<path opacity="0.98" fill-rule="evenodd" clip-rule="evenodd" d="M203.164 173.312C203.286 173.312 203.377 173.312 203.499 173.312C203.499 173.861 203.499 174.41 203.499 174.959C203.377 174.959 203.286 174.959 203.164 174.959C203.164 174.41 203.164 173.861 203.164 173.312Z" fill="#FEFFFE"/>
<path opacity="0.98" fill-rule="evenodd" clip-rule="evenodd" d="M204.992 173.312C205.114 173.312 205.206 173.312 205.328 173.312C205.328 173.861 205.328 174.41 205.328 174.959C205.206 174.959 205.114 174.959 204.992 174.959C204.992 174.41 204.992 173.861 204.992 173.312Z" fill="#FEFFFE"/>
<path fill-rule="evenodd" clip-rule="evenodd" d="M178.137 169.838C176.552 171.392 174.845 172.916 173.108 174.41C170.486 177.397 169.48 180.842 170.059 184.774C170.364 184.987 170.669 185.17 170.974 185.384C171.126 182.305 172.041 179.44 173.717 176.849C175.455 175.203 177.07 173.495 178.595 171.667C179.021 170.935 179.082 170.203 178.747 169.533C179.905 166.484 181.734 163.893 184.234 161.76C185.24 161.272 186.276 161.211 187.282 161.607C187.8 162.156 188.258 162.766 188.654 163.436C189.02 164.747 189.263 166.058 189.416 167.399C189.02 170.661 188.501 173.922 187.892 177.153C187.008 181.086 186.703 185.048 186.977 189.042C186.459 188.737 186.063 188.341 185.758 187.822C184.904 186.329 183.594 185.506 181.795 185.384C179.296 185.719 177.802 187.152 177.375 189.651C173.595 187.457 171.157 188.462 170.059 192.7C169.937 193.431 169.937 194.132 170.059 194.833C168.657 194.041 167.194 193.858 165.639 194.224C164.39 193.126 163.17 191.937 161.981 190.718C156.738 188.219 151.8 185.231 147.197 181.726C146.466 179.653 147.167 178.617 149.331 178.678C152.745 179.562 156.159 180.415 159.543 181.269C154.97 177.641 150.764 173.617 146.893 169.228C146.161 165.905 147.441 164.625 150.703 165.418C154.544 168.588 158.506 171.575 162.591 174.41C162.683 174.319 162.805 174.197 162.896 174.105C160.457 170.447 157.866 166.881 155.123 163.436C153.782 161.638 152.837 159.656 152.227 157.492C152.532 156.181 153.142 155.084 154.056 154.139C154.757 153.926 155.489 153.926 156.19 154.139C160.579 158.529 164.633 163.162 168.383 168.009C164.938 171.423 162.256 175.385 160.305 179.897C159.817 181.177 159.451 182.488 159.238 183.86C159.421 184.53 159.817 185.048 160.457 185.384C161.646 181.055 163.445 177.001 165.792 173.191C167.529 171.331 169.358 169.624 171.279 168.009C171.523 167.368 171.34 166.972 170.669 166.789C169.968 167.064 169.328 167.368 168.688 167.704C166.401 163.345 164.573 158.772 163.201 153.987C163.749 152.127 164.969 151.487 166.859 152.005C167.773 152.462 168.535 153.133 169.145 153.987C172.528 159.047 175.546 164.32 178.137 169.838Z" fill="#F9D2B9"/>
</g>
<defs>
<linearGradient id="paint0_linear_761_1885" x1="160" y1="381.5" x2="160" y2="160" gradientUnits="userSpaceOnUse">
<stop stop-color="#F47D21"/>
<stop offset="1" stop-color="#F47D21" stop-opacity="0"/>
</linearGradient>
<clipPath id="clip0_761_1885">
<rect width="320" height="320" rx="160" fill="white"/>
</clipPath>
</defs>
</svg>
