<svg width="320" height="320" viewBox="0 0 320 320" fill="none" xmlns="http://www.w3.org/2000/svg">
<g clip-path="url(#clip0_761_2152)">
<rect width="320" height="320" rx="160" fill="url(#paint0_linear_761_2152)"/>
<path fill-rule="evenodd" clip-rule="evenodd" d="M119.822 153.279C119.668 153.345 119.536 153.411 119.382 153.499C117.709 151.099 115.617 150.659 113.108 152.178C111.501 146.63 109.189 141.412 106.173 136.547C104.61 134.83 102.849 133.377 100.889 132.144C99.7225 132.981 98.4016 133.355 96.9265 133.245C94.8571 133.091 92.7877 132.76 90.7623 132.254C84.9503 131.462 80.217 133.333 76.5624 137.868C74.9774 140.268 73.2822 142.623 71.4989 144.913C70.2441 146.278 68.8791 147.533 67.4261 148.655C67.3601 149.162 67.272 149.69 67.206 150.197C67.3821 152.486 67.6243 154.754 67.9765 157.021C68.637 159.443 69.2534 161.865 69.8478 164.286C67.7343 164.088 66.0392 164.815 64.7843 166.488C64.366 166.664 63.9257 166.752 63.4634 166.708C61.0417 166.334 59.4346 165.013 58.62 162.745C58.6861 162.525 58.7741 162.305 58.8402 162.085C60.4913 162.613 61.7022 162.107 62.4727 160.544C62.6488 160.081 62.6048 159.641 62.3626 159.223C61.482 157.682 60.7775 156.075 60.2712 154.379C60.051 152.86 60.2271 151.385 60.8216 149.976C59.2585 149.998 57.8055 149.668 56.4185 148.986C53.3364 147.819 51.9054 145.573 52.1255 142.271C52.1916 141.787 52.4117 141.434 52.786 141.17C54.0629 142.271 55.4939 142.535 57.079 141.941C58.7521 141.214 60.1831 140.158 61.3719 138.749C63.0011 136.437 64.4761 134.015 65.775 131.484C68.703 126.794 72.6217 123.162 77.5531 120.586C84.9062 117.746 91.6209 118.825 97.6971 123.778C98.5337 120.74 100.471 118.803 103.531 117.944C104.632 117.79 105.733 117.79 106.833 117.944C107.076 117.988 107.296 118.098 107.494 118.274C105.27 120.916 104.61 123.932 105.512 127.301C111.677 128.049 115.243 131.506 116.19 137.648C116.19 140.4 116.234 143.152 116.3 145.904C116.762 146.63 117.423 147.026 118.281 147.114C119.074 146.718 119.844 146.278 120.593 145.793C121.407 146.014 121.826 146.564 121.804 147.445C121.958 149.668 121.297 151.605 119.822 153.279Z" fill="#3F3F41"/>
<path fill-rule="evenodd" clip-rule="evenodd" d="M30.8804 147.775C27.5781 150.857 25.6628 154.666 25.1564 159.223C25.2005 159.817 25.3105 160.411 25.4867 160.984C25.8169 161.468 26.1031 161.997 26.3673 162.525C26.5874 162.701 26.8516 162.789 27.1378 162.745C26.8076 161.006 26.6975 159.245 26.8076 157.461C27.8643 154.445 29.2513 151.583 30.9905 148.876C31.0785 148.567 31.1886 148.281 31.3207 147.995C31.2987 147.863 31.2106 147.797 31.1005 147.775C31.6289 146.366 32.3114 145.045 33.192 143.812C34.2707 141.853 35.9219 141.082 38.1454 141.5C38.7178 142.007 39.1141 142.623 39.3563 143.372C39.3563 145.661 39.2022 147.929 38.916 150.196C38.3215 154.335 37.7712 158.474 37.2648 162.635C37.6391 164.594 38.0353 166.532 38.4757 168.469C41.4257 175.888 44.1116 183.373 46.5112 190.925C47.5239 194.887 47.9642 198.916 47.8321 203.033C47.8982 206.511 47.5459 209.924 46.7314 213.27C45.1022 213.865 43.4071 214.195 41.6679 214.261C37.8372 213.975 34.7991 212.279 32.5315 209.197C31.6289 206.181 30.7923 203.121 29.9998 200.061C30.1099 199.929 30.1979 199.797 30.2199 199.621C28.6569 192.466 27.446 185.223 26.5874 177.936C26.2352 175.756 25.6408 173.621 24.8262 171.551C23.6594 170.627 22.5806 169.614 21.634 168.469C20.203 166.708 18.728 164.991 17.2309 163.295C13.004 160.962 8.99724 158.298 5.23263 155.26C4.99047 154.291 5.16659 153.411 5.78302 152.618C6.02518 152.508 6.28937 152.42 6.55355 152.398C9.17336 153.257 11.7712 154.115 14.369 154.93C12.0574 152.2 9.59165 149.602 6.99385 147.114C6.09123 146.212 5.45279 145.155 5.12256 143.922C5.40876 141.588 6.66363 140.796 8.86515 141.5C9.41553 141.787 9.92188 142.117 10.4062 142.491C13.2242 145.441 16.0862 148.303 18.9922 151.077C18.0015 152.464 17.1649 153.939 16.4604 155.48C16.2843 156.185 16.1082 156.889 15.91 157.572C16.1522 158.144 16.5044 158.342 17.0108 158.122C18.0015 155.128 19.5425 152.486 21.634 150.196C23.3071 149.03 24.8482 147.709 26.2572 146.234C25.4426 145.969 24.7161 146.124 24.0557 146.674C22.9989 143.614 21.9202 140.532 20.8635 137.428C20.4892 136.239 20.225 135.028 20.0929 133.795C20.3791 132.452 21.2377 131.748 22.6247 131.704C23.3292 131.968 23.9236 132.408 24.3859 133.025C26.8956 137.78 29.0751 142.689 30.8804 147.775Z" fill="#F9D2B9"/>
<path fill-rule="evenodd" clip-rule="evenodd" d="M119.822 153.279C119.8 153.543 119.668 153.741 119.382 153.829C120.923 157.946 119.888 161.248 116.3 163.736C115.441 164.198 114.561 164.308 113.658 164.066C113.042 168.469 111.17 172.3 108.044 175.514C106.723 176.879 105.358 178.2 103.971 179.477C102.386 180.511 100.691 181.392 98.9079 182.119C98.2475 182.251 97.587 182.383 96.9265 182.559C95.2314 182.515 93.4702 182.471 91.6429 182.449C90.1018 182.207 88.5608 181.942 87.0197 181.678C82.2204 180.291 78.0595 177.782 74.5811 174.193C71.3228 176.527 68.3728 176.152 65.775 173.092C64.2559 171.243 63.8597 169.196 64.5641 166.928C64.1459 166.994 63.7716 166.928 63.4634 166.708C63.9257 166.752 64.366 166.664 64.7843 166.488C66.0392 164.815 67.7343 164.088 69.8478 164.286C69.2534 161.864 68.637 159.443 67.9765 157.021C67.6243 154.754 67.3821 152.486 67.206 150.196C67.272 149.69 67.3601 149.162 67.4261 148.655C68.8791 147.533 70.2441 146.278 71.4989 144.913C73.2822 142.623 74.9774 140.268 76.5624 137.868C80.217 133.333 84.9503 131.461 90.7623 132.254C92.7877 132.76 94.8571 133.091 96.9265 133.245C98.4016 133.355 99.7225 132.981 100.889 132.144C102.849 133.377 104.61 134.83 106.173 136.547C109.189 141.412 111.501 146.63 113.108 152.178C115.617 150.659 117.709 151.099 119.382 153.499C119.536 153.411 119.668 153.345 119.822 153.279Z" fill="#F9D2B9"/>
<path fill-rule="evenodd" clip-rule="evenodd" d="M23.8358 146.674C23.1534 147.423 22.3608 147.995 21.4142 148.435C20.5115 149.25 19.719 150.131 18.9925 151.077C19.0585 150.747 18.9705 150.461 18.7723 150.197C16.0204 146.3 13.4887 142.249 11.1771 138.088C10.3625 136.393 10.5386 134.808 11.7274 133.355C12.9163 132.65 13.973 132.827 14.9197 133.905C18.0458 138.088 21.0179 142.337 23.8358 146.674Z" fill="#EED8C2"/>
<path fill-rule="evenodd" clip-rule="evenodd" d="M96.2659 137.208C99.6783 136.855 102.1 138.22 103.531 141.28C103.509 141.523 103.399 141.699 103.201 141.831C102.188 140.95 101.197 140.025 100.229 139.079C97.3006 137.67 94.8129 138.176 92.7435 140.62C92.5453 140.73 92.3252 140.752 92.083 140.73C92.3252 139.387 93.0517 138.396 94.2845 137.758C94.989 137.604 95.6495 137.428 96.2659 137.208Z" fill="#484647"/>
<path fill-rule="evenodd" clip-rule="evenodd" d="M266.884 235.395C258.782 237.597 251.077 241.097 243.768 245.853C240.444 248.23 237.472 250.982 234.852 254.108C233.069 256.464 232.012 259.106 231.66 262.034C231.748 263.421 232.122 264.742 232.76 265.997C232.694 266.063 232.606 266.151 232.54 266.217C231.065 265.358 229.524 265.182 227.917 265.666C227.367 267.097 227.543 268.44 228.467 269.739C229.04 270.334 229.744 270.752 230.559 270.95C230.361 271.17 230.141 271.368 229.898 271.5C227.455 272.403 225.187 273.614 223.074 275.133C227.851 278.831 231.77 283.279 234.852 288.452C235.292 289.729 234.852 290.455 233.531 290.654C233.135 290.544 232.782 290.411 232.43 290.213C231.902 291.886 231.241 293.494 230.449 295.057C230.449 296.312 230.603 297.566 230.889 298.799C232.959 296.378 234.94 293.868 236.833 291.314C237.494 290.61 238.198 289.949 238.925 289.333C239.035 289.685 239.101 290.125 239.145 290.654C238.815 292.547 238.705 294.462 238.815 296.378C239.057 296.598 239.299 296.642 239.585 296.488C241.302 293.89 242.777 291.138 243.988 288.232C243.944 288.166 243.922 288.078 243.878 288.012C241.963 289.531 240.422 289.157 239.255 286.911C238.837 285.854 238.616 284.754 238.594 283.609C237.274 284.225 236.173 283.917 235.292 282.728C234.676 281.605 234.5 280.439 234.742 279.206C235.006 280.174 235.512 281.033 236.283 281.737C237.516 282.046 238.44 281.649 239.035 280.527C239.057 282.2 239.343 283.807 239.915 285.37C240.488 286.691 241.39 287.021 242.667 286.361C243.306 285.656 243.856 284.886 244.318 284.049C245.683 284.996 247.18 285.392 248.832 285.26C249.91 284.665 250.549 283.741 250.703 282.508C250.879 282.332 251.077 282.134 251.253 281.958C254.996 281.451 258.144 279.844 260.72 277.114C261.182 276.74 261.688 276.476 262.261 276.344C262.261 276.564 262.261 276.784 262.261 277.004C262.019 277.511 261.732 277.973 261.38 278.435C259.971 279.624 258.496 280.725 256.977 281.737C259.861 289.883 262.811 298.029 265.783 306.174C265.761 306.35 265.673 306.483 265.563 306.615C264.55 306.747 263.868 306.35 263.472 305.404C260.874 297.676 258.232 289.971 255.546 282.288C254.379 282.86 253.169 282.992 251.914 282.728C251.694 285.04 250.439 286.405 248.171 286.801C254.467 306.703 261.006 326.516 267.765 346.242C267.434 346.881 266.95 347.079 266.334 346.792C260.632 330.435 255.216 314.012 250.042 297.478C248.435 293.736 247.004 289.905 245.749 286.03C244.318 289.839 242.601 293.516 240.576 297.038C239.519 297.985 238.638 297.831 237.934 296.598C237.802 296.135 237.692 295.651 237.604 295.167C237.802 293.89 237.912 292.591 237.934 291.314C236.173 293.67 234.412 296.003 232.65 298.359C232.188 298.975 231.594 299.416 230.889 299.68C230.801 300.516 230.625 301.309 230.339 302.102C230.053 302.432 229.678 302.564 229.238 302.542C229.216 302.41 229.15 302.3 229.018 302.212C229.634 300.913 229.81 299.57 229.568 298.139C229.018 295.849 228.445 293.582 227.807 291.314C227.433 289.949 227.257 288.54 227.257 287.131C227.565 287.087 227.851 287.131 228.137 287.241C229.656 288.364 231.307 289.267 233.091 289.993C233.597 289.861 233.861 289.531 233.861 289.002C233.685 288.342 233.443 287.726 233.091 287.131C230.515 283.543 227.631 280.196 224.395 277.114C222.81 275.925 221.18 274.781 219.551 273.702C219.463 273.724 219.375 273.68 219.331 273.592C221.511 271.61 221.995 269.299 220.762 266.657C220.058 266.151 219.287 265.975 218.45 266.107C217.24 266.393 216.183 266.943 215.258 267.758C215.434 266.569 215.544 265.358 215.589 264.125C215.655 262.782 215.412 261.483 214.818 260.273C213.365 257.719 211.494 255.473 209.204 253.558C206.386 251.158 203.37 249.023 200.178 247.174C194.564 244.928 188.884 242.925 183.116 241.119C182.918 241.163 182.742 241.251 182.566 241.339C181.487 240.679 180.496 239.864 179.594 238.918C179.439 238.433 179.263 237.949 179.043 237.487C179.351 236.804 179.77 236.188 180.254 235.616C184.019 226.347 187.805 217.101 191.592 207.876C192.473 213.248 195.621 215.89 201.058 215.802C204.845 228.174 210.261 239.754 217.24 250.586C217.746 251.334 218.362 251.951 219.111 252.457C219.463 252.567 219.837 252.611 220.212 252.567C220.234 252.083 220.124 251.643 219.881 251.246C212.242 240.283 206.408 228.395 202.379 215.582C205.417 214.459 207.399 212.323 208.323 209.197C220.916 211.663 233.245 210.672 245.309 206.225C245.771 206.005 246.146 205.675 246.41 205.234C246.234 204.838 245.948 204.618 245.529 204.574C233.399 208.449 221.07 209.395 208.544 207.436C208.544 207.216 208.544 206.996 208.544 206.776C217.416 205.234 225.782 202.262 233.641 197.859C238.903 194.491 243.13 190.132 246.3 184.76C246.872 183.726 247.202 182.625 247.29 181.458C246.96 181.392 246.674 181.48 246.41 181.678C242.095 190.22 235.49 196.274 226.596 199.841C220.696 202.13 214.686 204.002 208.544 205.455C207.465 200.875 204.559 198.388 199.848 197.969C198.637 198.013 197.492 198.3 196.435 198.85C196.369 197.925 196.545 197.045 196.986 196.208C197.646 195.504 198.351 194.843 199.077 194.227C199.517 193.676 199.804 193.038 199.958 192.356C199.495 191.013 199.099 189.648 198.747 188.283C195.599 184.166 193.243 179.609 191.702 174.633C189.544 161.732 193.837 151.583 204.581 144.142C210.547 141.06 216.711 140.62 223.074 142.821C226.288 143.658 229.15 145.111 231.66 147.224C235.754 150.791 239.101 154.952 241.677 159.663C244.583 165.079 246.938 170.737 248.721 176.615C250.395 183.241 251.848 189.934 253.124 196.649C253.697 199.158 254.71 201.426 256.207 203.473C257.506 205.917 258.672 208.405 259.729 210.958C262.019 217.607 264.44 224.212 266.994 230.772C267.589 231.961 267.809 233.216 267.655 234.515C267.346 234.779 267.104 235.065 266.884 235.395Z" fill="#EF6036"/>
<path fill-rule="evenodd" clip-rule="evenodd" d="M77.9934 142.491C79.4905 142.249 80.8114 142.623 81.9562 143.592C77.355 142.953 74.3829 144.869 73.04 149.316C72.4236 149.668 72.0933 149.492 72.0493 148.765C72.7318 145.397 74.7132 143.306 77.9934 142.491Z" fill="#464546"/>
<path fill-rule="evenodd" clip-rule="evenodd" d="M98.9078 145.133C100.383 144.979 101.77 145.243 103.091 145.904C103.883 146.41 104.213 147.092 104.081 147.995C103.993 148.413 103.729 148.633 103.311 148.655C102.518 147.973 101.638 147.423 100.669 147.004C99.5902 146.85 98.6656 147.18 97.9171 147.995C97.4768 148.876 97.0365 149.756 96.5962 150.637C95.9797 150.373 95.6495 149.888 95.6055 149.206C96.0238 147.269 97.1245 145.926 98.9078 145.133Z" fill="#3F3F41"/>
<path fill-rule="evenodd" clip-rule="evenodd" d="M18.9923 151.077C19.7188 150.13 20.5113 149.25 21.414 148.435C22.3606 147.995 23.1532 147.423 23.8356 146.674C23.9017 146.674 23.9897 146.674 24.0558 146.674C24.7163 146.124 25.4428 145.97 26.2573 146.234C24.8483 147.709 23.3073 149.03 21.6341 150.196C19.5427 152.486 18.0016 155.128 17.0109 158.122C16.5046 158.342 16.1523 158.144 15.9102 157.572C16.1083 156.889 16.2844 156.185 16.4605 155.48C17.165 153.939 18.0016 152.464 18.9923 151.077Z" fill="#EF6036"/>
<path fill-rule="evenodd" clip-rule="evenodd" d="M30.8807 147.775C30.9467 147.775 31.0348 147.775 31.1009 147.775C31.2109 147.797 31.299 147.863 31.321 147.995C31.1889 148.281 31.0788 148.567 30.9908 148.876C29.2516 151.584 27.8646 154.446 26.8079 157.462C26.6978 159.245 26.8079 161.006 27.1381 162.745C26.8519 162.789 26.5877 162.701 26.3676 162.525C26.1034 161.997 25.8172 161.468 25.487 160.984C25.3108 160.412 25.2008 159.817 25.1567 159.223C25.6631 154.666 27.5784 150.857 30.8807 147.775Z" fill="#EF6036"/>
<path fill-rule="evenodd" clip-rule="evenodd" d="M208.764 148.215C211.604 148.413 214.312 149.117 216.909 150.306C222.523 152.684 227.543 155.964 231.99 160.103C235.776 164.594 238.792 169.592 241.016 175.073C241.148 178.684 240.334 182.118 238.594 185.421C236.833 188.349 234.742 191.034 232.32 193.456C231.153 194.271 229.964 195.063 228.798 195.878C221.048 198.013 213.673 197.177 206.672 193.346C201.455 186.081 199.319 178.001 200.288 169.129C200.706 162.261 202.842 156.03 206.672 150.416C207.267 149.558 207.971 148.831 208.764 148.215Z" fill="#F9D2B9"/>
<path fill-rule="evenodd" clip-rule="evenodd" d="M80.4148 149.316C82.8805 149.294 84.3555 150.483 84.8179 152.838C84.5097 152.882 84.2235 152.838 83.9373 152.728C82.154 150.901 80.3488 150.879 78.5435 152.618C78.4334 153.058 78.3234 153.499 78.2133 153.939C78.5435 154.974 78.2793 155.854 77.4428 156.581C76.9804 156.251 76.6722 155.81 76.5622 155.26C76.0778 152.09 77.3767 150.108 80.4148 149.316Z" fill="#3E3E40"/>
<path fill-rule="evenodd" clip-rule="evenodd" d="M91.2022 154.159C93.9321 153.917 95.8254 155.018 96.9262 157.462C96.8161 157.836 96.5959 158.144 96.2657 158.342C95.5612 157.373 94.6806 156.603 93.6239 156.031C91.4224 155.15 90.1895 155.832 89.8813 158.122C89.9473 159.069 90.1675 159.993 90.5417 160.874C90.4757 161.424 90.1675 161.821 89.6611 162.085C89.1108 161.556 88.7805 160.896 88.6704 160.103C88.01 157.395 88.8466 155.414 91.2022 154.159Z" fill="#EF6036"/>
<path fill-rule="evenodd" clip-rule="evenodd" d="M115.199 154.599C117.114 154.467 118.149 155.348 118.281 157.241C118.303 157.726 118.193 158.166 117.951 158.562C117.62 157.748 117.224 156.977 116.74 156.25C116.3 156.096 115.859 156.096 115.419 156.25C115.089 156.691 114.78 157.175 114.538 157.681C113.988 157.924 113.68 157.703 113.658 157.021C113.746 155.92 114.252 155.106 115.199 154.599Z" fill="#EF6036"/>
<path fill-rule="evenodd" clip-rule="evenodd" d="M219.551 155.04C221.158 154.798 222.589 155.172 223.844 156.141C224.02 156.669 223.822 157.043 223.294 157.241C220.344 155.744 218.671 156.625 218.23 159.883C217.768 160.5 217.438 160.434 217.24 159.663C216.733 157.439 217.504 155.898 219.551 155.04Z" fill="#3E3E40"/>
<path fill-rule="evenodd" clip-rule="evenodd" d="M101.77 161.865C102.738 162.085 103.509 162.591 104.081 163.406C105.402 167.567 104.565 171.199 101.549 174.303C98.9296 176.219 95.9795 176.879 92.7433 176.285C88.4944 175.184 86.3589 172.454 86.3589 168.139C91.5325 166.092 96.684 164 101.77 161.865Z" fill="#EF6036"/>
<path fill-rule="evenodd" clip-rule="evenodd" d="M205.241 163.186C206.342 163.252 207.377 163.582 208.323 164.176C208.5 164.396 208.588 164.661 208.544 164.947C207.069 164.661 205.594 164.683 204.141 165.057C203.084 166.114 202.489 167.39 202.379 168.91C202.269 169.13 202.115 169.174 201.939 169.02C201.631 168.755 201.411 168.425 201.279 168.029C201.433 165.387 202.754 163.78 205.241 163.186Z" fill="#3F3F41"/>
<path fill-rule="evenodd" clip-rule="evenodd" d="M100.669 163.846C100.801 163.89 100.867 164 100.889 164.176C99.4582 167.544 96.8824 169.35 93.1838 169.57C92.1491 169.394 91.1364 169.217 90.1017 169.019C89.5953 168.909 89.155 168.689 88.7808 168.359C92.9857 167.434 96.9484 165.937 100.669 163.846Z" fill="#FEFCFC"/>
<path fill-rule="evenodd" clip-rule="evenodd" d="M224.835 162.965C226.244 162.855 227.455 163.295 228.467 164.286C228.622 164.726 228.622 165.167 228.467 165.607C228.379 165.717 228.269 165.783 228.137 165.827C224.989 164.528 223.404 165.541 223.404 168.909C223.25 169.063 223.118 169.196 222.964 169.35C221.048 167.478 221.092 165.607 223.074 163.736C223.668 163.406 224.241 163.163 224.835 162.965Z" fill="#3E3E40"/>
<path fill-rule="evenodd" clip-rule="evenodd" d="M68.7469 167.368C69.6716 167.302 70.5522 167.479 71.3888 167.919C71.8511 168.205 72.0712 168.601 72.0492 169.13C71.0145 169.02 70.0018 168.976 68.9671 169.02C68.857 169.13 68.7469 169.24 68.6369 169.35C68.5708 170.164 68.4828 170.957 68.4167 171.771C67.8223 172.366 67.382 172.212 67.0958 171.331C66.6335 169.548 67.1839 168.227 68.7469 167.368Z" fill="#EF6036"/>
<path fill-rule="evenodd" clip-rule="evenodd" d="M208.544 171.331C210.151 171.067 211.582 171.441 212.837 172.432C212.991 172.806 212.991 173.158 212.837 173.533C212.682 173.665 212.484 173.731 212.286 173.753C209.094 172.278 207.597 173.313 207.773 176.835C207.223 177.936 206.716 177.848 206.232 176.615C206.078 175.14 206.364 173.731 207.113 172.432C207.553 171.992 208.015 171.617 208.544 171.331Z" fill="#3F3E40"/>
<path fill-rule="evenodd" clip-rule="evenodd" d="M218.01 172.652C218.847 172.608 219.639 172.718 220.432 172.982C220.96 173.445 221.555 173.797 222.193 174.083C222.721 174.611 222.765 175.162 222.303 175.734C221.753 175.404 221.29 175.008 220.872 174.523C217.724 173.511 216.623 174.655 217.57 177.936C217.394 179.014 216.997 179.102 216.359 178.156C215.853 176.659 215.941 175.184 216.579 173.753C216.975 173.246 217.46 172.872 218.01 172.652Z" fill="#EF6036"/>
<path fill-rule="evenodd" clip-rule="evenodd" d="M227.917 177.055C228.732 177.077 229.414 177.363 230.009 177.936C231.946 181.084 232.1 184.32 230.449 187.622C228.71 190.308 226.244 191.365 223.074 190.815C219.816 189.978 217.614 187.997 216.469 184.871C216.535 184.606 216.623 184.364 216.689 184.1C220.784 182.251 224.527 179.895 227.917 177.055Z" fill="#EF6036"/>
<path fill-rule="evenodd" clip-rule="evenodd" d="M227.697 178.816C227.213 181.546 225.605 183.418 222.853 184.43C221.356 184.628 219.903 184.54 218.45 184.21C221.929 183.021 225.011 181.238 227.697 178.816Z" fill="#FEFDFD"/>
<path fill-rule="evenodd" clip-rule="evenodd" d="M103.971 179.477C104.125 179.895 104.191 180.335 104.191 180.797C100.757 183.241 97.0142 185.112 92.9634 186.411C93.7559 188.085 94.5485 189.736 95.3851 191.365C96.5519 189.163 97.7407 186.962 98.9075 184.76C100.713 184.518 102.474 184.232 104.191 183.88C105.006 183.88 105.798 183.88 106.613 183.88C106.811 186.147 106.877 188.415 106.833 190.704C104.852 192.444 102.606 193.853 100.118 194.887C99.9642 202.527 100.03 210.166 100.338 217.783C100.228 217.893 100.118 218.003 100.008 218.113C96.5519 218.267 93.1175 218.267 89.6611 218.113C89.3749 217.035 89.2208 215.89 89.2208 214.701C89.2648 213.05 89.3309 211.399 89.4409 209.748C89.2648 204.42 89.1547 199.114 89.1107 193.786C87.3495 192.664 85.7864 191.343 84.3774 189.824C84.5536 188.063 84.6196 186.301 84.5976 184.54C85.4122 184.54 86.2047 184.54 87.0193 184.54C87.0193 183.593 87.0193 182.625 87.0193 181.678C88.5603 181.942 90.1014 182.206 91.6425 182.449C93.4697 182.471 95.231 182.515 96.9261 182.559C97.5866 182.383 98.247 182.25 98.9075 182.118C100.691 181.392 102.386 180.511 103.971 179.477Z" fill="#EF6036"/>
<path fill-rule="evenodd" clip-rule="evenodd" d="M104.191 180.798C104.191 181.833 104.191 182.845 104.191 183.88C102.474 184.232 100.713 184.518 98.9075 184.761C97.7407 186.962 96.5519 189.164 95.3851 191.365C94.5485 189.736 93.7559 188.085 92.9634 186.412C97.0142 185.113 100.757 183.242 104.191 180.798Z" fill="#F9D2B9"/>
<path fill-rule="evenodd" clip-rule="evenodd" d="M208.544 206.776C208.544 206.335 208.544 205.895 208.544 205.455C214.686 204.002 220.696 202.131 226.596 199.841C235.49 196.274 242.095 190.22 246.41 181.678C246.674 181.48 246.96 181.392 247.291 181.458C247.202 182.625 246.872 183.726 246.3 184.76C243.13 190.132 238.903 194.491 233.641 197.86C225.782 202.263 217.416 205.235 208.544 206.776Z" fill="#F9D2B9"/>
<path fill-rule="evenodd" clip-rule="evenodd" d="M84.3777 189.824C85.7866 191.343 87.3497 192.664 89.1109 193.786C89.155 199.114 89.265 204.42 89.4412 209.748C89.3311 211.399 89.265 213.05 89.221 214.701C89.221 215.89 89.3751 217.035 89.6613 218.113C93.1177 218.267 96.5521 218.267 100.008 218.113C100.119 218.003 100.229 217.893 100.339 217.783C100.03 210.166 99.9644 202.527 100.119 194.887C102.606 193.853 104.852 192.444 106.833 190.704C111.368 191.937 115.837 193.368 120.263 194.997C121.473 195.57 122.574 196.296 123.565 197.199C132.767 201.69 141.948 206.247 151.084 210.848C155.971 213.226 161.035 215.141 166.274 216.572C166.539 218.576 166.252 220.535 165.394 222.406C164.711 224.52 163.853 226.567 162.862 228.571C161.431 230.354 159.934 232.093 158.349 233.744C153.285 237.377 147.782 240.063 141.837 241.78C141.507 241.78 141.243 241.626 141.067 241.339C140.737 240.283 140.781 239.204 141.177 238.147C141.111 238.037 141.023 237.927 140.957 237.817C139.702 238.389 138.447 238.345 137.214 237.707C137.038 237.024 136.928 236.342 136.884 235.615C133.736 232.819 130.566 230.046 127.417 227.25C127.043 237.09 126.559 246.909 125.986 256.75C125.876 257.014 125.788 257.322 125.766 257.631C126.119 262.43 126.493 267.251 126.867 272.051C126.603 274.208 126.823 276.278 127.528 278.325C128.188 282.266 128.628 286.228 128.848 290.213C128.606 290.191 128.386 290.213 128.188 290.323C127.55 291.05 126.823 291.6 125.986 291.974C119.008 293.956 111.897 294.836 104.632 294.616C101.924 294.572 99.1939 294.506 96.486 294.396C95.1651 294.374 93.8442 294.308 92.5233 294.176C86.0728 293.934 79.6004 293.67 73.1499 293.405C69.5834 292.965 66.061 292.349 62.5826 291.534C61.4598 291.226 60.359 290.83 59.2803 290.323C59.1482 289.971 59.0601 289.619 59.0601 289.223C60.4691 280.857 61.6799 272.447 62.6926 264.015C63.5733 259.326 64.4539 254.615 65.3345 249.925C66.3472 242.264 67.492 234.647 68.7468 227.029C62.1203 229.715 55.5157 232.467 48.9331 235.285C47.5462 235.99 46.0711 236.298 44.5301 236.166C43.3192 234.162 42.5487 232.005 42.2185 229.671C41.514 224.542 41.3379 219.412 41.6681 214.261C43.4073 214.195 45.1025 213.864 46.7316 213.27C47.5462 209.924 47.8984 206.511 47.8324 203.033C47.9645 198.916 47.5241 194.887 46.5114 190.924C46.5775 190.462 46.8197 190.176 47.282 190.044C47.6783 190.22 48.0745 190.418 48.4928 190.594C49.3294 191.585 50.188 192.576 51.0246 193.566C51.8611 192.355 53.0059 191.937 54.4369 192.355C57.5631 194.689 61.0195 195.35 64.7841 194.337C71.2346 192.4 77.7511 190.902 84.3777 189.824Z" fill="#2E3192"/>
<path fill-rule="evenodd" clip-rule="evenodd" d="M94.7246 192.906C95.6272 192.994 96.0675 193.523 96.0455 194.447C95.297 201.69 95.0108 208.955 95.1649 216.242C94.7246 216.286 94.3283 216.22 93.9541 216.022C93.7119 214.944 93.6018 213.843 93.6238 212.72C93.778 206.842 93.9541 200.986 94.1742 195.108C94.1742 194.315 94.3724 193.567 94.7246 192.906Z" fill="#3B2896"/>
<path fill-rule="evenodd" clip-rule="evenodd" d="M50.0341 196.208C50.6065 196.539 51.2229 196.671 51.9054 196.649C53.4024 196.385 54.8994 196.275 56.4185 196.319C56.7487 196.473 56.9689 196.737 57.0789 197.089C55.9121 197.662 54.7453 198.212 53.5565 198.74C52.5218 198.894 51.5091 198.894 50.4744 198.74C50.012 198.256 49.7258 197.662 49.5938 196.979C49.7699 196.737 49.924 196.473 50.0341 196.208Z" fill="#EF6036"/>
<path fill-rule="evenodd" clip-rule="evenodd" d="M208.544 205.455C208.544 205.895 208.544 206.336 208.544 206.776C208.544 206.996 208.544 207.216 208.544 207.436C208.412 208.009 208.346 208.603 208.324 209.198C207.399 212.324 205.418 214.459 202.379 215.582C201.917 215.582 201.477 215.67 201.059 215.802C195.621 215.89 192.473 213.248 191.592 207.877C191.306 203.826 192.913 200.81 196.435 198.85C197.492 198.3 198.637 198.014 199.848 197.97C204.559 198.388 207.465 200.876 208.544 205.455Z" fill="#2E3192"/>
<path fill-rule="evenodd" clip-rule="evenodd" d="M50.2539 203.693C52.5435 203.605 54.8111 203.715 57.0786 204.024C57.2327 204.178 57.3648 204.31 57.5189 204.464C57.3208 204.772 57.2548 205.102 57.2988 205.455C54.9872 205.719 52.6536 205.939 50.2539 206.115C50.2539 205.301 50.2539 204.508 50.2539 203.693Z" fill="#EF6036"/>
<path fill-rule="evenodd" clip-rule="evenodd" d="M208.323 209.197C208.346 208.603 208.412 208.009 208.544 207.436C221.07 209.396 233.399 208.449 245.529 204.574C245.948 204.618 246.234 204.838 246.41 205.235C246.146 205.675 245.771 206.005 245.309 206.225C233.245 210.672 220.916 211.663 208.323 209.197Z" fill="#F9D2B9"/>
<path fill-rule="evenodd" clip-rule="evenodd" d="M50.0336 210.298C52.3893 210.298 54.7229 210.386 57.0785 210.518C57.0785 211.112 57.0785 211.685 57.0785 212.279C54.877 212.433 52.6755 212.477 50.4739 212.389C50.2318 212.345 50.0116 212.235 49.8135 212.059C50.0116 211.487 50.0777 210.892 50.0336 210.298Z" fill="#EF6036"/>
<path fill-rule="evenodd" clip-rule="evenodd" d="M157.688 215.802C159.472 216.44 161.233 217.123 162.972 217.893C163.28 218.157 163.5 218.488 163.632 218.884C163.324 219.28 163.06 219.72 162.862 220.205C161.013 219.214 159.141 218.267 157.248 217.343C157.49 216.858 157.622 216.33 157.688 215.802Z" fill="#EF6036"/>
<path fill-rule="evenodd" clip-rule="evenodd" d="M49.3735 217.343C51.8392 217.871 54.3269 218.091 56.8586 218.003C56.8586 218.664 56.8586 219.324 56.8586 219.985C55.2075 219.941 53.5564 219.786 51.9052 219.544C50.9806 219.654 50.078 219.72 49.1533 219.764C49.1093 218.95 49.1973 218.135 49.3735 217.343Z" fill="#EF6036"/>
<path fill-rule="evenodd" clip-rule="evenodd" d="M155.267 220.205C156.962 221.218 158.613 222.319 160.22 223.507C160.33 223.728 160.44 223.948 160.55 224.168C160.11 225.577 159.295 225.819 158.129 224.938C156.874 223.926 155.575 222.935 154.276 221.966C154.518 221.372 154.848 220.777 155.267 220.205Z" fill="#EF6036"/>
<path fill-rule="evenodd" clip-rule="evenodd" d="M165.394 222.406C168.035 225.819 168.586 229.561 167.045 233.634C165.283 237.311 163.082 240.679 160.44 243.761C155.002 249.639 149.432 255.363 143.709 260.933C143.048 264.94 142.608 268.968 142.388 273.041C141.793 274.67 140.736 275.881 139.195 276.674C136.664 278.149 134.022 279.404 131.27 280.416C130.72 280.571 130.213 280.504 129.729 280.196C129.09 279.448 128.364 278.809 127.527 278.325C126.823 276.3 126.603 274.186 126.867 272.051C126.493 267.251 126.118 262.43 125.766 257.631C125.788 257.322 125.876 257.014 125.986 256.75C126.647 256.266 127.373 255.935 128.188 255.759C129.377 255.517 130.543 255.275 131.71 254.989C135.519 250.894 138.887 246.491 141.837 241.78C147.781 240.062 153.285 237.377 158.349 233.744C159.934 232.093 161.431 230.354 162.862 228.571C163.852 226.567 164.711 224.52 165.394 222.406Z" fill="#F9D2B9"/>
<path fill-rule="evenodd" clip-rule="evenodd" d="M48.2728 224.388C51.0247 224.344 53.7326 224.608 56.4185 225.159C56.2644 225.621 56.1103 226.105 55.9782 226.59C53.2703 226.7 50.5624 226.7 47.8325 226.59C47.8986 225.841 48.0527 225.093 48.2728 224.388Z" fill="#EF6036"/>
<path fill-rule="evenodd" clip-rule="evenodd" d="M151.304 225.489C153.153 226.435 154.805 227.69 156.258 229.231C156.478 229.518 156.544 229.804 156.478 230.112C156.081 230.288 155.751 230.552 155.487 230.883C155.267 231.037 155.047 231.037 154.827 230.883C153.462 229.518 152.097 228.153 150.754 226.81C150.6 226.59 150.6 226.369 150.754 226.149C150.974 225.951 151.172 225.731 151.304 225.489Z" fill="#EF6036"/>
<path fill-rule="evenodd" clip-rule="evenodd" d="M147.121 229.671C148.816 230.552 150.181 231.785 151.194 233.414C151.348 233.7 151.348 234.008 151.194 234.295C150.688 234.625 150.225 234.999 149.763 235.395C148.618 233.81 147.363 232.269 146.021 230.772C146.351 230.354 146.725 229.98 147.121 229.671Z" fill="#EF6036"/>
<path fill-rule="evenodd" clip-rule="evenodd" d="M53.1161 230.992C54.1508 231.08 54.371 231.477 53.7766 232.203C53.8426 232.269 53.9307 232.357 53.9967 232.423C51.7512 233.018 49.4836 233.326 47.172 233.304C46.9739 232.863 46.8858 232.379 46.9519 231.873C49.0433 231.587 51.0907 231.3 53.1161 230.992Z" fill="#EF6036"/>
<path fill-rule="evenodd" clip-rule="evenodd" d="M141.177 233.634C142.322 233.987 143.467 234.339 144.589 234.735C145.118 235.528 145.448 236.408 145.58 237.377C145.426 238.412 144.832 238.742 143.819 238.368C143.489 237.707 143.268 237.003 143.158 236.276C142.058 235.88 141.111 235.241 140.296 234.405C140.693 234.251 141.001 234.009 141.177 233.634Z" fill="#EF6036"/>
<path fill-rule="evenodd" clip-rule="evenodd" d="M266.884 235.396C266.862 235.528 266.796 235.638 266.664 235.726C269.548 243.189 270.847 250.938 270.516 258.952C269.68 265.688 266.928 271.501 262.261 276.344C261.688 276.476 261.182 276.74 260.72 277.114C258.144 279.844 254.996 281.451 251.253 281.958C251.077 282.134 250.879 282.332 250.703 282.508C250.549 283.741 249.91 284.666 248.831 285.26C247.18 285.392 245.683 284.996 244.318 284.049C243.856 284.886 243.306 285.656 242.667 286.361C241.39 287.021 240.488 286.691 239.915 285.37C239.343 283.807 239.057 282.2 239.035 280.527C238.44 281.65 237.516 282.046 236.283 281.738C235.512 281.033 235.006 280.175 234.742 279.206C234.742 278.986 234.742 278.766 234.742 278.545C234.61 277.973 234.5 277.379 234.411 276.784C231.616 278.942 229.744 278.369 228.798 275.023C228.82 273.724 229.172 272.557 229.898 271.501C230.141 271.368 230.361 271.17 230.559 270.95C229.744 270.752 229.04 270.334 228.467 269.739C227.543 268.44 227.367 267.097 227.917 265.666C229.524 265.182 231.065 265.358 232.54 266.217C232.606 266.151 232.694 266.063 232.76 265.997C232.122 264.742 231.748 263.421 231.66 262.034C232.012 259.106 233.069 256.464 234.852 254.108C237.472 250.982 240.444 248.23 243.768 245.853C251.077 241.097 258.782 237.597 266.884 235.396Z" fill="#2E3192"/>
<path fill-rule="evenodd" clip-rule="evenodd" d="M202.379 215.582C206.408 228.394 212.242 240.283 219.881 251.246C220.124 251.643 220.234 252.083 220.212 252.567C219.837 252.611 219.463 252.567 219.111 252.457C218.362 251.951 217.746 251.334 217.24 250.586C210.239 239.754 204.867 228.174 201.058 215.802C201.477 215.67 201.917 215.582 202.379 215.582Z" fill="#F9D2B9"/>
<path fill-rule="evenodd" clip-rule="evenodd" d="M219.551 273.702C220.146 274.583 220.498 275.551 220.652 276.564C220.586 277.489 220.278 278.325 219.771 279.096C218.517 280.021 217.13 280.571 215.588 280.747C216.139 285.304 214.202 286.977 209.754 285.811C209.776 286.933 209.49 287.968 208.874 288.893C207.949 289.421 206.959 289.773 205.902 289.993C203.876 289.641 203.304 288.496 204.141 286.581C204.361 286.207 204.581 285.855 204.801 285.48C204.735 285.414 204.647 285.326 204.581 285.26C202.82 285.194 201.058 285.106 199.297 285.04C197.228 284.754 195.401 283.939 193.793 282.618C192.627 281.341 191.394 280.219 190.051 279.206C187.167 274.385 185.296 269.167 184.437 263.575C183.094 256.178 182.478 248.781 182.566 241.34C182.742 241.252 182.918 241.164 183.116 241.12C188.884 242.925 194.564 244.928 200.178 247.174C203.37 249.023 206.386 251.159 209.204 253.558C211.494 255.474 213.365 257.719 214.818 260.273C215.412 261.484 215.655 262.783 215.588 264.126C215.544 265.358 215.434 266.569 215.258 267.758C216.183 266.944 217.24 266.393 218.45 266.107C219.287 265.975 220.058 266.151 220.762 266.657C221.995 269.299 221.511 271.611 219.331 273.592C219.375 273.68 219.463 273.724 219.551 273.702Z" fill="#2E3192"/>
<path fill-rule="evenodd" clip-rule="evenodd" d="M229.898 271.5C229.172 272.557 228.82 273.724 228.798 275.023C228.247 276.938 228.754 278.589 230.339 279.976C231.043 280.285 231.792 280.351 232.54 280.197C233.377 279.778 234.103 279.228 234.742 278.545C234.742 278.766 234.742 278.986 234.742 279.206C234.5 280.439 234.676 281.605 235.292 282.728C236.173 283.917 237.274 284.225 238.594 283.609C238.616 284.754 238.837 285.854 239.255 286.911C240.422 289.157 241.963 289.531 243.878 288.012C243.922 288.078 243.944 288.166 243.988 288.232C242.777 291.138 241.302 293.89 239.585 296.488C239.299 296.642 239.057 296.598 238.815 296.378C238.705 294.462 238.815 292.547 239.145 290.654C239.101 290.125 239.035 289.685 238.925 289.333C238.198 289.949 237.494 290.61 236.833 291.314C234.94 293.868 232.959 296.378 230.889 298.799C230.603 297.567 230.449 296.312 230.449 295.057C231.241 293.494 231.902 291.887 232.43 290.213C232.782 290.412 233.135 290.544 233.531 290.654C234.852 290.456 235.292 289.729 234.852 288.452C231.77 283.279 227.851 278.832 223.074 275.133C225.187 273.614 227.455 272.403 229.898 271.5Z" fill="#F9D2B9"/>
<path fill-rule="evenodd" clip-rule="evenodd" d="M219.551 273.702C221.18 274.781 222.81 275.926 224.395 277.115C227.631 280.197 230.515 283.543 233.091 287.131C233.443 287.726 233.707 288.342 233.861 289.003C233.861 289.531 233.597 289.861 233.091 289.993C231.307 289.267 229.656 288.364 228.137 287.242C227.851 287.131 227.565 287.087 227.257 287.131C227.257 288.54 227.433 289.949 227.807 291.314C228.445 293.582 229.018 295.849 229.568 298.139C229.81 299.57 229.634 300.913 229.018 302.212C229.15 302.3 229.216 302.41 229.238 302.542C228.688 302.476 228.181 302.3 227.697 301.992C226.816 300.979 226.134 299.834 225.606 298.579C225.121 298.249 224.725 298.315 224.395 298.8C224.857 300.517 225.297 302.234 225.716 303.973C225.738 306.945 224.527 307.65 222.083 306.065C220.85 303.181 219.749 300.253 218.781 297.258C218.539 297.567 218.429 297.941 218.451 298.359C219.001 300.451 219.199 302.586 219.001 304.744C217.482 305.712 216.381 305.338 215.699 303.643C214.73 300.164 213.673 296.708 212.506 293.296C212.154 295.167 211.67 296.994 211.075 298.8C210.789 299.284 210.459 299.724 210.085 300.12C208.434 300.01 207.773 299.13 208.103 297.479C207.949 295.872 207.795 294.242 207.663 292.635C209.16 292.789 210.063 292.129 210.415 290.654C210.459 289.553 210.569 288.452 210.745 287.352C213.937 289.465 215.919 288.695 216.689 285.04C216.469 284.027 216.293 283.037 216.139 282.068C217.9 283.279 219.595 283.191 221.202 281.848C221.907 280.329 221.907 278.788 221.202 277.225C221.114 276.916 220.938 276.696 220.652 276.564C220.498 275.551 220.146 274.583 219.551 273.702Z" fill="#F9D2B9"/>
<path fill-rule="evenodd" clip-rule="evenodd" d="M228.798 275.023C229.744 278.369 231.616 278.942 234.411 276.784C234.5 277.379 234.61 277.973 234.742 278.545C234.103 279.228 233.377 279.778 232.54 280.197C231.792 280.351 231.043 280.285 230.339 279.976C228.754 278.589 228.247 276.938 228.798 275.023Z" fill="#EF6036"/>
<path fill-rule="evenodd" clip-rule="evenodd" d="M220.652 276.564C220.938 276.696 221.114 276.916 221.202 277.224C221.907 278.788 221.907 280.329 221.202 281.848C219.595 283.191 217.9 283.279 216.139 282.068C216.293 283.036 216.469 284.027 216.689 285.04C215.919 288.694 213.937 289.465 210.745 287.351C210.569 288.452 210.459 289.553 210.415 290.654C210.063 292.129 209.16 292.789 207.663 292.635C207.729 292.107 207.663 291.578 207.443 291.094C205.77 291.622 204.339 291.248 203.15 289.993C202.467 288.87 202.445 287.726 203.04 286.581C197.69 287.153 193.551 285.216 190.601 280.747C190.293 280.263 190.117 279.756 190.051 279.206C191.394 280.218 192.627 281.341 193.793 282.618C195.4 283.939 197.228 284.754 199.297 285.04C201.058 285.106 202.82 285.194 204.581 285.26C204.647 285.326 204.735 285.414 204.801 285.48C204.581 285.854 204.361 286.207 204.141 286.581C203.304 288.496 203.876 289.641 205.902 289.993C206.958 289.773 207.949 289.421 208.874 288.893C209.49 287.968 209.776 286.933 209.754 285.81C214.202 286.977 216.139 285.304 215.588 280.747C217.13 280.571 218.516 280.02 219.771 279.096C220.278 278.325 220.586 277.489 220.652 276.564Z" fill="#EF6036"/>
<path fill-rule="evenodd" clip-rule="evenodd" d="M262.261 277.004C265.387 284.115 268.205 291.468 270.737 299.02C274.545 311.502 278.376 323.963 282.185 336.446C282.911 339.66 283.594 342.896 284.276 346.132C283.814 347.497 283.109 348.752 282.185 349.875C279.411 353.133 276.152 355.753 272.388 357.69C271.903 357.91 271.375 358.02 270.847 358.02C270.737 362.49 268.821 365.902 265.123 368.258C260.632 370.701 255.854 372.33 250.813 373.101C247.885 373.189 244.935 373.299 242.007 373.431C241.544 373.145 240.994 372.991 240.356 372.991C239.805 373.035 239.255 373.057 238.704 373.101C233.113 375.28 227.323 376.271 221.312 376.073C217.68 375.875 214.091 375.413 210.525 374.642C208.059 374.378 205.616 374.334 203.15 374.532C200.442 373.761 197.844 373.982 195.334 375.192C192.935 374.664 190.601 373.96 188.29 373.101C184.943 371.758 181.641 370.371 178.383 368.918C177.524 368.214 176.82 367.355 176.291 366.386C176.005 364.713 175.895 363.018 175.961 361.323C172.659 360.971 169.973 359.496 167.925 356.92C167.199 355.599 166.45 354.278 165.724 352.957C165.548 350.954 165.702 348.972 166.164 347.013C168.08 337.282 170.721 327.728 174.09 318.393C178.757 305.03 184.063 291.975 190.051 279.206C190.117 279.756 190.293 280.263 190.601 280.747C193.551 285.216 197.69 287.153 203.04 286.581C202.445 287.726 202.467 288.871 203.15 289.993C204.339 291.248 205.77 291.623 207.443 291.094C207.663 291.578 207.729 292.107 207.663 292.635C207.795 294.242 207.949 295.871 208.103 297.479C206.981 315.531 205.968 333.628 205.021 351.746C205.021 353.309 205.572 353.639 206.672 352.737C206.892 351.57 207.047 350.403 207.113 349.214C207.223 345.186 207.377 341.135 207.553 337.106C208.588 324.777 209.424 312.449 210.085 300.12C210.459 299.724 210.789 299.284 211.075 298.799C211.67 296.994 212.154 295.167 212.506 293.296C213.673 296.708 214.73 300.164 215.699 303.643C216.381 305.338 217.482 305.712 219.001 304.744C219.199 302.586 219.001 300.451 218.45 298.359C218.428 297.941 218.539 297.567 218.781 297.258C219.749 300.252 220.85 303.181 222.083 306.065C224.527 307.65 225.738 306.945 225.715 303.973C225.297 302.234 224.857 300.517 224.395 298.799C224.725 298.315 225.121 298.249 225.605 298.579C226.134 299.834 226.816 300.979 227.697 301.992C228.181 302.3 228.688 302.476 229.238 302.542C229.678 302.564 230.052 302.432 230.339 302.102C230.625 301.309 230.801 300.517 230.889 299.68C231.594 299.416 232.188 298.976 232.65 298.359C234.412 296.004 236.173 293.67 237.934 291.314C237.912 292.591 237.802 293.89 237.604 295.167C237.692 295.651 237.802 296.136 237.934 296.598C238.638 297.831 239.519 297.985 240.576 297.038C242.601 293.516 244.318 289.839 245.749 286.031C247.004 289.905 248.435 293.736 250.042 297.479C255.216 314.012 260.632 330.435 266.334 346.793C266.95 347.079 267.434 346.881 267.765 346.242C261.006 326.517 254.467 306.703 248.171 286.801C250.439 286.405 251.693 285.04 251.914 282.728C253.168 282.993 254.379 282.86 255.546 282.288C258.232 289.971 260.874 297.677 263.472 305.404C263.868 306.351 264.55 306.747 265.563 306.615C265.673 306.483 265.761 306.351 265.783 306.175C262.811 298.029 259.861 289.883 256.977 281.738C258.496 280.725 259.971 279.624 261.38 278.435C261.732 277.973 262.019 277.511 262.261 277.004Z" fill="#2E3192"/>
<path fill-rule="evenodd" clip-rule="evenodd" d="M63.6833 280.307C64.2778 280.417 64.8722 280.615 65.4446 280.857C65.5767 281.055 65.6427 281.275 65.6647 281.517C65.2244 283.367 64.9162 285.238 64.7841 287.131C64.2557 287.175 63.7494 287.131 63.243 287.021C63.0009 286.867 62.8688 286.647 62.8027 286.361C63.243 284.357 63.5513 282.354 63.6833 280.307Z" fill="#EF6036"/>
<path fill-rule="evenodd" clip-rule="evenodd" d="M124.666 280.526C125.414 280.394 125.899 280.703 126.097 281.407C126.339 283.234 126.515 285.062 126.647 286.911C125.767 287.021 124.886 287.175 124.005 287.351C123.961 285.15 123.873 282.948 123.785 280.747C124.137 280.813 124.424 280.725 124.666 280.526Z" fill="#EF6036"/>
<path fill-rule="evenodd" clip-rule="evenodd" d="M114.758 281.407C115.111 281.385 115.375 281.517 115.529 281.847C115.859 284.071 116.256 286.272 116.74 288.452C116.035 288.606 115.331 288.76 114.648 288.892C114.252 286.471 113.922 284.049 113.658 281.627C114.076 281.693 114.45 281.627 114.758 281.407Z" fill="#EF6036"/>
<path fill-rule="evenodd" clip-rule="evenodd" d="M71.1684 281.848C71.8068 282.046 72.4673 282.112 73.1498 282.068C73.1498 284.115 73.1498 286.185 73.1498 288.232C72.4012 288.21 71.6747 288.144 70.9482 288.012C71.0143 285.965 71.1023 283.895 71.1684 281.848Z" fill="#EF6036"/>
<path fill-rule="evenodd" clip-rule="evenodd" d="M106.173 282.068C106.459 282.068 106.767 282.068 107.053 282.068C107.251 284.424 107.537 286.779 107.934 289.113C107.119 289.201 106.327 289.289 105.512 289.333C105.336 286.977 105.182 284.644 105.072 282.288C105.49 282.354 105.864 282.288 106.173 282.068Z" fill="#EF6036"/>
<path fill-rule="evenodd" clip-rule="evenodd" d="M80.1948 282.508C81.0094 282.508 81.8019 282.508 82.6165 282.508C82.4844 284.709 82.4184 286.911 82.3963 289.112C81.6698 289.112 80.9213 289.112 80.1948 289.112C80.1948 286.911 80.1948 284.709 80.1948 282.508Z" fill="#EF6036"/>
<path fill-rule="evenodd" clip-rule="evenodd" d="M96.2661 282.728C97.0366 282.508 97.8292 282.442 98.6878 282.508C98.8859 284.863 99.1061 287.197 99.3482 289.553C98.5337 289.553 97.7411 289.553 96.9266 289.553C96.8605 287.241 96.6404 284.952 96.2661 282.728Z" fill="#EF6036"/>
<path fill-rule="evenodd" clip-rule="evenodd" d="M89.6612 282.508C89.9474 282.464 90.2116 282.552 90.4317 282.728C90.5638 284.93 90.6739 287.131 90.7619 289.333C90.0354 289.333 89.2869 289.333 88.5604 289.333C88.4944 287.198 88.3623 285.062 88.1201 282.949C88.6705 282.794 89.1768 282.662 89.6612 282.508Z" fill="#EF6036"/>
<path fill-rule="evenodd" clip-rule="evenodd" d="M228.137 288.452C229.216 289.179 230.383 289.729 231.66 290.103C230.801 290.962 230.097 291.953 229.568 293.075C229.106 291.534 228.644 289.993 228.137 288.452Z" fill="#EED7C0"/>
<path fill-rule="evenodd" clip-rule="evenodd" d="M62.5824 291.534C66.0608 292.349 69.5833 292.965 73.1497 293.405C79.6002 293.67 86.0727 293.934 92.5231 294.176C92.347 304.897 92.1269 315.597 91.8627 326.318C91.9728 340.804 92.5672 355.246 93.6239 369.688C93.5799 370.415 93.5579 371.163 93.5138 371.89C93.4038 372.198 93.2276 372.462 92.9635 372.66C91.6866 373.079 90.3657 373.343 89.0007 373.431C83.3648 373.849 77.7069 374.069 72.049 374.091C68.9668 374.091 65.8847 374.091 62.8026 374.091C61.5257 373.915 60.2048 373.805 58.8398 373.761C58.7077 373.585 58.5977 373.409 58.5096 373.211C58.0913 369.6 57.9152 365.968 57.9592 362.313C58.1794 338.625 59.7204 315.046 62.5824 291.534Z" fill="#3E3E40"/>
<path fill-rule="evenodd" clip-rule="evenodd" d="M125.987 291.975C127.176 312.075 128.232 332.174 129.179 352.296C129.619 358.196 130.082 364.119 130.61 370.019C130.566 370.855 130.28 371.604 129.729 372.22C127.33 372.815 124.908 373.277 122.464 373.651C115.573 374.224 108.661 374.224 101.77 373.651C100.339 373.497 98.93 373.167 97.587 372.66C97.4109 372.484 97.2128 372.286 97.0366 372.11C96.1781 358.923 95.8478 345.714 96.046 332.483C96.0239 319.78 96.156 307.099 96.4863 294.396C99.1941 294.506 101.924 294.572 104.632 294.616C111.897 294.837 119.008 293.956 125.987 291.975Z" fill="#3E3E40"/>
<path fill-rule="evenodd" clip-rule="evenodd" d="M230.559 292.415C230.691 292.459 230.757 292.569 230.779 292.745C230.515 293.362 230.273 294 230.008 294.617C229.92 294.308 229.81 294.022 229.678 293.736C230.052 293.362 230.361 292.921 230.559 292.415Z" fill="#422B94"/>
<path fill-rule="evenodd" clip-rule="evenodd" d="M208.103 297.479C207.773 299.13 208.434 300.01 210.085 300.12C209.424 312.449 208.588 324.777 207.553 337.106C207.377 341.135 207.223 345.186 207.113 349.214C207.047 350.403 206.893 351.57 206.672 352.737C205.572 353.639 205.021 353.309 205.021 351.746C205.968 333.628 206.981 315.531 208.103 297.479Z" fill="#EF6036"/>
<path fill-rule="evenodd" clip-rule="evenodd" d="M187.629 305.184C188.201 305.206 188.642 305.448 188.95 305.954C185.339 322.51 181.531 339.021 177.502 355.488C176.864 355.709 176.357 355.554 175.961 355.048C176.908 349.853 177.986 344.679 179.153 339.527C181.575 328.872 184.173 318.261 186.969 307.715C186.836 306.813 187.057 305.954 187.629 305.184Z" fill="#EF6036"/>
<path fill-rule="evenodd" clip-rule="evenodd" d="M236.723 307.385C237.075 307.341 237.406 307.407 237.714 307.605C237.934 308.09 238.088 308.596 238.154 309.146C239.189 315.729 239.981 322.333 240.576 328.96C242.095 337.634 243.526 346.33 244.869 355.048C244.561 355.709 244.12 355.775 243.548 355.268C243.24 355.004 243.064 354.674 242.998 354.278C241.633 346.352 240.312 338.427 239.035 330.501C238.198 323.17 237.208 315.883 236.063 308.596C236.195 308.134 236.415 307.737 236.723 307.385Z" fill="#EF6036"/>
<path opacity="0.996" fill-rule="evenodd" clip-rule="evenodd" d="M105.292 217.387C105.755 217.387 106.151 217.563 106.481 217.894C107.186 218.84 107.89 219.765 108.595 220.712C109.277 219.787 109.981 218.884 110.664 217.96C110.972 217.585 111.39 217.387 111.875 217.387C112.998 217.409 114.098 217.409 115.221 217.387C115.529 217.387 115.816 217.453 116.08 217.585C115.816 217.585 115.551 217.607 115.309 217.651C115.067 217.717 114.869 217.828 114.671 217.982C114.517 218.114 114.385 218.268 114.23 218.4C114.01 218.664 113.768 218.928 113.57 219.192C113.13 219.809 112.689 220.403 112.249 221.02C111.545 221.944 110.862 222.847 110.158 223.772C110.158 224.652 110.158 225.555 110.136 226.435C110.048 227.052 109.717 227.492 109.123 227.734C109.035 227.756 108.947 227.778 108.837 227.8C108.242 227.822 107.648 227.822 107.053 227.822C107.053 226.479 107.053 225.115 107.053 223.772C106.063 222.451 105.05 221.13 104.059 219.809C103.751 219.347 103.707 218.84 103.905 218.312C104.191 217.739 104.654 217.431 105.292 217.387Z" fill="#FEFFFE"/>
<path opacity="0.997" fill-rule="evenodd" clip-rule="evenodd" d="M122.354 217.387C122.882 217.387 123.41 217.387 123.917 217.387C123.917 220.425 123.917 223.485 123.917 226.524C123.829 227.118 123.498 227.536 122.948 227.756C122.266 227.977 121.693 227.844 121.209 227.316C120.989 227.074 120.879 226.766 120.857 226.457C120.857 225.049 120.857 223.662 120.835 222.253C120.152 223.045 119.47 223.838 118.809 224.63C118.127 223.838 117.444 223.045 116.784 222.253C116.784 223.728 116.784 225.181 116.762 226.656C116.718 227.294 116.388 227.668 115.749 227.8C115.661 227.822 115.573 227.822 115.485 227.844C114.891 227.844 114.274 227.844 113.68 227.844C113.68 225.071 113.68 222.275 113.68 219.501C113.988 219.082 114.318 218.686 114.692 218.312C114.847 218.158 115.023 218.048 115.221 217.96C115.397 217.894 115.573 217.85 115.749 217.85C115.991 217.85 116.255 217.85 116.498 217.872C117.268 218.774 118.039 219.677 118.787 220.601C119.558 219.677 120.306 218.774 121.077 217.85C121.451 217.563 121.869 217.387 122.354 217.387Z" fill="#FEFFFE"/>
<path opacity="0.955" fill-rule="evenodd" clip-rule="evenodd" d="M109.145 228.659C109.299 228.659 109.387 228.747 109.409 228.901C109.387 229.055 109.299 229.144 109.145 229.144C108.947 229.099 108.881 228.989 108.925 228.791C108.991 228.725 109.057 228.681 109.145 228.659Z" fill="#FEFFFE"/>
<path opacity="0.957" fill-rule="evenodd" clip-rule="evenodd" d="M121.627 228.659C121.825 228.681 121.892 228.791 121.87 228.967C121.803 229.121 121.693 229.188 121.517 229.144C121.385 229.077 121.341 228.967 121.385 228.835C121.451 228.725 121.517 228.681 121.627 228.659Z" fill="#FEFFFE"/>
<path opacity="0.959" fill-rule="evenodd" clip-rule="evenodd" d="M123.675 228.659C123.873 228.681 123.961 228.791 123.917 228.989C123.851 229.121 123.741 229.188 123.587 229.144C123.455 229.077 123.411 228.989 123.433 228.857C123.477 228.725 123.565 228.681 123.675 228.659Z" fill="#FEFFFE"/>
<path opacity="0.972" fill-rule="evenodd" clip-rule="evenodd" d="M103.773 228.769C103.927 228.747 104.081 228.747 104.235 228.769C104.411 229.143 104.566 229.517 104.742 229.87C104.918 229.495 105.072 229.121 105.248 228.769C105.38 228.747 105.534 228.747 105.666 228.769C105.424 229.275 105.182 229.782 104.94 230.288C104.94 230.618 104.94 230.926 104.94 231.257C104.808 231.257 104.676 231.257 104.543 231.257C104.543 230.926 104.543 230.618 104.543 230.288C104.279 229.782 104.037 229.275 103.773 228.769Z" fill="#FEFFFE"/>
<path opacity="0.968" fill-rule="evenodd" clip-rule="evenodd" d="M113.481 228.747C113.614 228.747 113.746 228.747 113.878 228.769C114.076 229.275 114.274 229.782 114.494 230.266C114.714 229.76 114.912 229.253 115.111 228.747C115.243 228.747 115.375 228.747 115.507 228.747C115.507 229.584 115.507 230.42 115.507 231.257C115.375 231.257 115.243 231.257 115.133 231.257C115.133 230.684 115.133 230.112 115.133 229.54C114.956 229.98 114.78 230.42 114.604 230.861C114.538 230.861 114.472 230.861 114.406 230.861C114.23 230.442 114.054 230.002 113.878 229.584C113.878 230.156 113.878 230.706 113.878 231.279C113.746 231.279 113.636 231.279 113.503 231.279C113.481 230.42 113.481 229.584 113.481 228.747Z" fill="#FEFFFE"/>
<path opacity="0.968" fill-rule="evenodd" clip-rule="evenodd" d="M120.636 228.747C120.768 228.747 120.901 228.747 121.011 228.747C121.011 229.584 121.011 230.42 121.011 231.257C120.901 231.257 120.791 231.257 120.68 231.257C120.68 231.191 120.658 231.125 120.658 231.081C120.504 231.279 120.284 231.345 120.042 231.301C119.734 231.235 119.558 231.059 119.536 230.728C119.536 230.486 119.536 230.244 119.536 230.002C119.602 229.584 119.844 229.386 120.262 229.408C120.394 229.43 120.526 229.474 120.614 229.584C120.636 229.297 120.636 229.033 120.636 228.747ZM120.218 229.716C120.46 229.716 120.592 229.826 120.636 230.046C120.636 230.266 120.636 230.464 120.614 230.684C120.548 230.883 120.394 230.971 120.174 230.949C120.042 230.905 119.954 230.817 119.91 230.662C119.91 230.42 119.91 230.2 119.932 229.958C119.976 229.826 120.064 229.738 120.218 229.716Z" fill="#FEFFFE"/>
<path opacity="0.973" fill-rule="evenodd" clip-rule="evenodd" d="M107.78 228.967C107.912 228.967 108.022 228.967 108.154 228.967C108.154 229.121 108.154 229.275 108.154 229.408C108.33 229.408 108.484 229.408 108.66 229.408C108.66 229.518 108.66 229.606 108.66 229.716C108.484 229.716 108.33 229.716 108.154 229.716C108.154 230.09 108.154 230.464 108.176 230.817C108.198 230.883 108.242 230.927 108.33 230.949C108.44 230.949 108.528 230.949 108.638 230.927C108.66 231.015 108.66 231.125 108.682 231.213C108.682 231.213 108.682 231.235 108.66 231.235C108.484 231.279 108.286 231.301 108.11 231.257C107.934 231.191 107.824 231.081 107.802 230.905C107.802 230.508 107.802 230.112 107.802 229.694C107.714 229.694 107.604 229.694 107.516 229.694C107.516 229.584 107.516 229.496 107.516 229.386C107.604 229.386 107.714 229.386 107.802 229.386C107.78 229.253 107.78 229.121 107.78 228.967Z" fill="#FEFFFE"/>
<path opacity="0.973" fill-rule="evenodd" clip-rule="evenodd" d="M106.393 229.386C106.591 229.364 106.767 229.408 106.943 229.474C107.119 229.584 107.229 229.76 107.251 229.98C107.251 230.398 107.251 230.839 107.251 231.257C107.141 231.257 107.053 231.257 106.943 231.257C106.943 231.213 106.921 231.169 106.921 231.103C106.789 231.235 106.613 231.301 106.437 231.279C106.151 231.301 105.953 231.169 105.843 230.927C105.732 230.508 105.887 230.244 106.305 230.156C106.437 230.134 106.591 230.156 106.723 230.2C106.789 230.222 106.833 230.266 106.877 230.288C106.899 229.826 106.701 229.65 106.239 229.738C106.151 229.76 106.085 229.782 106.019 229.826C105.975 229.738 105.931 229.628 105.931 229.518C105.975 229.496 106.019 229.452 106.085 229.452C106.173 229.43 106.283 229.386 106.393 229.386ZM106.437 230.42C106.613 230.376 106.767 230.442 106.877 230.574C106.943 230.817 106.855 230.949 106.613 230.993C106.459 231.015 106.327 230.971 106.217 230.839C106.129 230.64 106.217 230.486 106.437 230.42Z" fill="#FEFFFE"/>
<path opacity="0.978" fill-rule="evenodd" clip-rule="evenodd" d="M110.532 229.386C110.73 229.364 110.906 229.43 111.038 229.562C111.06 229.606 111.082 229.65 111.104 229.694C111.236 229.452 111.434 229.364 111.721 229.386C111.919 229.408 112.073 229.518 112.161 229.716C112.183 229.782 112.205 229.848 112.205 229.914C112.205 230.354 112.205 230.817 112.205 231.257C112.073 231.257 111.963 231.257 111.831 231.257C111.831 230.839 111.831 230.398 111.809 229.98C111.743 229.76 111.611 229.672 111.368 229.738C111.28 229.782 111.214 229.848 111.192 229.958C111.17 230.376 111.17 230.817 111.17 231.235C111.038 231.235 110.906 231.235 110.796 231.235C110.796 230.817 110.796 230.376 110.774 229.958C110.73 229.738 110.598 229.672 110.378 229.716C110.268 229.76 110.202 229.848 110.158 229.958C110.135 230.376 110.135 230.817 110.135 231.235C110.003 231.235 109.893 231.235 109.761 231.235C109.761 230.618 109.761 230.002 109.761 229.386C109.871 229.386 109.981 229.386 110.091 229.386C110.091 229.452 110.113 229.54 110.113 229.606C110.224 229.496 110.356 229.408 110.532 229.386Z" fill="#FEFFFE"/>
<path opacity="0.97" fill-rule="evenodd" clip-rule="evenodd" d="M116.476 229.385C116.696 229.363 116.894 229.407 117.092 229.539C117.224 229.649 117.312 229.804 117.334 230.002C117.334 230.42 117.334 230.86 117.334 231.279C117.224 231.279 117.136 231.279 117.026 231.279C117.026 231.235 117.004 231.191 117.004 231.124C116.872 231.257 116.696 231.323 116.52 231.301C116.146 231.301 115.925 231.124 115.881 230.75C115.903 230.442 116.079 230.244 116.388 230.178C116.586 230.134 116.784 230.178 116.938 230.31C116.96 230.2 116.938 230.09 116.916 229.98C116.828 229.826 116.696 229.738 116.52 229.738C116.366 229.738 116.212 229.782 116.079 229.848C116.035 229.76 116.013 229.671 115.991 229.583C115.991 229.561 115.991 229.561 115.991 229.539C116.035 229.495 116.102 229.473 116.168 229.473C116.278 229.407 116.366 229.385 116.476 229.385ZM116.498 230.42C116.652 230.398 116.784 230.442 116.916 230.552C117.026 230.772 116.96 230.904 116.74 230.992C116.608 231.014 116.498 231.014 116.388 230.948C116.256 230.86 116.234 230.728 116.3 230.574C116.344 230.508 116.41 230.442 116.498 230.42Z" fill="#FEFFFE"/>
<path opacity="0.976" fill-rule="evenodd" clip-rule="evenodd" d="M118.479 229.386C118.765 229.364 118.963 229.452 119.095 229.716C119.117 229.804 119.139 229.892 119.161 229.98C119.161 230.42 119.161 230.839 119.161 231.279C119.029 231.279 118.897 231.279 118.787 231.279C118.787 230.861 118.787 230.42 118.765 230.002C118.699 229.782 118.567 229.716 118.347 229.76C118.237 229.804 118.149 229.892 118.127 230.024C118.105 230.442 118.105 230.861 118.105 231.279C117.973 231.279 117.863 231.279 117.73 231.279C117.73 230.662 117.73 230.046 117.73 229.43C117.841 229.43 117.951 229.43 118.061 229.452C118.061 229.518 118.083 229.584 118.083 229.65C118.171 229.496 118.303 229.408 118.479 229.386Z" fill="#FEFFFE"/>
<path opacity="0.978" fill-rule="evenodd" clip-rule="evenodd" d="M123.124 229.386C123.168 229.386 123.19 229.386 123.234 229.386C123.234 229.518 123.234 229.65 123.234 229.76C123.124 229.76 122.992 229.76 122.882 229.804C122.728 229.892 122.64 230.046 122.64 230.222C122.64 230.575 122.64 230.905 122.64 231.257C122.508 231.257 122.398 231.257 122.266 231.257C122.266 230.641 122.266 230.024 122.266 229.408C122.376 229.408 122.486 229.408 122.596 229.408C122.596 229.496 122.596 229.606 122.618 229.694C122.728 229.496 122.882 229.408 123.124 229.386Z" fill="#FEFFFE"/>
<path opacity="0.988" fill-rule="evenodd" clip-rule="evenodd" d="M108.969 229.408C109.101 229.408 109.233 229.408 109.343 229.408C109.343 230.024 109.343 230.641 109.343 231.257C109.211 231.257 109.079 231.257 108.969 231.257C108.969 230.641 108.969 230.024 108.969 229.408Z" fill="#FEFFFE"/>
<path opacity="0.98" fill-rule="evenodd" clip-rule="evenodd" d="M121.429 229.408C121.561 229.408 121.693 229.408 121.803 229.408C121.803 230.024 121.803 230.641 121.803 231.257C121.671 231.257 121.539 231.257 121.429 231.257C121.429 230.641 121.429 230.024 121.429 229.408Z" fill="#FEFFFE"/>
<path opacity="0.98" fill-rule="evenodd" clip-rule="evenodd" d="M123.499 229.408C123.631 229.408 123.763 229.408 123.873 229.408C123.873 230.024 123.873 230.641 123.873 231.257C123.741 231.257 123.609 231.257 123.499 231.257C123.499 230.641 123.499 230.024 123.499 229.408Z" fill="#FEFFFE"/>
<path opacity="0.996" fill-rule="evenodd" clip-rule="evenodd" d="M194.322 202.593C194.63 202.593 194.872 202.703 195.092 202.923C195.555 203.517 195.995 204.134 196.457 204.728C196.898 204.134 197.338 203.561 197.778 202.967C197.976 202.725 198.241 202.593 198.571 202.593C199.297 202.593 200.002 202.593 200.728 202.593C200.926 202.593 201.103 202.637 201.279 202.725C201.103 202.725 200.948 202.747 200.772 202.769C200.618 202.813 200.486 202.879 200.354 202.989C200.266 203.077 200.156 203.165 200.068 203.253C199.914 203.429 199.782 203.583 199.627 203.76C199.341 204.156 199.055 204.552 198.769 204.926C198.329 205.521 197.866 206.093 197.426 206.688C197.426 207.26 197.426 207.832 197.426 208.405C197.36 208.801 197.162 209.087 196.766 209.241C196.699 209.263 196.655 209.285 196.589 209.285C196.215 209.285 195.819 209.307 195.445 209.307C195.445 208.449 195.445 207.568 195.445 206.71C194.806 205.851 194.168 205.014 193.507 204.156C193.309 203.848 193.287 203.539 193.419 203.187C193.617 202.835 193.926 202.615 194.322 202.593Z" fill="#FEFFFE"/>
<path opacity="0.997" fill-rule="evenodd" clip-rule="evenodd" d="M205.307 202.593C205.638 202.593 205.99 202.593 206.32 202.593C206.32 204.552 206.32 206.511 206.32 208.471C206.254 208.845 206.056 209.109 205.704 209.263C205.263 209.417 204.889 209.307 204.581 208.977C204.449 208.823 204.361 208.625 204.361 208.427C204.361 207.524 204.361 206.622 204.361 205.719C203.92 206.225 203.48 206.732 203.04 207.26C202.6 206.754 202.159 206.247 201.719 205.741C201.719 206.688 201.719 207.634 201.719 208.581C201.697 208.999 201.477 209.241 201.058 209.307C201.014 209.307 200.948 209.329 200.904 209.329C200.508 209.329 200.134 209.329 199.738 209.329C199.738 207.546 199.738 205.741 199.738 203.958C199.936 203.694 200.156 203.429 200.398 203.187C200.508 203.099 200.618 203.011 200.728 202.967C200.838 202.923 200.948 202.901 201.08 202.901C201.235 202.901 201.411 202.901 201.565 202.901C202.071 203.473 202.555 204.068 203.04 204.662C203.524 204.068 204.031 203.473 204.515 202.901C204.735 202.703 204.999 202.593 205.307 202.593Z" fill="#FEFFFE"/>
<path opacity="0.955" fill-rule="evenodd" clip-rule="evenodd" d="M196.81 209.858C196.92 209.858 196.964 209.924 196.986 210.012C196.986 210.122 196.92 210.166 196.832 210.166C196.7 210.144 196.656 210.078 196.678 209.946C196.7 209.902 196.744 209.858 196.81 209.858Z" fill="#FEFFFE"/>
<path opacity="0.957" fill-rule="evenodd" clip-rule="evenodd" d="M204.845 209.858C204.955 209.88 205.021 209.946 204.999 210.056C204.955 210.166 204.889 210.188 204.779 210.166C204.691 210.122 204.669 210.056 204.691 209.968C204.735 209.902 204.779 209.858 204.845 209.858Z" fill="#FEFFFE"/>
<path opacity="0.959" fill-rule="evenodd" clip-rule="evenodd" d="M206.166 209.858C206.298 209.88 206.342 209.946 206.32 210.078C206.276 210.166 206.21 210.21 206.1 210.166C206.012 210.122 205.99 210.056 206.012 209.968C206.034 209.902 206.078 209.858 206.166 209.858Z" fill="#FEFFFE"/>
<path opacity="0.972" fill-rule="evenodd" clip-rule="evenodd" d="M193.353 209.924C193.441 209.924 193.551 209.924 193.639 209.924C193.75 210.166 193.86 210.408 193.97 210.628C194.08 210.386 194.19 210.144 194.3 209.924C194.388 209.924 194.476 209.924 194.586 209.924C194.432 210.254 194.278 210.584 194.124 210.893C194.124 211.091 194.124 211.311 194.124 211.509C194.036 211.509 193.948 211.509 193.86 211.509C193.86 211.311 193.86 211.091 193.86 210.893C193.684 210.562 193.507 210.254 193.353 209.924Z" fill="#FEFFFE"/>
<path opacity="0.968" fill-rule="evenodd" clip-rule="evenodd" d="M199.605 209.902C199.694 209.902 199.782 209.902 199.87 209.902C200.002 210.232 200.134 210.54 200.266 210.871C200.398 210.54 200.53 210.232 200.662 209.902C200.75 209.902 200.838 209.902 200.926 209.902C200.926 210.43 200.926 210.981 200.926 211.509C200.838 211.509 200.772 211.509 200.684 211.509C200.684 211.135 200.684 210.782 200.684 210.408C200.574 210.694 200.464 210.981 200.332 211.245C200.288 211.245 200.244 211.245 200.2 211.245C200.09 210.959 199.98 210.694 199.87 210.408C199.87 210.76 199.87 211.135 199.87 211.487C199.782 211.487 199.716 211.487 199.627 211.487C199.605 210.981 199.605 210.452 199.605 209.902Z" fill="#FEFFFE"/>
<path opacity="0.968" fill-rule="evenodd" clip-rule="evenodd" d="M204.207 209.902C204.295 209.902 204.361 209.902 204.449 209.902C204.449 210.43 204.449 210.981 204.449 211.509C204.383 211.509 204.295 211.509 204.229 211.509C204.229 211.465 204.229 211.421 204.207 211.399C204.097 211.531 203.965 211.575 203.81 211.531C203.612 211.487 203.502 211.377 203.48 211.157C203.48 211.003 203.48 210.849 203.48 210.694C203.524 210.43 203.678 210.298 203.943 210.32C204.031 210.32 204.119 210.364 204.163 210.43C204.207 210.254 204.207 210.078 204.207 209.902ZM203.943 210.54C204.097 210.54 204.185 210.606 204.207 210.76C204.207 210.893 204.207 211.025 204.207 211.179C204.163 211.311 204.075 211.377 203.921 211.355C203.832 211.333 203.766 211.267 203.744 211.179C203.744 211.025 203.744 210.871 203.744 210.738C203.788 210.606 203.832 210.54 203.943 210.54Z" fill="#FEFFFE"/>
<path opacity="0.973" fill-rule="evenodd" clip-rule="evenodd" d="M195.929 210.056C196.017 210.056 196.083 210.056 196.171 210.056C196.171 210.144 196.171 210.254 196.171 210.342C196.281 210.342 196.391 210.342 196.501 210.342C196.501 210.408 196.501 210.474 196.501 210.54C196.391 210.54 196.281 210.54 196.171 210.54C196.171 210.783 196.171 211.025 196.193 211.245C196.215 211.289 196.237 211.311 196.281 211.333C196.347 211.333 196.413 211.333 196.479 211.311C196.479 211.377 196.501 211.443 196.501 211.487V211.509C196.391 211.531 196.259 211.553 196.149 211.531C196.039 211.487 195.973 211.421 195.951 211.311C195.951 211.047 195.951 210.805 195.951 210.54C195.885 210.54 195.819 210.54 195.775 210.54C195.775 210.474 195.775 210.408 195.775 210.342C195.841 210.342 195.907 210.342 195.951 210.342C195.929 210.232 195.929 210.144 195.929 210.056Z" fill="#FEFFFE"/>
<path opacity="0.973" fill-rule="evenodd" clip-rule="evenodd" d="M195.026 210.32C195.158 210.32 195.268 210.32 195.378 210.386C195.489 210.452 195.555 210.562 195.577 210.717C195.577 210.981 195.577 211.267 195.577 211.531C195.511 211.531 195.445 211.531 195.378 211.531C195.378 211.509 195.356 211.465 195.356 211.443C195.268 211.531 195.158 211.575 195.048 211.553C194.872 211.553 194.74 211.487 194.674 211.333C194.608 211.069 194.718 210.893 194.982 210.827C195.07 210.827 195.158 210.827 195.246 210.849C195.29 210.871 195.312 210.893 195.356 210.915C195.378 210.607 195.246 210.496 194.938 210.562C194.894 210.562 194.85 210.584 194.806 210.629C194.784 210.562 194.762 210.496 194.74 210.43C194.762 210.408 194.806 210.386 194.828 210.386C194.894 210.342 194.96 210.32 195.026 210.32ZM195.07 210.981C195.18 210.959 195.268 211.003 195.356 211.091C195.4 211.245 195.334 211.333 195.18 211.355C195.07 211.377 195.004 211.333 194.938 211.267C194.872 211.135 194.916 211.025 195.07 210.981Z" fill="#FEFFFE"/>
<path opacity="0.978" fill-rule="evenodd" clip-rule="evenodd" d="M197.712 210.32C197.844 210.298 197.954 210.342 198.042 210.43C198.064 210.452 198.064 210.474 198.086 210.518C198.175 210.364 198.307 210.298 198.483 210.32C198.615 210.342 198.703 210.408 198.769 210.54C198.791 210.584 198.791 210.628 198.791 210.672C198.791 210.959 198.791 211.245 198.791 211.531C198.703 211.531 198.637 211.531 198.549 211.531C198.549 211.267 198.549 210.981 198.527 210.716C198.483 210.562 198.395 210.518 198.241 210.562C198.175 210.584 198.13 210.65 198.13 210.716C198.13 211.003 198.108 211.267 198.108 211.553C198.02 211.553 197.954 211.553 197.866 211.553C197.866 211.267 197.866 211.003 197.844 210.716C197.8 210.584 197.734 210.54 197.58 210.562C197.514 210.584 197.47 210.65 197.448 210.716C197.448 211.003 197.426 211.267 197.426 211.553C197.338 211.553 197.272 211.553 197.184 211.553C197.184 211.157 197.184 210.76 197.184 210.364C197.25 210.364 197.316 210.364 197.382 210.364C197.382 210.408 197.382 210.452 197.404 210.496C197.514 210.386 197.602 210.32 197.712 210.32Z" fill="#FEFFFE"/>
<path opacity="0.97" fill-rule="evenodd" clip-rule="evenodd" d="M201.521 210.32C201.675 210.298 201.785 210.342 201.917 210.408C202.005 210.496 202.049 210.584 202.071 210.694C202.071 210.959 202.071 211.245 202.071 211.509C202.005 211.509 201.939 211.509 201.873 211.509C201.873 211.487 201.851 211.443 201.851 211.421C201.763 211.509 201.653 211.553 201.543 211.531C201.301 211.531 201.169 211.421 201.125 211.179C201.147 210.981 201.257 210.849 201.455 210.805C201.587 210.782 201.697 210.805 201.807 210.893C201.807 210.827 201.807 210.738 201.785 210.672C201.741 210.562 201.653 210.518 201.521 210.518C201.411 210.518 201.323 210.54 201.235 210.584C201.213 210.518 201.191 210.474 201.169 210.408V210.386C201.213 210.364 201.235 210.342 201.279 210.342C201.389 210.342 201.455 210.32 201.521 210.32ZM201.543 210.981C201.653 210.959 201.741 210.981 201.807 211.069C201.873 211.201 201.829 211.311 201.697 211.355C201.609 211.377 201.543 211.355 201.477 211.333C201.389 211.267 201.367 211.201 201.411 211.091C201.433 211.047 201.499 211.003 201.543 210.981Z" fill="#FEFFFE"/>
<path opacity="0.976" fill-rule="evenodd" clip-rule="evenodd" d="M202.82 210.32C202.996 210.298 203.128 210.364 203.216 210.518C203.238 210.562 203.26 210.628 203.26 210.672C203.26 210.958 203.26 211.223 203.26 211.509C203.172 211.509 203.106 211.509 203.018 211.509C203.018 211.223 203.018 210.958 202.996 210.672C202.952 210.54 202.864 210.474 202.732 210.518C202.643 210.54 202.599 210.606 202.577 210.694C202.577 210.958 202.555 211.245 202.555 211.509C202.467 211.509 202.401 211.509 202.313 211.509C202.313 211.113 202.313 210.716 202.313 210.32C202.379 210.32 202.445 210.32 202.511 210.32C202.511 210.364 202.511 210.408 202.533 210.452C202.621 210.386 202.71 210.32 202.82 210.32Z" fill="#FEFFFE"/>
<path opacity="0.978" fill-rule="evenodd" clip-rule="evenodd" d="M205.814 210.32C205.836 210.32 205.858 210.32 205.88 210.32C205.88 210.408 205.88 210.474 205.88 210.562C205.814 210.562 205.726 210.562 205.66 210.584C205.55 210.651 205.506 210.739 205.506 210.849C205.506 211.069 205.506 211.289 205.506 211.509C205.418 211.509 205.351 211.509 205.263 211.509C205.263 211.113 205.263 210.717 205.263 210.32C205.329 210.32 205.418 210.32 205.484 210.32C205.484 210.386 205.484 210.452 205.506 210.496C205.55 210.386 205.66 210.32 205.814 210.32Z" fill="#FEFFFE"/>
<path opacity="0.988" fill-rule="evenodd" clip-rule="evenodd" d="M196.699 210.342C196.788 210.342 196.854 210.342 196.942 210.342C196.942 210.739 196.942 211.135 196.942 211.531C196.854 211.531 196.788 211.531 196.699 211.531C196.699 211.135 196.699 210.739 196.699 210.342Z" fill="#FEFFFE"/>
<path opacity="0.98" fill-rule="evenodd" clip-rule="evenodd" d="M204.735 210.342C204.823 210.342 204.889 210.342 204.977 210.342C204.977 210.739 204.977 211.135 204.977 211.531C204.889 211.531 204.823 211.531 204.735 211.531C204.735 211.135 204.735 210.739 204.735 210.342Z" fill="#FEFFFE"/>
<path opacity="0.98" fill-rule="evenodd" clip-rule="evenodd" d="M206.056 210.342C206.144 210.342 206.21 210.342 206.298 210.342C206.298 210.739 206.298 211.135 206.298 211.531C206.21 211.531 206.144 211.531 206.056 211.531C206.056 211.135 206.056 210.739 206.056 210.342Z" fill="#FEFFFE"/>
</g>
<defs>
<linearGradient id="paint0_linear_761_2152" x1="160" y1="381.5" x2="160" y2="160" gradientUnits="userSpaceOnUse">
<stop stop-color="#F47D21"/>
<stop offset="1" stop-color="#F47D21" stop-opacity="0"/>
</linearGradient>
<clipPath id="clip0_761_2152">
<rect width="320" height="320" rx="160" fill="white"/>
</clipPath>
</defs>
</svg>
