<svg width="24" height="24" viewBox="0 0 24 24" fill="none" xmlns="http://www.w3.org/2000/svg">
<rect width="24" height="24" rx="4" fill="#FDF5A9"/>
<path d="M8.875 17.5025H2.625L3.34875 14.6075C3.397 14.4143 3.50848 14.2428 3.66545 14.1202C3.82242 13.9977 4.01586 13.9312 4.215 13.9313H7.285C7.695 13.9313 8.05188 14.21 8.15125 14.6075L8.875 17.5025ZM15.125 17.5025H8.875L9.59875 14.6075C9.647 14.4143 9.75848 14.2428 9.91545 14.1202C10.0724 13.9977 10.2659 13.9312 10.465 13.9313H13.535C13.945 13.9313 14.3019 14.21 14.4012 14.6075L15.125 17.5025ZM21.375 17.5025H15.125L15.8488 14.6075C15.897 14.4143 16.0085 14.2428 16.1654 14.1202C16.3224 13.9977 16.5159 13.9312 16.715 13.9313H19.785C20.195 13.9313 20.5519 14.21 20.6512 14.6075L21.375 17.5025ZM12 13.9306H5.75L6.47375 11.0356C6.522 10.8424 6.63348 10.6709 6.79045 10.5484C6.94742 10.4258 7.14086 10.3593 7.34 10.3594H10.41C10.82 10.3594 11.1769 10.6381 11.2762 11.0356L12 13.9306ZM18.25 13.9306H12L12.7238 11.0356C12.772 10.8424 12.8835 10.6709 13.0404 10.5484C13.1974 10.4258 13.3909 10.3593 13.59 10.3594H16.66C17.07 10.3594 17.4269 10.6381 17.5262 11.0356L18.25 13.9306Z" fill="#FFCC5C"/>
<path d="M15.125 10.3593H8.875L9.59875 7.46434C9.647 7.27113 9.75848 7.09961 9.91545 6.97707C10.0724 6.85453 10.2659 6.78801 10.465 6.78809H13.535C13.945 6.78809 14.3019 7.06684 14.4012 7.46434L15.125 10.3593Z" fill="#FFCC5C"/>
<path d="M8.15125 14.6075C8.103 14.4143 7.99152 14.2428 7.83455 14.1202C7.67758 13.9977 7.48414 13.9312 7.285 13.9313H6.64375L6.92438 15.0544C6.97044 15.2386 6.9739 15.431 6.9345 15.6168C6.8951 15.8026 6.81387 15.977 6.69699 16.1267C6.5801 16.2764 6.43064 16.3975 6.25994 16.4808C6.08925 16.5642 5.90181 16.6075 5.71187 16.6075H2.84937L2.625 17.5025H8.875L8.15125 14.6075ZM14.4012 14.6075C14.353 14.4143 14.2415 14.2428 14.0846 14.1202C13.9276 13.9977 13.7341 13.9312 13.535 13.9313H12.8938L13.1744 15.0544C13.2204 15.2386 13.2239 15.431 13.1845 15.6168C13.1451 15.8026 13.0639 15.977 12.947 16.1267C12.8301 16.2764 12.6806 16.3975 12.5099 16.4808C12.3393 16.5642 12.1518 16.6075 11.9619 16.6075H9.09938L8.875 17.5025H15.125L14.4012 14.6075ZM20.6512 14.6075C20.603 14.4143 20.4915 14.2428 20.3346 14.1202C20.1776 13.9977 19.9841 13.9312 19.785 13.9313H19.1437L19.4244 15.0544C19.4704 15.2386 19.4739 15.431 19.4345 15.6168C19.3951 15.8026 19.3139 15.977 19.197 16.1267C19.0801 16.2764 18.9306 16.3975 18.7599 16.4808C18.5893 16.5642 18.4018 16.6075 18.2119 16.6075H15.3494L15.125 17.5025H21.375L20.6512 14.6075ZM11.2762 11.0356C11.228 10.8424 11.1165 10.6709 10.9596 10.5484C10.8026 10.4258 10.6091 10.3593 10.41 10.3594H9.76875L10.0494 11.4825C10.0954 11.6668 10.0989 11.8591 10.0595 12.0449C10.0201 12.2307 9.93887 12.4051 9.82199 12.5548C9.7051 12.7046 9.55564 12.8257 9.38494 12.909C9.21425 12.9923 9.02681 13.0356 8.83687 13.0356H5.97438L5.75 13.9306H12L11.2762 11.0356ZM17.5262 11.0356C17.478 10.8424 17.3665 10.6709 17.2096 10.5484C17.0526 10.4258 16.8591 10.3593 16.66 10.3594H16.0188L16.2994 11.4825C16.3454 11.6668 16.3489 11.8591 16.3095 12.0449C16.2701 12.2307 16.1889 12.4051 16.072 12.5548C15.9551 12.7046 15.8056 12.8257 15.6349 12.909C15.4643 12.9923 15.2768 13.0356 15.0869 13.0356H12.2244L12 13.9306H18.25L17.5262 11.0356Z" fill="#F7B546"/>
<path d="M14.4012 7.46434C14.353 7.27113 14.2415 7.09961 14.0846 6.97707C13.9276 6.85453 13.7341 6.78801 13.535 6.78809H12.8938L13.1744 7.91121C13.2204 8.09548 13.2239 8.28782 13.1845 8.47363C13.1451 8.65944 13.0639 8.83383 12.947 8.98354C12.8301 9.13326 12.6806 9.25438 12.5099 9.33768C12.3393 9.42099 12.1518 9.46431 11.9619 9.46434H9.09938L8.875 10.3593H15.125L14.4012 7.46434Z" fill="#F7B546"/>
<path d="M14.75 5.28418L15.75 5.03418L14.75 4.78418L14.5 3.78418L14.25 4.78418L13.25 5.03418L14.25 5.28418L14.5 6.28418L14.75 5.28418ZM17.1875 6.47168L17.9375 6.28418L17.1875 6.09668L17 5.34668L16.8125 6.09668L16.0625 6.28418L16.8125 6.47168L17 7.22168L17.1875 6.47168ZM16.8125 3.90918L17.3125 3.78418L16.8125 3.65918L16.6875 3.15918L16.5625 3.65918L16.0625 3.78418L16.5625 3.90918L16.6875 4.40918L16.8125 3.90918Z" fill="#FFCC5C"/>
</svg>
