<svg width="24" height="24" viewBox="0 0 24 24" fill="none" xmlns="http://www.w3.org/2000/svg">
<path d="M16.3996 3.3C12.4996 1.1 7.69961 1.8 4.59961 4.8V3C4.59961 2.4 4.19961 2 3.59961 2C2.99961 2 2.59961 2.4 2.59961 3V7.5C2.59961 8.1 2.99961 8.5 3.59961 8.5H8.09961C8.69961 8.5 9.09961 8.1 9.09961 7.5C9.09961 6.9 8.69961 6.5 8.09961 6.5H5.69961C7.09961 4.9 9.19961 4 11.4996 4C15.8996 4 19.4996 7.6 19.4996 12C19.4996 16.4 15.8996 20 11.4996 20C10.8996 20 10.4996 20.4 10.4996 21C10.4996 21.6 10.8996 22 11.4996 22C15.0996 22 18.3996 20.1 20.1996 17C22.8996 12.2 21.1996 6.1 16.3996 3.3ZM11.3996 8C10.7996 8 10.3996 8.4 10.3996 9V12C10.3996 12.6 10.7996 13 11.3996 13H13.3996C13.9996 13 14.3996 12.6 14.3996 12C14.3996 11.4 13.9996 11 13.3996 11H12.3996V9C12.3996 8.4 11.9996 8 11.3996 8Z" fill="#F16022"/>
</svg>
