<svg width="24" height="24" viewBox="0 0 24 24" fill="none" xmlns="http://www.w3.org/2000/svg">
<path d="M6 7.75C5.80109 7.75 5.61032 7.82902 5.46967 7.96967C5.32902 8.11032 5.25 8.30109 5.25 8.5C5.25 8.69891 5.32902 8.88968 5.46967 9.03033C5.61032 9.17098 5.80109 9.25 6 9.25H11C11.1989 9.25 11.3897 9.17098 11.5303 9.03033C11.671 8.88968 11.75 8.69891 11.75 8.5C11.75 8.30109 11.671 8.11032 11.5303 7.96967C11.3897 7.82902 11.1989 7.75 11 7.75H6ZM5.25 12C5.25 11.8011 5.32902 11.6103 5.46967 11.4697C5.61032 11.329 5.80109 11.25 6 11.25H13.5C13.6989 11.25 13.8897 11.329 14.0303 11.4697C14.171 11.6103 14.25 11.8011 14.25 12C14.25 12.1989 14.171 12.3897 14.0303 12.5303C13.8897 12.671 13.6989 12.75 13.5 12.75H6C5.80109 12.75 5.61032 12.671 5.46967 12.5303C5.32902 12.3897 5.25 12.1989 5.25 12ZM6 14.75C5.80109 14.75 5.61032 14.829 5.46967 14.9697C5.32902 15.1103 5.25 15.3011 5.25 15.5C5.25 15.6989 5.32902 15.8897 5.46967 16.0303C5.61032 16.171 5.80109 16.25 6 16.25H13.5C13.6989 16.25 13.8897 16.171 14.0303 16.0303C14.171 15.8897 14.25 15.6989 14.25 15.5C14.25 15.3011 14.171 15.1103 14.0303 14.9697C13.8897 14.829 13.6989 14.75 13.5 14.75H6Z" fill="#F16022"/>
<path fill-rule="evenodd" clip-rule="evenodd" d="M8.445 1.75H11.055C12.422 1.75 13.525 1.75 14.392 1.867C15.292 1.987 16.05 2.247 16.652 2.848C17.254 3.45 17.512 4.208 17.634 5.108C17.75 5.975 17.75 7.078 17.75 8.445V10.752C18.107 10.754 18.42 10.762 18.692 10.78C19.149 10.811 19.552 10.877 19.935 11.036C20.39 11.2243 20.8035 11.5005 21.1518 11.8486C21.5001 12.1967 21.7764 12.6101 21.965 13.065C22.123 13.447 22.189 13.851 22.22 14.307C22.25 14.751 22.25 15.297 22.25 15.973V19.25C22.2501 19.6651 22.164 20.0756 21.9972 20.4557C21.8305 20.8358 21.5866 21.1772 21.2812 21.4582C20.9757 21.7393 20.6152 21.9538 20.2226 22.0884C19.8299 22.223 19.4136 22.2746 19 22.24V22.25H8.445C7.078 22.25 5.975 22.25 5.108 22.134C4.208 22.012 3.45 21.754 2.848 21.152C2.246 20.55 1.988 19.792 1.867 18.892C1.75 18.025 1.75 16.922 1.75 15.555V8.445C1.75 7.078 1.75 5.975 1.867 5.108C1.987 4.208 2.247 3.45 2.848 2.848C3.45 2.246 4.208 1.988 5.108 1.867C5.975 1.75 7.078 1.75 8.445 1.75ZM17.75 12.252C18.085 12.254 18.357 12.261 18.59 12.277C18.97 12.303 19.192 12.351 19.361 12.421C19.912 12.65 20.351 13.088 20.579 13.639C20.649 13.808 20.697 14.029 20.723 14.409C20.75 14.796 20.75 15.291 20.75 16V19.25C20.75 19.6478 20.592 20.0294 20.3107 20.3107C20.0294 20.592 19.6478 20.75 19.25 20.75C18.8522 20.75 18.4706 20.592 18.1893 20.3107C17.908 20.0294 17.75 19.6478 17.75 19.25V12.252ZM16.25 8.5V19.25C16.25 19.796 16.396 20.309 16.651 20.75H8.5C7.065 20.75 6.063 20.748 5.308 20.647C4.574 20.548 4.186 20.367 3.909 20.091C3.632 19.814 3.452 19.426 3.353 18.691C3.252 17.936 3.25 16.935 3.25 15.5V8.5C3.25 7.065 3.252 6.063 3.353 5.308C3.452 4.574 3.633 4.186 3.909 3.909C4.186 3.632 4.574 3.452 5.309 3.353C6.063 3.252 7.065 3.25 8.5 3.25H11C12.435 3.25 13.437 3.252 14.192 3.353C14.926 3.452 15.314 3.633 15.591 3.909C15.868 4.186 16.048 4.574 16.147 5.309C16.248 6.063 16.25 7.065 16.25 8.5Z" fill="#F16022"/>
</svg>
