<svg width="24" height="24" viewBox="0 0 24 24" fill="none" xmlns="http://www.w3.org/2000/svg">
<path d="M18.32 12.48C19.9106 12.48 21.2 13.7694 21.2 15.36V16.32C21.2 20.1052 17.6297 24 11.6 24C5.57026 24 2 20.1052 2 16.32V15.36C2 13.7694 3.28942 12.48 4.88 12.48H18.32ZM18.32 14.4H4.88C4.34981 14.4 3.92 14.8298 3.92 15.36V16.32C3.92 19.0803 6.66974 22.08 11.6 22.08C16.5303 22.08 19.28 19.0803 19.28 16.32V15.36C19.28 14.8298 18.8502 14.4 18.32 14.4ZM11.6 0C14.5161 0 16.88 2.36394 16.88 5.28C16.88 8.19606 14.5161 10.56 11.6 10.56C8.68394 10.56 6.32 8.19606 6.32 5.28C6.32 2.36394 8.68394 0 11.6 0ZM11.6 1.92C9.74432 1.92 8.24 3.42432 8.24 5.28C8.24 7.13568 9.74432 8.64 11.6 8.64C13.4557 8.64 14.96 7.13568 14.96 5.28C14.96 3.42432 13.4557 1.92 11.6 1.92Z" fill="#F16022"/>
</svg>
