<svg width="24" height="24" viewBox="0 0 24 24" fill="none" xmlns="http://www.w3.org/2000/svg">
<path fill-rule="evenodd" clip-rule="evenodd" d="M24 7C24.0001 6.08071 23.8192 5.1704 23.4674 4.32106C23.1157 3.47172 22.6001 2.7 21.95 2.04996C21.3 1.39992 20.5283 0.884312 19.6789 0.532576C18.8296 0.180839 17.9193 -0.000131284 17 7.14556e-08H7C6.08071 -0.000131284 5.1704 0.180839 4.32106 0.532576C3.47172 0.884312 2.7 1.39992 2.04996 2.04996C1.39992 2.7 0.884312 3.47172 0.532576 4.32106C0.180839 5.1704 -0.000131284 6.08071 7.14556e-08 7V17C-0.000131284 17.9193 0.180839 18.8296 0.532576 19.6789C0.884312 20.5283 1.39992 21.3 2.04996 21.95C2.7 22.6001 3.47172 23.1157 4.32106 23.4674C5.1704 23.8192 6.08071 24.0001 7 24H17C17.9193 24.0001 18.8296 23.8192 19.6789 23.4674C20.5283 23.1157 21.3 22.6001 21.95 21.95C22.6001 21.3 23.1157 20.5283 23.4674 19.6789C23.8192 18.8296 24.0001 17.9193 24 17V7ZM22 7V17C21.9998 18.3261 21.4733 19.5979 20.536 20.536C19.5979 21.4733 18.3261 21.9998 17 22H7C5.67391 21.9998 4.40212 21.4733 3.464 20.536C2.52675 19.5979 2.00019 18.3261 2 17V7C2 5.674 2.527 4.402 3.464 3.464C4.40212 2.52675 5.67391 2.00019 7 2H17C18.326 2 19.598 2.527 20.536 3.464C21.4733 4.40212 21.9998 5.67391 22 7ZM6.006 14.994H5C4.73478 14.994 4.48043 15.0994 4.29289 15.2869C4.10536 15.4744 4 15.7288 4 15.994C4 16.2592 4.10536 16.5136 4.29289 16.7011C4.48043 16.8886 4.73478 16.994 5 16.994H6.006V18C6.006 18.2652 6.11136 18.5196 6.29889 18.7071C6.48643 18.8946 6.74078 19 7.006 19C7.27122 19 7.52557 18.8946 7.71311 18.7071C7.90064 18.5196 8.006 18.2652 8.006 18V16.994H9.012C9.27722 16.994 9.53157 16.8886 9.71911 16.7011C9.90664 16.5136 10.012 16.2592 10.012 15.994C10.012 15.7288 9.90664 15.4744 9.71911 15.2869C9.53157 15.0994 9.27722 14.994 9.012 14.994H8.006V13.988C8.006 13.7228 7.90064 13.4684 7.71311 13.2809C7.52557 13.0934 7.27122 12.988 7.006 12.988C6.74078 12.988 6.48643 13.0934 6.29889 13.2809C6.11136 13.4684 6.006 13.7228 6.006 13.988V14.994ZM14.988 18.988H19C19.2652 18.988 19.5196 18.8826 19.7071 18.6951C19.8946 18.5076 20 18.2532 20 17.988C20 17.7228 19.8946 17.4684 19.7071 17.2809C19.5196 17.0934 19.2652 16.988 19 16.988H14.988C14.7228 16.988 14.4684 17.0934 14.2809 17.2809C14.0934 17.4684 13.988 17.7228 13.988 17.988C13.988 18.2532 14.0934 18.5076 14.2809 18.6951C14.4684 18.8826 14.7228 18.988 14.988 18.988ZM14.988 14.988H19C19.2652 14.988 19.5196 14.8826 19.7071 14.6951C19.8946 14.5076 20 14.2532 20 13.988C20 13.7228 19.8946 13.4684 19.7071 13.2809C19.5196 13.0934 19.2652 12.988 19 12.988H14.988C14.7228 12.988 14.4684 13.0934 14.2809 13.2809C14.0934 13.4684 13.988 13.7228 13.988 13.988C13.988 14.2532 14.0934 14.5076 14.2809 14.6951C14.4684 14.8826 14.7228 14.988 14.988 14.988ZM16.994 6.586L15.695 5.287C15.5064 5.10484 15.2538 5.00405 14.9916 5.00633C14.7294 5.0086 14.4786 5.11377 14.2932 5.29918C14.1078 5.48459 14.0026 5.7354 14.0003 5.9976C13.998 6.2598 14.0988 6.5124 14.281 6.701L15.58 8L14.281 9.299C14.0988 9.4876 13.998 9.7402 14.0003 10.0024C14.0026 10.2646 14.1078 10.5154 14.2932 10.7008C14.4786 10.8862 14.7294 10.9914 14.9916 10.9937C15.2538 10.996 15.5064 10.8952 15.695 10.713L16.994 9.414L18.293 10.713C18.4816 10.8952 18.7342 10.996 18.9964 10.9937C19.2586 10.9914 19.5094 10.8862 19.6948 10.7008C19.8802 10.5154 19.9854 10.2646 19.9877 10.0024C19.99 9.7402 19.8892 9.4876 19.707 9.299L18.408 8L19.707 6.701C19.8892 6.5124 19.99 6.2598 19.9877 5.9976C19.9854 5.7354 19.8802 5.48459 19.6948 5.29918C19.5094 5.11377 19.2586 5.0086 18.9964 5.00633C18.7342 5.00405 18.4816 5.10484 18.293 5.287L16.994 6.586ZM5 8.994H9.012C9.27722 8.994 9.53157 8.88864 9.71911 8.70111C9.90664 8.51357 10.012 8.25922 10.012 7.994C10.012 7.72878 9.90664 7.47443 9.71911 7.28689C9.53157 7.09936 9.27722 6.994 9.012 6.994H5C4.73478 6.994 4.48043 7.09936 4.29289 7.28689C4.10536 7.47443 4 7.72878 4 7.994C4 8.25922 4.10536 8.51357 4.29289 8.70111C4.48043 8.88864 4.73478 8.994 5 8.994Z" fill="#F16022"/>
</svg>
