<svg width="140" height="140" viewBox="0 0 140 140" fill="none" xmlns="http://www.w3.org/2000/svg">
<g clip-path="url(#clip0_1320_3363)">
<rect width="140" height="140" rx="70" fill="#FEF2E9"/>
<path fill-rule="evenodd" clip-rule="evenodd" d="M35.4397 34.7738C35.9985 34.632 36.3542 34.8345 36.5066 35.3815C37.0756 36.7589 37.5735 38.1567 37.9799 39.5848C37.9596 39.757 37.8986 39.8886 37.7767 39.9899C37.4414 40.0608 37.0959 40.0608 36.7606 39.9899C36.6082 39.8279 36.4863 39.6455 36.405 39.4328C35.9579 38.2276 35.5515 37.0122 35.1857 35.7866C35.1145 35.5131 35.1145 35.2498 35.1857 34.9763C35.2873 34.9156 35.3686 34.8548 35.4397 34.7738Z" fill="#FFD400"/>
<path fill-rule="evenodd" clip-rule="evenodd" d="M108.801 115.194C105.194 118.678 101.536 122.101 97.8271 125.474C91.6797 130.842 85.5426 136.23 79.4359 141.629C75.9405 144.627 72.4858 147.686 69.0718 150.795C68.1573 151.524 67.2123 152.193 66.2267 152.821C65.7593 152.952 65.3732 152.831 65.0582 152.466C63.1886 148.769 61.5121 144.992 60.0286 141.122C59.0531 138.692 58.1082 136.241 57.1835 133.779C57.6509 132.311 57.9354 130.812 58.0472 129.272C58.3216 124.785 58.4232 120.298 58.352 115.801C58.2199 113.026 57.7119 110.332 56.8279 107.699C55.4765 104.589 53.4951 101.936 50.8838 99.7479C51.5747 99.3529 52.1844 98.8566 52.7127 98.2793C53.5967 98.7857 54.5417 99.0895 55.5578 99.1908C55.8423 99.2921 56.1471 99.3225 56.4723 99.2921C56.8482 102.756 57.5087 106.169 58.4536 109.522C60.1404 115.862 62.2741 122.041 64.855 128.057C66.0743 130.69 67.4968 133.182 69.1226 135.552C69.3664 135.846 69.6205 136.139 69.8846 136.413C69.9761 136.463 70.0777 136.484 70.1895 136.463C70.2098 136.22 70.1895 135.987 70.1387 135.754C68.5231 132.675 66.9685 129.566 65.4647 126.436C62.1522 118.587 59.5104 110.525 57.5392 102.229C57.3461 101.216 57.1531 100.204 56.9803 99.1908C61.4105 98.4211 63.5646 95.7877 63.4325 91.2906C63.3309 90.7741 63.2089 90.2677 63.0768 89.7714C69.3563 91.7869 75.7881 92.7188 82.3825 92.5567C85.2377 92.4453 88.0117 91.9389 90.7144 91.0374C92.1166 90.531 93.1022 89.5992 93.6611 88.2521C93.4884 88.2319 93.3156 88.2521 93.1531 88.3028C90.9278 89.6296 88.5197 90.4702 85.9388 90.8349C81.9558 91.3615 77.9524 91.4324 73.949 91.0374C70.1285 90.6323 66.369 89.9334 62.6704 88.9611C62.5485 88.8092 62.4469 88.6471 62.3656 88.4547C67.3749 88.8497 72.3232 88.4243 77.2005 87.1886C83.0836 85.4263 87.9405 82.1751 91.7813 77.4147C92.3097 76.6044 92.7466 75.7536 93.1022 74.8826C91.4867 77.0602 89.5764 78.934 87.3614 80.5039C82.9922 83.745 78.0743 85.6694 72.6281 86.2771C68.8381 86.6822 65.0481 86.9658 61.2479 87.138C58.8499 85.1731 56.2183 84.7679 53.3224 85.9226C53.4138 85.0515 53.7898 84.3223 54.4401 83.745C55.1209 83.4107 55.7915 83.0664 56.4723 82.7321C56.8177 82.4283 57.1226 82.0839 57.3868 81.7193C52.5807 74.2445 51.1378 66.162 53.0684 57.4617C55.5578 48.6095 60.8516 42.0057 68.9702 37.6606C71.9168 36.4756 74.9651 36.1009 78.115 36.5465C85.0955 37.3264 90.0641 40.8916 93.0006 47.232C94.6264 51.0099 95.7746 54.9195 96.4553 58.981C97.8677 67.0533 98.5078 75.1966 98.3859 83.3905C99.9913 85.9935 101.658 88.556 103.365 91.0881C105.722 94.6229 107.785 98.34 109.563 102.229C110.223 103.85 110.803 105.511 111.29 107.192C111.839 109.238 111.575 111.163 110.477 112.965C109.939 113.725 109.38 114.475 108.801 115.194Z" fill="#EF6036"/>
<path fill-rule="evenodd" clip-rule="evenodd" d="M29.851 38.3188C31.3853 39.3013 32.8281 40.4154 34.1694 41.6612C34.0474 42.6943 33.5597 42.9475 32.696 42.4209C31.4056 41.641 30.2066 40.7497 29.0889 39.7368C28.8857 39.4634 28.8857 39.2 29.0889 38.9266C29.3023 38.6531 29.5563 38.4505 29.851 38.3188Z" fill="#FFD400"/>
<path fill-rule="evenodd" clip-rule="evenodd" d="M45.1939 55.6385C43.3649 56.1044 41.6071 56.7527 39.9102 57.5629C39.5953 57.4414 39.2904 57.2895 38.9958 57.1072C37.2786 56.7831 35.7138 56.1044 34.3218 55.0815C32.3404 53.228 31.7206 50.9795 32.442 48.3461C33.7223 44.1225 36.5572 41.6005 40.9263 40.8004C44.4928 40.456 47.0533 41.8943 48.5978 45.105C49.2684 47.2623 49.0347 49.3184 47.8865 51.2833C47.2159 52.3265 46.5047 53.3394 45.7528 54.3218C45.5597 54.7574 45.3666 55.203 45.1939 55.6385Z" fill="#FFD400"/>
<path fill-rule="evenodd" clip-rule="evenodd" d="M25.2786 44.6997C27.138 44.9934 28.967 45.4188 30.7655 45.9658C31.5174 46.3203 31.5784 46.7862 30.9687 47.3837C30.8061 47.5154 30.6131 47.5964 30.4098 47.637C28.6215 47.1508 26.8434 46.6342 25.0754 46.067C25.0246 46.0164 24.9738 45.9658 24.923 45.9151C24.8518 45.5809 24.8518 45.2365 24.923 44.9023C25.0551 44.8415 25.177 44.7706 25.2786 44.6997Z" fill="#FFD400"/>
<path fill-rule="evenodd" clip-rule="evenodd" d="M36.5571 44.8013C36.9229 45.014 37.0956 45.3279 37.0651 45.7635C36.6994 46.8573 36.3437 47.9512 35.9983 49.0552C35.8662 49.8655 35.9678 50.6454 36.3031 51.3847C36.74 51.9925 37.1871 52.6002 37.624 53.2079C37.9187 54.1802 37.5732 54.7879 36.6079 55.031C34.5249 54.3929 33.458 52.9749 33.4072 50.777C33.5495 48.5488 34.3928 46.6446 35.9474 45.0545C36.1608 44.9735 36.364 44.8823 36.5571 44.8013Z" fill="#FEFEFE"/>
<path fill-rule="evenodd" clip-rule="evenodd" d="M71.9171 45.2061C74.0103 45.4694 75.9713 46.1277 77.8105 47.1811C80.1271 48.4066 82.139 50.0069 83.8562 51.9921C86.9146 55.6991 89.2211 59.8518 90.7656 64.4501C91.0704 65.4528 91.3041 66.4656 91.4768 67.4886C91.4565 69.0382 91.1212 70.5271 90.4608 71.9451C88.0933 77.1106 84.2118 80.6049 78.8265 82.428C75.5649 83.2687 72.3845 83.0357 69.2753 81.719C65.8917 80.4125 62.9552 78.4374 60.4862 75.7939C59.7647 74.9431 59.2262 74.0012 58.8604 72.9579C58.2101 65.8984 59.6022 59.2846 63.0264 53.1062C65.1805 49.5511 68.1475 46.9178 71.9171 45.2061Z" fill="#F9D2B9"/>
<path fill-rule="evenodd" clip-rule="evenodd" d="M40.4182 46.8266C41.1193 46.6949 41.5766 46.9684 41.7899 47.6368C42.0338 48.3053 41.9119 48.8928 41.4343 49.4093C41.607 50.3108 41.7899 51.2122 41.9931 52.0934C42.3793 51.1008 42.8365 50.1386 43.3649 49.2068C42.8467 48.3965 43.0194 47.7584 43.8729 47.2824C44.4216 47.1102 44.8484 47.2621 45.143 47.7381C45.519 48.4269 45.4377 49.0447 44.889 49.6119C44.6045 49.7841 44.32 49.7942 44.0253 49.6625C43.5173 50.8779 43.0092 52.0934 42.5012 53.3088C42.4199 53.3898 42.3285 53.4809 42.2472 53.562C42.3894 54.0178 42.5215 54.4735 42.6536 54.9293C42.3691 55.1521 42.0643 55.3547 41.7391 55.537C41.6782 55.5168 41.6274 55.4864 41.5867 55.4357C41.1803 53.4911 40.845 51.5262 40.5706 49.5612C40.2658 49.1865 39.961 48.8219 39.6561 48.4471C39.5037 47.7077 39.7578 47.1709 40.4182 46.8266Z" fill="#EF6036"/>
<path fill-rule="evenodd" clip-rule="evenodd" d="M79.9443 51.6886C81.2449 51.4353 82.2102 51.881 82.8402 53.0053C83.0739 53.38 83.0434 53.7142 82.7386 54.0181C82.383 53.6636 82.0273 53.3091 81.6717 52.9546C80.3406 52.3266 79.2229 52.6001 78.3186 53.7649C78.0341 53.7649 77.902 53.613 77.9122 53.3091C78.0443 52.7926 78.3491 52.4077 78.8266 52.1443C79.2026 51.962 79.5684 51.8101 79.9443 51.6886Z" fill="#3E3E40"/>
<path fill-rule="evenodd" clip-rule="evenodd" d="M67.8527 52.6001C68.9297 52.4886 69.8544 52.7925 70.6469 53.5116C70.7485 53.7344 70.7993 53.9775 70.7993 54.2206C70.21 54.1396 69.6308 53.9876 69.072 53.7648C67.7714 53.5217 66.7147 53.9269 65.9221 54.9802C65.6071 55.041 65.4445 54.9093 65.4141 54.5751C65.6681 54.0079 66.0339 53.5319 66.5318 53.1571C66.9788 52.9647 67.4259 52.7824 67.8527 52.6001Z" fill="#3F3E40"/>
<path fill-rule="evenodd" clip-rule="evenodd" d="M39.0976 53.9165C39.5345 54.2001 39.9206 54.5343 40.2661 54.9293C40.3982 55.9118 39.9816 56.2967 38.996 56.0941C38.62 55.9523 38.3457 55.6991 38.1831 55.3345C38.4879 54.8584 38.7928 54.3824 39.0976 53.9165Z" fill="#FEFEFE"/>
<path fill-rule="evenodd" clip-rule="evenodd" d="M39.9102 57.5631C41.607 56.7528 43.3649 56.1046 45.1938 55.6387C45.5291 55.4867 45.8543 55.5171 46.1591 55.74C46.5046 56.7731 46.911 57.7859 47.3784 58.7785C47.5207 59.3153 47.4089 59.7711 47.0228 60.1458C45.1938 61.0979 43.2633 61.7056 41.2311 61.9689C40.5605 60.9865 40.0321 59.923 39.6562 58.7785C39.5342 58.3126 39.6155 57.9074 39.9102 57.5631Z" fill="#2E3192"/>
<path fill-rule="evenodd" clip-rule="evenodd" d="M80.5537 56.0435C82.1489 56.1853 82.9618 57.0563 82.9923 58.6768C82.9719 59.8923 82.4639 60.8139 81.4681 61.4622C80.32 61.7255 79.5274 61.3001 79.0803 60.1961C78.7044 58.9098 78.8771 57.6944 79.5884 56.5499C79.883 56.3068 80.2082 56.1447 80.5537 56.0435Z" fill="#3E3E40"/>
<path fill-rule="evenodd" clip-rule="evenodd" d="M68.259 57.3605C69.6612 57.2592 70.4944 57.8973 70.7484 59.2849C71.0024 60.8143 70.4842 61.9791 69.1735 62.7792C67.9542 62.921 67.1616 62.3943 66.7857 61.2093C66.4097 59.9432 66.6231 58.819 67.4461 57.8163C67.7103 57.634 67.9846 57.482 68.259 57.3605Z" fill="#3E3E40"/>
<path fill-rule="evenodd" clip-rule="evenodd" d="M74.3558 62.2222C75.4024 62.364 76.2661 62.84 76.9469 63.6401C77.2314 64.0149 77.4752 64.42 77.6581 64.8556C77.8105 65.3417 77.6683 65.7165 77.2517 65.9697C76.8249 65.281 76.3575 64.6023 75.88 63.944C74.8842 63.1033 73.9189 63.1337 72.9841 64.0453C72.4456 64.7948 72.1814 65.6456 72.1713 66.5774C72.0696 66.6888 71.9884 66.8002 71.9172 66.9319C71.8055 66.9825 71.7039 66.9623 71.6124 66.8812C70.8199 64.3289 71.7343 62.7792 74.3558 62.2222Z" fill="#EF6036"/>
<path fill-rule="evenodd" clip-rule="evenodd" d="M51.6967 86.9355C51.3004 88.2218 50.8228 89.4676 50.2741 90.683C49.5934 89.8424 48.7195 89.5183 47.6323 89.7208C46.667 89.8424 45.8745 90.2576 45.2445 90.9869C45.1124 91.2097 45.0108 91.4528 44.9397 91.6959C43.3647 90.4197 41.6272 90.126 39.7068 90.835C38.579 91.2198 37.8779 91.9795 37.6238 93.1139C37.2377 92.8505 36.8211 92.7492 36.3537 92.81C36.2318 92.4859 36.1302 92.1415 36.0489 91.7972C33.905 91.4325 32.5942 90.1766 32.137 88.0496C31.822 86.1658 32.584 85.001 34.4232 84.5553C33.8541 82.6714 34.4638 81.3244 36.2521 80.504C36.8516 80.2913 37.4511 80.3014 38.0303 80.5546C37.9591 79.3696 38.3148 78.3466 39.0972 77.4654C40.0828 76.7564 41.0989 76.7261 42.1454 77.3641C42.562 77.6781 42.9583 78.0326 43.3139 78.4276C43.3343 74.7409 43.7407 71.0947 44.5332 67.4889C44.7771 66.4862 45.2648 65.6253 46.0066 64.9062C47.6933 64.0959 48.689 64.6226 49.004 66.4761C49.0955 67.2661 49.1463 68.0561 49.1564 68.8563C48.9532 72.8874 48.7906 76.9286 48.6484 80.9597C49.695 80.6356 50.7111 80.7167 51.6967 81.2129C52.5705 82.0232 52.855 83.0259 52.5603 84.2008C52.3266 85.1327 52.032 86.0442 51.6967 86.9355Z" fill="#F9D2B9"/>
<path fill-rule="evenodd" clip-rule="evenodd" d="M79.8427 68.5014C80.1882 68.4608 80.4727 68.5621 80.7064 68.8052C81.3973 70.4663 81.6006 72.1881 81.3161 73.9707C80.869 75.9052 79.731 77.2726 77.9122 78.0727C76.6827 78.3867 75.5345 78.2246 74.4575 77.5663C72.2322 76.0268 70.8402 73.9302 70.2915 71.2867C70.3118 71.1955 70.3525 71.1145 70.3931 71.0335C73.543 70.1523 76.6929 69.3015 79.8427 68.5014Z" fill="#EF6036"/>
<path fill-rule="evenodd" clip-rule="evenodd" d="M78.928 69.312C79.0297 69.312 79.1313 69.312 79.2329 69.312C78.9992 70.6793 78.2168 71.6112 76.8959 72.0973C75.0059 72.7455 73.3091 72.4113 71.8154 71.0845C74.2439 70.6793 76.6215 70.0919 78.928 69.312Z" fill="#FEFEFE"/>
<path fill-rule="evenodd" clip-rule="evenodd" d="M38.0813 80.8584C38.2337 80.8584 38.3556 80.9293 38.4369 81.061C38.5182 82.9752 39.0262 84.768 39.961 86.429C40.3776 86.976 40.8958 87.3305 41.536 87.4925C41.1905 86.9658 41.1397 86.4088 41.3835 85.8213C41.7595 85.1123 42.2574 84.4945 42.8569 83.9476C44.4216 82.7423 46.1287 81.7801 47.9881 81.061C48.1304 81.1015 48.2523 81.1926 48.3437 81.3142C47.4598 81.9928 46.5148 82.56 45.4987 83.036C44.0559 83.9172 42.9077 85.082 42.044 86.5303C42.1253 86.7937 42.298 86.9861 42.552 87.0874C44.0051 87.1482 45.4276 86.9456 46.8196 86.4797C48.0491 86.0847 49.2684 85.6593 50.4775 85.2136C50.6198 85.2541 50.7214 85.3352 50.7824 85.4668C50.5588 85.8821 50.2235 86.1454 49.7663 86.2771C47.6731 87.2089 45.4885 87.8369 43.2125 88.1509C42.8874 88.1002 42.5622 88.0293 42.2472 87.9483C41.8916 88.2116 41.4852 88.3129 41.0279 88.2521C40.6926 89.2954 39.9813 89.9031 38.8941 90.0753C38.884 90.3082 38.8027 90.5108 38.6401 90.683C38.2845 91.0375 37.9288 91.392 37.5732 91.7465C37.3192 91.9389 37.0347 92.0604 36.7095 92.101C36.425 92.0908 36.2929 91.9592 36.3031 91.6958C37.0144 91.2805 37.6037 90.7437 38.0813 90.0753C36.4352 88.8801 35.2159 87.3507 34.4233 85.4668C34.4843 85.2339 34.6164 85.1326 34.8298 85.163C35.5614 86.4594 36.4047 87.6748 37.37 88.8092C38 89.3663 38.7112 89.4979 39.5038 89.2143C39.9712 88.951 40.3776 88.6168 40.7231 88.2015C39.7578 87.6141 39.0973 86.7937 38.7417 85.72C38.2133 84.3831 37.9288 83.0056 37.878 81.5674C37.8577 81.2939 37.9288 81.061 38.0813 80.8584Z" fill="#EF6036"/>
<path fill-rule="evenodd" clip-rule="evenodd" d="M61.2481 87.1377C61.6647 87.553 62.0305 87.9885 62.3658 88.4544C62.4471 88.6468 62.5487 88.8089 62.6706 88.9608C62.7519 89.2647 62.8942 89.5381 63.0771 89.7711C63.2091 90.2674 63.3311 90.7738 63.4327 91.2904C63.5648 95.7874 61.4107 98.4208 56.9805 99.1905C56.503 99.1905 56.0356 99.1905 55.558 99.1905C54.5419 99.0893 53.597 98.7854 52.713 98.279C52.1846 98.8563 51.5749 99.3526 50.884 99.7476C53.4953 101.935 55.4767 104.589 56.8281 107.698C57.7121 110.332 58.2202 113.026 58.3522 115.801C58.4234 120.298 58.3218 124.785 58.0474 129.272C57.9357 130.811 57.6511 132.31 57.1837 133.779C58.1084 136.24 59.0533 138.691 60.0288 141.122C57.4784 140.768 55.0804 139.998 52.8146 138.793C49.9797 139.694 47.409 139.198 45.0923 137.324C43.6901 136.068 42.5216 134.63 41.5868 133.019C39.1888 128.411 36.7197 123.853 34.1694 119.346C32.6249 116.733 31.7612 113.907 31.5783 110.889C31.6698 107.891 32.5436 105.156 34.2202 102.685C32.9805 102.654 31.9746 102.168 31.2227 101.216C30.4098 99.6159 30.8671 98.5524 32.5944 98.0258C33.0923 97.9245 33.6003 97.8738 34.1185 97.8738C33.7121 96.2027 34.2506 94.9771 35.7443 94.177C36.1101 94.0656 36.486 94.0149 36.862 94.025C37.5631 94.1871 38.2235 94.4606 38.8434 94.8353C39.0161 94.734 39.1787 94.6327 39.3514 94.5315C40.2049 92.5564 41.6478 91.969 43.6698 92.759C44.2286 92.9818 44.7367 93.2857 45.1939 93.6705C45.3971 93.7414 45.6003 93.7414 45.8036 93.6705C46.8806 92.4146 48.171 91.8778 49.6647 92.05C49.8984 91.6043 50.1016 91.1486 50.2743 90.6827C50.823 89.4672 51.3006 88.2215 51.6969 86.9351C52.2151 86.5604 52.7536 86.216 53.3226 85.9223C56.2185 84.7677 58.8501 85.1728 61.2481 87.1377Z" fill="#2E3192"/>
<path fill-rule="evenodd" clip-rule="evenodd" d="M62.3657 88.4544C62.0304 87.9885 61.6646 87.553 61.248 87.1377C65.0482 86.9655 68.8382 86.6819 72.6282 86.2768C78.0745 85.6691 82.9923 83.7447 87.3615 80.5036C89.5766 78.9337 91.4868 77.0599 93.1024 74.8823C92.7468 75.7534 92.3099 76.6042 91.7815 77.4144C87.9407 82.1748 83.0838 85.426 77.2006 87.1884C72.3234 88.424 67.3751 88.8494 62.3657 88.4544Z" fill="#F9D2B9"/>
<path fill-rule="evenodd" clip-rule="evenodd" d="M50.2744 90.6828C50.1017 91.1487 49.8985 91.6045 49.6648 92.0502C48.1711 91.878 46.8807 92.4148 45.8036 93.6707C45.6004 93.7416 45.3972 93.7416 45.194 93.6707C44.7367 93.2858 44.2287 92.982 43.6698 92.7591C41.6478 91.9691 40.205 92.5566 39.3515 94.5316C39.1787 94.6329 39.0162 94.7342 38.8434 94.8355C38.2236 94.4607 37.5631 94.1873 36.862 94.0252C36.6588 93.6403 36.4861 93.2352 36.354 92.8098C36.8214 92.749 37.238 92.8503 37.6241 93.1136C37.8781 91.9793 38.5792 91.2196 39.7071 90.8347C41.6275 90.1258 43.365 90.4195 44.9399 91.6957C45.0111 91.4526 45.1127 91.2095 45.2448 90.9867C45.8748 90.2574 46.6673 89.8422 47.6326 89.7206C48.7198 89.518 49.5936 89.8422 50.2744 90.6828Z" fill="#EF6036"/>
<path fill-rule="evenodd" clip-rule="evenodd" d="M63.0768 89.7712C62.8939 89.5382 62.7517 89.2647 62.6704 88.9609C66.369 89.9332 70.1285 90.6321 73.949 91.0372C77.9524 91.4322 81.9558 91.3613 85.9388 90.8347C88.5197 90.47 90.9278 89.6294 93.1531 88.3025C93.3156 88.2519 93.4884 88.2316 93.6611 88.2519C93.1022 89.599 92.1166 90.5308 90.7144 91.0372C88.0116 91.9387 85.2377 92.4451 82.3825 92.5565C75.7881 92.7185 69.3563 91.7867 63.0768 89.7712Z" fill="#F9D2B9"/>
<path fill-rule="evenodd" clip-rule="evenodd" d="M108.801 115.194C109.573 118.05 110.305 120.916 110.986 123.803C111.443 125.778 111.778 127.763 112.002 129.779C112.388 132.341 111.422 134.175 109.106 135.299C107.185 136.271 105.184 137.051 103.111 137.628C95.3683 139.857 87.4835 141.194 79.436 141.629C85.5427 136.231 91.6799 130.842 97.8272 125.474C101.536 122.101 105.194 118.678 108.801 115.194Z" fill="#2E3192"/>
<path fill-rule="evenodd" clip-rule="evenodd" d="M55.5581 99.1909C56.0357 99.1909 56.5031 99.1909 56.9806 99.1909C57.1534 100.204 57.3464 101.217 57.5395 102.229C59.5107 110.525 62.1525 118.587 65.465 126.436C66.9688 129.566 68.5234 132.675 70.139 135.755C70.1898 135.987 70.2101 136.22 70.1898 136.464C70.078 136.484 69.9764 136.464 69.8849 136.413C69.6208 136.139 69.3667 135.846 69.1229 135.552C67.4971 133.182 66.0746 130.69 64.8553 128.057C62.2744 122.041 60.1407 115.862 58.454 109.522C57.509 106.169 56.8485 102.756 56.4726 99.2922C56.1474 99.3226 55.8426 99.2922 55.5581 99.1909Z" fill="#F9D2B9"/>
<path opacity="0.996" fill-rule="evenodd" clip-rule="evenodd" d="M52.1849 88.6572C52.4288 88.6572 52.632 88.7484 52.8047 88.9206C53.1705 89.4067 53.5363 89.8929 53.9021 90.3791C54.2578 89.903 54.6134 89.4371 54.969 88.9611C55.1316 88.7686 55.345 88.6674 55.599 88.6572C56.1782 88.6674 56.7573 88.6674 57.3365 88.6572C57.4991 88.6572 57.6413 88.6876 57.7836 88.7585C57.6515 88.7585 57.5092 88.7686 57.3771 88.799C57.2552 88.8294 57.1434 88.8902 57.052 88.9712C56.9707 89.0421 56.8996 89.113 56.8285 89.194C56.7065 89.3257 56.5947 89.4675 56.483 89.6093C56.2594 89.9233 56.0257 90.2373 55.792 90.5512C55.4262 91.0273 55.0706 91.4932 54.7048 91.9692C54.7048 92.425 54.7048 92.8909 54.6947 93.3467C54.6439 93.6708 54.4711 93.8936 54.1663 94.0152C54.1155 94.0354 54.0749 94.0455 54.0241 94.0557C53.7192 94.0658 53.4042 94.0658 53.0994 94.0658C53.0994 93.3669 53.0994 92.6681 53.0994 91.9692C52.5812 91.2805 52.063 90.6019 51.5448 89.9132C51.3924 89.6701 51.3619 89.4169 51.4635 89.1434C51.6159 88.8395 51.8496 88.6775 52.1849 88.6572Z" fill="#FEFFFE"/>
<path opacity="0.997" fill-rule="evenodd" clip-rule="evenodd" d="M61.035 88.6572C61.3093 88.6572 61.5837 88.6572 61.8478 88.6572C61.8478 90.2373 61.8478 91.8072 61.8478 93.3872C61.797 93.6911 61.6345 93.9038 61.35 94.0253C61.0045 94.1367 60.6997 94.0658 60.4456 93.8025C60.3339 93.6708 60.2729 93.5189 60.2627 93.3568C60.2627 92.6377 60.2627 91.9085 60.2526 91.1893C59.8969 91.6046 59.5515 92.0097 59.1958 92.425C58.8402 92.0199 58.4947 91.6046 58.1391 91.1995C58.1391 91.9591 58.1391 92.7187 58.129 93.4784C58.1086 93.8126 57.9257 94.005 57.6006 94.0658C57.5599 94.0759 57.5091 94.0759 57.4685 94.0861C57.1535 94.0861 56.8487 94.0861 56.5337 94.0861C56.5337 92.6478 56.5337 91.2096 56.5337 89.7714C56.6963 89.5587 56.869 89.346 57.0621 89.1535C57.1433 89.0826 57.2348 89.0117 57.3364 88.9712C57.4279 88.9408 57.5193 88.9206 57.6107 88.9206C57.7428 88.9206 57.8749 88.9206 57.9969 88.9307C58.3931 89.3966 58.7894 89.8726 59.1857 90.3385C59.582 89.8625 59.9782 89.3865 60.3745 88.9206C60.5676 88.7383 60.7809 88.6572 61.035 88.6572Z" fill="#FEFFFE"/>
<path opacity="0.955" fill-rule="evenodd" clip-rule="evenodd" d="M54.1862 94.481C54.2675 94.481 54.3183 94.5316 54.3284 94.6126C54.3183 94.6937 54.2776 94.7342 54.1963 94.7443C54.0947 94.724 54.0541 94.6633 54.0744 94.562C54.0947 94.5113 54.1354 94.4911 54.1862 94.481Z" fill="#FEFFFE"/>
<path opacity="0.957" fill-rule="evenodd" clip-rule="evenodd" d="M60.6591 94.481C60.7607 94.4911 60.8013 94.5417 60.7911 94.643C60.7607 94.724 60.6997 94.7544 60.6184 94.7342C60.5575 94.6937 60.527 94.643 60.5473 94.5721C60.5574 94.5215 60.5981 94.4911 60.6591 94.481Z" fill="#FEFFFE"/>
<path opacity="0.959" fill-rule="evenodd" clip-rule="evenodd" d="M61.7157 94.481C61.8173 94.4911 61.858 94.5519 61.8478 94.6531C61.8173 94.724 61.7563 94.7544 61.675 94.724C61.6141 94.6937 61.5836 94.643 61.6039 94.5721C61.6141 94.5215 61.6547 94.4911 61.7157 94.481Z" fill="#FEFFFE"/>
<path opacity="0.972" fill-rule="evenodd" clip-rule="evenodd" d="M51.4023 94.5418C51.4836 94.5316 51.5548 94.5316 51.636 94.5418C51.7173 94.7342 51.8088 94.9267 51.8901 95.1191C51.9815 94.9267 52.0628 94.7342 52.1543 94.5418C52.2254 94.5316 52.3067 94.5316 52.3778 94.5418C52.2559 94.8051 52.1238 95.0685 51.9917 95.3217C51.9917 95.4938 51.9917 95.6559 51.9917 95.8281C51.9206 95.8281 51.8596 95.8281 51.7885 95.8281C51.7885 95.6559 51.7885 95.4938 51.7885 95.3217C51.6665 95.0583 51.5344 94.795 51.4023 94.5418Z" fill="#FEFFFE"/>
<path opacity="0.968" fill-rule="evenodd" clip-rule="evenodd" d="M56.4321 94.5317C56.5033 94.5317 56.5744 94.5317 56.6455 94.5419C56.7471 94.8052 56.8589 95.0584 56.9605 95.3218C57.0723 95.0584 57.1739 94.8052 57.2755 94.5419C57.3466 94.5419 57.4076 94.5419 57.4787 94.5419C57.4787 94.9774 57.4787 95.4028 57.4787 95.8383C57.4177 95.8383 57.3466 95.8383 57.2856 95.8383C57.2856 95.5446 57.2856 95.2509 57.2856 94.9571C57.1942 95.18 57.1027 95.4129 57.0113 95.6357C56.9808 95.6357 56.9402 95.6357 56.9097 95.6357C56.8182 95.4129 56.7268 95.1901 56.6353 94.9673C56.6353 95.261 56.6353 95.5446 56.6353 95.8383C56.5744 95.8383 56.5033 95.8383 56.4423 95.8383C56.4321 95.3927 56.4321 94.9673 56.4321 94.5317Z" fill="#FEFFFE"/>
<path opacity="0.968" fill-rule="evenodd" clip-rule="evenodd" d="M60.1408 94.5317C60.2017 94.5317 60.2729 94.5317 60.3338 94.5317C60.3338 94.9673 60.3338 95.3927 60.3338 95.8282C60.2729 95.8282 60.2221 95.8282 60.1611 95.8282C60.1611 95.7978 60.1509 95.7674 60.1509 95.737C60.0697 95.8383 59.9579 95.8687 59.836 95.8484C59.6734 95.818 59.5819 95.7168 59.5718 95.5547C59.5718 95.4332 59.5718 95.3015 59.5718 95.18C59.6023 94.9571 59.7242 94.8559 59.9579 94.8761C60.029 94.8862 60.09 94.9166 60.1408 94.9673C60.1408 94.8153 60.1408 94.6735 60.1408 94.5317ZM59.9172 95.028C60.0392 95.028 60.1103 95.0787 60.1306 95.2002C60.1408 95.3116 60.1306 95.423 60.1205 95.5243C60.0798 95.6357 60.0087 95.6762 59.8969 95.656C59.8258 95.6357 59.775 95.5851 59.7648 95.5142C59.7547 95.3927 59.7648 95.2711 59.775 95.1597C59.7953 95.0888 59.8461 95.0382 59.9172 95.028Z" fill="#FEFFFE"/>
<path opacity="0.973" fill-rule="evenodd" clip-rule="evenodd" d="M53.4751 94.6431C53.536 94.6431 53.6072 94.6431 53.6681 94.6431C53.6681 94.7241 53.6681 94.795 53.6681 94.876C53.7596 94.876 53.8409 94.876 53.9323 94.876C53.9323 94.9267 53.9323 94.9773 53.9323 95.028C53.8409 95.028 53.7596 95.028 53.6681 95.028C53.6681 95.2204 53.6681 95.4128 53.6783 95.6053C53.6885 95.6357 53.7189 95.6559 53.7494 95.666C53.8002 95.666 53.851 95.666 53.9018 95.6559C53.912 95.7066 53.912 95.7572 53.9222 95.7977C53.9222 95.7977 53.9221 95.8078 53.912 95.8078C53.8205 95.8281 53.7189 95.8382 53.6275 95.818C53.536 95.7876 53.4852 95.7268 53.4649 95.6357C53.4649 95.4331 53.4649 95.2204 53.4649 95.0178C53.4141 95.0178 53.3633 95.0178 53.3125 95.0178C53.3125 94.9672 53.3125 94.9165 53.3125 94.8659C53.3633 94.8659 53.4141 94.8659 53.4649 94.8659C53.4751 94.795 53.4751 94.714 53.4751 94.6431Z" fill="#FEFFFE"/>
<path opacity="0.973" fill-rule="evenodd" clip-rule="evenodd" d="M52.7538 94.8556C52.8555 94.8455 52.9469 94.8657 53.0383 94.9063C53.1298 94.967 53.1908 95.0582 53.2009 95.1696C53.2009 95.3924 53.2009 95.6051 53.2009 95.8279C53.1501 95.8279 53.0993 95.8279 53.0485 95.8279C53.0383 95.8077 53.0383 95.7773 53.0383 95.757C52.9672 95.8279 52.8859 95.8583 52.7843 95.8482C52.6421 95.8583 52.5405 95.7976 52.4795 95.6659C52.4287 95.4532 52.51 95.3114 52.7234 95.2607C52.7945 95.2506 52.8656 95.2607 52.9367 95.281C52.9672 95.2911 52.9875 95.3114 53.018 95.3316C53.0282 95.0886 52.9266 94.9974 52.6827 95.048C52.6421 95.0582 52.6014 95.0683 52.5709 95.0886C52.5506 95.0379 52.5303 94.9873 52.5201 94.9366C52.5405 94.9164 52.5709 94.9062 52.5913 94.8961C52.6421 94.8759 52.703 94.8657 52.7538 94.8556ZM52.7742 95.3924C52.8656 95.3722 52.9469 95.4025 52.9977 95.4734C53.0282 95.595 52.9875 95.6659 52.8656 95.6963C52.7843 95.7064 52.7132 95.6861 52.6624 95.6254C52.6218 95.5038 52.6624 95.4329 52.7742 95.3924Z" fill="#FEFFFE"/>
<path opacity="0.978" fill-rule="evenodd" clip-rule="evenodd" d="M54.9076 94.8556C55.0092 94.8455 55.1007 94.8759 55.1718 94.9468C55.1819 94.967 55.2023 94.9873 55.2124 95.0076C55.2835 94.886 55.3852 94.8354 55.5274 94.8455C55.6392 94.8556 55.7103 94.9164 55.751 95.0177C55.7611 95.0481 55.7713 95.0886 55.7713 95.119C55.7713 95.3519 55.7713 95.5849 55.7713 95.8178C55.7103 95.8178 55.6392 95.8178 55.5782 95.8178C55.5782 95.595 55.5782 95.3823 55.5681 95.1595C55.5376 95.0379 55.4563 94.9974 55.3445 95.0379C55.2937 95.0582 55.2632 95.0987 55.2531 95.1595C55.2429 95.3823 55.2429 95.6051 55.2429 95.828C55.1819 95.828 55.1108 95.828 55.0499 95.828C55.0499 95.6051 55.0499 95.3823 55.0397 95.1595C55.0092 95.0481 54.9482 95.0076 54.8365 95.0379C54.7755 95.0582 54.745 95.0987 54.7247 95.1595C54.7145 95.3823 54.7145 95.6051 54.7145 95.828C54.6536 95.828 54.5824 95.828 54.5215 95.828C54.5215 95.514 54.5215 95.1899 54.5215 94.8759C54.5824 94.8759 54.6333 94.8759 54.6942 94.8759C54.6942 94.9164 54.7044 94.9468 54.7044 94.9873C54.745 94.9063 54.8161 94.8658 54.9076 94.8556Z" fill="#FEFFFE"/>
<path opacity="0.97" fill-rule="evenodd" clip-rule="evenodd" d="M57.9865 94.856C58.0982 94.8459 58.21 94.8661 58.3015 94.9269C58.3726 94.9877 58.4132 95.0687 58.4234 95.1599C58.4234 95.3827 58.4234 95.5954 58.4234 95.8182C58.3726 95.8182 58.3218 95.8182 58.271 95.8182C58.2608 95.7979 58.2608 95.7676 58.2608 95.7473C58.1897 95.8182 58.1084 95.8486 58.0068 95.8385C57.8137 95.8385 57.702 95.7473 57.6816 95.5447C57.6918 95.3827 57.7832 95.2814 57.9458 95.251C58.0474 95.2308 58.149 95.251 58.2405 95.3118C58.2506 95.251 58.2405 95.1902 58.2303 95.1396C58.1897 95.0586 58.1186 95.0181 58.0271 95.0181C57.9458 95.0181 57.8747 95.0383 57.8036 95.0788C57.7832 95.0383 57.7629 94.9877 57.7528 94.937C57.7528 94.9269 57.7528 94.9168 57.7528 94.9168C57.7832 94.8965 57.8137 94.8864 57.8442 94.8763C57.8747 94.8763 57.9357 94.8661 57.9865 94.856ZM57.9966 95.3928C58.0779 95.3827 58.149 95.4029 58.21 95.4536C58.2608 95.565 58.2303 95.6359 58.1186 95.6865C58.0576 95.7068 57.9865 95.6967 57.9357 95.6663C57.8747 95.6156 57.8544 95.5549 57.8849 95.4738C57.9153 95.4333 57.956 95.4029 57.9966 95.3928Z" fill="#FEFFFE"/>
<path opacity="0.976" fill-rule="evenodd" clip-rule="evenodd" d="M59.0232 94.8559C59.1655 94.8356 59.2773 94.8964 59.3484 95.0281C59.3687 95.0686 59.3789 95.1192 59.3789 95.1597C59.3789 95.3825 59.3789 95.6054 59.3789 95.8282C59.3179 95.8282 59.2468 95.8282 59.1858 95.8282C59.1858 95.6054 59.1858 95.3825 59.1756 95.1597C59.1452 95.0483 59.074 95.0078 58.9521 95.0382C58.8911 95.0584 58.8505 95.1091 58.8302 95.1698C58.82 95.3825 58.82 95.6054 58.82 95.8181C58.759 95.8181 58.6879 95.8181 58.627 95.8181C58.627 95.5041 58.627 95.18 58.627 94.866C58.6879 94.866 58.7387 94.866 58.7997 94.8761C58.7997 94.9166 58.8099 94.947 58.8099 94.9875C58.8708 94.9166 58.9419 94.866 59.0232 94.8559Z" fill="#FEFFFE"/>
<path opacity="0.978" fill-rule="evenodd" clip-rule="evenodd" d="M61.431 94.856C61.4513 94.856 61.4716 94.856 61.4818 94.856C61.4818 94.9167 61.4818 94.9876 61.4818 95.0484C61.4208 95.0484 61.3598 95.0484 61.2989 95.0687C61.2176 95.1193 61.1769 95.1902 61.1769 95.2915C61.1769 95.4738 61.1769 95.646 61.1769 95.8283C61.116 95.8283 61.0449 95.8283 60.9839 95.8283C60.9839 95.5143 60.9839 95.1902 60.9839 94.8762C61.0449 94.8762 61.0957 94.8762 61.1566 94.8762C61.1566 94.9269 61.1566 94.9775 61.1668 95.0281C61.2277 94.9167 61.309 94.8661 61.431 94.856Z" fill="#FEFFFE"/>
<path opacity="0.988" fill-rule="evenodd" clip-rule="evenodd" d="M54.0947 94.876C54.1557 94.876 54.2268 94.876 54.2878 94.876C54.2878 95.19 54.2878 95.5141 54.2878 95.828C54.2268 95.828 54.1557 95.828 54.0947 95.828C54.0947 95.5039 54.0947 95.19 54.0947 94.876Z" fill="#FEFFFE"/>
<path opacity="0.98" fill-rule="evenodd" clip-rule="evenodd" d="M60.5571 94.876C60.6181 94.876 60.6892 94.876 60.7502 94.876C60.7502 95.19 60.7502 95.5141 60.7502 95.828C60.6892 95.828 60.6181 95.828 60.5571 95.828C60.5571 95.5039 60.5571 95.19 60.5571 94.876Z" fill="#FEFFFE"/>
<path opacity="0.98" fill-rule="evenodd" clip-rule="evenodd" d="M61.624 94.876C61.685 94.876 61.7561 94.876 61.8171 94.876C61.8171 95.19 61.8171 95.5141 61.8171 95.828C61.7561 95.828 61.685 95.828 61.624 95.828C61.624 95.5039 61.624 95.19 61.624 94.876Z" fill="#FEFFFE"/>
</g>
<defs>
<clipPath id="clip0_1320_3363">
<rect width="140" height="140" rx="70" fill="white"/>
</clipPath>
</defs>
</svg>
