<svg width="180" height="180" viewBox="0 0 180 180" fill="none" xmlns="http://www.w3.org/2000/svg">
<path fill-rule="evenodd" clip-rule="evenodd" d="M116.423 129.375C116.423 128.579 115.749 127.934 114.917 127.934H111.886C111.054 127.934 110.379 128.579 110.379 129.375V138.162C110.379 138.958 111.054 139.604 111.886 139.604H114.917C115.749 139.604 116.423 138.958 116.423 138.162V129.375Z" fill="#EEEEEE"/>
<path fill-rule="evenodd" clip-rule="evenodd" d="M124.402 125.32C124.402 124.938 124.242 124.571 123.96 124.301C123.679 124.03 123.297 123.878 122.896 123.878H119.864C119.466 123.878 119.081 124.03 118.8 124.301C118.518 124.571 118.358 124.938 118.358 125.32V138.162C118.358 138.545 118.518 138.911 118.8 139.182C119.081 139.452 119.466 139.604 119.864 139.604H122.896C123.297 139.604 123.679 139.452 123.96 139.182C124.242 138.911 124.402 138.545 124.402 138.162V125.32Z" fill="#EEEEEE"/>
<path fill-rule="evenodd" clip-rule="evenodd" d="M132.381 112.693C132.381 112.311 132.221 111.944 131.939 111.674C131.657 111.404 131.275 111.251 130.874 111.251H127.843C127.444 111.251 127.06 111.404 126.778 111.674C126.496 111.944 126.336 112.311 126.336 112.693V138.161C126.336 138.544 126.496 138.91 126.778 139.181C127.06 139.451 127.444 139.603 127.843 139.603H130.874C131.275 139.603 131.657 139.451 131.939 139.181C132.221 138.91 132.381 138.544 132.381 138.161V112.693Z" fill="#EEEEEE"/>
<path fill-rule="evenodd" clip-rule="evenodd" d="M140.359 123.083C140.359 122.701 140.199 122.335 139.917 122.064C139.63 121.792 139.249 121.64 138.853 121.642H135.821C135.423 121.642 135.038 121.794 134.757 122.064C134.475 122.335 134.315 122.701 134.315 123.083V138.162C134.315 138.544 134.475 138.911 134.757 139.181C135.044 139.453 135.425 139.604 135.821 139.603H138.853C139.254 139.603 139.636 139.451 139.917 139.181C140.199 138.911 140.359 138.544 140.359 138.162V123.083Z" fill="#EEEEEE"/>
<path fill-rule="evenodd" clip-rule="evenodd" d="M148.338 120.02C148.338 119.638 148.178 119.271 147.896 119.001C147.614 118.73 147.232 118.579 146.831 118.579H143.8C143.402 118.579 143.017 118.73 142.735 119.001C142.453 119.271 142.293 119.638 142.293 120.02V138.162C142.293 138.544 142.453 138.911 142.735 139.181C143.017 139.452 143.402 139.603 143.8 139.603H146.831C147.232 139.603 147.614 139.452 147.896 139.181C148.178 138.911 148.338 138.544 148.338 138.162V120.02Z" fill="#EEEEEE"/>
<path fill-rule="evenodd" clip-rule="evenodd" d="M47.6147 139.605C46.8319 137.319 39.3677 134.155 37.4594 133.041C28.7561 127.953 19.5944 120.037 21.2364 108.82C23.6982 92.0124 45.3752 90.4476 55.8709 80.8555C61.4268 75.7785 61.267 69.1687 62.6103 62.3203C64.0045 55.2166 67.1634 48.7212 73.8054 45.2251C76.7258 43.6875 80.0514 42.7924 83.3516 42.6871C95.4847 42.2996 104.572 51.9422 108.32 62.6179C110.466 68.7326 111.696 76.8043 116.893 81.2719C122.801 86.3512 134.596 80.2112 137.977 88.6631C139.413 92.2556 137.716 96.6144 135.344 99.3933C130.527 105.036 123.28 107.199 117.398 111.417C108.811 117.577 106.293 129.792 108.192 139.605H47.6147Z" fill="#EEEEEE"/>
<path d="M142.321 79.0093C152.713 79.0093 161.138 70.5847 161.138 60.1924C161.138 49.8001 152.713 41.3755 142.321 41.3755C131.929 41.3755 123.504 49.8001 123.504 60.1924C123.504 70.5847 131.929 79.0093 142.321 79.0093Z" fill="#EEEEEE"/>
<path fill-rule="evenodd" clip-rule="evenodd" d="M40.3248 76.4848L42.8653 70.0453C42.8653 70.0453 77.8635 80.3444 87.3565 95.3049C97.5631 111.39 93.062 129.076 77.3115 134.774C61.5521 140.475 40.4934 132.05 30.28 115.954L32.8337 109.51L41.8149 111.781C47.9004 121.372 60.4473 126.392 69.837 122.994C79.2223 119.599 81.9029 109.062 75.8217 99.478C73.9669 96.5551 71.5113 94.0565 68.7295 92.0916C62.3825 87.6089 54.3272 85.9025 47.7993 88.2642L40.3248 76.4848Z" fill="#4B7686"/>
<path fill-rule="evenodd" clip-rule="evenodd" d="M83.714 76.3039L81.774 103.583L77.4432 110.552L43.8559 88.9831L38.0445 70.5269L52.1727 59.7887L83.714 76.3039Z" fill="#85B1C2"/>
<path fill-rule="evenodd" clip-rule="evenodd" d="M42.8802 70.04C58.6396 64.3385 79.6982 72.7638 89.9119 88.8601C100.119 104.945 95.6174 122.631 79.8669 128.329C64.1075 134.031 43.0488 125.605 32.8354 109.509L44.3703 105.336C50.4558 114.927 63.0028 119.947 72.3924 116.55C81.7777 113.154 84.4583 102.617 78.3771 93.0332C72.2916 83.4428 59.7444 78.4224 50.3547 81.8194L42.8802 70.04Z" fill="#6993A4"/>
<path fill-rule="evenodd" clip-rule="evenodd" d="M103.639 105.737L80.0417 103.642L46.2879 85.9613L38.0446 70.5262L64.9081 46.0056L103.639 105.737Z" fill="#A6D2E4"/>
<path fill-rule="evenodd" clip-rule="evenodd" d="M20.4717 106.091C16.4951 94.2362 20.0136 82.9238 29.5194 76.9925L51.6437 93.0173L50.0444 97.7628C48.5037 98.7248 46.9669 102.24 47.6138 104.163L20.4717 106.091Z" fill="#001320"/>
<path fill-rule="evenodd" clip-rule="evenodd" d="M23.0267 99.6467C19.0501 87.7919 22.5685 76.4794 32.0743 70.5482L51.633 92.9984C50.0922 93.9604 49.5218 95.7957 50.1688 97.7183L23.0267 99.6467Z" fill="#023341"/>
<path fill-rule="evenodd" clip-rule="evenodd" d="M64.4145 78.2965C65.7217 83.3059 76.0735 107.926 83.2641 108.272C88.5661 108.526 96.4372 93.8759 96.4372 93.8759C96.3889 93.1737 99.8086 88.8933 100.026 87.7353C100.407 85.7038 98.5775 83.7938 97.1367 83.5973C96.1188 83.4608 95.0451 86.2908 94.9534 85.8116C94.4684 83.2753 94.2428 82.9505 93.5506 82.7239C92.7818 82.4707 92.3289 89.6375 91.6407 90.0269L84.022 91.5489C84.022 91.5489 81.9497 81.6144 75.422 78.2154C71.9741 76.4194 63.4883 74.7463 64.4145 78.2965Z" fill="#FAD8BA"/>
<path fill-rule="evenodd" clip-rule="evenodd" d="M67.4263 92.7671C70.4476 92.754 73.277 92.3673 76.2228 91.6389C79.1341 90.9181 82.8655 89.854 84.4791 87.0495C85.7034 84.9211 84.8025 82.4294 83.6906 80.4533C81.1835 75.9964 76.535 72.5211 71.4301 71.7689C70.1779 71.5835 68.8842 71.5861 67.6408 71.841C66.6026 72.0555 65.6089 72.4462 64.7026 72.9961C63.987 73.4292 63.3364 73.9612 62.7698 74.5764C59.1822 78.4918 64.4355 89.0494 67.4263 92.7671Z" fill="#F25C05"/>
<path fill-rule="evenodd" clip-rule="evenodd" d="M70.3713 77.1434C68.6181 75.5447 52.0519 73.0807 49.0532 78.4421C46.0523 83.8032 52.3703 109.311 52.3703 109.311L77.0679 97.3808C77.0679 97.3808 73.8003 80.2708 70.3713 77.1434Z" fill="#F25C05"/>
<path fill-rule="evenodd" clip-rule="evenodd" d="M49.0426 97.0095C50.3304 97.2305 58.5436 88.1318 58.5436 88.1318C58.5436 88.1318 60.076 91.0851 59.633 95.2768C59.5351 96.2032 59.9137 97.3369 60.9413 97.6094C62.3476 97.9833 65.3377 95.0334 67.2925 94.442C70.4475 93.4886 73.0101 93.4909 72.9173 95.5472C72.8092 97.8888 68.6652 100.472 66.9731 101.794C63.5065 104.5 59.2827 106.528 55.35 108.467C54.0184 109.124 52.0765 110.262 50.5312 109.705C48.1824 108.859 48.0665 104.83 48.1257 102.845C48.1824 100.872 48.5558 98.9172 49.0426 97.0095Z" fill="#D23F00"/>
<path fill-rule="evenodd" clip-rule="evenodd" d="M99.9959 117.24C104.774 119.233 107.792 129.962 109.401 132.825C110.594 134.954 107.353 135.885 107.353 135.885C101.975 133.245 95.3229 126.916 94.0966 123.808C93.3366 121.882 97.8548 116.346 99.9959 117.24Z" fill="#F29F05"/>
<path fill-rule="evenodd" clip-rule="evenodd" d="M108.798 130.235C106.8 131.801 100.826 132.028 97.5723 121.893C97.056 120.282 97.473 118.505 97.96 116.496C98.2941 115.127 95.0444 118.848 94.5499 119.785C93.2192 122.315 93.4654 124.772 94.0354 126.775C95.2542 131.066 98.5255 134.539 102.353 136.268C104.041 137.029 106.159 137.669 108.458 136.973C111.692 135.991 113.34 132.525 113.48 129.719C113.718 124.93 111.664 132.788 108.798 130.235Z" fill="#B16800"/>
<path fill-rule="evenodd" clip-rule="evenodd" d="M87.6007 118.8C92.9856 119.821 98.8907 129.898 101.283 132.424C103.059 134.304 100.009 135.886 100.009 135.886C93.7725 133.884 85.4074 129.38 83.3391 126.532C82.0571 124.767 85.1874 118.341 87.6007 118.8Z" fill="#F29F05"/>
<path fill-rule="evenodd" clip-rule="evenodd" d="M99.9855 129.967C98.3678 131.93 92.3544 133.361 86.3666 123.923C85.4158 122.423 85.3701 120.569 85.334 118.47C85.3118 117.039 82.9914 121.4 82.7364 122.434C82.0523 125.222 82.952 127.619 84.0611 129.499C86.4347 133.527 90.6786 136.325 95.0273 137.276C96.9448 137.693 99.2676 137.904 101.421 136.746C104.45 135.116 105.209 131.331 104.609 128.508C103.585 123.691 103.574 131.931 99.9855 129.967Z" fill="#B16800"/>
<path fill-rule="evenodd" clip-rule="evenodd" d="M74.9107 117.186C58.0563 117.715 61.0679 106.188 64.7701 102.201C68.4722 98.2141 89.7215 90.2219 97.1236 93.2643C104.526 96.3067 109.183 120.456 109.183 120.456C105.137 123.016 101.544 126.113 92.4405 120.456L86.996 113.739C86.996 113.739 79.9466 117.028 74.9107 117.186Z" fill="#03222F"/>
<path fill-rule="evenodd" clip-rule="evenodd" d="M66.5738 117.553C49.7194 118.082 51.7479 106.249 55.2543 102.201C58.7607 98.1532 79.8443 89.9869 87.6079 93.2644C95.3715 96.5417 101.838 121.866 101.838 121.866C97.7937 124.426 91.437 128.833 82.3311 123.175L79.2205 116.165C79.2205 116.165 71.6075 117.395 66.5738 117.553Z" fill="#023341"/>
<path fill-rule="evenodd" clip-rule="evenodd" d="M69.2858 93.1938C65.6595 95.5641 62.3989 99.1252 60.609 103.082C59.5813 105.352 59.3032 107.913 62.1646 108.84C62.7827 109.039 63.4446 109.139 64.0884 109.173C65.8063 109.264 67.5628 108.852 69.2368 108.518C71.1118 108.144 73.0872 107.836 74.9184 107.269C75.843 106.982 76.5487 106.408 77.2749 105.791C77.4217 105.666 77.875 105.137 78.1068 105.242C78.4519 105.399 78.4803 106.615 78.5884 106.933C78.9464 108.013 79.7165 108.961 80.587 109.673C83.1316 111.749 86.5441 112.176 89.1325 114.112C92.2488 116.443 94.1547 119.495 97.6264 121.636C105.337 126.393 109.031 124.187 110.136 124.193C112.706 124.211 113.576 122.683 112.564 124.366C111.55 126.05 109.458 127.026 107.65 127.567C103.313 128.857 98.3527 128.154 94.1547 126.707C91.1671 125.677 88.2105 124.585 85.1276 123.852C81.0017 122.871 76.7702 122.381 72.5489 122.038C65.8527 121.494 58.3065 121.827 52.0635 118.993C50.7243 118.385 49.4648 117.574 48.3831 116.576C47.6723 115.921 47.0336 115.173 46.5365 114.344C43.0648 108.564 61.4949 94.5905 69.2858 93.1938Z" fill="#03222F"/>
<path fill-rule="evenodd" clip-rule="evenodd" d="M99.3589 83.3815C99.7158 82.0115 98.8425 81.0966 97.4109 81.3378L77.8853 84.6278C76.4537 84.869 75.0016 86.1757 74.6447 87.5458L71.7079 98.8196C71.351 100.19 72.2244 101.104 73.6559 100.863L93.1816 97.5729C94.6131 97.3317 96.0651 96.0253 96.422 94.6553L99.3589 83.3815Z" fill="#6993A4"/>
<path fill-rule="evenodd" clip-rule="evenodd" d="M99.9536 83.9967C100.311 82.6267 99.4372 81.7118 98.0057 81.953L78.48 85.2431C77.0484 85.4843 75.5964 86.791 75.2395 88.161L72.3026 99.4348C71.9457 100.805 72.8191 101.719 74.2506 101.478L93.7763 98.1882C95.2079 97.947 96.6598 96.6405 97.0167 95.2705L99.9536 83.9967Z" fill="#A6D2E4"/>
<path fill-rule="evenodd" clip-rule="evenodd" d="M48.8871 78.6898C47.0207 83.5188 41.0347 109.548 46.6681 114.03C50.8222 117.334 69.0407 103.35 69.0407 103.35C69.4116 102.752 74.688 101.276 75.5408 100.464C77.0373 99.0378 76.6687 96.4188 75.6144 95.4175C74.8681 94.7119 72.343 96.381 72.5486 95.9385C73.637 93.5969 73.6438 93.2015 73.2157 92.6114C72.7385 91.9585 68.1832 97.5097 67.3974 97.4237L57.055 100.902C57.055 100.902 61.1784 91.6288 57.8672 85.0561C56.1187 81.5838 50.21 75.2676 48.8871 78.6898Z" fill="#FAD8BA"/>
<path fill-rule="evenodd" clip-rule="evenodd" d="M53.9167 96.6052C53.8376 97.4484 48.897 96.0355 46.9843 103.03C46.1993 105.903 46.7853 109.227 48.1903 110.453C50.086 112.11 53.2371 110.784 55.2257 110.028C59.0266 108.585 62.9444 106.702 66.1306 104.145C66.9483 103.488 67.6647 102.724 68.3047 101.896C68.5982 101.515 68.9 100.794 69.3176 100.543C69.7084 100.309 70.14 100.881 70.4624 101.045C71.0452 101.339 71.5086 101.341 72.1414 101.19C73.6879 100.824 75.1419 100.152 76.1142 98.8564C76.5224 98.3141 76.7689 97.6798 77.1607 97.1301C77.3102 96.9186 77.6301 96.6848 77.7458 97.0579C77.9779 97.8116 77.5983 98.8588 77.3582 99.5603C76.4863 102.105 74.469 104.222 72.5039 105.976C67.5642 110.381 61.2419 113.652 54.9476 115.61C51.8262 116.582 48.2077 117.256 44.9948 116.301C38.9589 114.51 38.584 106.677 39.2798 101.518C39.4415 100.317 39.6877 99.13 40.0193 97.9658C40.381 96.6947 40.8499 95.4534 41.4523 94.2768C42.86 91.5281 45.4488 88.7695 48.8213 89.1377C49.6216 89.2272 53.1949 96.2594 53.9167 96.6052Z" fill="#D7B699"/>
<path fill-rule="evenodd" clip-rule="evenodd" d="M42.8752 92.1931C45.3348 93.9478 47.8568 95.2874 50.673 96.4176C53.4567 97.5339 57.1066 98.8507 60.0548 97.5177C62.292 96.5059 63.0169 93.9574 63.2693 91.704C63.8391 86.6222 62.0975 81.0857 58.3944 77.4923C57.4865 76.6102 56.4351 75.8563 55.2771 75.3366C54.3093 74.9041 53.2746 74.6404 52.2178 74.5571C51.3841 74.4904 50.5451 74.542 49.7259 74.7101C44.5266 75.7912 42.6205 87.4285 42.8752 92.1931Z" fill="#F25C05"/>
<path fill-rule="evenodd" clip-rule="evenodd" d="M62.1417 70.3921L57.9352 70.6544C58.2438 72.3003 58.0668 73.82 57.4521 75.2253C60.9933 81.0445 63.2521 81.2663 63.4089 75.2142C61.57 74.0838 61.78 71.8865 62.1417 70.3921Z" fill="#FAD8BA"/>
<path fill-rule="evenodd" clip-rule="evenodd" d="M62.639 72.5526C62.2349 73.2622 61.6926 73.92 61.0596 74.4381C60.5847 74.8263 60.0581 75.1945 59.5058 75.4583C58.9945 75.7025 58.406 75.8911 57.8349 75.8013C56.6647 75.6183 56.0921 74.3132 56.1527 73.2404C56.2811 70.9826 58.5384 69.1134 60.7707 69.7469C61.4608 69.9427 62.1512 72.0326 62.639 72.5526Z" fill="#D7B699"/>
<path fill-rule="evenodd" clip-rule="evenodd" d="M59.6695 63.7476C61.7349 63.7476 63.4103 65.694 63.4103 68.0913C63.4103 70.489 63.1402 73.2579 61.0748 73.2579C59.0094 73.2579 55.9287 70.489 55.9287 68.0913C55.9287 65.694 57.6041 63.7476 59.6695 63.7476Z" fill="#FAD8BA"/>
<path fill-rule="evenodd" clip-rule="evenodd" d="M58.3171 66.8912C58.4668 66.6946 59.1395 67.147 59.4962 67.1984C60.806 67.3866 62.2602 67.1129 63.2732 66.217C63.7307 65.8115 63.8042 65.1337 63.7443 64.5006C63.6027 62.9901 61.9688 61.8752 60.5147 61.9918C58.859 62.1244 57.8323 63.5309 56.6968 64.5529C56.0895 65.0989 55.3706 65.5978 55.0357 66.3709C54.491 67.6295 55.485 68.6373 56.1304 69.6013C56.351 69.9306 56.6423 70.5514 57.0998 70.5847C57.4239 70.6081 57.4021 70.259 57.3776 70.0302C57.334 69.6528 57.0889 68.5962 57.6771 68.4753C58.1047 68.3871 58.2898 69.0537 58.396 69.338C58.4423 69.4605 58.5186 69.7187 58.6956 69.6874C58.8399 69.6618 58.8944 69.4682 58.9053 69.3454C58.9325 69.0028 58.7746 68.6638 58.6057 68.3765C58.4668 68.1461 58.17 67.0876 58.3171 66.8912Z" fill="#001320"/>
<path fill-rule="evenodd" clip-rule="evenodd" d="M155.104 53.5944C155.104 52.5625 154.694 51.5729 153.962 50.8433C153.235 50.1136 152.244 49.7036 151.213 49.7036H113.556C112.523 49.7036 111.534 50.1136 110.805 50.8433C110.075 51.5729 109.666 52.5625 109.666 53.5944V102.241C109.666 103.273 110.075 104.263 110.805 104.993C111.534 105.722 112.523 106.132 113.556 106.132H151.213C152.244 106.132 153.235 105.722 153.962 104.993C154.694 104.263 155.104 103.273 155.104 102.241V53.5944Z" fill="#6993A4"/>
<path fill-rule="evenodd" clip-rule="evenodd" d="M140.105 55.5811C134.563 55.5811 130.068 60.0744 130.068 65.6173C130.068 71.1563 134.565 75.6533 140.105 75.6533C145.647 75.6533 150.14 71.16 150.14 65.6173H145.124C145.124 68.3885 142.877 70.6352 140.105 70.6352C137.335 70.6352 135.086 68.3867 135.086 65.6173C135.086 62.8459 137.333 60.5992 140.105 60.5992V55.5811Z" fill="white"/>
<path fill-rule="evenodd" clip-rule="evenodd" d="M149.837 63.1647C149.393 61.4073 148.483 59.8027 147.201 58.5211C145.92 57.2395 144.315 56.3289 142.558 55.8857L141.333 60.7517C142.211 60.9733 143.013 61.4286 143.654 62.0694C144.294 62.7102 144.75 63.5125 144.971 64.3912L149.837 63.1647Z" fill="#A6D2E4"/>
<path fill-rule="evenodd" clip-rule="evenodd" d="M120.82 61.5965C120.82 60.791 120.167 60.1382 119.361 60.1382H115.071C114.267 60.1382 113.614 60.791 113.614 61.5965V61.7063C113.614 62.5115 114.267 63.1644 115.071 63.1644H119.361C120.167 63.1644 120.82 62.5115 120.82 61.7063V61.5965Z" fill="white"/>
<path fill-rule="evenodd" clip-rule="evenodd" d="M127.243 66.6625C127.243 66.1879 126.858 65.8034 126.384 65.8032H114.473C113.998 65.8034 113.614 66.1879 113.614 66.6625V66.6626C113.614 67.1372 113.998 67.5219 114.473 67.5219H126.384C126.858 67.5219 127.243 67.1372 127.243 66.6626V66.6625Z" fill="white"/>
<path fill-rule="evenodd" clip-rule="evenodd" d="M127.243 69.2123C127.243 68.7378 126.858 68.3532 126.384 68.353H114.473C113.998 68.3532 113.614 68.7378 113.614 69.2123V69.2124C113.614 69.687 113.998 70.0717 114.473 70.0717H126.384C126.858 70.0717 127.243 69.687 127.243 69.2124V69.2123Z" fill="white"/>
<path fill-rule="evenodd" clip-rule="evenodd" d="M127.243 81.1854C127.243 80.7986 127.089 80.4276 126.815 80.1543C126.542 79.8808 126.17 79.7271 125.786 79.7271H115.071C114.267 79.7271 113.614 80.3799 113.614 81.1854V81.2952C113.614 81.6817 113.768 82.0527 114.041 82.3262C114.314 82.5995 114.686 82.7533 115.071 82.7533H125.786C126.589 82.7533 127.243 82.1004 127.243 81.2952V81.1854Z" fill="white"/>
<path fill-rule="evenodd" clip-rule="evenodd" d="M149.14 88.5408C149.14 88.3054 149.05 88.0795 148.883 87.913C148.716 87.7464 148.483 87.6528 148.249 87.6528H114.505C114.271 87.6528 114.037 87.7464 113.87 87.913C113.714 88.0795 113.614 88.3054 113.614 88.5408V88.5417C113.614 88.7772 113.714 89.0031 113.87 89.1695C114.037 89.3361 114.271 89.4297 114.505 89.4297H148.249C148.483 89.4297 148.716 89.3361 148.883 89.1695C149.05 89.0031 149.14 88.7772 149.14 88.5417V88.5408Z" fill="white"/>
<path fill-rule="evenodd" clip-rule="evenodd" d="M149.14 92.1296C149.14 91.8943 149.05 91.6684 148.883 91.5018C148.716 91.3353 148.483 91.2417 148.249 91.2417H114.505C114.271 91.2417 114.037 91.3353 113.87 91.5018C113.714 91.6684 113.614 91.8943 113.614 92.1296V92.1306C113.614 92.3661 113.714 92.592 113.87 92.7584C114.037 92.925 114.271 93.0185 114.505 93.0185H148.249C148.483 93.0185 148.716 92.925 148.883 92.7584C149.05 92.592 149.14 92.3661 149.14 92.1306V92.1296Z" fill="white"/>
<path fill-rule="evenodd" clip-rule="evenodd" d="M149.14 95.718C149.14 95.4826 149.05 95.2568 148.883 95.0902C148.716 94.9236 148.483 94.8301 148.249 94.8301H114.505C114.271 94.8301 114.037 94.9236 113.87 95.0902C113.714 95.2568 113.614 95.4826 113.614 95.718V95.719C113.614 95.9545 113.714 96.1804 113.87 96.3468C114.037 96.5134 114.271 96.6069 114.505 96.6069H148.249C148.483 96.6069 148.716 96.5134 148.883 96.3468C149.05 96.1804 149.14 95.9545 149.14 95.719V95.718Z" fill="white"/>
<path fill-rule="evenodd" clip-rule="evenodd" d="M94.7099 39.8533L94.664 55.8046L98.9649 55.817L90.3258 68.745L81.7614 55.7674L86.0623 55.7798L86.1082 39.8285L94.7099 39.8533Z" fill="#F29F05"/>
<path d="M94.6963 59.0511C94.6944 59.7068 94.5155 60.2386 94.1619 60.6462C93.8072 61.0538 93.3427 61.2569 92.7709 61.2552C92.1899 61.2536 91.7233 61.0503 91.3708 60.6456C91.0184 60.2407 90.8438 59.6933 90.8458 59.0033L90.8473 58.4746C90.8492 57.814 91.027 57.2834 91.3817 56.883C91.7364 56.4828 92.1997 56.2835 92.7727 56.2851C93.3491 56.2868 93.8146 56.49 94.1693 56.8948C94.524 57.2996 94.6998 57.8446 94.6978 58.5297L94.6963 59.0511ZM93.5281 58.4824C93.5289 58.1887 93.4591 57.9523 93.3198 57.7733C93.1805 57.5942 92.9965 57.5044 92.7692 57.5037C92.5418 57.5031 92.3608 57.5931 92.2261 57.7738C92.0914 57.9545 92.0237 58.1967 92.0228 58.5001L92.0212 59.0434C92.0204 59.3369 92.0868 59.5745 92.2204 59.756C92.354 59.9375 92.5391 60.0285 92.7744 60.0292C92.9972 60.0299 93.1783 59.9411 93.3175 59.7628C93.4555 59.5846 93.5256 59.3364 93.5265 59.0182L93.5281 58.4824ZM90.473 53.0262C90.4711 53.687 90.2911 54.2187 89.9318 54.6215C89.5737 55.0242 89.1104 55.2247 88.5408 55.2231C87.9644 55.2214 87.4989 55.0206 87.1442 54.6207C86.7906 54.2208 86.6148 53.671 86.6169 52.9711L86.6184 52.4425C86.6203 51.7866 86.7957 51.2574 87.1459 50.8546C87.4972 50.4519 87.9628 50.2513 88.5438 50.253C89.1281 50.2547 89.5971 50.4592 89.9495 50.8664C90.3007 51.2735 90.4765 51.8125 90.4746 52.4829L90.473 53.0262ZM89.3048 52.4502C89.3056 52.1811 89.2335 51.9509 89.0874 51.7595C88.9413 51.5682 88.7597 51.4722 88.5402 51.4716C88.0446 51.4702 87.7958 51.7999 87.7939 52.4606L87.7923 53.0185C87.7914 53.3122 87.8601 53.5486 87.9971 53.7276C88.1342 53.9066 88.317 53.9964 88.5443 53.9971C88.7729 53.9977 88.955 53.909 89.0942 53.7307C89.2323 53.5525 89.3024 53.3091 89.3032 53.0008L89.3048 52.4502ZM92.4405 51.2112L93.2973 51.7716L88.9417 60.1137L88.0838 59.5533L92.4405 51.2112Z" fill="white"/>
<path fill-rule="evenodd" clip-rule="evenodd" d="M44.7949 139.342H150.83V140.038H44.7949V139.342Z" fill="#03222F"/>
<path fill-rule="evenodd" clip-rule="evenodd" d="M29.894 139.429H41.255V140.169H29.894V139.429Z" fill="#03222F"/>
<path fill-rule="evenodd" clip-rule="evenodd" d="M142.145 139.444C142.074 139.58 141.913 139.639 141.771 139.582C141.703 139.554 141.647 139.502 141.615 139.435C141.583 139.369 141.577 139.293 141.598 139.222C141.726 138.747 141.881 138.281 142.035 137.824C143.175 134.428 144.817 131.378 147.726 129.188C149.14 128.125 151.058 127.129 152.89 127.38C153.759 127.499 154.727 128 154.684 129.004C154.609 130.798 152.457 132.199 151.142 133.072C148.573 134.776 144.244 136.594 142.145 139.444Z" fill="#6993A4"/>
<path fill-rule="evenodd" clip-rule="evenodd" d="M153.895 126.457C154.141 127.07 154.037 127.796 153.91 128.423C153.796 128.988 153.638 129.563 153.347 130.065C152.292 131.877 150.073 132.638 148.11 132.936C147.223 133.071 145.801 133.161 145.106 132.432C144.628 131.931 144.973 131.448 145.002 130.885C145.009 130.736 144.89 130.701 144.765 130.739C144.086 130.938 143.504 131.905 143.14 132.442C142.047 134.062 141.349 136.023 141.061 137.951C140.959 138.63 140.808 139.578 141.245 140.179C141.794 140.934 143.043 140.356 143.679 140.058C143.864 139.971 144.048 139.879 144.23 139.784C144.441 139.675 144.651 139.562 144.857 139.448C145.181 139.271 145.498 139.081 145.813 138.892C147.736 137.743 156.925 132.967 158.136 130.708C159.4 128.35 156.079 127.257 153.895 126.457Z" fill="#477282"/>
<path fill-rule="evenodd" clip-rule="evenodd" d="M139.441 139.245C139.484 139.324 139.555 139.384 139.64 139.414C139.726 139.444 139.819 139.441 139.902 139.406C139.985 139.371 140.053 139.307 140.091 139.225C140.13 139.143 140.136 139.05 140.11 138.964C139.985 138.498 139.832 138.041 139.682 137.593C138.411 133.805 136.579 130.403 133.333 127.96C131.756 126.774 129.617 125.662 127.572 125.943C126.604 126.075 125.523 126.634 125.571 127.754C125.655 129.755 128.055 131.319 129.522 132.292C132.34 134.163 137.06 136.155 139.441 139.245Z" fill="#6993A4"/>
<path fill-rule="evenodd" clip-rule="evenodd" d="M126.451 124.913C126.177 125.597 126.293 126.407 126.435 127.106C126.562 127.737 126.739 128.378 127.063 128.938C128.24 130.959 130.715 131.808 132.905 132.141C133.895 132.291 135.481 132.392 136.257 131.579C136.79 131.02 136.404 130.481 136.373 129.853C136.365 129.687 136.497 129.647 136.637 129.69C137.394 129.911 138.043 130.99 138.449 131.589C139.668 133.397 140.447 135.584 140.769 137.735C140.882 138.492 141.051 139.55 140.563 140.221C139.951 141.062 138.557 140.418 137.848 140.086C137.642 139.988 137.436 139.885 137.233 139.78C136.998 139.659 136.763 139.532 136.534 139.405C136.172 139.207 135.819 138.996 135.468 138.785C133.322 137.503 123.071 132.175 121.72 129.655C120.311 127.025 124.016 125.805 126.451 124.913Z" fill="#477282"/>
<path fill-rule="evenodd" clip-rule="evenodd" d="M140.493 139.145C140.472 139.272 140.553 139.392 140.676 139.424C140.8 139.457 140.928 139.388 140.969 139.267C141.314 138.242 141.575 137.184 141.827 136.156C143.027 131.273 143.37 126.423 141.565 121.641C140.688 119.318 139.162 116.696 136.8 115.617C135.681 115.106 134.156 114.973 133.453 116.195C132.194 118.379 133.693 121.657 134.598 123.679C136.501 127.941 140.733 133.892 140.493 139.145Z" fill="#6993A4"/>
<path fill-rule="evenodd" clip-rule="evenodd" d="M136.301 113.768C135.549 114.311 135.127 115.25 134.808 116.089C134.518 116.845 134.274 117.645 134.242 118.459C134.132 121.4 136.191 123.969 138.295 125.797C139.246 126.624 140.864 127.798 142.236 127.456C143.179 127.221 143.132 126.389 143.521 125.7C143.625 125.518 143.792 125.565 143.912 125.704C144.568 126.449 144.531 128.034 144.56 128.944C144.639 131.686 143.993 134.536 142.887 137.038C142.498 137.92 141.965 139.158 140.995 139.542C139.777 140.025 138.73 138.402 138.199 137.571C138.046 137.328 137.897 137.08 137.752 136.831C137.584 136.544 137.419 136.251 137.261 135.962C137.01 135.508 136.776 135.046 136.545 134.585C135.128 131.778 127.818 119.212 128.079 115.624C128.353 111.878 133.112 113.077 136.301 113.768Z" fill="#477282"/>
</svg>
