<svg width="200" height="113" viewBox="0 0 200 113" fill="none" xmlns="http://www.w3.org/2000/svg">
<path fill-rule="evenodd" clip-rule="evenodd" d="M115.03 16.4694C114.759 16.2323 114.437 16.1222 114.056 16.1307C113.556 16.2069 113.074 16.3424 112.616 16.5541C112.346 16.4017 112.218 16.1646 112.235 15.8343C112.523 14.0139 112.396 12.2188 111.854 10.4575C111.473 9.67855 111.092 8.90801 110.711 8.12901C109.306 8.12901 107.951 7.87499 106.647 7.36695C104.962 6.93511 103.328 7.07905 101.736 7.79032C100.212 8.62859 98.6707 9.43299 97.1211 10.2035C96.1474 12.4813 95.7917 14.8521 96.0627 17.3161C94.8603 17.2315 93.912 16.6896 93.2261 15.7073C93.0991 15.4364 93.0314 15.157 93.0144 14.8606C93.4378 14.9114 93.8612 14.9283 94.2845 14.9029C94.4624 14.759 94.5894 14.5727 94.6656 14.3526C94.6656 13.6074 94.6232 12.8538 94.5386 12.1087C94.5132 11.5668 94.5978 11.0418 94.7926 10.5422C93.5309 10.1104 92.6673 9.26364 92.21 8.002C92.1084 7.5871 92.1931 7.223 92.464 6.90124C93.2684 7.31614 94.0729 7.29921 94.8773 6.8589C95.9103 6.04603 96.901 5.16542 97.8408 4.23401C100.974 1.74459 104.386 1.26195 108.086 2.79455C108.874 3.22639 109.543 3.80217 110.076 4.53037C110.66 3.54815 111.541 3.0401 112.701 3.00623C113.167 3.0401 113.607 3.16711 114.014 3.38727C114.081 3.48041 114.141 3.58202 114.183 3.68363C113.599 4.25094 113.133 4.90293 112.786 5.63113C112.676 5.90209 112.6 6.18998 112.574 6.47787C113.192 6.79963 113.785 7.18066 114.352 7.62097C114.632 7.90039 114.843 8.22215 114.987 8.59472C115.148 9.23824 115.241 9.88176 115.284 10.5422C115.191 11.7023 115.089 12.8623 114.987 14.0139C115.462 14.5473 115.97 14.5812 116.511 14.0985C116.655 14.9283 116.444 15.6481 115.876 16.2577C115.614 16.4101 115.334 16.4779 115.03 16.4694Z" fill="#3E3E40"/>
<path fill-rule="evenodd" clip-rule="evenodd" d="M73.7933 13.2518C73.0059 13.9123 72.1591 14.488 71.2531 14.9876C69.5596 15.8513 67.8492 16.6896 66.1303 17.4855C66.0711 17.5448 66.0711 17.5956 66.1303 17.6549C66.7569 18.1375 67.2904 18.7048 67.7392 19.3483C67.9762 20.0935 67.8746 20.7878 67.4428 21.4228C67.0956 21.135 66.6977 20.8809 66.2574 20.6608C65.309 20.3475 64.5046 20.5592 63.8441 21.2958C63.497 22.5405 63.9034 23.455 65.0719 24.0477C65.3175 24.1155 65.5546 24.1917 65.7916 24.2594C66.1049 24.1663 66.4352 24.1494 66.7654 24.2171C66.8162 24.2933 66.8416 24.378 66.8501 24.4711C66.4606 26.3424 65.8594 28.129 65.0296 29.8479C64.9618 29.958 64.8602 30.0173 64.7332 30.0173C62.5063 29.4415 60.8043 28.1714 59.6104 26.2069C59.0347 25.2416 58.569 24.2256 58.2133 23.1587C58.0524 23.0571 57.8916 22.947 57.7476 22.82C55.9187 20.6015 54.6485 18.0952 53.9373 15.284C53.7425 14.7082 53.7764 14.1409 54.022 13.5905C56.4606 11.3466 59.1532 9.47535 62.1083 7.95968C64.5977 6.74038 67.2226 5.99524 69.983 5.71582C70.3556 5.74122 70.7197 5.78356 71.0838 5.84283C71.3378 5.91057 71.5495 6.03758 71.7188 6.22386C72.6841 8.48466 73.3784 10.8301 73.7933 13.2518Z" fill="#3E3E40"/>
<path fill-rule="evenodd" clip-rule="evenodd" d="M115.03 16.4689C115.631 18.1793 115.233 19.6103 113.844 20.7449C113.124 21.1344 112.422 21.1344 111.727 20.7449C110.872 22.142 109.754 23.2851 108.383 24.1742C108.34 24.7415 108.323 25.3004 108.34 25.8677C107.561 25.9778 106.774 26.0963 105.969 26.2064C105.665 26.8922 105.343 27.5696 104.996 28.2385C104.801 28.3571 104.632 28.3317 104.488 28.1539C104.191 27.6289 103.895 27.1124 103.599 26.5874C105.309 26.3503 106.833 25.6983 108.171 24.6399C107.908 24.5976 107.654 24.6314 107.409 24.7246C106.223 25.3342 104.987 25.5036 103.683 25.2326C102.904 25.0379 102.142 24.7923 101.397 24.5129C99.8814 23.8016 98.5689 22.8109 97.4597 21.5493C96.6299 20.2623 96.1642 18.8482 96.0626 17.3156C95.7916 14.8516 96.1472 12.4807 97.121 10.203C98.6705 9.43245 100.212 8.62805 101.736 7.78977C103.328 7.07851 104.962 6.93457 106.647 7.3664C107.951 7.87445 109.306 8.12847 110.711 8.12847C111.092 8.90747 111.473 9.678 111.854 10.457C112.396 12.2182 112.523 14.0133 112.235 15.8338C112.218 16.164 112.345 16.4011 112.616 16.5535C113.074 16.3418 113.556 16.2064 114.056 16.1302C114.437 16.1217 114.759 16.2318 115.03 16.4689Z" fill="#F9D2B9"/>
<path fill-rule="evenodd" clip-rule="evenodd" d="M107.24 9.61031C108.501 9.4833 109.56 9.8728 110.415 10.7957C110.593 11.0498 110.576 11.2699 110.373 11.4731C109.712 10.4655 108.781 9.99981 107.579 10.076C107.138 10.1522 106.749 10.3216 106.393 10.5841C106.215 10.6603 106.071 10.6179 105.97 10.457C106.037 10.2623 106.148 10.1099 106.308 9.99134C106.622 9.83893 106.927 9.71192 107.24 9.61031Z" fill="#403F41"/>
<path fill-rule="evenodd" clip-rule="evenodd" d="M100.296 9.77996C100.965 9.72915 101.617 9.8223 102.244 10.0763C102.515 10.1695 102.625 10.3388 102.582 10.5844C102.007 10.4828 101.431 10.3811 100.847 10.288C99.822 10.3896 99.0091 10.8384 98.391 11.6428C98.1963 11.4904 98.137 11.2872 98.2217 11.0501C98.7974 10.415 99.4833 9.99164 100.296 9.77996Z" fill="#3F3F41"/>
<path fill-rule="evenodd" clip-rule="evenodd" d="M99.1957 11.8125C100.271 11.948 100.652 12.5407 100.339 13.5907C100.237 13.9209 100.085 14.2172 99.8731 14.4797C99.3312 14.8269 98.8909 14.7338 98.5607 14.1834C98.222 13.4975 98.222 12.8201 98.5607 12.1512C98.7723 12.0242 98.984 11.9141 99.1957 11.8125Z" fill="#3E3E40"/>
<path fill-rule="evenodd" clip-rule="evenodd" d="M106.647 11.4731C107.756 11.4308 108.188 11.9389 107.959 12.9973C107.815 13.5561 107.477 13.9287 106.943 14.098C106.757 14.0557 106.588 13.971 106.435 13.844C106.003 13.1666 105.944 12.4638 106.266 11.7272C106.41 11.651 106.537 11.5663 106.647 11.4731Z" fill="#3E3E40"/>
<path fill-rule="evenodd" clip-rule="evenodd" d="M73.7932 13.252C74.8685 15.0724 75.4782 17.0453 75.6137 19.1791C76.2233 18.8235 76.816 18.8489 77.3918 19.2638C77.7474 20.1359 77.5696 20.8811 76.8414 21.5077C76.4689 21.7278 76.0709 21.7702 75.656 21.6347C75.4104 24.1749 74.4197 26.3595 72.6924 28.1969C72.286 28.5102 71.8626 28.7812 71.4223 29.0013C70.7195 28.9844 70.0082 29.0013 69.3054 29.0437C69.0684 29.0437 68.8567 29.1199 68.6704 29.2553C68.6026 29.4162 68.645 29.5432 68.7974 29.6364C69.5002 29.8057 70.1776 30.0174 70.8296 30.2714C68.7974 30.1868 66.7652 30.2122 64.733 30.3561C64.733 30.246 64.733 30.1275 64.733 30.0174C64.8601 30.0174 64.9617 29.9581 65.0294 29.8481C65.8592 28.1292 66.4604 26.3426 66.8499 24.4713C66.8414 24.3781 66.816 24.2934 66.7652 24.2172C66.435 24.1495 66.1048 24.1664 65.7915 24.2596C65.5544 24.1918 65.3173 24.1156 65.0717 24.0479C63.9032 23.4552 63.4968 22.5407 63.844 21.296C64.5044 20.5593 65.3088 20.3476 66.2572 20.6609C66.6975 20.8811 67.0954 21.1351 67.4426 21.423C67.8744 20.7879 67.9761 20.0936 67.739 19.3485C67.2902 18.705 66.7568 18.1376 66.1302 17.655C66.0709 17.5957 66.0709 17.5449 66.1302 17.4857C67.849 16.6897 69.5595 15.8514 71.2529 14.9878C72.159 14.4882 73.0057 13.9124 73.7932 13.252Z" fill="#F9D2B9"/>
<path fill-rule="evenodd" clip-rule="evenodd" d="M103.175 14.4366C104.335 14.3265 104.979 14.8345 105.123 15.9607C105.029 15.9692 104.945 15.9607 104.869 15.9184C104.437 15.4357 103.903 15.2071 103.26 15.241C103.09 15.2918 102.963 15.3849 102.879 15.5373C102.836 15.9353 102.879 16.3333 103.006 16.7228C102.997 16.9683 102.887 17.0615 102.667 17.0191C102.151 16.3333 102.108 15.6135 102.54 14.8599C102.752 14.7075 102.963 14.5636 103.175 14.4366Z" fill="#EF6036"/>
<path fill-rule="evenodd" clip-rule="evenodd" d="M73.2009 14.5211C73.4634 14.4957 73.7174 14.5211 73.963 14.6058C73.7005 14.8344 73.421 15.0461 73.1162 15.2408C72.7098 15.7235 72.2864 16.1892 71.8461 16.638C71.736 16.1892 71.8122 15.7658 72.0578 15.3679C72.405 15.0292 72.786 14.7497 73.2009 14.5211Z" fill="#3F3E41"/>
<path fill-rule="evenodd" clip-rule="evenodd" d="M73.7086 16.5533C74.2759 16.4517 74.6315 16.6718 74.767 17.2307C74.9279 17.8996 74.7754 18.4839 74.3013 18.9665C74.0896 19.0258 73.8948 19.0004 73.7086 18.8818C73.1751 18.2552 73.0735 17.5609 73.4122 16.8073C73.5053 16.7142 73.6069 16.6295 73.7086 16.5533Z" fill="#3E3E40"/>
<path fill-rule="evenodd" clip-rule="evenodd" d="M113.505 17.2311C114.487 17.0448 114.902 17.4428 114.733 18.4165C114.682 18.7298 114.547 18.9839 114.31 19.1786C114.25 19.1193 114.2 19.0685 114.14 19.0093C114.123 18.6452 114.081 18.298 114.013 17.9508C113.903 17.8916 113.785 17.8916 113.675 17.9508C113.277 18.1371 112.904 18.3827 112.574 18.6706C112.498 18.4081 112.54 18.1541 112.701 17.9085C112.938 17.6291 113.2 17.4089 113.505 17.2311Z" fill="#EF6036"/>
<path fill-rule="evenodd" clip-rule="evenodd" d="M107.409 18.4165C107.79 18.3911 108.027 18.5605 108.129 18.9246C108.256 19.9322 107.926 20.762 107.155 21.4225C106.012 22.2861 104.767 22.4555 103.429 21.9305C102.363 21.287 101.871 20.3386 101.948 19.0939C102.041 19.0347 102.134 18.9923 102.244 18.9669C103.988 18.8484 105.707 18.6621 107.409 18.4165Z" fill="#EF6036"/>
<path fill-rule="evenodd" clip-rule="evenodd" d="M105.546 19.1784C106.029 19.1614 106.503 19.1784 106.986 19.2207C105.97 20.2622 104.784 20.5162 103.43 19.9828C103.286 19.8642 103.167 19.7287 103.091 19.5594C103.929 19.4747 104.75 19.3477 105.546 19.1784Z" fill="#FEFDFD"/>
<path fill-rule="evenodd" clip-rule="evenodd" d="M65.2415 21.3802C66.2153 21.2109 66.7149 21.6004 66.7233 22.5657C66.6641 22.6249 66.6133 22.6757 66.554 22.735C66.3592 22.5318 66.173 22.3201 66.0036 22.1C65.4278 21.9052 65.0807 22.1169 64.9452 22.735C64.7335 22.8112 64.5896 22.7265 64.5218 22.481C64.5049 21.9475 64.7504 21.575 65.2415 21.3802Z" fill="#EF6036"/>
<path fill-rule="evenodd" clip-rule="evenodd" d="M71.3379 23.666C71.7782 23.92 72.227 24.1571 72.6927 24.3857C73.2261 24.3773 73.768 24.3349 74.3015 24.2587C74.3015 24.5636 74.1575 24.7752 73.8781 24.8938C72.9298 25.495 72.0999 25.368 71.3802 24.5128C71.2447 24.2333 71.2278 23.9454 71.3379 23.666Z" fill="#EF6036"/>
<path fill-rule="evenodd" clip-rule="evenodd" d="M101.397 24.5127C102.142 24.7921 102.905 25.0377 103.684 25.2324C104.988 25.5034 106.224 25.334 107.409 24.7244C107.655 24.6312 107.909 24.5974 108.171 24.6397C106.833 25.6981 105.309 26.3501 103.599 26.5872C103.895 27.1122 104.192 27.6287 104.488 28.1537C104.632 28.3315 104.801 28.3569 104.996 28.2384C105.343 27.5694 105.665 26.892 105.97 26.2062C106.774 26.0961 107.562 25.9776 108.341 25.8675C108.705 25.8421 109.052 25.8675 109.399 25.9522C109.467 27.0275 109.45 28.1029 109.357 29.1698C109.196 29.102 109.026 29.0851 108.849 29.1274C108.222 29.4407 107.587 29.7371 106.944 30.0165C107.096 32.8616 107.147 35.7151 107.113 38.5686C106.927 38.7041 106.715 38.7803 106.478 38.7803C105.767 38.7972 105.064 38.8395 104.361 38.9073C104.132 38.1452 103.836 37.417 103.472 36.7058C103.243 36.2654 102.896 36.0114 102.413 35.9437C102.295 33.9369 102.236 31.9301 102.244 29.9318C101.626 29.5931 101.093 29.1698 100.635 28.6617C100.542 27.9335 100.525 27.1969 100.593 26.4602C100.83 26.3078 101.101 26.2485 101.397 26.2908C101.44 25.7066 101.44 25.1139 101.397 24.5127Z" fill="#EF6036"/>
<path fill-rule="evenodd" clip-rule="evenodd" d="M100.635 28.6621C101.092 29.1702 101.626 29.5935 102.244 29.9322C102.235 31.9305 102.295 33.9373 102.413 35.9441C102.202 35.9271 102.007 35.9695 101.821 36.0711C101.245 36.4691 100.677 36.8755 100.127 37.2989C100.068 37.0872 99.9831 36.8924 99.8731 36.7061C99.3565 35.5038 98.7469 34.3437 98.0526 33.2345C97.6292 32.8027 97.1296 32.7095 96.5708 32.9381C96.2913 33.2768 96.0797 33.6579 95.9357 34.0812C94.8265 36.8416 94.0559 39.6951 93.6072 42.6333C93.6072 43.0313 93.6072 43.4208 93.6072 43.8188C91.3802 45.2328 89.3481 46.8924 87.5106 48.8145C87.6969 48.2218 87.9171 47.646 88.188 47.0787C88.0018 46.8755 87.7816 46.7908 87.5106 46.8247C87.1296 47.4513 86.7909 48.0948 86.4946 48.7722C86.774 48.8738 87.0534 48.9415 87.3413 48.9839C87.0788 49.2718 86.8248 49.5681 86.5792 49.8729C85.6732 49.5935 85.3176 48.9839 85.5208 48.0525C88.0018 42.2184 90.8383 36.6215 94.0305 31.2447C94.4793 30.8467 94.9874 30.5419 95.5547 30.3133C97.2397 29.7375 98.9332 29.1871 100.635 28.6621Z" fill="#2E3192"/>
<path fill-rule="evenodd" clip-rule="evenodd" d="M71.4223 29.0006C71.4223 29.424 71.4223 29.8474 71.4223 30.2707C71.2276 30.2707 71.0244 30.2707 70.8296 30.2707C70.1776 30.0167 69.5002 29.805 68.7974 29.6357C68.645 29.5425 68.6027 29.4155 68.6704 29.2547C68.8567 29.1192 69.0684 29.043 69.3055 29.043C70.0083 29.0006 70.7195 28.9837 71.4223 29.0006Z" fill="#EF6036"/>
<path fill-rule="evenodd" clip-rule="evenodd" d="M109.356 29.1699C111.626 30.0336 113.878 30.9227 116.13 31.8371C116.791 32.1589 117.29 32.6585 117.612 33.3189C119.67 37.3494 121.524 41.473 123.158 45.6813C122.921 45.766 122.667 45.8168 122.396 45.8507C122.608 46.6636 122.803 47.4849 122.989 48.3062C123.387 48.3062 123.776 48.3062 124.174 48.3062C124.793 48.9752 124.708 49.5594 123.92 50.0421C123.649 50.1945 123.362 50.3215 123.074 50.4231C122.828 49.8812 122.405 49.678 121.804 49.8304C119.873 50.0167 117.951 50.3045 116.046 50.6771C115.538 47.5611 115.131 44.4282 114.818 41.2783C114.767 40.7957 114.776 40.313 114.86 39.8388C114.666 39.8388 114.462 39.8388 114.268 39.8388C114.251 41.0835 114.327 42.3283 114.479 43.5645C114.733 46.0031 115.055 48.4332 115.453 50.8465C113.404 51.3122 111.372 51.8371 109.356 52.4129C108.095 53.0141 107.019 53.8439 106.139 54.9108C106.207 52.2605 105.368 49.9489 103.641 47.9675C102.312 46.5535 100.855 45.3003 99.2803 44.1995C100.821 44.1487 102.362 44.1911 103.895 44.3266C104.793 44.2419 105.148 43.7508 104.953 42.8448C104.92 41.5069 104.716 40.1945 104.361 38.9074C105.064 38.8397 105.766 38.7973 106.478 38.7804C106.715 38.7804 106.926 38.7042 107.113 38.5687C107.146 35.7152 107.096 32.8617 106.943 30.0167C107.587 29.7372 108.222 29.4409 108.848 29.1276C109.026 29.0852 109.196 29.1022 109.356 29.1699Z" fill="#2E3192"/>
<path fill-rule="evenodd" clip-rule="evenodd" d="M104.445 29.9326C104.674 29.9326 104.894 29.9326 105.123 29.9326C105.131 32.4474 105.182 34.9538 105.292 37.4686C104.987 37.494 104.691 37.4686 104.403 37.3839C104.428 34.903 104.445 32.4136 104.445 29.9326Z" fill="#2E3192"/>
<path fill-rule="evenodd" clip-rule="evenodd" d="M70.83 30.271C71.0248 30.271 71.228 30.271 71.4227 30.271C72.0493 30.2456 72.3626 30.5589 72.3542 31.2024C72.2864 31.6766 72.261 32.1593 72.2695 32.6419C70.3474 32.625 68.4337 32.6419 66.5116 32.6842C65.5718 32.7096 64.6403 32.7774 63.7174 32.8959C63.5989 32.2355 63.5565 31.5581 63.5904 30.8638C63.6412 30.6944 63.7343 30.5674 63.8868 30.4827C64.1662 30.398 64.4456 30.3557 64.7335 30.3557C66.7657 30.2118 68.7978 30.1864 70.83 30.271Z" fill="#2E3192"/>
<path fill-rule="evenodd" clip-rule="evenodd" d="M72.2694 32.6422C72.2694 32.7269 72.2694 32.8116 72.2694 32.8963C73.8697 33.3281 75.36 33.9885 76.7571 34.8861C77.3752 35.3941 77.8663 35.9953 78.2389 36.7066C80.034 40.8641 82.1847 44.8184 84.6741 48.5609C85.7325 49.9919 86.9942 51.2197 88.4421 52.2443C89.1534 52.71 89.8562 53.1757 90.559 53.6414C89.3397 56.334 88.1373 59.0436 86.9603 61.7701C86.9773 62.0072 86.9688 62.2273 86.918 62.4475C84.1745 61.152 81.6259 59.577 79.255 57.7057C79.4243 60.0427 79.6106 62.3882 79.8054 64.7337C79.7884 64.8184 79.8223 64.8776 79.89 64.903C80.0509 66.8844 80.2118 68.8573 80.3557 70.8302C80.2711 71.0842 80.1102 71.2959 79.89 71.4653C79.4836 71.6346 79.0602 71.7362 78.6199 71.7616C78.6284 71.7278 78.6115 71.6939 78.5776 71.6769C77.7817 71.8463 76.9773 71.931 76.1644 71.931C75.7749 72.0072 75.3854 72.041 74.979 72.0156C73.2262 71.9987 71.4819 72.0241 69.7292 72.1003C69.3312 72.1003 68.9417 72.1003 68.5437 72.1003C66.1729 72.1342 63.802 72.0749 61.4311 71.931C61.1178 71.9225 60.8045 71.8971 60.4997 71.8463C59.8223 71.8124 59.1449 71.7532 58.4675 71.6769C57.6038 71.8378 57.2651 71.4907 57.4514 70.6185C58.2643 58.0275 60.1356 45.5889 63.0823 33.3196C63.2685 33.1249 63.4802 32.9809 63.7173 32.8963C64.6403 32.7777 65.5717 32.71 66.5115 32.6846C68.4337 32.6422 70.3473 32.6253 72.2694 32.6422Z" fill="#3E3E40"/>
<path fill-rule="evenodd" clip-rule="evenodd" d="M99.8728 36.7065C99.0853 37.4093 98.2894 38.1205 97.5019 38.8233C97.4173 38.2475 97.2733 37.6802 97.0786 37.1298C96.7229 38.1967 96.3842 39.2721 96.0625 40.3474C95.2157 41.0841 94.3944 41.8462 93.6069 42.6336C94.0557 39.6954 94.8262 36.8419 95.9355 34.0816C96.0794 33.6582 96.2911 33.2772 96.5705 32.9385C97.1294 32.7098 97.6289 32.803 98.0523 33.2348C98.7466 34.3441 99.3563 35.5041 99.8728 36.7065Z" fill="#FEFEFE"/>
<path fill-rule="evenodd" clip-rule="evenodd" d="M99.8728 36.7061C99.9829 36.8923 100.068 37.0871 100.127 37.2988C99.3394 38.0862 98.518 38.8483 97.6713 39.585C97.6544 39.3225 97.5951 39.0685 97.502 38.8229C98.2894 38.1201 99.0854 37.4088 99.8728 36.7061Z" fill="#F9D2B9"/>
<path fill-rule="evenodd" clip-rule="evenodd" d="M97.5021 38.8234C97.5952 39.0689 97.6545 39.3229 97.6714 39.5854C97.0448 40.1781 96.4267 40.7709 95.8086 41.3636C95.8933 41.0249 95.9779 40.6862 96.0626 40.3475C96.3844 39.2721 96.7231 38.1968 97.0787 37.1299C97.2735 37.6803 97.4174 38.2476 97.5021 38.8234Z" fill="#2E3192"/>
<path fill-rule="evenodd" clip-rule="evenodd" d="M101.736 39.416C101.82 39.416 101.88 39.4584 101.905 39.543C101.922 40.2797 101.896 41.0079 101.82 41.7446C100.711 41.9562 99.6103 42.2103 98.518 42.5066C98.0269 42.6421 97.5697 42.8284 97.1209 43.057C97.0023 42.8368 97.0108 42.659 97.1632 42.5066C98.7466 41.5583 100.271 40.5252 101.736 39.416Z" fill="#2E3192"/>
<path fill-rule="evenodd" clip-rule="evenodd" d="M116.046 50.6771C115.868 50.7703 115.673 50.8296 115.453 50.8465C115.055 48.4333 114.733 46.0031 114.479 43.5645C114.327 42.3283 114.251 41.0836 114.267 39.8389C114.462 39.8389 114.665 39.8389 114.86 39.8389C114.776 40.313 114.767 40.7957 114.818 41.2783C115.131 44.4282 115.538 47.5611 116.046 50.6771Z" fill="#EF6036"/>
<path fill-rule="evenodd" clip-rule="evenodd" d="M96.0625 40.3467C95.9778 40.6854 95.8931 41.0241 95.8085 41.3628C95.0125 42.1248 94.2759 42.9462 93.6069 43.8183C93.6069 43.4203 93.6069 43.0308 93.6069 42.6329C94.3944 41.8454 95.2157 41.0833 96.0625 40.3467Z" fill="#F9D2B9"/>
<path fill-rule="evenodd" clip-rule="evenodd" d="M94.4536 44.2417C94.6484 44.2078 94.8008 44.2671 94.9193 44.4111C94.9193 47.1037 95.0887 49.7879 95.4274 52.4551C95.4951 52.726 95.5713 52.9885 95.639 53.2595C95.6306 53.4796 95.5374 53.6405 95.3427 53.7252C95.1225 53.5304 94.9193 53.3018 94.75 53.0478C94.4536 51.5152 94.2927 49.9572 94.2843 48.3907C94.3605 47.3492 94.3774 46.2993 94.3266 45.2578C92.9887 46.5533 91.9727 48.052 91.2783 49.7455C91.6848 49.3899 92.0997 49.0427 92.5061 48.6871C92.921 48.4839 93.1073 48.6109 93.0565 49.0681C92.5823 50.0503 91.8372 50.7447 90.8126 51.1426C90.2792 51.2188 90.0252 50.9818 90.0506 50.4229C90.076 50.0842 90.1691 49.7794 90.3469 49.4915C91.4477 47.5271 92.8194 45.7828 94.4536 44.2417Z" fill="#F9D2B9"/>
<path fill-rule="evenodd" clip-rule="evenodd" d="M96.8247 44.5807C96.9686 44.5638 97.1126 44.5807 97.2481 44.623C100.102 47.4766 102.024 50.872 103.006 54.8263C102.997 54.9025 102.972 54.9787 102.921 55.0379C102.65 55.1226 102.413 55.0803 102.201 54.9109C101.795 53.2767 101.168 51.7187 100.339 50.2539C99.331 48.4334 98.171 46.706 96.867 45.0888C96.7316 44.9194 96.7146 44.7501 96.8247 44.5807Z" fill="#F9D2B9"/>
<path fill-rule="evenodd" clip-rule="evenodd" d="M123.159 45.6816C123.531 46.5368 123.87 47.4175 124.175 48.3065C123.777 48.3065 123.387 48.3065 122.989 48.3065C122.803 47.4852 122.608 46.6639 122.396 45.851C122.667 45.8171 122.921 45.7663 123.159 45.6816Z" fill="#EF6036"/>
<path fill-rule="evenodd" clip-rule="evenodd" d="M120.11 46.2743C120.271 46.2489 120.398 46.3082 120.491 46.4436C120.618 47.138 120.83 47.7984 121.126 48.4335C120.737 48.552 120.347 48.6198 119.941 48.6452C119.822 47.9 119.653 47.1634 119.433 46.4436C119.678 46.4182 119.898 46.359 120.11 46.2743Z" fill="#EF6036"/>
<path fill-rule="evenodd" clip-rule="evenodd" d="M87.5107 48.8145C87.4514 48.8738 87.4006 48.9246 87.3414 48.9838C87.0535 48.9415 86.7741 48.8738 86.4946 48.7721C86.791 48.0948 87.1297 47.4512 87.5107 46.8246C87.7817 46.7908 88.0018 46.8754 88.1881 47.0787C87.9172 47.646 87.697 48.2218 87.5107 48.8145Z" fill="#EF6036"/>
<path fill-rule="evenodd" clip-rule="evenodd" d="M117.57 46.8672C117.629 46.9011 117.671 46.9603 117.697 47.0365C117.765 47.7393 117.832 48.4506 117.909 49.1534C117.57 49.1788 117.248 49.1788 116.935 49.1534C116.791 48.4845 116.723 47.8071 116.723 47.1212C117.028 47.0873 117.307 47.0027 117.57 46.8672Z" fill="#EF6036"/>
<path fill-rule="evenodd" clip-rule="evenodd" d="M123.073 50.4231C123.37 51.3461 123.565 52.286 123.666 53.2597C123.615 54.3774 123.082 55.1649 122.057 55.6306C120.228 55.7661 118.391 55.8677 116.554 55.9269C115.453 55.9439 114.352 55.9862 113.251 56.0539C112.565 56.0709 111.888 56.1556 111.219 56.308C110.542 56.8414 109.864 57.3833 109.187 57.9168C107.917 59.1615 106.613 60.3723 105.292 61.5578C105.021 61.7948 104.708 61.9049 104.36 61.8965C104.242 61.7864 104.157 61.6594 104.106 61.5154C104.437 61.3376 104.708 61.0836 104.911 60.7534C104.97 60.4739 104.97 60.186 104.911 59.9066C104.775 59.805 104.775 59.6949 104.911 59.5679C106.41 57.9252 107.993 56.3757 109.653 54.9108C109.695 54.8008 109.712 54.6907 109.695 54.5722C109.483 54.5552 109.288 54.5976 109.102 54.6992C108.137 55.5798 107.206 56.4773 106.308 57.4087C105.918 57.6204 105.529 57.7982 105.123 57.9591C104.835 57.6035 104.792 57.2055 104.996 56.7737C105.317 56.1048 105.698 55.4866 106.139 54.9108C107.019 53.844 108.095 53.0142 109.356 52.413C111.371 51.8372 113.404 51.3122 115.453 50.8465C115.673 50.8296 115.868 50.7703 116.045 50.6771C117.951 50.3046 119.873 50.0167 121.803 49.8304C122.404 49.678 122.828 49.8812 123.073 50.4231Z" fill="#EED7C1"/>
<path fill-rule="evenodd" clip-rule="evenodd" d="M90.559 53.6406C91.2787 53.9539 91.9815 54.2926 92.6758 54.6567C91.6766 57.688 90.5759 60.677 89.3735 63.6322C88.5183 63.3019 87.697 62.904 86.918 62.4467C86.9688 62.2266 86.9772 62.0064 86.9603 61.7693C88.1373 59.0428 89.3396 56.3333 90.559 53.6406Z" fill="#2E3192"/>
<path fill-rule="evenodd" clip-rule="evenodd" d="M104.107 61.5153C103.81 61.5999 103.624 61.7947 103.556 62.108C102.574 63.2087 101.346 63.8607 99.8729 64.0555C99.4326 64.0978 99.0007 64.1571 98.5604 64.2248C98.3233 64.2248 98.1625 64.1147 98.0947 63.8861C98.1117 63.8353 98.1371 63.793 98.1794 63.7591C100.008 63.6406 101.651 63.014 103.09 61.8963C101.82 62.2435 100.525 62.4975 99.1955 62.6584C98.8822 62.7261 98.5689 62.7176 98.2641 62.616C98.3318 62.5059 98.4165 62.4043 98.5181 62.3197C100.406 61.9725 102.269 61.5237 104.107 60.9649C104.818 60.4992 104.776 60.1435 103.98 59.9065C102.278 60.5923 100.516 61.0411 98.6874 61.2612C98.5181 61.2358 98.3487 61.202 98.1794 61.1766C98.1963 61.1512 98.2048 61.1173 98.2217 61.0919C99.8051 60.6092 101.405 60.1435 103.006 59.6948C103.412 59.5 103.776 59.2629 104.107 58.975C103.954 59.3561 104.098 59.5254 104.53 59.4831C104.632 58.9412 104.835 58.4331 105.123 57.9589C105.529 57.7981 105.919 57.6203 106.308 57.4086C107.206 56.4772 108.137 55.5796 109.102 54.699C109.289 54.5974 109.483 54.5551 109.695 54.572C109.712 54.6905 109.695 54.8006 109.653 54.9107C107.993 56.3755 106.41 57.9251 104.911 59.5678C104.776 59.6948 104.776 59.8048 104.911 59.9065C104.97 60.1859 104.97 60.4738 104.911 60.7532C104.708 61.0834 104.437 61.3374 104.107 61.5153Z" fill="#EF6036"/>
<path fill-rule="evenodd" clip-rule="evenodd" d="M92.6758 54.6572C93.5395 54.9959 94.3185 55.4786 95.0044 56.0967C95.0467 56.4693 95.0382 56.8333 94.962 57.1974C94.6233 59.7377 93.9205 62.1678 92.8452 64.4794C92.7097 64.581 92.5657 64.6657 92.4218 64.7334C92.2525 64.7334 92.0831 64.7334 91.9138 64.7334C91.7105 64.6234 91.4819 64.5726 91.2364 64.5641C90.6013 64.2847 89.9832 63.9714 89.3735 63.6327C90.5759 60.6775 91.6767 57.6886 92.6758 54.6572Z" fill="#3E3E40"/>
<path fill-rule="evenodd" clip-rule="evenodd" d="M116.554 55.9268C116.858 58.8649 117.197 61.8031 117.57 64.7329C111.363 64.7329 105.148 64.7329 98.9414 64.7329C99.2632 64.5296 99.5765 64.301 99.8728 64.0555C101.346 63.8607 102.574 63.2087 103.556 62.108C103.624 61.7947 103.81 61.5999 104.107 61.5152C104.157 61.6592 104.242 61.7862 104.361 61.8963C104.708 61.9047 105.021 61.7947 105.292 61.5576C106.613 60.3721 107.917 59.1613 109.187 57.9166C109.864 57.3832 110.542 56.8412 111.219 56.3078C111.888 56.1554 112.565 56.0707 113.251 56.0538C114.352 55.986 115.453 55.9437 116.554 55.9268Z" fill="#2E3192"/>
<path fill-rule="evenodd" clip-rule="evenodd" d="M100.889 57.1122C100.39 57.6203 99.797 58.0013 99.1111 58.2553C98.095 58.6533 97.0535 58.9412 95.9782 59.1021C95.8427 59.3392 95.9104 59.4662 96.1898 59.4831C97.2991 59.3815 98.3575 59.0936 99.3651 58.6364C99.4413 58.6957 99.5429 58.7211 99.6615 58.7211C100.999 58.5517 102.337 58.484 103.683 58.5094C103.904 58.6025 104.039 58.7549 104.107 58.9751C103.777 59.263 103.413 59.5001 103.006 59.6948C101.406 60.1436 99.8054 60.6093 98.222 61.0919C98.2051 61.1173 98.1966 61.1512 98.1797 61.1766C98.349 61.202 98.5184 61.2359 98.6877 61.2613C100.517 61.0411 102.278 60.5924 103.98 59.9065C104.776 60.1436 104.818 60.4992 104.107 60.9649C102.269 61.5238 100.407 61.9725 98.5184 62.3197C98.4168 62.4044 98.3321 62.506 98.2644 62.6161C98.5692 62.7177 98.8825 62.7261 99.1958 62.6584C100.525 62.4975 101.821 62.2435 103.091 61.8963C101.651 63.014 100.009 63.6406 98.1797 63.7592C98.1373 63.793 98.1119 63.8354 98.095 63.8862C98.1627 64.1148 98.3236 64.2249 98.5607 64.2249C99.001 64.1571 99.4329 64.0979 99.8732 64.0555C99.5768 64.3011 99.2635 64.5297 98.9417 64.7329C98.4506 64.9954 97.9257 65.1647 97.3753 65.241C96.3931 65.1393 95.4193 65.0039 94.454 64.8176C94.3609 64.7414 94.2508 64.7075 94.1153 64.7329C93.7089 64.5974 93.2855 64.5128 92.8452 64.4789C93.9206 62.1673 94.6234 59.7371 94.9621 57.1969C96.5201 56.9006 98.0865 56.6804 99.6615 56.5195C99.9917 56.5195 100.322 56.5619 100.635 56.6465C100.813 56.7566 100.898 56.909 100.889 57.1122Z" fill="#EED7C1"/>
<path fill-rule="evenodd" clip-rule="evenodd" d="M100.889 57.1123C100.94 57.1292 100.965 57.1716 100.974 57.2393C100.813 57.6796 100.534 58.0183 100.127 58.2554C99.8815 58.4078 99.6275 58.5348 99.365 58.6364C98.3574 59.0937 97.299 59.3816 96.1898 59.4832C95.9103 59.4662 95.8426 59.3392 95.9781 59.1021C97.0534 58.9413 98.0949 58.6534 99.111 58.2554C99.7969 58.0014 100.39 57.6203 100.889 57.1123Z" fill="#EF6036"/>
<path fill-rule="evenodd" clip-rule="evenodd" d="M138.739 57.2822C138.739 59.7632 138.739 62.2526 138.739 64.7335C131.855 64.7335 124.962 64.7335 118.078 64.7335C118.078 62.2526 118.078 59.7632 118.078 57.2822C124.962 57.2822 131.855 57.2822 138.739 57.2822Z" fill="#2E3192"/>
<path fill-rule="evenodd" clip-rule="evenodd" d="M86.9179 62.4468C87.6969 62.9041 88.5182 63.302 89.3734 63.6323C89.9831 63.971 90.6012 64.2842 91.2363 64.5637C91.2363 64.6229 91.2363 64.6737 91.2363 64.733C87.4259 64.733 83.6156 64.733 79.8053 64.733C79.6105 62.3876 79.4242 60.0421 79.2549 57.7051C81.6258 59.5764 84.1744 61.1513 86.9179 62.4468Z" fill="#FEFEFE"/>
<path fill-rule="evenodd" clip-rule="evenodd" d="M121.804 58.0439C122.591 58.0439 123.387 58.0439 124.174 58.0439C124.454 60.0761 124.742 62.1083 125.021 64.1405C124.454 64.1405 123.895 64.1405 123.328 64.1405C123.328 63.7764 123.328 63.4038 123.328 63.0397C123.133 63.0397 122.93 63.0397 122.735 63.0397C122.701 63.4038 122.667 63.7764 122.65 64.1405C122.117 64.1405 121.575 64.1405 121.042 64.1405C121.228 62.0914 121.482 60.0592 121.804 58.0439Z" fill="#FAFAFC"/>
<path fill-rule="evenodd" clip-rule="evenodd" d="M127.646 60.3301C127.714 60.7535 127.765 60.7196 127.816 60.2455C127.909 59.5088 127.993 58.7806 128.07 58.0439C128.772 58.0439 129.484 58.0439 130.186 58.0439C130.186 60.0761 130.186 62.1083 130.186 64.1405C129.738 64.1405 129.28 64.1405 128.832 64.1405C128.849 62.7857 128.832 61.4309 128.789 60.0761C128.705 60.2624 128.662 60.4656 128.662 60.6688C128.518 61.8289 128.374 62.9804 128.239 64.1405C127.9 64.1405 127.562 64.1405 127.223 64.1405C127.054 63.1329 126.91 62.1168 126.8 61.0922C126.757 60.8382 126.715 60.5842 126.673 60.3301C126.63 61.6003 126.613 62.8704 126.63 64.1405C126.181 64.1405 125.724 64.1405 125.275 64.1405C125.275 62.1083 125.275 60.0761 125.275 58.0439C125.978 58.0439 126.689 58.0439 127.392 58.0439C127.485 58.806 127.57 59.5681 127.646 60.3301Z" fill="#FCFCFD"/>
<path fill-rule="evenodd" clip-rule="evenodd" d="M130.864 58.0439C131.372 58.0439 131.88 58.0439 132.388 58.0439C132.388 60.0761 132.388 62.1083 132.388 64.1405C131.88 64.1405 131.372 64.1405 130.864 64.1405C130.864 62.1083 130.864 60.0761 130.864 58.0439Z" fill="#FEFFFE"/>
<path fill-rule="evenodd" clip-rule="evenodd" d="M130.864 58.0443C131.38 57.9596 131.922 57.9342 132.473 57.9596C132.498 60.0341 132.473 62.0917 132.388 64.1408C132.388 62.1086 132.388 60.0764 132.388 58.0443C131.88 58.0443 131.372 58.0443 130.864 58.0443Z" fill="#A3A0CD"/>
<path fill-rule="evenodd" clip-rule="evenodd" d="M133.065 58.0439C133.573 58.0439 134.082 58.0439 134.59 58.0439C134.564 59.6697 134.59 61.2785 134.674 62.8704C134.988 62.8704 135.292 62.8704 135.606 62.8704C135.606 63.2937 135.606 63.7171 135.606 64.1405C134.759 64.1405 133.912 64.1405 133.065 64.1405C133.065 62.1083 133.065 60.0761 133.065 58.0439Z" fill="#FEFEFE"/>
<path fill-rule="evenodd" clip-rule="evenodd" d="M133.065 58.0443C133.582 57.9596 134.124 57.9342 134.674 57.9596C134.674 59.5938 134.674 61.2365 134.674 62.8707C134.59 61.2788 134.564 59.67 134.59 58.0443C134.082 58.0443 133.573 58.0443 133.065 58.0443Z" fill="#A29ECD"/>
<path fill-rule="evenodd" clip-rule="evenodd" d="M122.989 59.4834C123.065 60.2878 123.15 61.1091 123.243 61.9389C123.074 61.9389 122.904 61.9389 122.735 61.9389C122.794 61.1176 122.879 60.2963 122.989 59.4834Z" fill="#2E3192"/>
<path fill-rule="evenodd" clip-rule="evenodd" d="M128.831 64.1405C128.772 62.9805 128.721 61.8289 128.662 60.6689C128.662 60.4657 128.704 60.2625 128.789 60.0762C128.831 61.431 128.848 62.7857 128.831 64.1405Z" fill="#BFBDDB"/>
<path fill-rule="evenodd" clip-rule="evenodd" d="M127.815 60.2451C127.765 60.7193 127.714 60.7532 127.646 60.3298C127.705 60.3044 127.756 60.2705 127.815 60.2451Z" fill="#8C86C1"/>
<path fill-rule="evenodd" clip-rule="evenodd" d="M126.799 61.0921C126.74 62.1082 126.689 63.1243 126.63 64.1404C126.613 62.8703 126.63 61.6002 126.672 60.3301C126.715 60.5841 126.757 60.8381 126.799 61.0921Z" fill="#655DAC"/>
<path fill-rule="evenodd" clip-rule="evenodd" d="M138.738 57.2816C131.854 57.2816 124.962 57.2816 118.078 57.2816C118.078 59.7625 118.078 62.2519 118.078 64.7329C118.052 64.7329 118.019 64.7329 117.993 64.7329C117.993 62.2181 117.993 59.7117 117.993 57.1969C124.919 57.1715 131.837 57.1969 138.738 57.2816Z" fill="#9D94CB"/>
<path fill-rule="evenodd" clip-rule="evenodd" d="M92.8452 64.4795C93.2855 64.5134 93.7089 64.598 94.1154 64.7335C93.548 64.7335 92.9892 64.7335 92.4219 64.7335C92.5658 64.6658 92.7098 64.5811 92.8452 64.4795Z" fill="#3B2A97"/>
<path fill-rule="evenodd" clip-rule="evenodd" d="M91.2363 64.5635C91.4819 64.5719 91.7105 64.6227 91.9137 64.7328C91.6851 64.7328 91.4649 64.7328 91.2363 64.7328C91.2363 64.6736 91.2363 64.6227 91.2363 64.5635Z" fill="#392897"/>
<path fill-rule="evenodd" clip-rule="evenodd" d="M79.8051 64.7329C83.6154 64.7329 87.4258 64.7329 91.2361 64.7329C91.4647 64.7329 91.6849 64.7329 91.9135 64.7329C92.0828 64.7329 92.2522 64.7329 92.4215 64.7329C92.9888 64.7329 93.5477 64.7329 94.115 64.7329C94.2505 64.7075 94.3606 64.7414 94.4537 64.8176C89.5849 64.7922 84.7331 64.8176 79.8898 64.9023C79.822 64.8769 79.7882 64.8176 79.8051 64.7329Z" fill="#D48D79"/>
<path fill-rule="evenodd" clip-rule="evenodd" d="M98.9416 64.7334C105.148 64.7334 111.363 64.7334 117.57 64.7334C117.714 64.7334 117.849 64.7334 117.993 64.7334C127.324 64.8181 136.664 64.8435 146.02 64.8181C146.02 66.6555 146.02 68.4845 146.02 70.3219C144.767 70.2965 143.522 70.3219 142.295 70.4066C142.295 77.4345 142.295 84.4624 142.295 91.4904C141.338 91.4904 140.373 91.4904 139.416 91.4904C139.416 95.868 139.416 100.237 139.416 104.615C137.443 104.615 135.461 104.615 133.489 104.615C133.489 100.237 133.489 95.868 133.489 91.4904C128.467 91.4904 123.438 91.4904 118.417 91.4904C114.183 91.4904 109.949 91.4904 105.716 91.4904C104.979 91.4904 104.251 91.4904 103.514 91.4904C99.619 91.4904 95.724 91.4904 91.829 91.4904C87.9086 91.4904 83.9797 91.4904 80.0593 91.4904C80.0593 94.5979 80.0593 97.697 80.0593 100.805C79.9831 100.745 79.9577 100.661 79.9746 100.551C79.9238 100.28 79.8391 100.026 79.7206 99.7884C79.3988 98.4506 79.2041 97.0958 79.1279 95.7241C79.1533 95.3939 79.1279 95.089 79.0432 94.7927C78.9416 92.8452 78.8569 90.8977 78.7892 88.9502C78.8146 88.6538 78.7892 88.3659 78.7045 88.1034C78.6791 86.012 78.6537 83.929 78.6198 81.8375C78.6452 81.0077 78.6198 80.1864 78.5352 79.382C78.5352 78.222 78.5352 77.0704 78.5352 75.9104C78.6198 75.4362 78.6452 74.962 78.6198 74.4709C78.6198 73.5649 78.6198 72.6674 78.6198 71.7613C79.0601 71.7359 79.4835 71.6343 79.8899 71.465C80.1101 71.2956 80.271 71.0839 80.3556 70.8299C80.2117 68.857 80.0508 66.8841 79.8899 64.9027C84.7333 64.8181 89.5851 64.7927 94.4539 64.8181C95.4192 65.0044 96.3929 65.1398 97.3751 65.2414C97.9255 65.1652 98.4505 64.9959 98.9416 64.7334Z" fill="#EF6036"/>
<path fill-rule="evenodd" clip-rule="evenodd" d="M117.993 64.7334C118.019 64.7334 118.052 64.7334 118.078 64.7334C124.962 64.7334 131.854 64.7334 138.738 64.7334C141.194 64.7334 143.649 64.7334 146.105 64.7334C146.105 66.6216 146.105 68.5183 146.105 70.4066C144.835 70.4066 143.565 70.4066 142.295 70.4066C143.522 70.3219 144.767 70.2965 146.02 70.3219C146.02 68.4845 146.02 66.6555 146.02 64.8181C136.664 64.8435 127.324 64.8181 117.993 64.7334Z" fill="#D08067"/>
<path fill-rule="evenodd" clip-rule="evenodd" d="M58.4676 71.6768C59.145 71.753 59.8224 71.8122 60.4998 71.8461C60.449 72.8622 60.3897 73.8783 60.3304 74.8944C59.5938 74.8944 58.8656 74.8944 58.1289 74.8944C58.2305 73.819 58.3406 72.7437 58.4676 71.6768Z" fill="#2E3192"/>
<path fill-rule="evenodd" clip-rule="evenodd" d="M78.6199 71.7614C78.6199 72.6674 78.6199 73.565 78.6199 74.471C77.7477 74.5811 76.8925 74.725 76.0373 74.8944C76.0204 73.9037 76.0627 72.913 76.1643 71.9308C76.9772 71.9308 77.7816 71.8461 78.5775 71.6768C78.6114 71.6937 78.6283 71.7276 78.6199 71.7614Z" fill="#2E3192"/>
<path fill-rule="evenodd" clip-rule="evenodd" d="M60.4996 71.8457C60.8044 71.8965 61.1177 71.9219 61.431 71.9304C61.4141 72.9465 61.3633 73.9626 61.2616 74.9786C63.6325 75.148 66.0034 75.2919 68.3743 75.402C68.4335 74.3012 68.4928 73.2005 68.5436 72.0997C68.9416 72.0997 69.3311 72.0997 69.729 72.0997C69.6444 73.2005 69.5936 74.3012 69.5597 75.402C71.3125 75.3343 73.0652 75.2242 74.8095 75.0633C74.801 74.0388 74.8603 73.0227 74.9788 72.0151C75.3853 72.0405 75.7748 72.0066 76.1643 71.9304C76.0627 72.9126 76.0203 73.9033 76.0373 74.894C76.8925 74.7246 77.7477 74.5807 78.6198 74.4706C78.6452 74.9617 78.6198 75.4359 78.5351 75.9101C77.663 76.0201 76.7824 76.1387 75.9103 76.2488C75.8425 77.883 75.8086 79.5256 75.8256 81.1598C76.7316 80.999 77.6376 80.8296 78.5351 80.6518C78.5351 80.2284 78.5351 79.8051 78.5351 79.3817C78.6198 80.1861 78.6452 81.0074 78.6198 81.8372C77.7561 82.032 76.884 82.1844 75.9949 82.3029C75.9187 82.3368 75.8594 82.3961 75.8256 82.4723C75.9187 84.4029 75.978 86.3334 75.9949 88.2725C76.9009 88.2047 77.7985 88.1455 78.7045 88.1031C78.7892 88.3656 78.8146 88.6535 78.7892 88.9499C77.8916 89.1192 76.9856 89.2631 76.0796 89.3732C76.0711 91.3123 76.0711 93.2598 76.0796 95.2157C77.0703 95.1565 78.0525 95.1057 79.0432 95.0464C79.0432 94.9617 79.0432 94.877 79.0432 94.7924C79.1279 95.0887 79.1533 95.3935 79.1279 95.7238C78.1456 95.8593 77.155 95.9693 76.1643 96.0625C76.1473 97.4511 76.2066 98.8313 76.3336 100.211C77.4598 100.042 78.586 99.8982 79.7206 99.7881C79.8391 100.025 79.9238 100.279 79.9746 100.55C78.8061 100.83 77.6207 101.058 76.4183 101.228C76.486 101.71 76.486 102.193 76.4183 102.667C76.1812 102.752 75.9272 102.803 75.6562 102.836C75.5292 102.362 75.4445 101.888 75.4022 101.397C73.1837 101.659 70.9484 101.829 68.713 101.905C68.7722 102.523 68.823 103.15 68.8823 103.768C68.5436 103.81 68.2049 103.836 67.8662 103.852C67.7646 103.209 67.6799 102.557 67.6122 101.905C65.1482 101.897 62.6926 101.786 60.2456 101.566C60.2456 102.362 60.3048 103.15 60.4149 103.937C60.0762 103.937 59.7375 103.937 59.3988 103.937C59.3734 103.937 59.3395 103.937 59.3141 103.937C59.4158 103.099 59.3988 102.252 59.2718 101.397C58.4589 101.151 57.6207 100.982 56.7739 100.889C56.7993 100.55 56.8332 100.211 56.8586 99.8728C57.6715 99.949 58.4759 100.059 59.2718 100.211C59.3141 98.7974 59.3311 97.3919 59.3141 95.9778C58.5182 95.9355 57.7223 95.8508 56.9433 95.7238C56.9433 95.4443 56.9433 95.1565 56.9433 94.877C57.7561 94.9448 58.5775 94.9702 59.3988 94.9617C59.4073 93.209 59.4666 91.4647 59.5682 89.7119C58.7384 89.6611 57.9255 89.551 57.1126 89.3732C57.0872 89.0769 57.1126 88.789 57.1973 88.5265C58.0017 88.6112 58.823 88.6366 59.6528 88.6112C59.7206 86.7229 59.7799 84.8262 59.8222 82.938C59.1109 82.8703 58.4081 82.7602 57.7053 82.5993C57.6122 82.6162 57.5275 82.6416 57.4513 82.684C57.5191 82.3791 57.5529 82.0659 57.536 81.7526C58.3235 81.6848 59.1109 81.6848 59.9069 81.7526C60.0169 79.8897 60.1355 78.0269 60.2456 76.1641C59.5089 76.0709 58.7722 75.9524 58.044 75.8254C58.0271 75.5121 58.061 75.1988 58.1287 74.894C58.8654 74.894 59.5936 74.894 60.3302 74.894C60.3895 73.8779 60.4488 72.8618 60.4996 71.8457Z" fill="#6558AA"/>
<path fill-rule="evenodd" clip-rule="evenodd" d="M61.4311 71.9307C63.8019 72.0746 66.1728 72.1339 68.5437 72.1C68.4929 73.2008 68.4336 74.3015 68.3743 75.4023C66.0035 75.2922 63.6326 75.1483 61.2617 74.9789C61.3633 73.9628 61.4141 72.9468 61.4311 71.9307Z" fill="#2E3192"/>
<path fill-rule="evenodd" clip-rule="evenodd" d="M74.9787 72.0148C74.8602 73.0224 74.8009 74.0385 74.8094 75.063C73.0651 75.2239 71.3123 75.334 69.5596 75.4017C69.5934 74.301 69.6442 73.2002 69.7289 72.0995C71.4817 72.0232 73.226 71.9978 74.9787 72.0148Z" fill="#2E3192"/>
<path fill-rule="evenodd" clip-rule="evenodd" d="M58.0442 75.8252C58.7724 75.9522 59.509 76.0707 60.2457 76.1639C60.1356 78.0267 60.0171 79.8895 59.907 81.7524C59.1111 81.6846 58.3236 81.6846 57.5361 81.7524C57.6716 79.771 57.841 77.7981 58.0442 75.8252Z" fill="#2E3192"/>
<path fill-rule="evenodd" clip-rule="evenodd" d="M78.5352 75.9102C78.5352 77.0702 78.5352 78.2218 78.5352 79.3818C78.5352 79.8052 78.5352 80.2285 78.5352 80.6519C77.6376 80.8297 76.7316 80.9991 75.8256 81.1599C75.8087 79.5257 75.8425 77.8831 75.9103 76.2489C76.7824 76.1388 77.663 76.0202 78.5352 75.9102Z" fill="#2E3192"/>
<path fill-rule="evenodd" clip-rule="evenodd" d="M61.1769 76.249C63.5393 76.5115 65.9102 76.6555 68.2895 76.6724C68.1879 78.4251 68.1032 80.1694 68.0355 81.9222C65.6646 81.9899 63.2937 81.9645 60.9229 81.8375C61.0329 79.9747 61.1176 78.1119 61.1769 76.249Z" fill="#2E3192"/>
<path fill-rule="evenodd" clip-rule="evenodd" d="M74.6402 76.334C74.7503 76.6642 74.8096 77.0368 74.8096 77.4347C74.7503 78.7641 74.691 80.085 74.6402 81.4144C72.7859 81.643 70.9231 81.8124 69.0518 81.9225C69.1703 80.1697 69.3058 78.417 69.4751 76.6727C71.2109 76.6049 72.9383 76.4949 74.6402 76.334Z" fill="#2E3192"/>
<path fill-rule="evenodd" clip-rule="evenodd" d="M78.6199 81.8379C78.6538 83.9293 78.6792 86.0123 78.7046 88.1038C77.7986 88.1461 76.901 88.2054 75.995 88.2731C75.9781 86.3341 75.9188 84.4035 75.8257 82.4729C75.8596 82.3967 75.9188 82.3375 75.995 82.3036C76.8841 82.1851 77.7563 82.0326 78.6199 81.8379Z" fill="#2E3192"/>
<path fill-rule="evenodd" clip-rule="evenodd" d="M74.0476 82.5146C74.2424 82.5146 74.4456 82.5146 74.6404 82.5146C74.5557 84.4622 74.5557 86.4097 74.6404 88.3572C72.6929 88.5011 70.7454 88.6112 68.7979 88.6959C68.8571 86.833 68.9418 84.9702 69.0519 83.1074C70.7284 82.9211 72.3965 82.7263 74.0476 82.5146Z" fill="#2E3192"/>
<path fill-rule="evenodd" clip-rule="evenodd" d="M57.1973 88.5268C57.2565 86.5793 57.3412 84.6318 57.4513 82.6843C57.5275 82.6419 57.6122 82.6165 57.7053 82.5996C58.4081 82.7605 59.1109 82.8706 59.8222 82.9383C59.7798 84.8265 59.7206 86.7232 59.6528 88.6115C58.823 88.6369 58.0017 88.6115 57.1973 88.5268Z" fill="#2E3192"/>
<path fill-rule="evenodd" clip-rule="evenodd" d="M60.8385 83.0225C63.2094 83.0902 65.5802 83.1241 67.9511 83.1071C67.9003 84.97 67.841 86.8328 67.7818 88.6956C65.3855 88.7972 62.9892 88.7972 60.5845 88.6956C60.7115 86.8074 60.7962 84.9192 60.8385 83.0225Z" fill="#2E3192"/>
<path fill-rule="evenodd" clip-rule="evenodd" d="M78.7892 88.9502C78.8569 90.8977 78.9416 92.8452 79.0432 94.7927C79.0432 94.8774 79.0432 94.962 79.0432 95.0467C78.0525 95.106 77.0703 95.1568 76.0796 95.2161C76.0711 93.2601 76.0711 91.3126 76.0796 89.3736C76.9856 89.2635 77.8916 89.1195 78.7892 88.9502Z" fill="#2E3192"/>
<path fill-rule="evenodd" clip-rule="evenodd" d="M57.1127 89.373C57.9256 89.5509 58.7384 89.6609 59.5683 89.7117C59.4666 91.4645 59.4074 93.2088 59.3989 94.9615C58.5776 94.97 57.7562 94.9446 56.9434 94.8769C56.9857 93.0394 57.045 91.2105 57.1127 89.373Z" fill="#2E3192"/>
<path fill-rule="evenodd" clip-rule="evenodd" d="M74.0474 89.458C74.2421 89.458 74.4453 89.458 74.6401 89.458C74.7501 91.3716 74.8348 93.2937 74.8941 95.2158C72.8365 95.292 70.7705 95.3259 68.7129 95.3005C68.7129 93.4631 68.7383 91.6341 68.7976 89.7967C70.5588 89.6358 72.3115 89.5257 74.0474 89.458Z" fill="#2E3192"/>
<path fill-rule="evenodd" clip-rule="evenodd" d="M60.5841 89.8818C62.9804 89.8818 65.3851 89.8818 67.7814 89.8818C67.6967 91.6854 67.6459 93.4974 67.612 95.301C65.1819 95.2332 62.7602 95.1486 60.3301 95.047C60.3978 93.3196 60.4825 91.6007 60.5841 89.8818Z" fill="#2E3192"/>
<path fill-rule="evenodd" clip-rule="evenodd" d="M91.8291 91.5749C91.8291 91.5495 91.8291 91.5156 91.8291 91.4902C95.7241 91.4902 99.6191 91.4902 103.514 91.4902C103.514 91.5495 103.514 91.6003 103.514 91.6596C99.6276 91.5749 95.7326 91.5495 91.8291 91.5749Z" fill="#644A42"/>
<path fill-rule="evenodd" clip-rule="evenodd" d="M91.8289 91.5748C95.7323 91.5494 99.6273 91.5748 103.514 91.6595C103.582 93.1074 103.666 94.5299 103.768 95.9355C103.709 96.1049 103.599 96.215 103.429 96.2742C103.04 96.3843 102.642 96.452 102.244 96.4859C100.508 96.7653 98.7552 96.8839 96.994 96.8246C95.6138 96.1388 94.1743 95.9694 92.6756 96.3166C92.2692 96.2488 91.9135 96.0795 91.6172 95.8085C91.6849 94.3945 91.7527 92.9889 91.8289 91.5748Z" fill="#3E3E40"/>
<path fill-rule="evenodd" clip-rule="evenodd" d="M105.715 91.4902C109.949 91.4902 114.183 91.4902 118.416 91.4902C118.594 92.3285 118.764 93.1752 118.924 94.0305C118.848 94.403 118.654 94.6994 118.332 94.9195C117.519 95.4022 116.664 95.7578 115.749 95.978C115.665 96.0034 115.622 96.0626 115.622 96.1473C115.216 96.1219 114.818 96.1812 114.437 96.3167C114.386 96.2658 114.318 96.232 114.225 96.232C111.913 96.5029 109.61 96.4521 107.324 96.0626C107.138 96.1388 106.935 96.1642 106.731 96.1473C106.503 96.1134 106.317 95.9949 106.181 95.8086C105.935 94.3776 105.775 92.9382 105.715 91.4902Z" fill="#3F3E40"/>
<path fill-rule="evenodd" clip-rule="evenodd" d="M79.128 95.7236C79.2043 97.0954 79.399 98.4501 79.7208 99.788C78.5861 99.8981 77.46 100.042 76.3338 100.211C76.2068 98.8312 76.1475 97.451 76.1645 96.0623C77.1551 95.9692 78.1458 95.8591 79.128 95.7236Z" fill="#2E3192"/>
<path fill-rule="evenodd" clip-rule="evenodd" d="M56.9431 95.7236C57.7221 95.8506 58.518 95.9353 59.3139 95.9777C59.3309 97.3917 59.3139 98.7973 59.2716 100.211C58.4757 100.059 57.6713 99.9489 56.8584 99.8727C56.9346 98.4925 56.96 97.1038 56.9431 95.7236Z" fill="#2E3192"/>
<path fill-rule="evenodd" clip-rule="evenodd" d="M60.3301 96.0625C62.7518 96.181 65.1819 96.2318 67.6121 96.2318C67.502 97.756 67.502 99.2801 67.6121 100.804C65.1735 100.745 62.7518 100.576 60.3301 100.296C60.237 98.8821 60.237 97.4766 60.3301 96.0625Z" fill="#2E3192"/>
<path fill-rule="evenodd" clip-rule="evenodd" d="M114.437 96.3165C113.396 96.5621 112.532 97.0955 111.855 97.9253C111.736 98.1455 111.694 98.3572 111.728 98.5604C111.998 98.5519 112.252 98.4672 112.49 98.3064C114.556 96.5621 116.613 96.5621 118.671 98.3064C118.823 98.391 118.976 98.4588 119.136 98.518C119.204 98.5096 119.247 98.4842 119.263 98.4334C120.136 99.5003 120.407 100.711 120.068 102.074C119.297 104.25 117.748 105.3 115.411 105.207C113.81 105.334 112.456 104.826 111.346 103.683C110.949 103.057 110.483 102.481 109.949 101.947C109.34 101.727 108.747 101.473 108.171 101.185C107.46 100.576 107.053 99.7966 106.943 98.8567C106.774 97.9592 106.706 97.0617 106.732 96.1472C106.935 96.1641 107.138 96.1387 107.324 96.0625C109.611 96.452 111.914 96.5028 114.225 96.2318C114.319 96.2318 114.386 96.2657 114.437 96.3165Z" fill="#2E3192"/>
<path fill-rule="evenodd" clip-rule="evenodd" d="M68.7129 96.1475C70.8043 96.2067 72.8873 96.2067 74.9788 96.1475C75.0973 97.6039 75.182 99.0433 75.2328 100.466C73.0651 100.661 70.889 100.779 68.7129 100.805C68.7129 99.255 68.7129 97.697 68.7129 96.1475Z" fill="#2E3192"/>
<path fill-rule="evenodd" clip-rule="evenodd" d="M96.9943 96.8247C97.6293 97.1633 98.1797 97.6121 98.6454 98.1794C98.8402 98.3996 98.891 98.6536 98.8148 98.9415C98.6623 99.0516 98.5015 99.0516 98.3491 98.9415C97.4515 97.773 96.2661 97.0533 94.7927 96.7823C94.0053 96.6384 93.2178 96.5706 92.4219 96.5706C92.4896 96.469 92.5743 96.3843 92.6759 96.3166C94.1746 95.9694 95.6141 96.1388 96.9943 96.8247Z" fill="#EF6036"/>
<path fill-rule="evenodd" clip-rule="evenodd" d="M115.622 96.1473C116.249 96.1558 116.841 96.3082 117.4 96.6131C117.883 96.9094 118.332 97.2481 118.755 97.6291C118.984 97.8662 119.153 98.1372 119.263 98.4335C119.246 98.4843 119.204 98.5098 119.136 98.5182C118.975 98.4589 118.823 98.3912 118.67 98.3065C116.613 96.5622 114.555 96.5622 112.489 98.3065C112.252 98.4674 111.998 98.5521 111.727 98.5606C111.693 98.3573 111.736 98.1457 111.854 97.9255C112.532 97.0957 113.395 96.5622 114.437 96.3167C114.818 96.1812 115.216 96.1219 115.622 96.1473Z" fill="#EF6036"/>
<path fill-rule="evenodd" clip-rule="evenodd" d="M102.244 96.4863C102.337 97.5617 102.328 98.637 102.201 99.7039C101.914 100.754 101.253 101.44 100.212 101.778C99.4495 102.795 98.5435 103.675 97.502 104.403C96.0541 105.259 94.53 105.453 92.9296 104.996C91.6934 104.471 90.9228 103.548 90.6011 102.244C90.2709 100.398 90.6349 98.7048 91.7018 97.1637C91.9051 96.9182 92.1506 96.7149 92.4216 96.571C93.2175 96.571 94.005 96.6387 94.7924 96.7827C96.2658 97.0536 97.4512 97.7734 98.3488 98.9419C98.5012 99.052 98.662 99.052 98.8145 98.9419C98.8907 98.654 98.8399 98.4 98.6451 98.1798C98.1794 97.6125 97.629 97.1637 96.994 96.825C98.7552 96.8843 100.508 96.7658 102.244 96.4863Z" fill="#2E3192"/>
<path fill-rule="evenodd" clip-rule="evenodd" d="M79.9748 100.551C79.9578 100.661 79.9832 100.746 80.0594 100.805C80.0594 100.864 80.0594 100.915 80.0594 100.974C80.1526 101.304 80.1526 101.626 80.0594 101.948C78.8571 102.236 77.6378 102.473 76.4185 102.668C76.4862 102.193 76.4862 101.711 76.4185 101.228C77.6208 101.059 78.8063 100.83 79.9748 100.551Z" fill="#2E3192"/>
<path fill-rule="evenodd" clip-rule="evenodd" d="M56.7737 100.889C57.6205 100.982 58.4587 101.151 59.2716 101.397C59.3986 102.252 59.4156 103.099 59.3139 103.937C58.6874 103.742 58.0354 103.641 57.3664 103.641C57.214 103.573 57.087 103.48 56.9854 103.344C56.8161 102.54 56.7483 101.718 56.7737 100.889Z" fill="#2E3192"/>
<path fill-rule="evenodd" clip-rule="evenodd" d="M80.0592 100.974C82.6333 100.889 83.9881 102.134 84.1236 104.699C84.1151 106.799 83.2683 108.45 81.5833 109.653C80.3471 110.339 79.0516 110.508 77.6883 110.161C76.6722 109.865 75.69 109.492 74.7247 109.06C74.3776 108.975 74.0219 108.908 73.6663 108.848C72.9635 108.992 72.2607 109.111 71.5495 109.187C70.3894 109.111 69.7205 108.493 69.5596 107.324C68.1117 107.79 66.6468 107.866 65.1566 107.536C64.5723 107.35 63.9796 107.18 63.3784 107.028C62.701 107.019 62.0236 107.062 61.3462 107.155C60.7451 107.214 60.2201 107.045 59.7798 106.647C59.6697 106.461 59.585 106.257 59.5258 106.054C59.4157 105.351 59.3733 104.649 59.3987 103.937C59.7374 103.937 60.0761 103.937 60.4148 103.937C62.8873 104.047 65.3683 104.022 67.8661 103.853C68.2048 103.836 68.5435 103.81 68.8822 103.768C71.16 103.565 73.4123 103.26 75.6562 102.837C75.9271 102.803 76.1811 102.752 76.4182 102.667C77.6375 102.481 78.8568 102.235 80.0592 101.948C80.1523 101.626 80.1523 101.304 80.0592 100.974Z" fill="#3E3E40"/>
<path fill-rule="evenodd" clip-rule="evenodd" d="M75.6562 102.837C73.4123 103.26 71.16 103.565 68.8822 103.768C68.823 103.15 68.7722 102.524 68.7129 101.906C70.9483 101.829 73.1837 101.66 75.4021 101.397C75.4445 101.889 75.5291 102.363 75.6562 102.837Z" fill="#2E3192"/>
<path fill-rule="evenodd" clip-rule="evenodd" d="M67.8663 103.853C65.3684 104.022 62.8874 104.047 60.415 103.937C60.3049 103.15 60.2456 102.362 60.2456 101.566C62.6927 101.787 65.1482 101.897 67.6122 101.905C67.68 102.557 67.7647 103.209 67.8663 103.853Z" fill="#2E3192"/>
<path opacity="0.996" fill-rule="evenodd" clip-rule="evenodd" d="M108.129 38.6367C108.273 38.6367 108.4 38.6875 108.501 38.7976C108.721 39.094 108.95 39.3903 109.17 39.6867C109.39 39.3988 109.602 39.1109 109.822 38.823C109.924 38.7045 110.051 38.6452 110.203 38.6367C110.559 38.6367 110.906 38.6367 111.262 38.6367C111.355 38.6367 111.448 38.6537 111.533 38.7045C111.448 38.7045 111.372 38.7129 111.287 38.7299C111.211 38.7468 111.143 38.7891 111.084 38.8399C111.033 38.8823 110.991 38.9246 110.948 38.9754C110.872 39.0601 110.804 39.1448 110.737 39.2294C110.601 39.4242 110.457 39.6105 110.313 39.8052C110.093 40.0931 109.873 40.381 109.653 40.6689C109.653 40.9483 109.653 41.2277 109.653 41.5156C109.627 41.7104 109.517 41.8459 109.331 41.9221C109.306 41.9305 109.272 41.939 109.246 41.9475C109.06 41.9559 108.874 41.9559 108.688 41.9559C108.688 41.5326 108.688 41.1007 108.688 40.6774C108.374 40.2625 108.052 39.8391 107.739 39.4242C107.646 39.2718 107.629 39.1194 107.688 38.95C107.782 38.7468 107.925 38.6537 108.129 38.6367Z" fill="#FEFFFE"/>
<path opacity="0.997" fill-rule="evenodd" clip-rule="evenodd" d="M113.514 38.6367C113.683 38.6367 113.844 38.6367 114.014 38.6367C114.014 39.602 114.014 40.5588 114.014 41.5241C113.98 41.7104 113.878 41.8459 113.709 41.9136C113.497 41.9813 113.311 41.939 113.158 41.7781C113.091 41.7019 113.057 41.6088 113.048 41.5072C113.048 41.0669 113.048 40.6266 113.048 40.1778C112.837 40.4318 112.616 40.6774 112.405 40.9314C112.193 40.6858 111.973 40.4318 111.761 40.1863C111.761 40.652 111.761 41.1177 111.761 41.5749C111.744 41.7781 111.643 41.8967 111.439 41.939C111.414 41.9475 111.389 41.9475 111.363 41.9475C111.177 41.9475 110.982 41.9475 110.796 41.9475C110.796 41.0669 110.796 40.1947 110.796 39.3141C110.898 39.1786 110.999 39.0601 111.118 38.9415C111.168 38.8992 111.219 38.8569 111.279 38.8315C111.329 38.8145 111.389 38.7976 111.448 38.7976C111.524 38.7976 111.609 38.7976 111.685 38.7976C111.931 39.0855 112.168 39.3734 112.413 39.6613C112.65 39.3734 112.896 39.0855 113.141 38.7976C113.235 38.6875 113.37 38.6367 113.514 38.6367Z" fill="#FEFFFE"/>
<path opacity="0.955" fill-rule="evenodd" clip-rule="evenodd" d="M109.348 42.1934C109.399 42.1934 109.424 42.2188 109.433 42.2696C109.424 42.3204 109.399 42.3458 109.357 42.3458C109.297 42.3373 109.272 42.295 109.289 42.2357C109.297 42.2188 109.314 42.2018 109.348 42.1934Z" fill="#FEFFFE"/>
<path opacity="0.957" fill-rule="evenodd" clip-rule="evenodd" d="M113.285 42.1934C113.344 42.2018 113.37 42.2357 113.361 42.295C113.344 42.3458 113.302 42.3627 113.251 42.3458C113.209 42.3204 113.201 42.2865 113.209 42.2442C113.226 42.2188 113.251 42.2018 113.285 42.1934Z" fill="#FEFFFE"/>
<path opacity="0.959" fill-rule="evenodd" clip-rule="evenodd" d="M113.937 42.1934C113.997 42.2018 114.031 42.2357 114.014 42.3034C113.988 42.3458 113.954 42.3627 113.912 42.3458C113.87 42.3288 113.861 42.295 113.87 42.2526C113.87 42.2188 113.895 42.2018 113.937 42.1934Z" fill="#FEFFFE"/>
<path opacity="0.972" fill-rule="evenodd" clip-rule="evenodd" d="M107.654 42.2271C107.705 42.2186 107.747 42.2186 107.798 42.2271C107.849 42.3456 107.9 42.4641 107.959 42.5742C108.01 42.4557 108.069 42.3371 108.12 42.2271C108.162 42.2186 108.213 42.2186 108.255 42.2271C108.179 42.3879 108.103 42.5488 108.027 42.7097C108.027 42.8113 108.027 42.9129 108.027 43.0145C107.985 43.0145 107.942 43.0145 107.9 43.0145C107.9 42.9129 107.9 42.8113 107.9 42.7097C107.815 42.5488 107.731 42.3879 107.654 42.2271Z" fill="#FEFFFE"/>
<path opacity="0.968" fill-rule="evenodd" clip-rule="evenodd" d="M110.72 42.2272C110.762 42.2272 110.804 42.2272 110.847 42.2272C110.914 42.3881 110.974 42.5405 111.041 42.7014C111.109 42.5405 111.168 42.3796 111.236 42.2188C111.279 42.2188 111.321 42.2188 111.363 42.2188C111.363 42.4812 111.363 42.7437 111.363 43.0062C111.321 43.0062 111.287 43.0062 111.245 43.0062C111.245 42.8284 111.245 42.6421 111.245 42.4643C111.185 42.5998 111.135 42.7437 111.075 42.8792C111.058 42.8792 111.033 42.8792 111.016 42.8792C110.965 42.7437 110.906 42.6083 110.855 42.4728C110.855 42.6506 110.855 42.8284 110.855 43.0062C110.813 43.0062 110.779 43.0062 110.737 43.0062C110.72 42.7522 110.72 42.4897 110.72 42.2272Z" fill="#FEFFFE"/>
<path opacity="0.968" fill-rule="evenodd" clip-rule="evenodd" d="M112.972 42.2266C113.014 42.2266 113.048 42.2266 113.09 42.2266C113.09 42.4891 113.09 42.7515 113.09 43.014C113.057 43.014 113.023 43.014 112.98 43.014C112.98 42.9971 112.98 42.9717 112.972 42.9548C112.921 43.014 112.853 43.0394 112.777 43.0225C112.675 43.0056 112.625 42.9463 112.616 42.8447C112.616 42.7685 112.616 42.6923 112.616 42.6161C112.633 42.4806 112.709 42.4213 112.845 42.4298C112.887 42.4382 112.93 42.4552 112.955 42.489C112.972 42.3959 112.972 42.3112 112.972 42.2266ZM112.845 42.5314C112.921 42.5314 112.963 42.5653 112.972 42.6415C112.972 42.7092 112.972 42.7769 112.972 42.8447C112.946 42.9124 112.904 42.9378 112.836 42.9294C112.794 42.9124 112.76 42.887 112.752 42.8362C112.752 42.76 112.752 42.6923 112.752 42.6161C112.769 42.5653 112.794 42.5399 112.845 42.5314Z" fill="#FEFFFE"/>
<path opacity="0.973" fill-rule="evenodd" clip-rule="evenodd" d="M108.916 42.2949C108.959 42.2949 108.992 42.2949 109.035 42.2949C109.035 42.3457 109.035 42.3881 109.035 42.4389C109.086 42.4389 109.145 42.4389 109.196 42.4389C109.196 42.4727 109.196 42.4981 109.196 42.532C109.145 42.532 109.086 42.532 109.035 42.532C109.035 42.6506 109.035 42.7691 109.043 42.8792C109.052 42.8961 109.069 42.913 109.086 42.9215C109.119 42.9215 109.153 42.9215 109.179 42.913C109.187 42.9469 109.187 42.9723 109.196 43.0062V43.0147C109.136 43.0316 109.077 43.0316 109.018 43.0231C108.967 43.0062 108.933 42.9723 108.925 42.913C108.925 42.786 108.925 42.659 108.925 42.532C108.891 42.532 108.865 42.532 108.832 42.532C108.832 42.4981 108.832 42.4727 108.832 42.4389C108.865 42.4389 108.891 42.4389 108.925 42.4389C108.916 42.3881 108.916 42.3373 108.916 42.2949Z" fill="#FEFFFE"/>
<path opacity="0.973" fill-rule="evenodd" clip-rule="evenodd" d="M108.476 42.4221C108.535 42.4137 108.594 42.4306 108.645 42.456C108.704 42.4899 108.738 42.5491 108.738 42.6169C108.738 42.7524 108.738 42.8878 108.738 43.0148C108.704 43.0148 108.679 43.0148 108.645 43.0148C108.645 42.9979 108.637 42.981 108.637 42.9725C108.594 43.0148 108.543 43.0318 108.484 43.0318C108.399 43.0402 108.332 42.9979 108.298 42.9217C108.264 42.7862 108.315 42.71 108.442 42.6761C108.484 42.6677 108.526 42.6761 108.577 42.6846C108.594 42.6931 108.611 42.7015 108.628 42.7185C108.637 42.5745 108.569 42.5153 108.425 42.5491C108.399 42.5576 108.374 42.5661 108.357 42.5745C108.34 42.5407 108.332 42.5153 108.323 42.4814C108.34 42.4729 108.349 42.4645 108.366 42.456C108.408 42.4391 108.442 42.4306 108.476 42.4221ZM108.493 42.7524C108.552 42.7439 108.594 42.7608 108.628 42.8032C108.653 42.8794 108.62 42.9217 108.543 42.9386C108.493 42.9471 108.45 42.9302 108.425 42.8963C108.399 42.8201 108.416 42.7778 108.493 42.7524Z" fill="#FEFFFE"/>
<path opacity="0.978" fill-rule="evenodd" clip-rule="evenodd" d="M109.789 42.422C109.856 42.4135 109.907 42.4305 109.949 42.4813C109.958 42.4982 109.966 42.5067 109.975 42.5236C110.017 42.4474 110.076 42.4135 110.17 42.4305C110.237 42.4389 110.28 42.4728 110.305 42.5321C110.314 42.549 110.314 42.5744 110.322 42.5913C110.322 42.7353 110.322 42.8708 110.322 43.0147C110.28 43.0147 110.246 43.0147 110.203 43.0147C110.203 42.8792 110.203 42.7438 110.195 42.6168C110.178 42.5405 110.127 42.5236 110.059 42.5405C110.026 42.5575 110.009 42.5744 110 42.6083C109.992 42.7438 109.992 42.8792 109.992 43.0147C109.949 43.0147 109.916 43.0147 109.873 43.0147C109.873 42.8792 109.873 42.7438 109.865 42.6083C109.848 42.5405 109.805 42.5151 109.738 42.5321C109.704 42.549 109.678 42.5744 109.67 42.6083C109.662 42.7438 109.662 42.8792 109.662 43.0147C109.619 43.0147 109.585 43.0147 109.543 43.0147C109.543 42.82 109.543 42.6252 109.543 42.4305C109.577 42.4305 109.611 42.4305 109.645 42.4305C109.645 42.4559 109.653 42.4728 109.653 42.4982C109.687 42.4559 109.729 42.4305 109.789 42.422Z" fill="#FEFFFE"/>
<path opacity="0.97" fill-rule="evenodd" clip-rule="evenodd" d="M111.659 42.4221C111.727 42.4136 111.795 42.4305 111.854 42.4644C111.897 42.5068 111.922 42.5491 111.93 42.6084C111.93 42.7438 111.93 42.8793 111.93 43.0063C111.897 43.0063 111.871 43.0063 111.837 43.0063C111.837 42.9894 111.829 42.9725 111.829 42.964C111.786 43.0063 111.736 43.0233 111.676 43.0233C111.558 43.0233 111.49 42.964 111.473 42.8454C111.482 42.7438 111.532 42.6846 111.634 42.6676C111.702 42.6592 111.761 42.6676 111.812 42.71C111.812 42.6761 111.812 42.6422 111.803 42.5999C111.778 42.5491 111.736 42.5237 111.676 42.5237C111.626 42.5237 111.583 42.5406 111.541 42.5576C111.532 42.5322 111.515 42.4983 111.507 42.4729C111.507 42.4644 111.507 42.4644 111.507 42.4559C111.524 42.4475 111.541 42.439 111.558 42.4305C111.6 42.4305 111.626 42.4305 111.659 42.4221ZM111.668 42.7523C111.719 42.7438 111.761 42.7608 111.795 42.7946C111.829 42.8624 111.812 42.9047 111.736 42.9386C111.693 42.9471 111.659 42.9471 111.626 42.9217C111.583 42.8878 111.575 42.8539 111.592 42.8031C111.617 42.7777 111.642 42.7608 111.668 42.7523Z" fill="#FEFFFE"/>
<path opacity="0.976" fill-rule="evenodd" clip-rule="evenodd" d="M112.295 42.4212C112.388 42.4127 112.447 42.4466 112.49 42.5228C112.498 42.5482 112.507 42.5736 112.507 42.599C112.507 42.7345 112.507 42.87 112.507 43.0054C112.464 43.0054 112.43 43.0054 112.388 43.0054C112.388 42.87 112.388 42.7345 112.38 42.599C112.363 42.5313 112.312 42.5059 112.244 42.5228C112.21 42.5397 112.185 42.5651 112.176 42.6075C112.168 42.743 112.168 42.87 112.168 43.0054C112.126 43.0054 112.092 43.0054 112.049 43.0054C112.049 42.8107 112.049 42.6159 112.049 42.4212C112.083 42.4212 112.117 42.4212 112.151 42.4212C112.151 42.4466 112.159 42.4635 112.159 42.4889C112.202 42.4551 112.244 42.4297 112.295 42.4212Z" fill="#FEFFFE"/>
<path opacity="0.978" fill-rule="evenodd" clip-rule="evenodd" d="M113.76 42.4219C113.768 42.4219 113.785 42.4219 113.794 42.4219C113.794 42.4642 113.794 42.4981 113.794 42.5404C113.76 42.5404 113.717 42.5404 113.684 42.5574C113.633 42.5912 113.607 42.6336 113.607 42.6928C113.607 42.8029 113.607 42.913 113.607 43.0146C113.565 43.0146 113.531 43.0146 113.489 43.0146C113.489 42.8198 113.489 42.6251 113.489 42.4303C113.523 42.4303 113.557 42.4303 113.599 42.4303C113.599 42.4642 113.599 42.4896 113.607 42.5235C113.633 42.4642 113.684 42.4303 113.76 42.4219Z" fill="#FEFFFE"/>
<path opacity="0.988" fill-rule="evenodd" clip-rule="evenodd" d="M109.297 42.4297C109.34 42.4297 109.374 42.4297 109.416 42.4297C109.416 42.6244 109.416 42.8192 109.416 43.0139C109.374 43.0139 109.34 43.0139 109.297 43.0139C109.297 42.8192 109.297 42.6244 109.297 42.4297Z" fill="#FEFFFE"/>
<path opacity="0.98" fill-rule="evenodd" clip-rule="evenodd" d="M113.226 42.4297C113.268 42.4297 113.302 42.4297 113.345 42.4297C113.345 42.6244 113.345 42.8192 113.345 43.0139C113.302 43.0139 113.268 43.0139 113.226 43.0139C113.226 42.8192 113.226 42.6244 113.226 42.4297Z" fill="#FEFFFE"/>
<path opacity="0.98" fill-rule="evenodd" clip-rule="evenodd" d="M113.878 42.4297C113.92 42.4297 113.954 42.4297 113.996 42.4297C113.996 42.6244 113.996 42.8192 113.996 43.0139C113.954 43.0139 113.92 43.0139 113.878 43.0139C113.878 42.8192 113.878 42.6244 113.878 42.4297Z" fill="#FEFFFE"/>
</svg>
