<svg width="32" height="32" viewBox="0 0 32 32" fill="none" xmlns="http://www.w3.org/2000/svg">
<rect width="32" height="32" rx="16" fill="white"/>
<path d="M18.6006 17.5483C18.6007 17.3434 18.6821 17.1469 18.827 17.002C18.9719 16.8571 19.1684 16.7756 19.3734 16.7756H20.0624C20.2673 16.7757 20.4637 16.8571 20.6085 17.002C20.7533 17.1469 20.8347 17.3434 20.8346 17.5483V18.0892H20.8412C20.8411 17.9877 20.861 17.8872 20.8998 17.7935C20.9386 17.6997 20.9954 17.6146 21.0671 17.5428C21.1389 17.471 21.224 17.4141 21.3177 17.3753C21.4115 17.3364 21.5119 17.3164 21.6134 17.3164H22.2959C22.3973 17.3164 22.4978 17.3364 22.5916 17.3752C22.6853 17.414 22.7705 17.471 22.8423 17.5427C22.9141 17.6145 22.971 17.6997 23.0098 17.7934C23.0486 17.8872 23.0686 17.9877 23.0686 18.0892V19.5012C23.0686 18.9948 23.4027 18.5999 23.9102 18.5999C24.0229 18.5999 24.1607 18.6005 24.2728 18.6005C24.3926 18.5991 24.5114 18.6215 24.6225 18.6662C24.7336 18.711 24.8348 18.7773 24.9201 18.8613C25.0055 18.9454 25.0733 19.0454 25.1198 19.1558C25.1663 19.2662 25.1905 19.3847 25.191 19.5045C25.197 21.6849 25.1937 20.5895 25.1905 23.6487C25.19 24.4397 24.8758 25.1982 24.3169 25.758C23.758 26.3177 22.9999 26.633 22.2089 26.6346H18.6761C18.1446 26.6334 17.6231 26.4903 17.1653 26.2203C16.7075 25.9503 16.3301 25.563 16.0719 25.0985L12.9219 19.4432L13.2505 19.1906C13.5787 18.9103 14.004 18.7706 14.4343 18.8016C14.8647 18.8326 15.2656 19.0319 15.5502 19.3563L16.4317 20.3674C16.4306 18.5141 16.4301 16.0783 16.4312 14.2938C16.4317 13.8011 16.4323 13.3587 16.4334 12.9912C16.435 12.4848 16.8457 12.1118 17.3521 12.1118H17.6906C18.1976 12.1118 18.6088 12.4859 18.6094 12.9928C18.6094 13.1066 18.6083 13.6179 18.6066 14.2938C18.6045 15.2673 18.6012 16.5831 18.5984 17.5483H18.6006Z" fill="#F7CAA5"/>
<path d="M24.3652 5.36548V14.2938H18.6066C18.6083 13.6178 18.6094 13.1065 18.6094 12.9927C18.6088 12.4858 18.1976 12.1117 17.6906 12.1117H17.3521C16.8457 12.1117 16.435 12.4847 16.4333 12.9911C16.4322 13.3586 16.4317 13.801 16.4312 14.2938H6.80615V5.36548H24.3652Z" fill="#00EFD1"/>
<path d="M24.2726 18.1629L23.9032 18.1623C23.764 18.1649 23.6258 18.1862 23.4922 18.2258V18.0891C23.4937 17.9307 23.4639 17.7736 23.4044 17.6268C23.345 17.48 23.2572 17.3464 23.1461 17.2336C23.0349 17.1208 22.9025 17.031 22.7566 16.9695C22.6107 16.908 22.4541 16.8759 22.2957 16.875H21.6132C21.447 16.8739 21.2824 16.9073 21.1299 16.9731C21.027 16.779 20.8733 16.6165 20.6853 16.5029C20.4973 16.3893 20.2819 16.3289 20.0622 16.3281H19.3732C19.2596 16.3316 19.1471 16.351 19.0389 16.3859C19.0404 15.8304 19.0418 15.2344 19.043 14.7422H24.3651C24.4824 14.7398 24.5942 14.6915 24.6764 14.6077C24.7586 14.5238 24.8047 14.4111 24.8047 14.2938V5.36547C24.8047 5.12386 24.6067 4.95312 24.3651 4.95312H6.80599C6.56439 4.95312 6.37506 5.12386 6.37506 5.36547V14.2938C6.37318 14.4102 6.41742 14.5227 6.49815 14.6067C6.57887 14.6907 6.68953 14.7394 6.80599 14.7422H15.9935C15.9929 16.1094 15.9931 17.79 15.9935 19.2047L15.8787 19.0699C15.5186 18.6623 15.0136 18.4115 14.4713 18.3707C13.929 18.33 13.3922 18.5026 12.9753 18.8518L12.6554 19.0971C12.5722 19.1609 12.5148 19.2526 12.4936 19.3553C12.4724 19.458 12.4888 19.5649 12.5398 19.6565L15.6898 25.2991C15.9866 25.8301 16.42 26.2721 16.945 26.5794C17.47 26.8867 18.0676 27.0481 18.6759 27.0469H22.2087C23.1142 27.0475 23.9829 26.6887 24.624 26.0493C25.2651 25.4098 25.6262 24.542 25.6278 23.6365C25.6289 22.5801 25.63 22.0255 25.6308 21.654C25.6322 20.9527 25.6323 20.9284 25.6283 19.5003C25.6252 19.1434 25.4808 18.8022 25.2267 18.5515C24.9726 18.3009 24.6296 18.1611 24.2726 18.1629ZM7.25006 5.82813H23.9297V13.8672H19.045C19.046 13.4297 19.0467 13.0884 19.0467 13.0004C19.0462 12.2613 18.4501 11.6797 17.6904 11.6797H17.3519C16.5938 11.6797 15.9981 12.2603 15.9957 12.998C15.9949 13.2532 15.9944 13.5391 15.994 13.8672H7.25006V5.82813ZM24.7558 21.6586C24.755 22.0304 24.7539 22.5787 24.7528 23.6356C24.7517 24.3093 24.4831 24.9549 24.006 25.4306C23.5289 25.9062 22.8824 26.1728 22.2087 26.1719H18.6759C18.2234 26.1732 17.7787 26.0534 17.388 25.825C16.9973 25.5966 16.6748 25.2679 16.454 24.8729L13.4876 19.5536L13.5171 19.5342C13.5233 19.5294 13.5293 19.526 13.5353 19.5209C13.7763 19.3169 14.0877 19.2154 14.4027 19.2382C14.7176 19.261 15.0111 19.4063 15.2203 19.6429L16.1018 20.6546C16.1604 20.7218 16.238 20.7694 16.3244 20.7913C16.4107 20.8131 16.5017 20.808 16.5851 20.7768C16.6685 20.7455 16.7404 20.6896 16.7912 20.6164C16.8419 20.5432 16.8691 20.4562 16.8691 20.3671C16.8681 18.6516 16.8674 16.1554 16.8686 14.2944C16.8691 13.8022 16.8696 13.3625 16.8707 12.9954C16.8716 12.7426 17.0786 12.5549 17.352 12.5549H17.6905C17.9646 12.5549 18.1715 12.743 18.1718 12.9956C18.1718 13.1093 18.1707 13.6191 18.169 14.2943C18.1668 15.2677 18.1635 16.5826 18.1608 17.5482C18.1592 18.2988 18.1698 18.837 18.1698 18.837C18.1698 18.8599 18.1329 18.8819 18.1876 18.9039V19.2093C18.1876 19.3254 18.2337 19.4366 18.3158 19.5187C18.3978 19.6007 18.5091 19.6468 18.6251 19.6468C18.7411 19.6468 18.8524 19.6007 18.9345 19.5187C19.0165 19.4366 19.0626 19.3254 19.0626 19.2093V17.5482C19.0626 17.3634 19.1884 17.2031 19.3732 17.2031H20.0623C20.2469 17.2031 20.3751 17.3634 20.3751 17.5482V19.2091C20.3751 19.234 20.3751 19.2583 20.4298 19.282V19.7499C20.4298 19.866 20.4759 19.9772 20.5579 20.0593C20.64 20.1413 20.7513 20.1874 20.8673 20.1874C20.9833 20.1874 21.0946 20.1413 21.1767 20.0593C21.2587 19.9772 21.3048 19.866 21.3048 19.7499V18.0891C21.3048 17.9042 21.4287 17.75 21.6132 17.75H22.2957C22.3392 17.7508 22.3821 17.7602 22.422 17.7777C22.4618 17.7952 22.4977 17.8205 22.5276 17.8521C22.5576 17.8837 22.5809 17.9209 22.5963 17.9616C22.6117 18.0022 22.6188 18.0456 22.6173 18.0891V19.7499C22.6173 19.866 22.6634 19.9772 22.7454 20.0593C22.8275 20.1413 22.9388 20.1874 23.0548 20.1874C23.1708 20.1874 23.2821 20.1413 23.3642 20.0593C23.4462 19.9772 23.4923 19.866 23.4923 19.7499V19.5011C23.4923 19.2872 23.605 19.0373 23.9033 19.0373L24.2693 19.0379C24.3318 19.0364 24.394 19.0474 24.4522 19.0702C24.5104 19.093 24.5635 19.1272 24.6084 19.1707C24.6533 19.2142 24.6891 19.2663 24.7137 19.3238C24.7383 19.3812 24.7512 19.4431 24.7517 19.5056C24.7555 20.9319 24.7572 20.9592 24.7558 21.6586Z" fill="#083863"/>
</svg>
