<svg width="70" height="70" viewBox="0 0 70 70" fill="none" xmlns="http://www.w3.org/2000/svg">
<g clip-path="url(#clip0_7440_1029)">
<circle cx="35" cy="35" r="33" fill="white"/>
<ellipse cx="36.5" cy="35" rx="25.5" ry="27" fill="#FBB216"/>
<path fill-rule="evenodd" clip-rule="evenodd" d="M43.1946 9.18284C51.4226 14.5831 56.9345 24.3612 56.9684 35.5431C56.9982 45.3783 52.7835 54.1533 46.1914 59.8328C55.8011 55.5938 62.4858 46.0537 62.4522 34.9843C62.4154 22.8542 54.3224 12.6094 43.1946 9.18284Z" fill="#F18421"/>
<path d="M16.2884 14.8251C16.1066 14.629 16.1179 14.3223 16.3171 14.1439C21.4237 9.56899 28.037 7.02282 34.9043 6.99932C41.9332 6.97527 48.7141 9.59574 53.9002 14.3403C59.0862 19.0848 62.2982 25.6063 62.898 32.6096C63.4979 39.6129 61.4418 46.5857 57.1381 52.143C52.8344 57.7004 46.5979 61.4358 39.6673 62.6074C32.7367 63.7791 25.619 62.3012 19.7277 58.4673C13.8364 54.6333 9.60257 48.7239 7.86706 41.9126C6.17145 35.2578 6.98182 28.2178 10.1334 22.1289C10.2563 21.8915 10.5504 21.8037 10.7857 21.9307V21.9307C11.021 22.0577 11.1083 22.3513 10.9856 22.5888C7.94938 28.4638 7.16973 35.2543 8.80533 41.6735C10.4808 48.2493 14.5682 53.9544 20.2558 57.6557C25.9434 61.357 32.815 62.7838 39.5059 61.6527C46.1969 60.5216 52.2177 56.9154 56.3725 51.5502C60.5274 46.185 62.5124 39.4534 61.9333 32.6923C61.3542 25.9311 58.2533 19.6351 53.2466 15.0547C48.2399 10.4742 41.6935 7.94435 34.9077 7.96757C28.2834 7.99023 21.9039 10.4442 16.9756 14.8539C16.7764 15.0322 16.4702 15.0211 16.2884 14.8251V14.8251Z" fill="#4E4E4E"/>
<rect x="20" y="31" width="8" height="8" rx="4" fill="white"/>
<rect x="32" y="31" width="8" height="8" rx="4" fill="white"/>
<rect x="44" y="31" width="8" height="8" rx="4" fill="white"/>
</g>
<defs>
<clipPath id="clip0_7440_1029">
<rect width="70" height="70" fill="white"/>
</clipPath>
</defs>
</svg>
