<svg width="17" height="24" viewBox="0 0 17 24" fill="none" xmlns="http://www.w3.org/2000/svg">
<g clip-path="url(#clip0_1434_13119)">
<rect width="24" height="24" rx="4" fill="#D9CCFF"/>
<path fill-rule="evenodd" clip-rule="evenodd" d="M13.1868 4.83776C13.317 4.91728 13.4423 5.00523 13.5603 5.10282C13.6447 5.19078 13.729 5.27993 13.8133 5.36788C14.1146 5.76066 14.2676 6.20644 14.2712 6.70523C14.135 6.70523 13.9977 6.70523 13.8615 6.70523C13.8652 6.37873 13.7832 6.07752 13.6146 5.80162C13.57 5.74499 13.529 5.68475 13.4941 5.6209C13.47 5.59439 13.4435 5.57029 13.4158 5.54861C12.9893 5.10282 12.4712 4.94017 11.8615 5.06066C11.2712 5.24138 10.8796 5.62451 10.6868 6.21126C10.676 6.2968 10.6591 6.38114 10.6386 6.46427C10.6326 6.54017 10.6302 6.61728 10.6326 6.69319C10.4917 6.70041 10.3519 6.70403 10.2109 6.70523C10.2158 6.27752 10.3326 5.88355 10.5603 5.52451C10.6724 5.36547 10.8001 5.2209 10.9459 5.09078C11.0652 4.98355 11.1977 4.89559 11.3435 4.82572C11.7832 4.598 12.2447 4.54379 12.729 4.66306C12.888 4.70885 13.0399 4.76668 13.1868 4.83776Z" fill="#F4ED47"/>
<path fill-rule="evenodd" clip-rule="evenodd" d="M11.3436 4.8252C11.1978 4.89507 11.0653 4.98303 10.946 5.09026C9.6737 5.1252 8.44479 5.37098 7.25924 5.8252C7.2484 5.81917 7.23635 5.81556 7.2231 5.81315C6.91587 5.91797 6.66888 6.1023 6.48213 6.36736C6.4725 6.54809 6.5243 6.70833 6.63876 6.84929C6.75683 6.99507 6.89539 7.11797 7.05442 7.21676C7.39659 7.41797 7.75804 7.57459 8.13876 7.68664C9.03394 7.94447 9.94479 8.10592 10.8737 8.16857C10.9436 8.10833 10.952 8.04086 10.8978 7.96375C9.88936 7.87821 8.90623 7.67821 7.94599 7.36134C7.59539 7.24447 7.27009 7.07941 6.97009 6.86736C6.89539 6.81074 6.83033 6.74447 6.77732 6.66857C6.79298 6.63965 6.81105 6.61074 6.83153 6.58423C7.02551 6.41797 7.23635 6.2758 7.46406 6.15652C7.66527 6.08303 7.86647 6.00592 8.06647 5.92761C8.88575 5.72038 9.71707 5.58544 10.5604 5.52399C10.3327 5.88303 10.2159 6.277 10.2111 6.70471C10.352 6.70351 10.4918 6.69989 10.6327 6.69267C10.6725 6.69267 10.7135 6.69267 10.7532 6.69267C11.1592 6.69026 11.5641 6.69387 11.9701 6.70471C12.0484 6.71917 12.1291 6.71917 12.2111 6.70471C12.5604 6.70471 12.9098 6.70471 13.2592 6.70471C13.3074 6.70471 13.3556 6.70471 13.4038 6.70471C13.558 6.70953 13.7098 6.70953 13.8617 6.70471C13.9978 6.70471 14.1351 6.70471 14.2713 6.70471C14.3195 6.71315 14.3677 6.71676 14.4159 6.71676C14.4062 6.41917 14.3315 6.13724 14.193 5.87339C14.1255 5.75773 14.0556 5.64568 13.9821 5.53604C14.5532 5.57098 15.1195 5.64568 15.6809 5.75893C16.1315 5.85411 16.5532 6.01797 16.946 6.25291C17.058 6.32881 17.1665 6.40833 17.2713 6.49387C17.3737 6.58664 17.4737 6.68062 17.5725 6.777C17.5243 6.85532 17.4641 6.9264 17.3918 6.98785C17.2147 7.12038 17.0219 7.22881 16.8135 7.31315C15.7942 7.66616 14.746 7.88785 13.6689 7.9758C13.3243 8.0011 12.9785 8.01676 12.6327 8.02399C12.5918 8.02158 12.5677 8.03965 12.5604 8.07821C12.5833 8.20471 12.6604 8.24929 12.7894 8.21074C13.8243 8.16736 14.8484 8.03604 15.8617 7.81917C16.2918 7.72881 16.7098 7.6011 17.1147 7.43363C17.4496 7.28785 17.693 7.04809 17.8436 6.71676C17.8484 6.49869 17.7665 6.32038 17.5966 6.18062C17.4701 6.07821 17.3315 5.99628 17.1809 5.93363C17.1653 5.93483 17.1556 5.94327 17.1508 5.95773C16.9267 5.83363 16.6942 5.7276 16.452 5.63845C15.8713 5.4252 15.2725 5.28062 14.6568 5.20471C14.293 5.15773 13.9267 5.12399 13.5604 5.1023C13.4424 5.00471 13.3171 4.91676 13.187 4.83724C14.2436 4.88303 15.2797 5.04929 16.2954 5.33724C16.7882 5.47821 17.246 5.69146 17.6689 5.9758C17.8424 6.10592 17.9773 6.26857 18.0725 6.46375C18.0894 6.50712 18.1014 6.5505 18.1086 6.59628C18.1111 6.73122 18.1123 6.86495 18.1147 6.99989C18.0845 8.82881 18.052 10.6589 18.0183 12.4878C18.0279 13.6372 18.0629 14.7854 18.1207 15.9336C18.1351 16.3638 18.1255 16.7939 18.0906 17.2228C18.1086 17.3866 18.1147 17.5517 18.1086 17.7168C18.0448 17.9011 17.9424 18.0589 17.8014 18.1927C17.5351 18.418 17.2376 18.5951 16.9098 18.7228C16.3629 18.936 15.8014 19.0963 15.2231 19.2047C13.4797 19.5071 11.7291 19.5589 9.97009 19.3613C9.28816 19.2818 8.61828 19.1493 7.95804 18.9637C7.56045 18.8445 7.17852 18.6878 6.81346 18.4939C6.64479 18.3975 6.49057 18.283 6.3496 18.1505C6.23153 18.0312 6.14719 17.8903 6.09659 17.7288C6.08816 17.671 6.08213 17.6119 6.07852 17.5541C6.08936 17.4601 6.10985 17.3674 6.13876 17.277C6.0231 15.1397 5.95924 13.0011 5.94599 10.8613C5.94238 9.53242 5.99057 8.20471 6.09057 6.87941C6.0484 6.63363 6.10623 6.41435 6.26527 6.22279C6.5231 5.9517 6.82671 5.74568 7.17491 5.6023C7.67732 5.39026 8.19539 5.23001 8.72912 5.12038C9.59418 4.94327 10.4653 4.84568 11.3436 4.8252Z" fill="#2E3192"/>
<path fill-rule="evenodd" clip-rule="evenodd" d="M13.4159 5.54789C13.0569 5.2515 12.6424 5.12138 12.1749 5.15632C11.6436 5.24427 11.24 5.51897 10.9641 5.98162C10.8376 6.2021 10.7677 6.43825 10.7532 6.69247C10.7135 6.69247 10.6725 6.69247 10.6328 6.69247C10.6303 6.61656 10.6328 6.53945 10.6388 6.46355C10.6593 6.38042 10.6761 6.29608 10.687 6.21054C10.8797 5.62379 11.2713 5.24066 11.8617 5.05994C12.4713 4.93945 12.9894 5.1021 13.4159 5.54789Z" fill="#BC942E"/>
<path fill-rule="evenodd" clip-rule="evenodd" d="M10.9459 5.09082C10.8001 5.22094 10.6724 5.36552 10.5604 5.52456C9.71698 5.586 8.88565 5.72094 8.06638 5.92817C7.86638 6.00648 7.66517 6.08359 7.46397 6.15709C7.23626 6.27636 7.02541 6.41853 6.83144 6.5848C6.81096 6.6113 6.79288 6.64022 6.77722 6.66913C6.71939 6.61733 6.67843 6.55227 6.65674 6.47636C6.68083 6.34865 6.74108 6.24263 6.83746 6.15709C6.97722 6.04624 7.1218 5.94263 7.2712 5.84383C7.26397 5.83901 7.26035 5.83299 7.25915 5.82576C8.44469 5.37154 9.67361 5.12576 10.9459 5.09082Z" fill="#6557AA"/>
<path fill-rule="evenodd" clip-rule="evenodd" d="M13.5601 5.10254C13.9263 5.12423 14.2926 5.15796 14.6564 5.20495C15.2721 5.28085 15.8709 5.42543 16.4516 5.63868C16.6938 5.72784 16.9263 5.83386 17.1504 5.95796C17.148 5.98085 17.1564 5.99892 17.1745 6.01218C17.2685 6.07362 17.354 6.1435 17.4336 6.22302C17.4974 6.32784 17.5625 6.43145 17.6263 6.53627C17.6516 6.62543 17.6336 6.70615 17.5721 6.77724C17.4733 6.68085 17.3733 6.58688 17.2709 6.49411C17.1661 6.40856 17.0576 6.32905 16.9456 6.25314C16.5528 6.0182 16.1311 5.85435 15.6805 5.75917C15.1191 5.64591 14.5528 5.57121 13.9817 5.53627C13.9299 5.47603 13.8733 5.42061 13.8131 5.3676C13.7287 5.27965 13.6444 5.19049 13.5601 5.10254Z" fill="#6557AA"/>
<path fill-rule="evenodd" clip-rule="evenodd" d="M13.4156 5.54848C13.4433 5.57017 13.4698 5.59426 13.4939 5.62077C13.5288 5.68462 13.5698 5.74486 13.6144 5.80149C13.7831 6.07739 13.865 6.3786 13.8614 6.70511C13.7096 6.70992 13.5577 6.70992 13.4035 6.70511C13.3312 6.5786 13.2264 6.48824 13.0903 6.43402C12.9192 6.36535 12.7421 6.34486 12.5602 6.37378C12.5493 6.39426 12.5457 6.41595 12.5481 6.44005C12.7686 6.428 12.9734 6.4786 13.1626 6.59065C13.2023 6.62438 13.2337 6.66173 13.259 6.70511C12.9096 6.70511 12.5602 6.70511 12.2108 6.70511C12.4011 6.48583 12.4023 6.26535 12.2168 6.04245C11.9879 5.84366 11.7252 5.77137 11.4276 5.82559C11.4168 5.84005 11.412 5.85571 11.4156 5.87378C11.6577 5.86896 11.8831 5.92679 12.0903 6.04848C12.2288 6.16776 12.2674 6.31474 12.2047 6.48824C12.1722 6.57378 12.118 6.64005 12.0421 6.68703C12.0192 6.69667 11.9951 6.7027 11.9698 6.70511C11.5638 6.69426 11.159 6.69065 10.7529 6.69306C10.7674 6.43884 10.8373 6.2027 10.9638 5.98221C11.2397 5.51956 11.6433 5.24486 12.1746 5.15691C12.6421 5.12197 13.0565 5.25209 13.4156 5.54848Z" fill="#E7C948"/>
<path fill-rule="evenodd" clip-rule="evenodd" d="M13.8135 5.36719C13.8737 5.4202 13.9303 5.47562 13.9822 5.53586C14.0556 5.6455 14.1255 5.75755 14.193 5.87321C14.3315 6.13707 14.4062 6.41899 14.4159 6.71659C14.3677 6.71659 14.3195 6.71297 14.2713 6.70454C14.2677 6.20574 14.1147 5.75996 13.8135 5.36719Z" fill="#B89130"/>
<path fill-rule="evenodd" clip-rule="evenodd" d="M12.2109 6.70456C12.129 6.71902 12.0483 6.71902 11.97 6.70456C11.9953 6.70215 12.0194 6.69613 12.0422 6.68649C12.1181 6.6395 12.1724 6.57324 12.2049 6.48769C12.2675 6.3142 12.229 6.16721 12.0904 6.04794C11.8832 5.92625 11.6579 5.86842 11.4157 5.87324C11.4121 5.85516 11.4169 5.8395 11.4278 5.82504C11.7254 5.77083 11.988 5.84312 12.2169 6.04191C12.4025 6.2648 12.4001 6.48528 12.2109 6.70456Z" fill="#BA922D"/>
<path fill-rule="evenodd" clip-rule="evenodd" d="M7.2592 5.82552C7.2604 5.83275 7.26402 5.83878 7.27125 5.8436C7.12185 5.94239 6.97727 6.04601 6.83751 6.15685C6.74113 6.24239 6.68089 6.34842 6.65679 6.47613C6.67848 6.55203 6.71944 6.61709 6.77727 6.6689C6.83028 6.7448 6.89534 6.81107 6.97004 6.86769C7.27004 7.07974 7.59534 7.2448 7.94595 7.36167C8.90619 7.67854 9.88932 7.87854 10.8978 7.96408C10.952 8.04119 10.9435 8.10866 10.8737 8.1689C9.94474 8.10625 9.0339 7.9448 8.13872 7.68697C7.75799 7.57492 7.39655 7.4183 7.05438 7.21709C6.89534 7.1183 6.75679 6.9954 6.63872 6.84962C6.52426 6.70866 6.47245 6.54842 6.48209 6.36769C6.66884 6.10263 6.91583 5.9183 7.22305 5.81348C7.23631 5.81589 7.24836 5.8195 7.2592 5.82552Z" fill="#8F86C0"/>
<path fill-rule="evenodd" clip-rule="evenodd" d="M17.5721 6.77697C17.6336 6.70588 17.6516 6.62516 17.6263 6.536C17.5625 6.43118 17.4974 6.32757 17.4336 6.22275C17.354 6.14323 17.2673 6.07335 17.1745 6.01191C17.1564 5.99865 17.148 5.98058 17.1504 5.95769C17.1552 5.94323 17.1649 5.9348 17.1805 5.93359C17.3311 5.99624 17.4697 6.07817 17.5962 6.18058C17.7661 6.32034 17.848 6.49865 17.8432 6.71673C17.6926 7.04805 17.4492 7.28781 17.1143 7.43359C16.7095 7.60106 16.2914 7.72877 15.8613 7.81914C14.848 8.036 13.8239 8.16733 12.789 8.2107C12.6601 8.24926 12.583 8.20468 12.5601 8.07817C12.5673 8.03962 12.5914 8.02155 12.6323 8.02396C12.9781 8.01673 13.3239 8.00106 13.6685 7.97576C14.7456 7.88781 15.7938 7.66612 16.8131 7.31311C17.0215 7.22877 17.2143 7.12034 17.3914 6.98781C17.4637 6.92636 17.5239 6.85528 17.5721 6.77697Z" fill="#8F86C0"/>
<path fill-rule="evenodd" clip-rule="evenodd" d="M11.6447 6.07812C11.6977 6.08415 11.7496 6.09379 11.8014 6.10825C11.8676 6.14439 11.8652 6.1709 11.7953 6.18656C11.7496 6.17451 11.7038 6.16608 11.6568 6.16246C11.6411 6.28294 11.6279 6.40343 11.6146 6.52391C11.6062 6.53716 11.5941 6.54439 11.5785 6.548C11.5568 6.54319 11.5339 6.53837 11.5122 6.53596C11.5194 6.39499 11.5387 6.25644 11.5724 6.12029C11.599 6.10945 11.6231 6.09499 11.6447 6.07812Z" fill="#BA922D"/>
<path fill-rule="evenodd" clip-rule="evenodd" d="M13.4035 6.7044C13.3553 6.7044 13.3071 6.7044 13.2589 6.7044C13.2336 6.66103 13.2023 6.62368 13.1625 6.58994C12.9734 6.4779 12.7686 6.42729 12.5481 6.43934C12.5457 6.41525 12.5493 6.39356 12.5601 6.37308C12.7421 6.34416 12.9192 6.36464 13.0902 6.43332C13.2264 6.48753 13.3312 6.5779 13.4035 6.7044Z" fill="#BA922D"/>
<path fill-rule="evenodd" clip-rule="evenodd" d="M9.88578 6.44001C9.93036 6.43038 9.95084 6.44845 9.94602 6.49423C9.91711 6.60387 9.87976 6.70989 9.83157 6.81351C9.82554 6.84965 9.82795 6.8858 9.83759 6.92194C10.6388 6.91953 11.44 6.91953 12.2412 6.92194C12.8593 6.90387 13.4786 6.88821 14.0966 6.87375C14.1954 6.87616 14.293 6.87977 14.3918 6.8858C14.4773 6.89423 14.552 6.87013 14.6147 6.81351C14.6159 6.77134 14.6304 6.7352 14.6569 6.70507C14.6822 6.7111 14.7039 6.72315 14.7231 6.74122C14.7533 6.81712 14.7834 6.89423 14.8135 6.97013C14.8039 7.00146 14.7834 7.02435 14.7533 7.0364C14.5942 7.04242 14.4364 7.04001 14.2773 7.03038C12.8737 7.08218 11.4701 7.11351 10.0665 7.12676C9.91831 7.13038 9.77373 7.1123 9.63277 7.07254C9.5894 7.0352 9.57494 6.98941 9.5906 6.93399C9.65205 6.78098 9.72795 6.6364 9.81952 6.50026C9.84 6.47736 9.86289 6.45688 9.88578 6.44001Z" fill="#6457AA"/>
<path fill-rule="evenodd" clip-rule="evenodd" d="M17.8495 16.0908C17.8543 16.2619 17.8616 16.4305 17.8736 16.5968C17.8736 16.6245 17.8736 16.6534 17.8736 16.6811C17.8772 16.8052 17.8796 16.9305 17.8796 17.0546C17.7603 16.9269 17.6254 16.8161 17.476 16.7233C17.3122 16.6269 17.1435 16.5414 16.97 16.4643C17.0326 15.7583 16.8194 15.1522 16.3314 14.645C16.6507 14.6848 16.9555 14.639 17.2471 14.5064C17.4363 14.3631 17.5471 14.1727 17.5784 13.9342C17.5977 13.7558 17.576 13.5836 17.5122 13.4161C17.5097 13.4089 17.5037 13.4052 17.4941 13.404C17.17 13.5317 16.8338 13.5691 16.4881 13.5185C16.1411 13.4715 15.8037 13.3872 15.476 13.2655C15.4338 13.2293 15.3893 13.1944 15.3435 13.1631C15.2748 12.6221 15.3242 12.092 15.4941 11.5727C15.564 11.3631 15.6338 11.1546 15.7049 10.9462C15.8302 10.6426 15.9628 10.3414 16.1025 10.0426C16.2073 9.84982 16.3109 9.65705 16.4158 9.46428C16.5266 9.29922 16.6423 9.13898 16.7652 8.98235C16.8977 8.8703 17.0363 8.76669 17.1808 8.6691C17.2061 8.60524 17.182 8.57271 17.1085 8.57271C16.6049 8.67512 16.1001 8.77753 15.5965 8.87994C15.2965 8.93416 14.9953 8.98235 14.6929 9.02452C14.1025 9.04621 13.5146 9.02091 12.9278 8.94621C12.9001 8.94741 12.876 8.95585 12.8555 8.9703C12.8399 9.03777 12.8338 9.10524 12.8375 9.17512C12.8001 9.29199 12.764 9.4197 12.729 9.56066C12.6796 9.74741 12.6387 9.93657 12.6085 10.1269C12.5748 10.2679 12.5507 10.4125 12.5363 10.5607C12.5097 10.7149 12.4977 10.8667 12.5001 11.0185C11.7652 11.2414 11.2772 11.7197 11.0363 12.4522C10.9965 12.5824 10.9712 12.7149 10.9579 12.8498C10.9013 12.833 10.8447 12.8173 10.7893 12.8016C10.5531 12.4089 10.3483 11.9992 10.1748 11.5727C10.1832 11.5727 10.1905 11.5727 10.1989 11.5727C10.9073 11.251 11.3158 10.7052 11.4218 9.93416C11.4591 9.43777 11.3411 8.98356 11.0664 8.57271C11.1194 8.57392 11.1712 8.57753 11.223 8.58476C11.564 8.84741 11.9507 8.97994 12.3856 8.98235C12.8591 8.97753 13.2784 8.82934 13.6447 8.53657C14.5314 8.46789 15.4025 8.31368 16.2591 8.07271C16.6399 7.96066 17.0049 7.81247 17.3555 7.62693C17.5603 7.51127 17.7423 7.3691 17.9037 7.19922C17.7832 9.31006 17.7435 11.4221 17.7832 13.5366C17.8049 14.3884 17.8266 15.239 17.8495 16.0908Z" fill="#E0DEEE"/>
<path fill-rule="evenodd" clip-rule="evenodd" d="M7.94588 8.0784C7.92902 8.07599 7.91335 8.0784 7.89769 8.08442C7.32299 8.48442 7.03383 9.03623 7.03022 9.74105C7.04347 10.2085 7.19287 10.6266 7.476 10.9941C7.16877 11.1495 6.89408 11.3495 6.6507 11.5965C6.51094 11.7519 6.41817 11.9326 6.37359 12.1386C6.36516 12.223 6.36516 12.3073 6.37359 12.3916C6.46034 12.7929 6.59287 13.1784 6.77118 13.5483C6.90974 13.8423 7.06034 14.1266 7.22299 14.4037C6.66275 15.0784 6.54227 15.8254 6.86155 16.6447C6.67721 16.7386 6.50974 16.8591 6.36155 17.0061C6.3507 16.9543 6.34468 16.9025 6.34347 16.8495C6.2989 16.4495 6.27239 16.0471 6.26516 15.6447C6.21817 13.8423 6.19408 12.0386 6.19287 10.235C6.2507 9.23984 6.29649 8.24346 6.33143 7.24707C6.48926 7.4037 6.66516 7.53502 6.86155 7.63864C7.21094 7.81936 7.57239 7.96635 7.94588 8.0784Z" fill="#E0DEEE"/>
<path fill-rule="evenodd" clip-rule="evenodd" d="M11.1986 8.04194C11.3914 8.03953 11.5842 8.04194 11.777 8.04796C11.8167 8.08893 11.8227 8.13471 11.795 8.18652C11.7806 8.20459 11.7625 8.21905 11.7408 8.22869C11.6047 8.23712 11.4673 8.24073 11.3312 8.24073C11.1794 8.23953 11.1348 8.17326 11.1986 8.04194Z" fill="#8F86C0"/>
<path fill-rule="evenodd" clip-rule="evenodd" d="M7.94594 8.07807C8.13027 8.12867 8.31461 8.17687 8.50015 8.22265C7.66401 8.59253 7.32907 9.23108 7.49413 10.1383C7.57003 10.3853 7.69292 10.607 7.8616 10.801C7.8616 10.813 7.8616 10.8251 7.8616 10.8371C7.73148 10.8841 7.60256 10.9371 7.47606 10.9937C7.19292 10.6263 7.04353 10.2082 7.03027 9.74072C7.03389 9.0359 7.32304 8.4841 7.89774 8.0841C7.91341 8.07807 7.92907 8.07566 7.94594 8.07807Z" fill="#DBD693"/>
<path fill-rule="evenodd" clip-rule="evenodd" d="M8.53616 8.23535C9.10363 8.35704 9.67351 8.44981 10.247 8.51246C10.2229 8.51005 10.1988 8.51246 10.1747 8.51848C10.2783 8.63053 10.3807 8.74138 10.4819 8.84981C10.488 8.87029 10.4952 8.89077 10.506 8.91005C10.5313 8.9474 10.559 8.98354 10.5904 9.01848C10.6313 9.10162 10.6675 9.18595 10.6988 9.2715C10.706 9.33656 10.7265 9.3968 10.759 9.45222C10.7819 9.63294 10.7904 9.81366 10.7831 9.99439C10.7615 10.1522 10.7217 10.3052 10.6627 10.4522C10.594 10.5643 10.5265 10.6775 10.4578 10.7896C10.3843 10.8799 10.3012 10.9619 10.2109 11.0366C10.1554 11.0799 10.0952 11.1185 10.0301 11.151C9.95905 10.9329 9.89278 10.7125 9.83134 10.4884C9.77592 10.4341 9.71326 10.4257 9.64459 10.4643C9.67471 10.3884 9.71326 10.3161 9.75905 10.2474C9.76748 10.2317 9.76748 10.2149 9.75905 10.1992C9.63375 10.1594 9.50724 10.1426 9.37953 10.151C9.30724 10.1378 9.23495 10.1233 9.16266 10.1088C9.1711 9.898 9.09399 9.7233 8.93375 9.58475C8.93134 9.55583 8.92772 9.52812 8.9217 9.50041C8.60363 9.45583 8.28555 9.40523 7.96989 9.34981C7.92893 9.74379 7.8964 10.1402 7.87351 10.5366C7.56507 10.0402 7.52772 9.5221 7.75905 8.98234C7.93013 8.64017 8.18917 8.39198 8.53616 8.23535Z" fill="#D4C494"/>
<path fill-rule="evenodd" clip-rule="evenodd" d="M8.50001 8.22337C8.51567 8.22096 8.52772 8.22457 8.53616 8.23542C8.18917 8.39204 7.93013 8.64024 7.75905 8.98241C7.52772 9.52216 7.56507 10.0402 7.8735 10.5366C7.86869 10.6246 7.86387 10.7137 7.86146 10.8017C7.69278 10.6077 7.56989 10.386 7.49399 10.139C7.32893 9.2318 7.66387 8.59325 8.50001 8.22337Z" fill="#BFAA86"/>
<path fill-rule="evenodd" clip-rule="evenodd" d="M10.2471 8.51167C10.4291 8.52371 10.6098 8.53938 10.7893 8.55986C11.2327 9.15263 11.3399 9.80323 11.1086 10.5117C10.9375 10.955 10.6471 11.2948 10.2351 11.5297C10.2158 11.5394 10.2038 11.5526 10.1989 11.5719C10.1905 11.5719 10.1833 11.5719 10.1749 11.5719C10.117 11.4346 10.0688 11.2948 10.0303 11.1502C10.0953 11.1177 10.1556 11.0791 10.211 11.0358C10.3014 10.9611 10.3845 10.8791 10.458 10.7888C10.5267 10.6767 10.5941 10.5635 10.6628 10.4514C10.7218 10.3044 10.7616 10.1514 10.7833 9.99359C10.7905 9.81287 10.7821 9.63215 10.7592 9.45142C10.7267 9.396 10.7062 9.33576 10.6989 9.2707C10.6676 9.18516 10.6315 9.10082 10.5905 9.01769C10.5592 8.98275 10.5315 8.94661 10.5062 8.90926C10.4953 8.88998 10.4881 8.8695 10.4821 8.84901C10.3809 8.74058 10.2785 8.62974 10.1749 8.51769C10.1989 8.51167 10.223 8.50926 10.2471 8.51167Z" fill="#DBD593"/>
<path fill-rule="evenodd" clip-rule="evenodd" d="M13.6443 8.53613C13.2781 8.8289 12.8588 8.9771 12.3853 8.98192C11.9504 8.97951 11.5636 8.84698 11.2227 8.58433C11.2504 8.58433 11.2793 8.58433 11.307 8.58433C11.7299 8.81686 12.1805 8.88312 12.6564 8.78312C12.8468 8.73854 13.0275 8.66987 13.1986 8.5783C13.1913 8.57228 13.1829 8.57107 13.1745 8.57228C13.3287 8.55661 13.4853 8.54457 13.6443 8.53613Z" fill="#BEA887"/>
<path fill-rule="evenodd" clip-rule="evenodd" d="M10.7891 8.55979C10.8819 8.55859 10.9746 8.5622 11.0662 8.57184C11.3409 8.98269 11.459 9.4369 11.4216 9.93329C11.3156 10.7044 10.9072 11.2502 10.1987 11.5718C10.2035 11.5526 10.2156 11.5393 10.2349 11.5297C10.6469 11.2947 10.9373 10.955 11.1084 10.5116C11.3397 9.80317 11.2325 9.15257 10.7891 8.55979Z" fill="#BEA987"/>
<path fill-rule="evenodd" clip-rule="evenodd" d="M13.1746 8.57269C13.183 8.57148 13.1915 8.57269 13.1987 8.57871C13.0276 8.67028 12.8469 8.73895 12.6565 8.78353C12.1806 8.88353 11.73 8.81726 11.3071 8.58473C11.93 8.60281 12.5517 8.59799 13.1746 8.57269Z" fill="#DAD493"/>
<path fill-rule="evenodd" clip-rule="evenodd" d="M16.7652 8.9819C16.1266 9.12889 15.4796 9.22287 14.8254 9.26504C14.1603 9.29636 13.4977 9.26624 12.8374 9.17468C12.8338 9.1048 12.8399 9.03733 12.8555 8.96986C12.876 8.9554 12.9001 8.94696 12.9278 8.94576C13.5146 9.02046 14.1025 9.04576 14.6929 9.02407C14.9953 8.9819 15.2965 8.93371 15.5965 8.87949C16.1001 8.77708 16.6049 8.67468 17.1085 8.57227C17.182 8.57227 17.2061 8.6048 17.1808 8.66865C17.0362 8.76624 16.8977 8.86986 16.7652 8.9819Z" fill="#CDB9DF"/>
<path fill-rule="evenodd" clip-rule="evenodd" d="M9.62034 8.68066C9.67938 8.68548 9.736 8.70115 9.78902 8.72886C9.95769 8.86621 10.0324 9.0385 10.0119 9.24693C9.98058 9.36018 9.95287 9.47223 9.92757 9.58428C10.1083 9.69874 10.295 9.80356 10.4878 9.89753C10.4601 9.95777 10.4348 10.018 10.4095 10.0783C10.3794 10.1289 10.3493 10.1783 10.3191 10.2289C10.2709 10.2409 10.242 10.2228 10.2348 10.1746C10.2517 10.1011 10.2818 10.0325 10.3252 9.96982C10.3336 9.95777 10.3336 9.94572 10.3252 9.93368C10.2059 9.87223 10.095 9.79874 9.99383 9.71078C9.92275 9.6903 9.8613 9.65536 9.80709 9.60837C9.79865 9.58789 9.79865 9.56862 9.80709 9.54813C9.90829 9.35536 9.92396 9.15898 9.85528 8.95777C9.79504 8.865 9.7095 8.81681 9.59624 8.81319C9.44805 8.82645 9.32155 8.88669 9.21673 8.99392C9.12396 9.10717 9.04926 9.23127 8.99383 9.36741C8.96492 9.38307 8.94564 9.37584 8.93359 9.34331C9.0095 9.04813 9.18661 8.83729 9.46371 8.71078C9.51793 8.70115 9.56974 8.69151 9.62034 8.68066Z" fill="#BEA886"/>
<path fill-rule="evenodd" clip-rule="evenodd" d="M16.765 8.98145C16.6422 9.13807 16.5265 9.29831 16.4157 9.46337C16.0193 9.50916 15.6217 9.5441 15.2229 9.56578C15.1916 9.57301 15.1638 9.58747 15.1385 9.60795C15.1144 9.7441 15.0903 9.88145 15.0663 10.0176C15.0735 10.0573 15.0928 10.0875 15.1265 10.108C15.4542 10.1128 15.7795 10.0911 16.1024 10.0417C15.9626 10.3405 15.8301 10.6417 15.7048 10.9453C15.6 10.9537 15.4964 10.9573 15.3916 10.9573C15.4084 10.8935 15.4265 10.8284 15.4458 10.7646C15.4602 10.6971 15.4638 10.6284 15.4578 10.5598C15.4518 10.5296 15.4373 10.5031 15.4157 10.4814C15.3819 10.4489 15.3422 10.4284 15.2952 10.4212C15.1217 10.3995 14.953 10.42 14.7891 10.4814C14.5675 10.5802 14.3699 10.7152 14.1988 10.8851C14.1301 10.8308 14.0723 10.767 14.0241 10.6923C13.8795 10.5369 13.7 10.4622 13.4879 10.4694C13.3928 10.4839 13.3048 10.5152 13.2229 10.5658C13.1807 10.6031 13.1446 10.6453 13.1144 10.6923C12.9205 10.6561 12.7277 10.6116 12.5361 10.5598C12.5506 10.4116 12.5747 10.267 12.6084 10.126C12.6771 10.1296 12.7422 10.1477 12.8012 10.1802C12.8699 10.1887 12.9373 10.1887 13.006 10.1802C13.0494 10.1573 13.0795 10.1236 13.0964 10.0778C13.1193 9.9453 13.1397 9.81277 13.1566 9.68024C13.1422 9.66217 13.1241 9.64771 13.1024 9.63807C12.9771 9.61398 12.853 9.58747 12.7289 9.55976C12.7638 9.41879 12.8 9.29108 12.8373 9.17422C13.4976 9.26578 14.1602 9.2959 14.8253 9.26458C15.4795 9.22241 16.1265 9.12843 16.765 8.98145Z" fill="#D0CAC8"/>
<path fill-rule="evenodd" clip-rule="evenodd" d="M9.45205 9.09082C9.47253 9.09082 9.49181 9.09082 9.51229 9.09082C9.5159 9.10889 9.51108 9.12456 9.50024 9.13901C9.44843 9.19203 9.40506 9.25106 9.36771 9.31371C9.39181 9.32456 9.41229 9.34022 9.42795 9.3619C9.48699 9.37877 9.54121 9.40528 9.5906 9.44022C9.59181 9.47395 9.57735 9.50166 9.54843 9.52456C9.47133 9.46793 9.38699 9.42576 9.29542 9.39805C9.27614 9.3848 9.2641 9.36672 9.25928 9.34383C9.26651 9.28962 9.28699 9.24142 9.31952 9.19925C9.36048 9.15829 9.40506 9.12215 9.45205 9.09082Z" fill="#BEA986"/>
<path fill-rule="evenodd" clip-rule="evenodd" d="M8.93365 9.58455C8.93365 9.64961 8.93726 9.71346 8.94569 9.77732C8.96015 10.0339 8.96859 10.2906 8.96979 10.5484C8.95051 11.4195 8.93485 12.2918 8.9216 13.1629C8.91196 13.34 8.90835 13.5159 8.90955 13.693C8.90955 13.7376 8.90955 13.7809 8.90955 13.8255C8.90955 13.858 8.90955 13.8894 8.90955 13.9219C8.88907 13.9219 8.86979 13.9219 8.84931 13.9219C8.80473 13.9219 8.76136 13.9219 8.71678 13.9219C8.5722 13.9038 8.42762 13.8833 8.28304 13.8617C8.27461 13.8701 8.26738 13.8785 8.25895 13.8858C8.25533 13.8725 8.24569 13.8641 8.22883 13.8617C8.14931 13.8508 8.071 13.8364 7.99389 13.8195C7.95413 13.7858 7.92762 13.7436 7.91557 13.693C7.89509 13.5942 7.88304 13.493 7.87943 13.3918C7.86497 13.1147 7.85413 12.8376 7.84931 12.5605C7.83365 11.9858 7.83726 11.4111 7.86136 10.8376C7.86136 10.8255 7.86136 10.8135 7.86136 10.8014C7.86377 10.7135 7.86859 10.6243 7.87341 10.5364C7.8963 10.14 7.92883 9.74359 7.96979 9.34961C8.28545 9.40503 8.60353 9.45563 8.9216 9.50021C8.92762 9.52792 8.93124 9.55563 8.93365 9.58455Z" fill="#FEFEFE"/>
<path fill-rule="evenodd" clip-rule="evenodd" d="M16.4158 9.46387C16.311 9.65664 16.2074 9.84941 16.1026 10.0422C15.7797 10.0916 15.4544 10.1133 15.1266 10.1084C15.0929 10.088 15.0736 10.0578 15.0664 10.0181C15.0905 9.88194 15.1146 9.74459 15.1387 9.60845C15.164 9.58796 15.1917 9.57351 15.223 9.56628C15.6218 9.54459 16.0194 9.50965 16.4158 9.46387Z" fill="#B999B5"/>
<path fill-rule="evenodd" clip-rule="evenodd" d="M12.7289 9.56055C12.853 9.58826 12.9771 9.61476 13.1024 9.63886C13.1241 9.6485 13.1421 9.66296 13.1566 9.68103C13.1397 9.81356 13.1192 9.94609 13.0964 10.0786C13.0795 10.1244 13.0494 10.1581 13.006 10.181C12.9373 10.1895 12.8698 10.1895 12.8012 10.181C12.7421 10.1485 12.6771 10.1304 12.6084 10.1268C12.6385 9.93645 12.6795 9.74729 12.7289 9.56055Z" fill="#B999B5"/>
<path fill-rule="evenodd" clip-rule="evenodd" d="M8.93359 9.58398C9.09383 9.72254 9.17094 9.89724 9.16251 10.1081C9.2348 10.1225 9.30709 10.137 9.37938 10.1502C9.50709 10.1418 9.63359 10.1587 9.75889 10.1984C9.76733 10.2141 9.76733 10.231 9.75889 10.2466C9.71311 10.3153 9.67456 10.3876 9.64444 10.4635C9.61552 10.4659 9.58781 10.4695 9.5601 10.4756C9.5613 10.4129 9.58058 10.3563 9.62034 10.3069C9.48058 10.2816 9.33962 10.2563 9.19865 10.2286C9.12998 10.2069 9.06251 10.184 8.99383 10.1623C9.00227 10.0792 9.01432 10.0009 9.02998 9.92736C9.01552 9.86832 8.98781 9.81772 8.94564 9.77676C8.93721 9.7129 8.93359 9.64904 8.93359 9.58398Z" fill="#BEA986"/>
<path fill-rule="evenodd" clip-rule="evenodd" d="M8.9458 9.77734C8.98797 9.81831 9.01568 9.86891 9.03014 9.92795C9.01448 10.0014 9.00243 10.0798 8.99399 10.1629C9.06267 10.1846 9.13014 10.2075 9.19881 10.2292C9.33978 10.2569 9.48074 10.2822 9.6205 10.3075C9.58074 10.3569 9.56146 10.4135 9.56026 10.4761C9.36146 10.487 9.16508 10.5111 8.9699 10.5484C8.96869 10.2906 8.96026 10.034 8.9458 9.77734Z" fill="#D3C192"/>
<path fill-rule="evenodd" clip-rule="evenodd" d="M13.4639 9.80098C13.576 9.79135 13.641 9.84074 13.6567 9.95159C13.6314 10.1299 13.5386 10.1829 13.3796 10.1082C13.2844 10.0287 13.2724 9.94074 13.3434 9.84315C13.3832 9.82267 13.423 9.80821 13.4639 9.80098Z" fill="#B999B5"/>
<path fill-rule="evenodd" clip-rule="evenodd" d="M15.3914 10.9576C15.242 11.3058 15.1155 11.6636 15.0119 12.0299C15.0022 12.0516 14.989 12.0697 14.9697 12.0841C14.9348 12.101 14.9022 12.1191 14.8733 12.1383C14.783 11.9877 14.6745 11.8516 14.548 11.7287C14.1589 11.2552 13.6565 11.0022 13.042 10.9697C13.042 10.9287 13.048 10.8889 13.0601 10.8492C13.0854 10.7986 13.1034 10.7468 13.1143 10.6926C13.1444 10.6456 13.1805 10.6034 13.2227 10.566C13.3046 10.5154 13.3926 10.4841 13.4878 10.4697C13.6998 10.4624 13.8793 10.5371 14.0239 10.6926C14.0721 10.7673 14.1299 10.8311 14.1986 10.8853C14.3697 10.7154 14.5673 10.5805 14.789 10.4817C14.9528 10.4203 15.1215 10.3998 15.295 10.4215C15.342 10.4287 15.3818 10.4492 15.4155 10.4817C15.4372 10.5034 15.4516 10.5299 15.4577 10.56C15.4637 10.6287 15.4601 10.6974 15.4456 10.7648C15.4263 10.8287 15.4083 10.8938 15.3914 10.9576Z" fill="#B999B5"/>
<path fill-rule="evenodd" clip-rule="evenodd" d="M10.0303 11.151C10.0689 11.2956 10.1171 11.4353 10.1749 11.5727C10.3484 11.9992 10.5532 12.4088 10.7893 12.8016C10.4785 12.7317 10.1652 12.7233 9.84959 12.7775C9.97609 12.6859 10.0014 12.5691 9.9279 12.4281C9.84959 12.3932 9.78091 12.4088 9.72308 12.4763C9.70501 12.5185 9.68694 12.5606 9.66886 12.6028C9.68453 12.6522 9.69898 12.7028 9.71103 12.7534C9.73151 12.7775 9.75802 12.7895 9.78934 12.7895C9.73272 12.8136 9.67248 12.8317 9.60862 12.8438C9.56766 12.8558 9.53151 12.8739 9.50019 12.898C9.29175 12.9534 9.09898 13.0426 8.92188 13.163C8.93513 12.2919 8.95079 11.4197 8.97007 10.5486C9.16525 10.5112 9.36163 10.4871 9.56043 10.4763C9.58814 10.4703 9.61585 10.4666 9.64477 10.4642C9.71344 10.4257 9.77609 10.4341 9.83151 10.4883C9.89296 10.7124 9.95922 10.9329 10.0303 11.151Z" fill="#CDB9DF"/>
<path fill-rule="evenodd" clip-rule="evenodd" d="M12.536 10.5605C12.7275 10.6124 12.9203 10.6569 13.1143 10.6931C13.1034 10.7473 13.0854 10.7991 13.0601 10.8497C13.048 10.8895 13.042 10.9292 13.042 10.9702C12.8588 10.9605 12.6781 10.9762 12.4998 11.0184C12.4974 10.8666 12.5095 10.7148 12.536 10.5605Z" fill="#CEB9DF"/>
<path fill-rule="evenodd" clip-rule="evenodd" d="M7.86146 10.8369C7.83737 11.4104 7.83375 11.9851 7.84942 12.5598C7.60484 12.6562 7.35183 12.7225 7.09038 12.7586C6.90966 12.7803 6.73737 12.7562 6.57231 12.6863C6.93978 13.8225 7.50243 14.8441 8.25906 15.7526C8.72773 16.5574 9.43014 16.9405 10.3675 16.9032C10.5012 16.8863 10.6338 16.8622 10.7651 16.8309C10.9085 16.7827 11.0494 16.7285 11.1868 16.6682C11.2374 16.6453 11.2892 16.6249 11.3434 16.608C11.253 16.6791 11.1832 16.7682 11.1325 16.8731C11.1036 16.9935 11.1217 17.1056 11.1868 17.2104C11.2699 17.2719 11.3615 17.314 11.4639 17.3369C11.6916 17.4008 11.9205 17.4586 12.1506 17.5116C12.1446 17.6321 12.141 17.7526 12.1386 17.8731C11.5145 17.8731 10.9157 17.749 10.3434 17.4996C10.2904 17.4694 10.235 17.4453 10.1747 17.4273C10.0362 17.3478 9.8952 17.2719 9.75303 17.1984C9.10966 16.7984 8.55183 16.2996 8.07833 15.7044C8.06749 15.6731 8.04701 15.649 8.01809 15.6321C7.85424 15.4056 7.69399 15.1767 7.53616 14.9453C7.51327 14.8875 7.48074 14.8345 7.43978 14.7887C7.37231 14.6574 7.30002 14.5285 7.22291 14.4032C7.06026 14.1261 6.90966 13.8417 6.7711 13.5478C6.59279 13.1779 6.46026 12.7923 6.37351 12.3911C6.36508 12.3068 6.36508 12.2225 6.37351 12.1381C6.41809 11.9321 6.51086 11.7514 6.65062 11.596C6.89399 11.349 7.16869 11.149 7.47592 10.9935C7.60243 10.9369 7.73134 10.8839 7.86146 10.8369Z" fill="#CDB9DF"/>
<path fill-rule="evenodd" clip-rule="evenodd" d="M15.7049 10.9453C15.6338 11.1537 15.5628 11.3622 15.4941 11.5718C15.3242 12.0911 15.2748 12.6212 15.3435 13.1622C15.3941 13.3152 15.4483 13.4682 15.5061 13.62C15.6097 13.7911 15.7097 13.9634 15.8073 14.1381C16.1387 14.4803 16.5387 14.6068 17.0061 14.5176C17.1266 14.4622 17.2242 14.379 17.3013 14.2706C17.4134 14.126 17.4736 13.961 17.482 13.7766C17.482 13.6646 17.482 13.5513 17.482 13.4393C17.4905 13.4284 17.5001 13.4212 17.5121 13.4152C17.576 13.5827 17.5977 13.755 17.5784 13.9333C17.5471 14.1718 17.4362 14.3622 17.2471 14.5056C16.9555 14.6381 16.6507 14.6839 16.3314 14.6441C16.2917 14.6441 16.2507 14.6441 16.2109 14.6441C15.982 14.6309 15.7531 14.6188 15.5242 14.608C15.2471 14.6056 14.97 14.6019 14.6929 14.5959C15.1796 13.9405 15.2893 13.226 15.0242 12.4513C14.9772 12.3453 14.9266 12.2405 14.8736 12.1381C14.9025 12.1188 14.935 12.1007 14.97 12.0839C14.9893 12.0694 15.0025 12.0513 15.0121 12.0296C15.1158 11.6634 15.2423 11.3056 15.3917 10.9574C15.4965 10.9574 15.6001 10.9537 15.7049 10.9453Z" fill="#CDB9DF"/>
<path fill-rule="evenodd" clip-rule="evenodd" d="M13.0423 10.9695C13.6568 11.0021 14.1592 11.2551 14.5484 11.7286C15.0327 12.39 15.1351 13.1093 14.8556 13.8852C14.4616 14.7659 13.7809 15.1973 12.8134 15.1804C12.6785 15.1707 12.546 15.1491 12.4158 15.1141C12.4255 14.9575 12.4303 14.8009 12.4279 14.6442C13.017 14.8382 13.5508 14.7394 14.0303 14.3491C14.6098 13.7671 14.7448 13.09 14.4339 12.3189C14.3701 12.2033 14.3014 12.09 14.2291 11.9816C14.205 11.9551 14.1785 11.931 14.1508 11.9093C13.7869 11.5226 13.3363 11.3479 12.8014 11.3852C12.1917 11.4888 11.7556 11.8201 11.4942 12.3792C11.4098 12.584 11.364 12.796 11.3556 13.0177C11.2255 12.9587 11.0929 12.9021 10.958 12.8491C10.9713 12.7141 10.9966 12.5816 11.0363 12.4515C11.2773 11.7189 11.7652 11.2406 12.5002 11.0177C12.6785 10.9756 12.8592 10.9599 13.0423 10.9695Z" fill="#DBD693"/>
<path fill-rule="evenodd" clip-rule="evenodd" d="M9.22272 10.9941C9.26609 10.9904 9.30585 10.9977 9.3432 11.0182C9.35886 11.0555 9.38537 11.0844 9.42151 11.1025C9.50344 11.3061 9.43235 11.4013 9.21067 11.3856C9.20103 11.3519 9.19862 11.3182 9.20464 11.2832C9.16368 11.2639 9.12151 11.2459 9.07814 11.229C9.05765 11.2109 9.04561 11.1892 9.04199 11.1627C9.05404 11.1242 9.07452 11.0904 9.10223 11.0603C9.14561 11.041 9.18537 11.0194 9.22272 10.9941Z" fill="#B999B5"/>
<path fill-rule="evenodd" clip-rule="evenodd" d="M14.1506 11.9099C13.6422 11.5003 13.0807 11.4099 12.4639 11.6388C11.8892 11.9292 11.5639 12.3942 11.488 13.0364C11.4904 13.0629 11.4916 13.0882 11.494 13.1147C11.7096 13.2569 11.8928 13.4328 12.0422 13.6448C12.0855 13.6569 12.1301 13.6605 12.1747 13.6569C12.1892 13.487 12.2157 13.3183 12.253 13.1509C12.2735 13.1159 12.3024 13.1087 12.3373 13.1268C12.3325 13.3292 12.3084 13.5304 12.2651 13.7292C12.2253 13.7593 12.1783 13.7737 12.1265 13.7713C12.2928 14.0388 12.3928 14.3304 12.4277 14.6448C12.4301 14.8015 12.4253 14.9581 12.4157 15.1147C12.5458 15.1496 12.6783 15.1713 12.8133 15.181C13.7807 15.1978 14.4614 14.7665 14.8554 13.8858C15.1349 13.1099 15.0325 12.3906 14.5482 11.7292C14.6747 11.8521 14.7831 11.9882 14.8735 12.1388C14.9265 12.2412 14.9771 12.346 15.0241 12.4521C15.2892 13.2268 15.1795 13.9412 14.6928 14.5966C14.3627 14.9846 13.9446 15.228 13.4398 15.3256C13.2904 15.6352 13.2361 15.9629 13.2771 16.3075C13.3566 16.8087 13.5988 17.2087 14.006 17.5063C13.9988 17.5123 13.9904 17.5135 13.9819 17.5123C13.5458 17.2581 13.2663 16.8846 13.1446 16.3918C13.0892 16.1268 13.0892 15.8617 13.1446 15.5966C13.1843 15.5171 13.2096 15.4328 13.2229 15.3436C13.0819 15.3472 12.941 15.3388 12.8012 15.3195C12.6651 15.2966 12.5325 15.2569 12.4036 15.199C12.388 15.2593 12.3711 15.3195 12.3554 15.3798C12.241 15.7569 12.0361 16.0762 11.741 16.3376C11.6157 16.44 11.4831 16.5304 11.3434 16.6087C11.2892 16.6256 11.2373 16.646 11.1867 16.6689C11.9337 16.2147 12.2771 15.5484 12.2169 14.6689C12.0867 13.9207 11.6831 13.3762 11.006 13.0364C10.5205 12.8111 10.0181 12.7653 9.5 12.8978C9.53133 12.8737 9.56747 12.8557 9.60843 12.8436C9.67229 12.8316 9.73253 12.8135 9.78916 12.7894C9.81205 12.793 9.83253 12.7894 9.8494 12.7774C10.1651 12.7231 10.4783 12.7316 10.7892 12.8015C10.8446 12.8171 10.9012 12.8328 10.9578 12.8496C11.0928 12.9027 11.2253 12.9593 11.3554 13.0183C11.3639 12.7966 11.4096 12.5846 11.494 12.3798C11.7554 11.8207 12.1916 11.4894 12.8012 11.3858C13.3361 11.3484 13.7867 11.5231 14.1506 11.9099Z" fill="#BEA986"/>
<path fill-rule="evenodd" clip-rule="evenodd" d="M9.39162 11.4756C9.46511 11.4912 9.5362 11.5153 9.60246 11.5479C9.65789 11.6394 9.65548 11.7274 9.59644 11.8129C9.50728 11.8298 9.41933 11.8286 9.33138 11.8069C9.31933 11.7973 9.30728 11.7864 9.29523 11.7768C9.30969 11.7563 9.30969 11.7358 9.29523 11.7165C9.1868 11.6635 9.18319 11.6021 9.28319 11.5298C9.32054 11.5117 9.35668 11.4937 9.39162 11.4756Z" fill="#B999B5"/>
<path fill-rule="evenodd" clip-rule="evenodd" d="M14.1504 11.9098C14.1782 11.9315 14.2047 11.9556 14.2288 11.9821C14.301 12.0905 14.3697 12.2038 14.4336 12.3194C14.7444 13.0905 14.6095 13.7676 14.03 14.3496C13.5504 14.7399 13.0167 14.8387 12.4276 14.6447C12.3926 14.3303 12.2926 14.0387 12.1263 13.7713C12.1782 13.7737 12.2251 13.7592 12.2649 13.7291C12.3083 13.5303 12.3324 13.3291 12.3372 13.1267C12.3023 13.1086 12.2733 13.1158 12.2529 13.1508C12.2155 13.3182 12.189 13.4869 12.1745 13.6568C12.13 13.6604 12.0854 13.6568 12.042 13.6447C11.8926 13.4327 11.7095 13.2568 11.4938 13.1146C11.4914 13.0881 11.4902 13.0628 11.4878 13.0363C11.5637 12.3941 11.889 11.9291 12.4637 11.6387C13.0806 11.4098 13.642 11.5002 14.1504 11.9098Z" fill="#D5C494"/>
<path fill-rule="evenodd" clip-rule="evenodd" d="M9.58436 11.9338C9.65665 11.9314 9.72051 11.9542 9.77713 12C9.77111 12.0049 9.76749 12.0109 9.76508 12.0181C9.82051 12.1157 9.81328 12.2061 9.74099 12.2892C9.67713 12.3338 9.61087 12.3398 9.54219 12.3073C9.53496 12.2615 9.52292 12.2181 9.50605 12.1747C9.47713 12.1434 9.45183 12.1121 9.42773 12.0783C9.43617 12.0398 9.45545 12.0097 9.48798 11.988C9.52292 11.9723 9.55545 11.9542 9.58436 11.9338Z" fill="#B999B5"/>
<path fill-rule="evenodd" clip-rule="evenodd" d="M12.2349 12.1628C12.5072 12.1483 12.7458 12.229 12.9518 12.4037C13.1518 12.6628 13.1301 12.9013 12.8855 13.1206C12.8157 13.1628 12.7482 13.2049 12.6807 13.2471C12.7205 13.4134 12.7675 13.5784 12.8193 13.7411C12.8277 13.7688 12.8277 13.7977 12.8193 13.8254C12.8024 13.8327 12.7843 13.8363 12.7651 13.8375C12.6735 13.8315 12.5831 13.8194 12.494 13.8013C12.4843 13.7748 12.4904 13.7531 12.512 13.7351C12.5735 13.729 12.6337 13.729 12.6928 13.7351C12.6169 13.5278 12.5759 13.3122 12.5723 13.0905C12.8506 13.0676 12.9807 12.9146 12.9639 12.6327C12.9193 12.4796 12.8217 12.3772 12.6687 12.3254C12.5012 12.2676 12.3277 12.2375 12.1506 12.2351C12.147 12.217 12.1518 12.2013 12.1626 12.1869C12.1892 12.1809 12.2133 12.1724 12.2349 12.1628Z" fill="#BEA886"/>
<path fill-rule="evenodd" clip-rule="evenodd" d="M9.84918 12.7766C9.83231 12.7887 9.81183 12.7923 9.78894 12.7887C9.75761 12.7887 9.73111 12.7766 9.71063 12.7525C9.69858 12.7019 9.68412 12.6513 9.66846 12.6019C9.68653 12.5598 9.7046 12.5176 9.72267 12.4754C9.78051 12.4079 9.84918 12.3923 9.92749 12.4272C10.001 12.5682 9.97569 12.6851 9.84918 12.7766Z" fill="#B999B5"/>
<path fill-rule="evenodd" clip-rule="evenodd" d="M12.3796 12.4395C12.4326 12.4455 12.4844 12.4551 12.5362 12.4696C12.6025 12.5057 12.6001 12.5322 12.5302 12.5479C12.4844 12.5358 12.4386 12.5274 12.3916 12.5238C12.376 12.6443 12.3627 12.7648 12.3495 12.8852C12.341 12.8985 12.329 12.9057 12.3133 12.9093C12.2916 12.9045 12.2688 12.8997 12.2471 12.8973C12.2543 12.7563 12.2736 12.6178 12.3073 12.4816C12.3338 12.4708 12.3579 12.4563 12.3796 12.4395Z" fill="#BEA886"/>
<path fill-rule="evenodd" clip-rule="evenodd" d="M7.84937 12.5605C7.85419 12.8377 7.86504 13.1148 7.87949 13.3919C7.88311 13.4931 7.89516 13.5943 7.91564 13.6931C7.92769 13.7437 7.95419 13.7858 7.99395 13.8196C8.07106 13.8365 8.14937 13.8509 8.22889 13.8618C8.24576 13.8642 8.2554 13.8726 8.25901 13.8858C8.20118 13.9979 8.15299 14.1136 8.11443 14.2352C8.0301 14.2533 7.96383 14.2979 7.91564 14.3678C7.90721 14.6051 7.90721 14.8413 7.91564 15.0786C7.9301 15.1352 7.94335 15.1919 7.95781 15.2473C7.99757 15.2473 8.03853 15.2473 8.07829 15.2473C8.11443 15.4256 8.17468 15.5943 8.25901 15.7533C7.50239 14.8449 6.93974 13.8232 6.57227 12.6871C6.73733 12.7569 6.90962 12.781 7.09034 12.7593C7.35178 12.7232 7.6048 12.6569 7.84937 12.5605Z" fill="#B999B5"/>
<path fill-rule="evenodd" clip-rule="evenodd" d="M13.4038 12.7173C13.6834 12.7089 13.9183 12.8053 14.1087 13.0065C14.1834 13.1004 14.2075 13.2053 14.1809 13.3197C14.1159 13.5209 13.9822 13.6474 13.7773 13.6992C13.6701 13.7173 13.5617 13.7281 13.452 13.7294C13.4291 13.9462 13.4087 14.1631 13.3918 14.38C13.2617 14.3836 13.134 14.3739 13.0063 14.3498C12.9809 14.3173 12.9846 14.2848 13.0183 14.2535C13.1075 14.2522 13.1954 14.2498 13.2834 14.2474C13.3291 14.0571 13.3593 13.8643 13.3737 13.6691C13.3797 13.6522 13.3894 13.6378 13.4038 13.6269C13.5773 13.6354 13.7412 13.6028 13.8978 13.5306C14.0773 13.4161 14.1159 13.2655 14.0123 13.0788C13.9111 12.9426 13.7773 12.8607 13.6087 12.8318C13.5014 12.8089 13.393 12.7992 13.2834 12.8016C13.2809 12.7775 13.2846 12.7559 13.2954 12.7354C13.334 12.733 13.3701 12.7269 13.4038 12.7173Z" fill="#BEA886"/>
<path fill-rule="evenodd" clip-rule="evenodd" d="M11.1866 16.6691C11.0492 16.7294 10.9082 16.7836 10.7649 16.8318C10.6335 16.8631 10.501 16.8872 10.3673 16.9041C9.42993 16.9414 8.72752 16.5583 8.25885 15.7535C8.17451 15.5944 8.11427 15.4257 8.07812 15.2474C8.2227 15.2535 8.36728 15.2571 8.51186 15.2595C8.64198 15.6932 8.90343 16.0282 9.29499 16.2655C9.75764 16.5137 10.2396 16.5559 10.7408 16.392C11.2649 16.1824 11.6046 15.8053 11.7588 15.2595C11.7986 15.0221 11.7986 14.786 11.7588 14.5486C11.7191 14.4643 11.6902 14.3763 11.6745 14.2836C11.6492 14.2414 11.6299 14.1968 11.6143 14.151C11.536 14.051 11.4637 13.9462 11.3974 13.8378C11.307 13.7595 11.2203 13.6776 11.1384 13.5908C11.0287 13.5294 10.9203 13.4655 10.8131 13.398C10.6769 13.3498 10.5396 13.3053 10.4034 13.2655C10.0745 13.2029 9.75644 13.233 9.45162 13.3559C9.24559 13.4282 9.06487 13.5414 8.90945 13.6932C8.90825 13.5161 8.91186 13.3402 8.9215 13.1631C9.09861 13.0426 9.29138 12.9535 9.49981 12.898C10.0179 12.7655 10.5203 12.8113 11.0058 13.0366C11.6829 13.3763 12.0866 13.9209 12.2167 14.6691C12.2769 15.5486 11.9335 16.2149 11.1866 16.6691Z" fill="#DBD593"/>
<path fill-rule="evenodd" clip-rule="evenodd" d="M13.4159 13.0298C13.5388 13.0129 13.6448 13.0443 13.7351 13.1262C13.7629 13.1539 13.7592 13.1744 13.7231 13.1864C13.6472 13.1551 13.5689 13.1346 13.4882 13.1262C13.4809 13.2141 13.4725 13.3033 13.4641 13.3913C13.4315 13.3876 13.4002 13.3828 13.3677 13.3792C13.387 13.284 13.3942 13.19 13.3918 13.0961C13.3954 13.072 13.4026 13.0503 13.4159 13.0298Z" fill="#BEA886"/>
<path fill-rule="evenodd" clip-rule="evenodd" d="M15.3433 13.1631C15.389 13.1944 15.4336 13.2294 15.4758 13.2655C15.8035 13.3872 16.1409 13.4715 16.4878 13.5185C16.8336 13.5691 17.1698 13.5318 17.4939 13.404C17.5035 13.4053 17.5095 13.4089 17.5119 13.4161C17.4999 13.4221 17.4902 13.4294 17.4818 13.4402C17.4818 13.5522 17.4818 13.6655 17.4818 13.7775C17.4734 13.9619 17.4131 14.1269 17.3011 14.2715C17.224 14.38 17.1264 14.4631 17.0059 14.5185C16.5384 14.6077 16.1384 14.4812 15.8071 14.139C15.7095 13.9643 15.6095 13.792 15.5059 13.6209C15.4481 13.4691 15.3939 13.3161 15.3433 13.1631Z" fill="#B999B5"/>
<path fill-rule="evenodd" clip-rule="evenodd" d="M10.7411 16.3916C10.7314 16.3832 10.7194 16.3796 10.7049 16.3796C9.85311 16.5302 9.21215 16.2326 8.78323 15.488C8.75552 15.4097 8.7254 15.3338 8.69287 15.2591C8.77359 15.2591 8.85311 15.2591 8.93383 15.2591C8.93143 14.9495 8.9254 14.641 8.91576 14.3314C8.90853 14.2989 8.89046 14.2748 8.86155 14.2591C8.80974 14.2483 8.75793 14.2446 8.70492 14.2471C8.73022 14.1278 8.77841 14.0193 8.8495 13.9218C8.86998 13.9218 8.88926 13.9218 8.90974 13.9218C8.90974 13.8892 8.90974 13.8579 8.90974 13.8254C9.05552 13.6338 9.23624 13.4832 9.45191 13.3736C9.46637 13.3651 9.46637 13.3591 9.45191 13.3555C9.75673 13.2326 10.0748 13.2025 10.4037 13.2651C10.5399 13.3049 10.6772 13.3495 10.8134 13.3977C10.9206 13.4651 11.029 13.529 11.1387 13.5904C11.2206 13.6772 11.3073 13.7591 11.3977 13.8374C11.464 13.9459 11.5362 14.0507 11.6146 14.1507C11.6302 14.1965 11.6495 14.241 11.6748 14.2832C11.6905 14.376 11.7194 14.4639 11.7591 14.5483C11.7989 14.7856 11.7989 15.0218 11.7591 15.2591C11.6049 15.8049 11.2652 16.182 10.7411 16.3916Z" fill="#D4C494"/>
<path fill-rule="evenodd" clip-rule="evenodd" d="M9.45184 13.3555C9.46629 13.3591 9.46629 13.3651 9.45184 13.3735C9.23617 13.4832 9.05545 13.6338 8.90967 13.8253C8.90967 13.7808 8.90967 13.7374 8.90967 13.6928C9.06509 13.541 9.24581 13.4278 9.45184 13.3555Z" fill="#C1AC87"/>
<path fill-rule="evenodd" clip-rule="evenodd" d="M10.6203 13.7773C10.6794 13.7822 10.736 13.7978 10.789 13.8255C10.9035 13.9207 10.9794 14.04 11.0179 14.181C11.0215 14.352 10.9854 14.5171 10.9095 14.6749C11.0974 14.7894 11.2902 14.8954 11.4878 14.9942C11.4456 15.1099 11.3914 15.2183 11.3252 15.3195C11.2962 15.3316 11.2661 15.3316 11.2348 15.3195C11.2444 15.2279 11.2746 15.1436 11.3252 15.0665C11.3336 15.0545 11.3336 15.0424 11.3252 15.0304C11.2107 14.9605 11.1011 14.8858 10.9938 14.8075C10.9228 14.787 10.8601 14.752 10.8071 14.7051C10.7987 14.6846 10.7987 14.6653 10.8071 14.6448C10.8962 14.4749 10.9203 14.2978 10.8794 14.1147C10.8589 14.0605 10.8288 14.0123 10.789 13.9701C10.6493 13.8918 10.5083 13.8918 10.3673 13.9701C10.1926 14.0966 10.0685 14.2617 9.99383 14.4641C9.96492 14.4798 9.94564 14.4725 9.93359 14.44C10.0023 14.1569 10.1661 13.9496 10.4276 13.8195C10.4926 13.8014 10.5565 13.787 10.6203 13.7773Z" fill="#BEA986"/>
<path fill-rule="evenodd" clip-rule="evenodd" d="M8.71667 13.9216C8.6492 14.024 8.58896 14.1288 8.53594 14.2348C8.39498 14.2288 8.25402 14.2288 8.11426 14.2348C8.15281 14.1131 8.201 13.9975 8.25884 13.8854C8.26727 13.8782 8.2745 13.8698 8.28293 13.8613C8.42751 13.883 8.57209 13.9035 8.71667 13.9216Z" fill="#DBD693"/>
<path fill-rule="evenodd" clip-rule="evenodd" d="M8.71686 13.9219C8.76143 13.9219 8.80481 13.9219 8.84939 13.9219C8.7783 14.0195 8.73011 14.1279 8.70481 14.2472C8.64577 14.2508 8.59035 14.2472 8.53613 14.2351C8.58914 14.1291 8.64939 14.0243 8.71686 13.9219Z" fill="#BFAA87"/>
<path fill-rule="evenodd" clip-rule="evenodd" d="M10.452 14.1865C10.4725 14.1865 10.4918 14.1865 10.5123 14.1865C10.5159 14.2046 10.5111 14.2203 10.5002 14.2347C10.4533 14.2841 10.4123 14.3383 10.3798 14.3974C10.3954 14.4178 10.4111 14.4371 10.428 14.4576C10.487 14.4745 10.5412 14.501 10.5906 14.5359C10.5906 14.5697 10.5773 14.5986 10.5484 14.6203C10.4713 14.5636 10.387 14.5215 10.2954 14.4938C10.2761 14.4805 10.2641 14.4624 10.2593 14.4395C10.2677 14.3853 10.287 14.3371 10.3195 14.295C10.3605 14.254 10.4051 14.2178 10.452 14.1865Z" fill="#BFA986"/>
<path fill-rule="evenodd" clip-rule="evenodd" d="M8.53599 14.235C8.5902 14.247 8.64563 14.2506 8.70466 14.247C8.75767 14.2446 8.80948 14.2482 8.86129 14.2591C8.8902 14.2747 8.90828 14.2988 8.91551 14.3314C8.92514 14.641 8.93117 14.9494 8.93358 15.2591C8.85285 15.2591 8.77334 15.2591 8.69261 15.2591C8.63237 15.2591 8.57213 15.2591 8.51189 15.2591C8.36731 15.2567 8.22273 15.2531 8.07816 15.247C8.0384 15.247 7.99743 15.247 7.95767 15.247C7.94322 15.1916 7.92996 15.135 7.9155 15.0784C7.90707 14.841 7.90707 14.6049 7.9155 14.3675C7.9637 14.2976 8.02996 14.2531 8.1143 14.235C8.25406 14.229 8.39502 14.229 8.53599 14.235Z" fill="#FEFEFE"/>
<path fill-rule="evenodd" clip-rule="evenodd" d="M7.2228 14.4033C7.29991 14.5286 7.3722 14.6575 7.43967 14.7889C7.10834 15.2407 7.01798 15.7383 7.16858 16.2828C7.33364 16.7889 7.65653 17.1563 8.13846 17.3852C8.19027 17.4057 8.24208 17.4238 8.29509 17.4395C8.32641 17.4612 8.36256 17.4756 8.40352 17.4816C8.73726 17.5503 9.06376 17.5274 9.38545 17.4154C9.46979 17.3684 9.55533 17.3262 9.64449 17.2889C9.67581 17.2515 9.71196 17.2214 9.75292 17.1985C9.89509 17.272 10.0361 17.3479 10.1746 17.4274C9.66497 17.878 9.07099 18.0383 8.39147 17.9093C7.6722 17.7334 7.16256 17.3118 6.86135 16.6443C6.54208 15.825 6.66256 15.078 7.2228 14.4033Z" fill="#DBD593"/>
<path fill-rule="evenodd" clip-rule="evenodd" d="M14.6926 14.5967C14.9697 14.6027 15.2468 14.6063 15.5239 14.6087C15.548 14.6388 15.5805 14.6569 15.6203 14.6629C15.6287 14.675 15.6359 14.687 15.6444 14.6991C15.701 14.7388 15.7564 14.7798 15.813 14.8196C16.0432 15.0641 16.2094 15.3473 16.313 15.669C16.3998 16.0943 16.3516 16.5003 16.1685 16.8858C16.1094 16.9678 16.0528 17.0521 15.9998 17.1388C15.9299 17.2051 15.8636 17.275 15.801 17.3497C15.7094 17.4111 15.6167 17.4738 15.5239 17.5364C15.354 17.6135 15.1769 17.6714 14.9938 17.7111C14.7046 17.7364 14.4239 17.7003 14.1504 17.6027C14.0877 17.581 14.0323 17.5521 13.9817 17.5123C13.9901 17.5135 13.9986 17.5123 14.0058 17.5063C13.5986 17.2087 13.3564 16.8087 13.2769 16.3075C13.2359 15.9629 13.2901 15.6352 13.4395 15.3256C13.9444 15.228 14.3624 14.9846 14.6926 14.5967Z" fill="#D4C494"/>
<path fill-rule="evenodd" clip-rule="evenodd" d="M9.59639 14.6085C9.85301 14.5856 10.0277 14.694 10.1205 14.9338C10.1313 14.9723 10.141 15.0109 10.1506 15.0482C10.147 15.0518 10.1422 15.0567 10.1386 15.0603C10.153 15.1097 10.1614 15.1579 10.1627 15.2048C10.3578 15.2301 10.5542 15.2579 10.753 15.2892C10.7651 15.3012 10.7675 15.3157 10.759 15.3314C10.7157 15.4109 10.6735 15.4916 10.6325 15.5723C10.5928 15.6061 10.5687 15.5964 10.5602 15.5422C10.5687 15.4904 10.5892 15.4446 10.6205 15.4036C10.4795 15.3783 10.3398 15.353 10.1988 15.3253C10.1337 15.3048 10.0699 15.282 10.006 15.2591C10.0024 15.2506 9.99759 15.2434 9.99398 15.235C10.0687 14.9844 9.97952 14.8097 9.72892 14.7109C9.58554 14.6868 9.46024 14.7241 9.35542 14.8253C9.21205 14.9615 9.10723 15.1217 9.04217 15.3073C9.02651 15.3097 9.01205 15.3048 9 15.2952C9.00843 15.1506 9.05904 15.0229 9.1506 14.9097C9.24217 14.8 9.3506 14.7097 9.4759 14.6386C9.51807 14.6326 9.55904 14.6217 9.59639 14.6085Z" fill="#BEA986"/>
<path fill-rule="evenodd" clip-rule="evenodd" d="M15.5243 14.6084C15.7532 14.6192 15.9821 14.6313 16.211 14.6445C16.711 15.2192 16.8773 15.8819 16.711 16.6325C16.5183 17.3265 16.0869 17.8024 15.4158 18.0602C15.2038 18.1217 14.9869 18.1554 14.7652 18.1626C14.5496 18.1602 14.3411 18.1241 14.1387 18.0542C13.9809 18.0036 13.8327 17.9325 13.693 17.8433C13.5749 17.7638 13.4628 17.6771 13.3556 17.5843C13.1556 17.3747 12.9954 17.1373 12.8737 16.8735C12.6604 16.3626 12.6363 15.8445 12.8014 15.3192C12.9411 15.3385 13.0821 15.347 13.2231 15.3433C13.2098 15.4325 13.1845 15.5168 13.1448 15.5964C13.0893 15.8614 13.0893 16.1265 13.1448 16.3915C13.2664 16.8843 13.5448 17.2578 13.9821 17.512C14.0327 17.5506 14.0881 17.5819 14.1508 17.6024C14.4243 17.7 14.705 17.7361 14.9942 17.7108C15.1773 17.6723 15.3544 17.6132 15.5243 17.5361C15.617 17.4735 15.7098 17.4108 15.8014 17.3494C15.864 17.2747 15.9303 17.2048 16.0002 17.1385C16.0532 17.0518 16.1098 16.9674 16.1689 16.8855C16.352 16.5 16.4002 16.0939 16.3134 15.6686C16.2098 15.347 16.0436 15.0638 15.8134 14.8192C15.7568 14.7795 15.7014 14.7385 15.6448 14.6988C15.6363 14.6867 15.6291 14.6747 15.6207 14.6626C15.5809 14.6566 15.5484 14.6385 15.5243 14.6084Z" fill="#DBD593"/>
<path fill-rule="evenodd" clip-rule="evenodd" d="M16.211 14.6445C16.2507 14.6445 16.2917 14.6445 16.3314 14.6445C16.8194 15.1518 17.0326 15.7578 16.97 16.4638C16.7917 17.4674 16.2013 18.0602 15.1989 18.2409C14.8254 18.2783 14.4724 18.2156 14.1387 18.0542C14.3411 18.124 14.5495 18.1602 14.7652 18.1626C14.9869 18.1554 15.2037 18.1216 15.4158 18.0602C16.0869 17.8024 16.5182 17.3265 16.711 16.6325C16.8772 15.8819 16.711 15.2192 16.211 14.6445Z" fill="#BEA887"/>
<path fill-rule="evenodd" clip-rule="evenodd" d="M7.43982 14.7891C7.48079 14.8348 7.51332 14.8879 7.53621 14.9457C7.32537 15.2746 7.24344 15.6361 7.28922 16.03C7.38199 16.6915 7.72898 17.1601 8.33139 17.4336C8.32055 17.4397 8.3085 17.4421 8.29525 17.4397C8.24223 17.424 8.19043 17.4059 8.13862 17.3854C7.65669 17.1565 7.3338 16.7891 7.16874 16.283C7.01814 15.7385 7.1085 15.2409 7.43982 14.7891Z" fill="#BFA986"/>
<path fill-rule="evenodd" clip-rule="evenodd" d="M7.53615 14.9453C7.69398 15.1766 7.85422 15.4056 8.01807 15.6321C7.97952 15.6513 7.93976 15.6694 7.89759 15.6863C7.84819 15.7513 7.8506 15.814 7.90362 15.873C7.93012 15.9537 7.96627 16.0296 8.01205 16.1019C8.0494 16.1441 8.08795 16.1417 8.12651 16.0959C8.06988 15.9839 8.01325 15.8706 7.95783 15.7586C7.99277 15.7296 8.03253 15.7116 8.07831 15.7043C8.55181 16.2995 9.10964 16.7983 9.75301 17.1983C9.71205 17.2212 9.6759 17.2513 9.64458 17.2887C9.55542 17.326 9.46988 17.3682 9.38554 17.4152C9.06386 17.5272 8.73735 17.5501 8.40362 17.4815C8.36265 17.4754 8.32651 17.461 8.29518 17.4393C8.30844 17.4417 8.32048 17.4393 8.33133 17.4333C7.72892 17.1598 7.38193 16.6911 7.28916 16.0296C7.24338 15.6357 7.3253 15.2742 7.53615 14.9453Z" fill="#D4C393"/>
<path fill-rule="evenodd" clip-rule="evenodd" d="M9.42752 15.0186C9.44319 15.0186 9.46005 15.0186 9.47572 15.0186C9.47813 15.039 9.47572 15.0595 9.46969 15.0788C9.43837 15.1137 9.41186 15.1523 9.39138 15.1933C9.50343 15.2619 9.61548 15.3294 9.72873 15.3981C9.71548 15.427 9.6974 15.4535 9.67451 15.4764C9.55885 15.4113 9.44439 15.3427 9.33114 15.2716C9.31066 15.168 9.34319 15.0836 9.42752 15.0186Z" fill="#BEA986"/>
<path fill-rule="evenodd" clip-rule="evenodd" d="M12.8013 15.3197C12.6363 15.845 12.6604 16.3631 12.8736 16.8739C12.829 16.8763 12.7857 16.8811 12.7411 16.886C12.7616 17.1848 12.7929 17.4811 12.8375 17.7775C12.6073 17.833 12.3748 17.8655 12.1387 17.8739C12.1411 17.7534 12.1447 17.633 12.1507 17.5125C12.2471 17.539 12.3459 17.5595 12.4459 17.5727C12.4724 17.5715 12.4989 17.5655 12.5242 17.5546C12.5664 17.5209 12.6049 17.4824 12.6387 17.4402C12.6784 17.3643 12.6784 17.2884 12.6387 17.2113C12.623 17.1787 12.6061 17.1474 12.5905 17.1149C12.4628 16.9354 12.3302 16.7583 12.1929 16.5848C12.1845 16.5004 12.1893 16.4161 12.2049 16.3317C12.3001 16.2414 12.3688 16.133 12.4098 16.0064C12.4399 15.8727 12.4652 15.7378 12.4881 15.6028C12.476 15.5089 12.4314 15.4342 12.3555 15.3799C12.3712 15.3197 12.3881 15.2595 12.4037 15.1992C12.5326 15.2571 12.6652 15.2968 12.8013 15.3197Z" fill="#D0CAC7"/>
<path fill-rule="evenodd" clip-rule="evenodd" d="M8.51221 15.2588C8.57245 15.2588 8.63269 15.2588 8.69293 15.2588C8.72546 15.3335 8.75558 15.4094 8.78329 15.4877C9.21221 16.2323 9.85317 16.5299 10.705 16.3793C10.7194 16.3793 10.7315 16.3829 10.7411 16.3913C10.2399 16.5552 9.75799 16.513 9.29534 16.2648C8.90377 16.0275 8.64233 15.6925 8.51221 15.2588Z" fill="#BFA986"/>
<path fill-rule="evenodd" clip-rule="evenodd" d="M12.3554 15.3799C12.4313 15.4341 12.4759 15.5088 12.4879 15.6028C12.465 15.7377 12.4397 15.8727 12.4096 16.0064C12.3686 16.1329 12.3 16.2413 12.2048 16.3317C12.1891 16.416 12.1843 16.5004 12.1927 16.5847C12.3301 16.7582 12.4626 16.9353 12.5903 17.1148C12.606 17.1474 12.6228 17.1787 12.6385 17.2112C12.6783 17.2883 12.6783 17.3642 12.6385 17.4401C12.6048 17.4823 12.5662 17.5208 12.5241 17.5546C12.4988 17.5654 12.4735 17.5714 12.4457 17.5727C12.3457 17.5594 12.2469 17.5389 12.1506 17.5124C11.9204 17.4594 11.6915 17.4016 11.4638 17.3377C11.3614 17.3148 11.2698 17.2727 11.1867 17.2112C11.1216 17.1064 11.1036 16.9943 11.1325 16.8739C11.1831 16.769 11.253 16.6799 11.3433 16.6088C11.4831 16.5305 11.6156 16.4401 11.7409 16.3377C12.0361 16.0763 12.2409 15.757 12.3554 15.3799Z" fill="#B999B5"/>
<path fill-rule="evenodd" clip-rule="evenodd" d="M13.9942 15.3916C14.1448 15.3819 14.2942 15.3964 14.4399 15.4337C14.7387 15.588 14.8146 15.8181 14.6689 16.1265C14.6267 16.1988 14.5749 16.2615 14.5122 16.3133C14.605 16.4494 14.7062 16.5795 14.8134 16.7048C14.8255 16.7301 14.8387 16.7542 14.8556 16.7771C14.864 16.7928 14.864 16.8096 14.8556 16.8253C14.7604 16.8578 14.664 16.8892 14.5664 16.9217C14.5279 16.894 14.5267 16.8639 14.5604 16.8313C14.6074 16.8096 14.6556 16.7916 14.705 16.7771C14.611 16.6687 14.5279 16.5518 14.458 16.4277C14.4182 16.359 14.3881 16.2868 14.3676 16.2109C14.5351 16.1518 14.6195 16.0313 14.6207 15.8494C14.605 15.659 14.505 15.541 14.3195 15.494C14.2255 15.4795 14.1327 15.4735 14.0423 15.4759C13.9098 15.5096 13.7773 15.541 13.6448 15.5723C13.6436 15.5554 13.6472 15.5386 13.6568 15.5241C13.7592 15.453 13.8725 15.4084 13.9942 15.3916Z" fill="#BEA986"/>
<path fill-rule="evenodd" clip-rule="evenodd" d="M9.90984 15.4756C9.98816 15.4925 10.0604 15.5226 10.1267 15.5659C10.2424 15.6238 10.3508 15.6949 10.452 15.7768C10.4653 15.8081 10.4665 15.8406 10.458 15.8732C10.4171 15.9479 10.3749 16.0226 10.3315 16.0961C10.3074 16.1045 10.2833 16.1045 10.2592 16.0961C10.252 16.0876 10.2484 16.0768 10.2472 16.0659C10.2857 15.9912 10.3219 15.9153 10.3556 15.837C10.205 15.7479 10.0568 15.6575 9.90984 15.5659C9.89659 15.5358 9.89659 15.5057 9.90984 15.4756Z" fill="#BEA986"/>
<path fill-rule="evenodd" clip-rule="evenodd" d="M15.2829 15.4882C15.4467 15.4713 15.601 15.499 15.7467 15.5725C15.9323 15.6749 15.9925 15.8267 15.9275 16.0303C15.8913 16.1701 15.813 16.2785 15.6925 16.3556C15.5974 16.3966 15.5046 16.4424 15.4154 16.4942C15.4745 16.705 15.5347 16.9159 15.5961 17.1267C15.4757 17.1689 15.3528 17.205 15.2287 17.2352C15.1974 17.2087 15.1877 17.1761 15.1986 17.1388C15.2781 17.0942 15.3624 17.0665 15.4516 17.0544C15.4299 16.905 15.4034 16.7569 15.3733 16.6087C15.3395 16.552 15.3227 16.4918 15.3251 16.4279C15.3287 16.4183 15.3347 16.4099 15.3431 16.4038C15.4708 16.3593 15.5877 16.2954 15.6925 16.2111C15.8974 16.0087 15.8853 15.8219 15.6564 15.6508C15.4058 15.5581 15.16 15.5725 14.9214 15.693C14.8974 15.6689 14.8925 15.6436 14.9094 15.6147C15.0287 15.552 15.1528 15.5099 15.2829 15.4882Z" fill="#BEA986"/>
<path fill-rule="evenodd" clip-rule="evenodd" d="M8.01824 15.6328C8.04716 15.6497 8.06764 15.6738 8.07848 15.7051C8.0327 15.7123 7.99294 15.7304 7.958 15.7593C8.01342 15.8714 8.07005 15.9846 8.12668 16.0967C8.08812 16.1425 8.04957 16.1449 8.01222 16.1027C7.96644 16.0304 7.93029 15.9545 7.90379 15.8738C7.85077 15.8147 7.84836 15.7521 7.89776 15.687C7.93993 15.6702 7.97969 15.6521 8.01824 15.6328Z" fill="#BFA986"/>
<path fill-rule="evenodd" clip-rule="evenodd" d="M14.0665 15.6562C14.099 15.6575 14.1315 15.6611 14.1629 15.6683C14.1653 15.6876 14.1616 15.7056 14.1508 15.7225C14.1074 15.7358 14.0641 15.743 14.0183 15.7466C14.0062 15.7526 13.9978 15.7635 13.9942 15.7767C14.0195 15.8888 14.0472 15.9996 14.0785 16.1081C14.0641 16.1538 14.0327 16.1719 13.9821 16.1623C13.9496 16.0358 13.9171 15.9093 13.8857 15.7828C13.8978 15.7478 13.9183 15.7177 13.946 15.6924C13.9869 15.6803 14.0279 15.6683 14.0665 15.6562Z" fill="#BFA986"/>
<path fill-rule="evenodd" clip-rule="evenodd" d="M15.2468 15.8015C15.3347 15.7894 15.4155 15.8075 15.4878 15.8557C15.4817 15.8605 15.4781 15.8665 15.4757 15.8738C15.3962 15.8846 15.3203 15.8966 15.2468 15.9099C15.2323 15.9376 15.2311 15.9653 15.2408 15.9942C15.2793 16.0533 15.2938 16.1147 15.2829 16.181C15.2576 16.1846 15.2335 16.1906 15.2106 16.1991C15.189 16.0906 15.1564 15.987 15.1143 15.8858C15.1155 15.875 15.1191 15.8641 15.1263 15.8557C15.1637 15.828 15.2034 15.8099 15.2468 15.8015Z" fill="#BEA986"/>
<path fill-rule="evenodd" clip-rule="evenodd" d="M8.22272 16.2832C8.26488 16.2904 8.29501 16.3145 8.31308 16.3555C8.3685 16.4712 8.42874 16.5832 8.4938 16.6928C8.51067 16.7314 8.52392 16.7724 8.53597 16.8133C8.53115 16.8338 8.52513 16.8543 8.5179 16.8736C8.43356 16.9314 8.34561 16.9796 8.25284 17.0181C8.21669 17.0061 8.20103 16.982 8.20464 16.9459C8.28296 16.9097 8.35404 16.8615 8.41549 16.8013C8.33958 16.6591 8.2697 16.5145 8.20464 16.3675C8.19501 16.335 8.20103 16.3073 8.22272 16.2832Z" fill="#BEA986"/>
<path fill-rule="evenodd" clip-rule="evenodd" d="M14.1024 16.3439C14.1591 16.3342 14.1892 16.3583 14.1928 16.4162C14.2205 16.5162 14.2494 16.6174 14.2771 16.7174C14.2964 16.7933 14.3048 16.8692 14.3012 16.9463C14.288 16.974 14.2663 16.9921 14.235 17.0005C14.1554 17.0198 14.0771 17.0427 14 17.0668C13.9699 17.0583 13.9518 17.0378 13.9458 17.0065C13.9759 16.9668 14.0157 16.9487 14.0663 16.9523C14.1121 16.933 14.1566 16.9113 14.1988 16.886C14.1422 16.7089 14.1097 16.5282 14.1024 16.3439Z" fill="#BEA986"/>
<path fill-rule="evenodd" clip-rule="evenodd" d="M16.9701 16.4639C17.1436 16.541 17.3123 16.6265 17.4761 16.7229C17.6255 16.8157 17.7605 16.9265 17.8797 17.0542C17.8797 16.9301 17.8773 16.8048 17.8737 16.6807C17.8942 16.8952 17.9062 17.1121 17.9099 17.3313C17.9135 17.406 17.9026 17.4783 17.8797 17.5482C17.7665 17.6482 17.6448 17.7337 17.5123 17.8072C17.252 17.9639 16.9834 18.1036 16.705 18.2289C16.1364 18.453 15.5496 18.6145 14.946 18.7109C13.6797 18.9566 12.4026 19.0494 11.1147 18.988C10.199 18.9735 9.29901 18.8458 8.41588 18.6024C7.8713 18.4169 7.36046 18.1639 6.88576 17.8434C6.67371 17.6916 6.49901 17.5048 6.36166 17.2831C6.34962 17.1542 6.33998 17.0265 6.33154 16.8976C6.33154 16.8783 6.33516 16.8627 6.34359 16.8494C6.3448 16.9024 6.35082 16.9542 6.36166 17.006C6.50986 16.859 6.67733 16.7386 6.86166 16.6446C7.16287 17.3121 7.67251 17.7337 8.39178 17.9097C8.94118 18.0603 9.4713 18.0097 9.98215 17.759C10.1147 17.688 10.2352 17.6024 10.3436 17.5C10.9159 17.7494 11.5147 17.8735 12.1388 17.8735C12.3749 17.8651 12.6074 17.8325 12.8376 17.7771C13.0207 17.7362 13.193 17.6711 13.3556 17.5843C13.4629 17.6771 13.5749 17.7639 13.693 17.8434C13.8327 17.9325 13.9809 18.0036 14.1388 18.0542C14.4725 18.2157 14.8255 18.2783 15.199 18.241C16.2014 18.0603 16.7918 17.4675 16.9701 16.4639Z" fill="#7E73BB"/>
<path fill-rule="evenodd" clip-rule="evenodd" d="M12.8733 16.873C12.9949 17.1369 13.1552 17.3743 13.3552 17.5839C13.1925 17.6706 13.0202 17.7357 12.8371 17.7767C12.7925 17.4803 12.7612 17.1839 12.7407 16.8851C12.7853 16.8803 12.8287 16.8755 12.8733 16.873Z" fill="#B999B5"/>
<path fill-rule="evenodd" clip-rule="evenodd" d="M10.1747 17.4277C10.235 17.4458 10.2904 17.4699 10.3434 17.5C10.235 17.6024 10.1145 17.688 9.98196 17.7591C9.47112 18.0097 8.941 18.0603 8.3916 17.9097C9.07112 18.0386 9.6651 17.8783 10.1747 17.4277Z" fill="#BEA887"/>
</g>
<defs>
<clipPath id="clip0_1434_13119">
<rect width="24" height="24" rx="4" fill="white"/>
</clipPath>
</defs>
</svg>
