<svg width="320" height="320" viewBox="0 0 320 320" fill="none" xmlns="http://www.w3.org/2000/svg">
<g clip-path="url(#clip0_761_2596)">
<rect width="320" height="320" rx="160" fill="url(#paint0_linear_761_2596)"/>
<path fill-rule="evenodd" clip-rule="evenodd" d="M123.573 133.69C122.446 129.819 119.915 128.417 115.953 129.423C115.556 121.985 114.368 114.669 112.447 107.475C111.289 103.939 109.368 100.891 106.656 98.3304C104.125 99.1839 101.656 99.0315 99.1873 97.8732C95.8037 95.9223 92.2372 94.3982 88.5183 93.3008C83.946 92.4473 79.5869 93.0569 75.4108 95.1297C71.0213 98.239 66.7537 101.47 62.6081 104.884C60.3829 106.347 58.0662 107.567 55.5971 108.542C54.012 115.706 53.3414 122.96 53.6157 130.337C50.7504 129.209 48.1593 129.636 45.8427 131.557C44.0137 130.916 42.3371 130.002 40.813 128.813C39.5632 127.228 38.9841 125.399 39.1365 123.326C41.3617 124.728 43.3431 124.424 45.0806 122.412C45.233 121.954 45.3854 121.497 45.5378 121.04C44.7148 118.297 44.349 115.492 44.4709 112.657C44.7758 110.859 45.5378 109.274 46.7571 107.932C43.6784 106.774 40.9654 105.006 38.6792 102.598C36.8808 99.7326 36.6979 96.7758 38.0696 93.758C38.4049 93.2398 38.8621 93.0874 39.4413 93.3008C40.5387 94.9469 42.1238 95.8308 44.1661 95.8918C47.5192 95.4651 50.415 94.0933 52.8537 91.7767C56.6335 88.1187 60.4743 84.5523 64.4371 81.1077C72.6064 75.0722 81.6598 73.1518 91.5666 75.316C97.1449 77.5413 101.778 81.0468 105.436 85.8325C107.722 82.3575 110.954 80.5286 115.191 80.3457C117.203 80.3152 119.001 80.9248 120.525 82.1746C117.873 83.9731 116.075 86.4117 115.191 89.4905C114.977 90.9231 114.825 92.3253 114.733 93.758C121.562 95.9833 125.128 100.708 125.402 107.932C125.189 112.109 124.214 116.132 122.506 119.973C121.927 121.924 122.476 123.387 124.183 124.393C125.646 124.363 127.048 124.18 128.451 123.783C129.182 125.765 129.03 127.746 127.993 129.728C126.835 131.435 125.372 132.776 123.573 133.69Z" fill="#3E3E40"/>
<path fill-rule="evenodd" clip-rule="evenodd" d="M123.573 133.69C124.214 139.147 122.08 143.17 117.172 145.731C115.556 146.371 113.971 146.31 112.447 145.578C110.771 149.572 108.302 152.986 104.979 155.79C102.358 157.65 99.736 159.418 97.0535 161.125C93.4566 162.954 89.6463 164.051 85.6225 164.478C81.355 163.868 77.2398 162.771 73.2771 161.125C66.0527 157.528 60.4744 152.193 56.5116 145.121C52.2745 146.889 48.769 145.914 45.9951 142.225C43.4955 138.689 43.4346 135.123 45.8427 131.556C48.1594 129.636 50.7504 129.209 53.6158 130.337C53.3414 122.96 54.012 115.705 55.5971 108.542C58.0662 107.567 60.3829 106.347 62.6081 104.884C66.7538 101.47 71.0214 98.2388 75.4109 95.1296C79.587 93.0568 83.946 92.4471 88.5184 93.3007C92.2373 94.398 95.8037 95.9222 99.1873 97.8731C101.656 99.0314 104.126 99.1838 106.656 98.3303C109.369 100.891 111.289 103.939 112.447 107.475C114.368 114.669 115.556 121.985 115.953 129.423C119.916 128.417 122.446 129.819 123.573 133.69Z" fill="#F9D2B9"/>
<path fill-rule="evenodd" clip-rule="evenodd" d="M286.046 240.075C285.528 240.014 285.009 240.075 284.522 240.227C280.01 242.3 275.987 245.104 272.481 248.61C268.549 254.554 264.677 260.559 260.898 266.595C253.399 276.837 245.138 286.439 236.054 295.401C232.671 298.327 229.074 300.918 225.233 303.174C223.404 302.503 221.88 301.406 220.661 299.821C216.058 293.999 211.699 287.993 207.553 281.836C205.053 277.629 202.859 273.27 200.999 268.728C203.926 261.931 205.297 254.798 205.114 247.391C204.383 241.66 201.914 236.905 197.646 233.064C200.207 231.844 201.365 229.833 201.152 226.967C200.786 226.601 200.451 226.266 200.085 225.9C198.865 225.717 197.646 225.778 196.427 226.053C196.64 224.742 196.823 223.401 197.036 222.09C197.067 220.81 196.64 219.682 195.817 218.737C196.396 218.615 196.854 218.31 197.189 217.822C198.469 215.262 198.103 212.976 196.122 210.964C196.915 209.379 197.158 207.702 196.884 205.934C196.549 204.989 196 204.227 195.208 203.648C192.83 202.398 190.361 201.423 187.739 200.752C185.697 201.026 183.716 201.484 181.795 202.124C180.393 202.977 178.96 203.739 177.528 204.41C177.528 204.105 177.528 203.8 177.528 203.496C180.332 201.148 183.563 199.929 187.282 199.838C192.647 199.929 196.457 202.368 198.713 207.153C198.865 208.342 198.622 209.47 197.951 210.507C197.981 210.689 198.103 210.781 198.256 210.811C203.468 229.01 211.516 245.836 222.337 261.26C223.038 261.87 223.831 262.144 224.776 262.022C224.806 261.352 224.654 260.742 224.318 260.193C213.741 245.013 205.663 228.552 200.085 210.811C204.627 209.623 207.583 206.757 208.925 202.276C226.178 205.355 243.065 203.861 259.526 197.856C260.166 197.551 260.684 197.094 261.05 196.485C260.806 195.936 260.41 195.631 259.831 195.57C243.37 200.752 226.605 202.185 209.534 199.838C209.534 199.319 209.534 198.832 209.534 198.314C221.514 196.271 232.793 192.247 243.37 186.273C250.655 181.609 256.508 175.573 260.898 168.136C261.69 166.703 262.147 165.179 262.269 163.563C261.812 163.472 261.416 163.594 261.05 163.868C255.075 175.695 245.931 184.078 233.616 189.016C225.69 192.156 217.551 194.656 209.23 196.485C207.614 190.723 203.804 187.675 197.799 187.34C195.604 187.309 193.622 187.919 191.854 189.169C191.763 187.614 191.915 186.09 192.312 184.596C193.44 183.164 194.659 181.853 195.97 180.634C196.549 179.048 196.884 177.433 197.036 175.756C194.384 167.8 192.403 159.662 191.092 151.37C190.147 130.916 198.439 115.523 215.936 105.189C232.701 97.6598 247.485 100.434 260.288 113.572C264.251 119.242 266.567 125.521 267.299 132.471C268.854 145.579 268.915 158.686 267.451 171.794C267.878 175.543 268.335 179.323 268.823 183.072C269.219 184.627 269.707 186.151 270.347 187.645C274.097 192.827 277.145 198.405 279.492 204.41C282.967 214.53 286.625 224.59 290.466 234.588C290.679 235.411 290.679 236.203 290.466 237.026C289.277 238.459 287.783 239.465 286.046 240.075Z" fill="#EF6036"/>
<path fill-rule="evenodd" clip-rule="evenodd" d="M95.5293 103.513C100.711 102.872 104.43 104.915 106.655 109.609C106.93 110.493 106.808 111.286 106.351 112.048C105.253 110.585 104.247 109.06 103.302 107.475C101.23 105.433 98.7299 104.671 95.8341 105.189C94.4928 105.768 93.1821 106.317 91.8713 106.866C92.0542 105.921 92.5724 105.159 93.3955 104.579C94.1271 104.214 94.8586 103.848 95.5293 103.513Z" fill="#3F3F41"/>
<path fill-rule="evenodd" clip-rule="evenodd" d="M69.0095 104.122C70.6251 104.061 72.2712 104.122 73.8868 104.274C75.3194 104.762 76.4473 105.616 77.2399 106.865C77.1484 106.957 77.0265 107.079 76.935 107.17C72.9113 104.884 69.162 105.25 65.6565 108.237C64.8334 109.243 64.0409 110.279 63.2178 111.285C62.5167 111.438 62.09 111.133 61.9985 110.371C63.5227 107.353 65.8698 105.28 69.0095 104.122Z" fill="#403F41"/>
<path fill-rule="evenodd" clip-rule="evenodd" d="M96.1391 112.657C99.1569 112.84 100.559 114.456 100.407 117.534C100.468 120.004 99.3702 121.619 97.0536 122.412C96.4744 122.137 95.9257 121.833 95.377 121.497C93.7614 119.089 93.4566 116.529 94.4625 113.877C94.9198 113.267 95.4685 112.871 96.1391 112.657Z" fill="#3E3E40"/>
<path fill-rule="evenodd" clip-rule="evenodd" d="M229.958 112.353C231.634 112.779 233.158 113.541 234.53 114.639C242.669 121.68 248.827 130.154 252.972 140.092C255.319 148.17 256.325 156.4 256.02 164.783C253.521 170.452 249.589 174.872 244.285 178.043C239.712 181.152 234.683 183.042 229.196 183.682C218.07 182.188 209.138 177.006 202.371 168.136C200.085 157.802 201.213 147.834 205.724 138.263C209.87 129.057 216.027 121.467 224.166 115.553C226.056 114.303 227.976 113.237 229.958 112.353Z" fill="#F9D2B9"/>
<path fill-rule="evenodd" clip-rule="evenodd" d="M72.3625 113.267C74.4658 112.871 75.8375 113.694 76.4777 115.706C76.7825 117.687 76.5691 119.638 75.868 121.497C73.9781 123.174 72.2406 122.961 70.686 120.888C69.8934 118.998 69.8934 117.047 70.686 115.096C71.1127 114.334 71.6614 113.724 72.3625 113.267Z" fill="#3E3E40"/>
<path fill-rule="evenodd" clip-rule="evenodd" d="M84.8605 125.765C88.4574 125.612 90.2864 127.35 90.3473 130.947C90.3168 132.074 90.012 133.08 89.4329 133.995C89.2195 133.842 89.0671 133.629 88.9756 133.385C88.9451 131.648 88.7318 129.91 88.366 128.203C85.8664 126.679 83.824 127.167 82.2694 129.727C81.9951 130.672 81.5378 131.495 80.8977 132.166C79.8918 131.556 79.7394 130.764 80.4405 129.727C81.4159 127.807 82.8791 126.466 84.8605 125.765Z" fill="#EF6036"/>
<path fill-rule="evenodd" clip-rule="evenodd" d="M238.188 127.594C241.938 127.167 243.645 128.813 243.37 132.471C242.608 131.496 241.785 130.52 240.932 129.575C238.889 128.966 237.182 129.484 235.75 131.099C234.469 131.13 234.225 130.581 234.988 129.423C235.993 128.691 237.06 128.082 238.188 127.594Z" fill="#3E3E40"/>
<path fill-rule="evenodd" clip-rule="evenodd" d="M216.546 128.508C219.746 128.204 221.545 129.636 221.88 132.776C221.545 133.02 221.209 132.959 220.813 132.624C219.502 130.581 217.673 129.972 215.326 130.795C214.351 131.313 213.65 132.075 213.192 133.081C212.491 133.508 212.095 133.325 211.973 132.471C212.857 130.368 214.381 129.057 216.546 128.508Z" fill="#3E3E40"/>
<path fill-rule="evenodd" clip-rule="evenodd" d="M116.562 133.691C119.245 133.264 120.769 134.361 121.135 137.044C120.251 140.732 119.672 140.641 119.458 136.739C118.788 135.885 117.934 135.641 116.867 135.977C116.593 136.586 116.166 137.074 115.648 137.501C115.374 137.684 115.099 137.653 114.886 137.348C114.855 135.885 115.435 134.666 116.562 133.691Z" fill="#EF6036"/>
<path fill-rule="evenodd" clip-rule="evenodd" d="M50.7199 133.995C52.7622 133.934 54.1035 134.849 54.6826 136.738C53.9206 136.647 53.2195 136.403 52.5489 135.976C50.0188 135.458 48.7385 136.525 48.7385 139.177C48.0374 139.451 47.6716 139.147 47.6716 138.263C47.824 136.129 48.83 134.727 50.7199 133.995Z" fill="#EF6036"/>
<path fill-rule="evenodd" clip-rule="evenodd" d="M71.7527 137.653C76.4776 139.116 81.2938 140.152 86.232 140.701C88.945 140.396 91.6274 140.122 94.3099 139.939C95.2853 141.738 95.4378 143.627 94.7671 145.578C93.7002 150.425 90.7129 153.199 85.7748 153.961C79.0991 155.211 74.3743 152.711 71.6003 146.493C70.1372 143.505 70.1981 140.549 71.7527 137.653Z" fill="#EF6036"/>
<path fill-rule="evenodd" clip-rule="evenodd" d="M238.188 137.653C239.194 137.531 240.109 137.714 240.932 138.262C242.212 140.823 241.998 143.262 240.322 145.578C239.468 146.005 238.676 145.944 237.883 145.426C236.176 143.323 235.932 141.036 237.121 138.567C237.578 138.354 237.944 138.049 238.188 137.653Z" fill="#3F3F41"/>
<path fill-rule="evenodd" clip-rule="evenodd" d="M217.46 138.872C218.496 138.75 219.35 139.055 220.051 139.787C221.514 142.347 221.362 144.786 219.594 147.103C217.521 147.621 216.241 146.828 215.783 144.664C215.57 143.231 215.57 141.829 215.783 140.396C216.302 139.817 216.881 139.299 217.46 138.872Z" fill="#3E3E40"/>
<path fill-rule="evenodd" clip-rule="evenodd" d="M73.8867 139.787C73.9172 139.634 74.0086 139.512 74.1915 139.482C80.0442 141.86 86.0493 142.408 92.1763 141.158C88.0611 145.944 83.1839 146.859 77.5446 143.902C76.1424 142.683 74.9231 141.311 73.8867 139.787Z" fill="#FEFEFD"/>
<path fill-rule="evenodd" clip-rule="evenodd" d="M226.3 147.103C231.147 146.828 233.341 149.054 232.854 153.809C231.878 152.193 230.689 150.73 229.348 149.389C228.007 148.749 226.818 149.023 225.843 150.151C225.142 151.706 224.745 153.321 224.623 155.028C223.983 155.912 223.587 155.821 223.404 154.723C223.008 152.59 223.313 150.547 224.319 148.627C224.928 148.017 225.568 147.499 226.3 147.103Z" fill="#EF6036"/>
<path fill-rule="evenodd" clip-rule="evenodd" d="M73.2769 161.125C77.2396 162.771 81.3548 163.868 85.6224 164.478C89.6461 164.051 93.4564 162.953 97.0534 161.125C97.0534 161.429 97.0534 161.734 97.0534 162.039C92.2981 165.423 87.116 168.014 81.5072 169.812C82.6046 172.129 83.702 174.415 84.8603 176.671C86.4759 173.622 88.1219 170.574 89.7375 167.526C92.2371 167.191 94.6757 166.794 97.0534 166.307C98.1812 166.307 99.2786 166.307 100.406 166.307C100.681 169.446 100.772 172.586 100.711 175.756C97.9678 178.164 94.8586 180.115 91.4141 181.548C91.2007 192.125 91.2921 202.703 91.7189 213.25C91.5665 213.402 91.4141 213.555 91.2617 213.707C86.3844 213.951 81.5072 213.92 76.63 213.555C76.5081 202.398 76.3556 191.211 76.1728 180.024C73.9475 178.561 71.8747 176.945 69.9238 175.147C69.8324 172.525 69.8324 169.873 69.9238 167.221C71.0517 167.221 72.149 167.221 73.2769 167.221C73.2769 165.179 73.2769 163.167 73.2769 161.125Z" fill="#EF6036"/>
<path fill-rule="evenodd" clip-rule="evenodd" d="M237.274 162.954C237.914 162.954 238.31 163.258 238.493 163.868C237.243 166.886 235.018 168.776 231.787 169.507C227.489 170.757 224.349 169.446 222.337 165.545C222.398 165.087 222.642 164.844 223.099 164.783C224.288 165.667 225.568 166.429 226.91 167.069C231.391 168.227 234.866 166.855 237.274 162.954Z" fill="#EF6036"/>
<path fill-rule="evenodd" clip-rule="evenodd" d="M209.534 198.313C209.443 197.704 209.321 197.094 209.229 196.484C217.551 194.656 225.69 192.156 233.616 189.016C245.931 184.078 255.075 175.695 261.05 163.868C261.416 163.594 261.812 163.472 262.269 163.563C262.147 165.179 261.69 166.703 260.898 168.136C256.508 175.573 250.655 181.609 243.37 186.273C232.793 192.247 221.514 196.271 209.534 198.313Z" fill="#F9D2B9"/>
<path fill-rule="evenodd" clip-rule="evenodd" d="M97.0535 162.039C97.0535 163.472 97.0535 164.874 97.0535 166.307C94.6758 166.794 92.2372 167.191 89.7376 167.526C88.1221 170.574 86.476 173.622 84.8604 176.671C83.7021 174.415 82.6047 172.129 81.5073 169.812C87.1161 168.014 92.2982 165.423 97.0535 162.039Z" fill="#EED7C0"/>
<path fill-rule="evenodd" clip-rule="evenodd" d="M43.0991 186.425C43.4039 188.163 43.8916 189.839 44.6232 191.455C47.58 191.942 50.3235 192.948 52.8535 194.503C54.6215 197.46 54.3167 200.203 51.939 202.733C52.9145 203.831 53.2803 205.111 53.0059 206.544C52.5792 207.702 51.9086 208.738 51.0246 209.592C48.8603 206.269 45.934 203.892 42.1846 202.428C40.9043 202.154 39.685 202.246 38.5267 202.733C43.0076 203.617 46.7265 205.812 49.6528 209.287C50.4759 210.872 50.5368 212.427 49.8053 214.012C48.7689 214.683 47.6715 214.896 46.4522 214.622C44.2269 210.72 41.1787 208.952 37.3074 209.287C41.4835 210.415 44.4403 212.975 46.1473 216.908C45.8425 218.432 44.928 219.133 43.4039 219.042C41.8493 218.615 40.3252 218.097 38.8315 217.517C38.8925 216.511 38.6486 215.597 38.0694 214.774C37.7646 214.53 37.3988 214.408 37.0026 214.469C36.7282 217.243 37.7341 219.346 40.0508 220.718C42.2151 221.663 44.2269 221.389 46.1473 219.956C47.1533 218.92 47.4581 217.761 47.0618 216.451C48.2506 216.42 49.3175 216.085 50.2625 215.384C50.4149 219.468 48.525 221.998 44.6232 223.004C44.4403 223.858 44.7451 224.346 45.5377 224.528C46.9094 224.071 48.1287 223.34 49.1956 222.395C49.5614 235.472 48.1897 248.396 45.0805 261.108C44.105 263.973 42.7333 266.625 40.9653 269.033C39.1973 270.953 37.3683 272.813 35.4784 274.672C33.5885 276.257 31.3937 277.111 28.9247 277.263C23.8645 275.953 20.3895 272.813 18.5606 267.814C17.6461 263.973 17.5851 260.102 18.4081 256.23C18.9263 254.981 19.3226 253.639 19.6274 252.268C20.7248 249.646 21.8527 246.994 22.9805 244.342C26.9433 237.057 30.1744 229.436 32.735 221.48C30.8755 219.712 29.2295 217.792 27.8578 215.688C27.1567 214.012 26.6689 212.305 26.3336 210.506C26.7299 208.83 27.2176 207.214 27.8578 205.629C27.0957 204.41 26.8213 203.069 27.0957 201.666C28.0102 200.356 28.9247 199.045 29.8391 197.704C29.3209 194.838 30.2964 192.705 32.735 191.302C32.9788 190.784 33.2532 190.296 33.497 189.778C33.8933 185.419 34.0762 181.06 34.1067 176.671C35.1126 174.019 37.0025 173.135 39.746 174.08C41.0872 174.994 41.9712 176.274 42.337 177.89C42.6114 180.786 42.8857 183.621 43.0991 186.425Z" fill="#F9D2B9"/>
<path fill-rule="evenodd" clip-rule="evenodd" d="M69.9238 175.146C71.8747 176.945 73.9475 178.561 76.1728 180.024C76.3557 191.211 76.5081 202.398 76.63 213.555C81.5072 213.92 86.3845 213.951 91.2617 213.707C91.4141 213.555 91.5665 213.402 91.7189 213.25C91.2922 202.703 91.2007 192.125 91.4141 181.548C94.8586 180.115 97.9679 178.164 100.711 175.756C105.802 178.286 111.075 180.359 116.562 182.005C120.342 183.56 124.122 185.175 127.841 186.882C130.584 189.199 132.87 191.912 134.699 194.96C136.406 198.13 137.931 201.392 139.272 204.715C143.753 217.731 148.203 230.716 152.684 243.732C153.843 246.842 155.306 249.798 157.104 252.572C156.86 253.182 156.464 253.639 155.885 253.944C151.617 256.139 147.35 258.212 143.082 260.193C138.022 261.839 132.84 262.754 127.536 262.937C127.14 262.937 126.713 262.937 126.317 262.937C127.201 272.081 127.963 281.226 128.603 290.371C129.091 295.218 129.761 300.003 130.584 304.698C130.401 306.923 130.188 309.179 129.975 311.404C130.005 312.227 130.097 313.05 130.279 313.843C129.365 314.696 128.359 315.428 127.231 315.976C117.629 318.72 107.814 319.939 97.8155 319.634C94.0051 319.573 90.1948 319.482 86.3845 319.329C84.5555 319.299 82.7265 319.207 80.8976 319.025C71.9662 318.72 63.0043 318.354 54.0729 317.958C49.1347 317.348 44.2574 316.495 39.4412 315.367C37.8866 314.94 36.3624 314.391 34.8688 313.69C34.6859 313.202 34.564 312.715 34.564 312.166C36.6977 297.778 38.8315 283.421 40.9653 269.033C42.7333 266.625 44.105 263.973 45.0805 261.108C48.1897 248.396 49.5614 235.472 49.1956 222.395C50.1711 221.236 50.8417 219.925 51.177 218.432C51.6647 215.445 51.6038 212.488 51.0246 209.592C51.9086 208.738 52.5792 207.702 53.006 206.544C53.2803 205.111 52.9145 203.831 51.9391 202.733C54.3167 200.203 54.6215 197.46 52.8536 194.503C50.3235 192.948 47.5801 191.942 44.6232 191.455C43.8917 189.839 43.4039 188.163 43.0991 186.425C43.7697 185.145 44.6842 184.078 45.8425 183.224C49.9577 181.883 54.0424 180.359 58.0356 178.652C61.9374 177.189 65.9001 176.03 69.9238 175.146Z" fill="#2E3192"/>
<path fill-rule="evenodd" clip-rule="evenodd" d="M83.9459 178.805C85.1957 178.927 85.8054 179.658 85.7749 180.938C84.7385 190.967 84.3422 201.027 84.5556 211.116C83.9459 211.177 83.3972 211.086 82.879 210.811C82.5437 209.318 82.3913 207.794 82.4218 206.239C82.6352 198.1 82.879 189.992 83.1838 181.853C83.1838 180.756 83.4582 179.719 83.9459 178.805Z" fill="#2E3192"/>
<path fill-rule="evenodd" clip-rule="evenodd" d="M186.672 198.618C186.733 199.106 186.947 199.502 187.282 199.838C183.563 199.929 180.332 201.148 177.528 203.496C177.772 201.788 177.985 200.051 178.137 198.313C177.65 194.96 177.375 191.607 177.375 188.254C177.772 186.486 178.899 185.572 180.728 185.511C181.795 185.572 182.71 185.998 183.472 186.73C184.203 187.736 184.722 188.864 184.996 190.083C185.301 192.43 185.606 194.747 185.91 197.094C186.032 197.704 186.276 198.222 186.672 198.618Z" fill="#F9D2B9"/>
<path fill-rule="evenodd" clip-rule="evenodd" d="M209.23 196.485C209.321 197.094 209.443 197.704 209.534 198.314C209.534 198.832 209.534 199.32 209.534 199.838C209.321 200.661 209.138 201.453 208.925 202.276C207.583 206.757 204.627 209.623 200.085 210.812C199.475 210.812 198.865 210.812 198.256 210.812C198.103 210.781 197.981 210.69 197.951 210.507C198.622 209.47 198.865 208.342 198.713 207.154C196.457 202.368 192.647 199.929 187.282 199.838C186.947 199.503 186.733 199.106 186.672 198.619C186.886 194.625 188.623 191.455 191.854 189.169C193.622 187.919 195.604 187.309 197.799 187.34C203.804 187.675 207.614 190.724 209.23 196.485Z" fill="#2E3192"/>
<path fill-rule="evenodd" clip-rule="evenodd" d="M35.1738 190.388C37.6124 190.388 40.051 190.541 42.4896 190.845C44.0747 191.455 43.9833 191.79 42.1848 191.912C39.3499 191.729 36.4845 191.547 33.6497 191.303C34.0764 190.876 34.5946 190.571 35.1738 190.388Z" fill="#EF6036"/>
<path fill-rule="evenodd" clip-rule="evenodd" d="M38.8315 196.789C44.1965 196.058 48.5555 197.795 51.9391 201.971C51.8476 202.276 51.6343 202.489 51.3294 202.581C47.8849 199.167 43.7088 197.551 38.8315 197.704C38.8315 197.399 38.8315 197.094 38.8315 196.789Z" fill="#EF6036"/>
<path fill-rule="evenodd" clip-rule="evenodd" d="M208.925 202.276C209.138 201.453 209.321 200.66 209.534 199.837C226.605 202.185 243.37 200.752 259.831 195.57C260.41 195.631 260.806 195.936 261.05 196.484C260.684 197.094 260.166 197.551 259.526 197.856C243.065 203.861 226.178 205.355 208.925 202.276Z" fill="#F9D2B9"/>
<path fill-rule="evenodd" clip-rule="evenodd" d="M195.817 218.737C196.64 219.682 197.067 220.81 197.037 222.09C196.823 223.401 196.64 224.742 196.427 226.053C196.031 226.449 195.604 226.876 195.208 227.272C194.171 224.254 192.159 223.309 189.111 224.376C188.349 224.772 187.739 225.321 187.282 226.053C185.575 223.797 183.441 223.34 180.881 224.681C180.576 225.108 180.332 225.565 180.119 226.053C178.473 224.102 176.4 223.279 173.87 223.614C173.778 220.352 173.717 217.121 173.717 213.859C174.266 213.341 174.693 212.732 174.937 212.031C174.083 208.86 174.937 206.33 177.528 204.41C178.96 203.739 180.393 202.977 181.795 202.124C183.716 201.484 185.697 201.026 187.739 200.752C190.361 201.423 192.83 202.398 195.208 203.648C196 204.227 196.549 204.989 196.884 205.934C197.158 207.702 196.915 209.379 196.122 210.964C198.103 212.975 198.469 215.262 197.189 217.822C196.854 218.31 196.396 218.615 195.817 218.737Z" fill="#F9D2B9"/>
<path fill-rule="evenodd" clip-rule="evenodd" d="M51.0246 209.592C51.6037 212.488 51.6647 215.445 51.177 218.432C50.8417 219.926 50.1711 221.236 49.1956 222.395C48.1287 223.34 46.9094 224.071 45.5377 224.529C44.7451 224.346 44.4403 223.858 44.6232 223.004C48.525 221.998 50.4149 219.468 50.2625 215.384C49.3175 216.085 48.2506 216.42 47.0618 216.451C47.4581 217.761 47.1533 218.92 46.1473 219.956C44.2269 221.389 42.2151 221.663 40.0508 220.718C37.7341 219.346 36.7282 217.243 37.0025 214.469C37.3988 214.408 37.7646 214.53 38.0694 214.774C38.6486 215.597 38.8925 216.512 38.8315 217.518C40.3252 218.097 41.8493 218.615 43.4039 219.042C44.928 219.133 45.8425 218.432 46.1473 216.908C44.4403 212.976 41.4835 210.415 37.3074 209.287C41.1787 208.952 44.2269 210.72 46.4522 214.622C47.6715 214.896 48.7689 214.683 49.8053 214.012C50.5368 212.427 50.4759 210.872 49.6528 209.287C46.7265 205.812 43.0076 203.617 38.5267 202.733C39.685 202.246 40.9043 202.154 42.1846 202.429C45.934 203.892 48.8603 206.269 51.0246 209.592Z" fill="#EF6036"/>
<path fill-rule="evenodd" clip-rule="evenodd" d="M183.624 205.325C187.312 205.233 190.666 206.209 193.683 208.221C194.08 208.891 194.598 209.44 195.207 209.897C194.842 210.232 194.415 210.293 193.988 210.05C190.361 208.068 186.489 206.757 182.405 206.087C182.832 205.812 183.228 205.538 183.624 205.325Z" fill="#EF6036"/>
<path fill-rule="evenodd" clip-rule="evenodd" d="M121.44 212.335C121.897 212.335 122.263 212.549 122.507 212.945C122.781 220.566 123.177 228.186 123.726 235.807C124.61 244.434 125.372 253.06 126.012 261.717C125.524 261.778 125.067 261.687 124.64 261.413C123.634 252.969 122.628 244.556 121.592 236.112C120.891 228.4 120.678 220.688 120.982 212.945C121.196 212.793 121.348 212.579 121.44 212.335Z" fill="#EF6036"/>
<path fill-rule="evenodd" clip-rule="evenodd" d="M195.817 218.737C195.086 218.798 194.385 218.737 193.684 218.585C190.148 216.756 186.398 215.75 182.405 215.536C181.948 214.683 182.192 214.134 183.167 213.86C185.85 214.317 188.532 214.774 191.245 215.232C193.013 215.597 194.507 216.451 195.665 217.823C195.817 218.097 195.878 218.402 195.817 218.737Z" fill="#EF6036"/>
<path fill-rule="evenodd" clip-rule="evenodd" d="M27.8579 215.688C29.2296 217.792 30.8757 219.712 32.7351 221.48C30.1746 229.436 26.9434 237.057 22.9807 244.342C22.4929 244.19 22.0357 244.403 21.6089 244.952C20.5725 246.933 19.4447 248.854 18.2558 250.744C17.7681 252.237 18.2254 252.755 19.6276 252.268C19.3227 253.639 18.9265 254.981 18.4083 256.23C15.8172 254.584 13.4091 252.664 11.2448 250.439C11.0619 250.103 10.9095 249.738 10.7876 249.372C11.001 248.518 11.1534 247.665 11.2448 246.781C17.6462 236.935 23.194 226.571 27.8579 215.688Z" fill="#2E3192"/>
<path fill-rule="evenodd" clip-rule="evenodd" d="M186.063 220.566C189.446 220.84 192.647 221.755 195.665 223.309C195.817 223.706 195.878 224.102 195.817 224.529C192.312 223.431 188.776 222.578 185.148 221.938C185.423 221.45 185.727 220.993 186.063 220.566Z" fill="#EF6036"/>
<path fill-rule="evenodd" clip-rule="evenodd" d="M198.256 210.812C198.866 210.812 199.475 210.812 200.085 210.812C205.663 228.552 213.741 245.013 224.319 260.193C224.654 260.742 224.806 261.352 224.776 262.022C223.831 262.144 223.038 261.87 222.337 261.26C211.516 245.836 203.468 229.01 198.256 210.812Z" fill="#F9D2B9"/>
<path fill-rule="evenodd" clip-rule="evenodd" d="M173.87 223.614C176.4 223.279 178.473 224.102 180.119 226.053C180.332 225.565 180.576 225.108 180.881 224.681C183.441 223.34 185.575 223.797 187.282 226.053C187.739 225.321 188.349 224.772 189.111 224.376C192.159 223.309 194.171 224.254 195.207 227.272C195.116 227.577 194.903 227.76 194.598 227.881C193.379 226.144 191.763 225.656 189.721 226.357C189.111 226.754 188.593 227.272 188.196 227.881C185.575 225.595 183.35 225.9 181.49 228.796C179.296 227.241 176.857 226.51 174.174 226.662C174.296 226.418 174.418 226.174 174.479 225.9C174.174 225.169 173.961 224.406 173.87 223.614Z" fill="#EF6036"/>
<path fill-rule="evenodd" clip-rule="evenodd" d="M286.046 240.075C289.948 248.671 294.154 257.115 298.696 265.375C300.891 270.771 300.891 276.166 298.696 281.531C296.654 284.976 294.185 288.085 291.228 290.828C292.478 291.103 293.087 291.865 293.057 293.115C293.026 294.547 292.508 295.767 291.533 296.773C290.069 297.565 288.576 297.565 287.113 296.773C286.838 298.205 285.985 299.059 284.522 299.364C284.887 300.156 285.314 300.918 285.741 301.65C287.509 306.466 289.338 311.252 291.228 315.977C297.873 336.644 304.305 357.372 310.584 378.161C311.59 382.612 312.535 387.093 313.48 391.574C312.84 393.464 311.865 395.201 310.584 396.756C306.743 401.267 302.232 404.895 297.02 407.577C296.349 407.882 295.617 408.034 294.886 408.034C294.733 414.222 292.081 418.947 286.96 422.209C280.742 425.592 274.127 427.848 267.147 428.915C263.092 429.037 259.008 429.189 254.953 429.372C254.313 428.976 253.551 428.762 252.667 428.762C251.905 428.823 251.143 428.854 250.381 428.915C242.638 431.933 234.622 433.304 226.3 433.03C221.27 432.756 216.301 432.116 211.363 431.049C207.949 430.683 204.566 430.622 201.152 430.896C197.402 429.829 193.805 430.134 190.33 431.811C187.008 431.079 183.777 430.104 180.576 428.915C175.942 427.055 171.37 425.135 166.859 423.123C165.67 422.148 164.694 420.959 163.963 419.618C163.567 417.301 163.414 414.954 163.506 412.607C156.799 411.723 152.196 408.156 149.636 401.938C149.179 400.139 149.057 398.31 149.331 396.451C150.947 386.849 153.172 377.399 156.037 368.102C163.749 343.96 172.894 320.397 183.472 297.382C185.179 294.09 186.947 290.828 188.806 287.628C187.099 287.78 185.392 287.628 183.624 287.171C178.899 284.488 175.18 280.769 172.498 276.044C167.224 267.448 164.877 258.09 165.487 248C166.005 244.342 167.377 241.111 169.602 238.246C170.73 237.24 171.827 236.204 172.955 235.198C172.376 234.74 171.858 234.253 171.431 233.674C169.084 230.046 169.998 227.699 174.174 226.663C176.857 226.51 179.296 227.242 181.49 228.796C183.35 225.9 185.575 225.596 188.196 227.882C188.593 227.272 189.111 226.754 189.721 226.358C191.763 225.657 193.379 226.144 194.598 227.882C194.903 227.76 195.116 227.577 195.207 227.272C195.604 226.876 196.031 226.449 196.427 226.053C197.646 225.779 198.865 225.718 200.085 225.9C200.451 226.266 200.786 226.602 201.152 226.967C201.365 229.833 200.207 231.845 197.646 233.064C201.914 236.905 204.383 241.66 205.114 247.391C205.297 254.798 203.926 261.931 200.999 268.729C202.859 273.27 205.053 277.629 207.553 281.836C211.699 287.994 216.058 293.999 220.661 299.821C221.88 301.406 223.404 302.503 225.233 303.174C229.074 300.918 232.671 298.327 236.054 295.401C245.138 286.439 253.399 276.837 260.898 266.595C264.677 260.559 268.549 254.554 272.481 248.61C275.987 245.105 280.01 242.3 284.522 240.227C285.009 240.075 285.528 240.014 286.046 240.075Z" fill="#2E3192"/>
<path fill-rule="evenodd" clip-rule="evenodd" d="M172.955 235.197C171.827 236.203 170.73 237.24 169.602 238.246Z" fill="#D06D49"/>
<path fill-rule="evenodd" clip-rule="evenodd" d="M18.1033 241.294C19.0788 241.203 19.4141 241.599 19.1702 242.513C17.707 244.891 16.1829 247.238 14.5978 249.524C13.7748 249.311 13.4699 248.793 13.6833 248C15.3294 245.897 16.823 243.641 18.1033 241.294Z" fill="#EF6036"/>
<path fill-rule="evenodd" clip-rule="evenodd" d="M22.9807 244.342C21.8529 246.994 20.725 249.646 19.6277 252.268C18.2255 252.756 17.7682 252.237 18.2559 250.744C19.4448 248.854 20.5726 246.933 21.609 244.952C22.0358 244.403 22.493 244.19 22.9807 244.342Z" fill="#EF6036"/>
<path fill-rule="evenodd" clip-rule="evenodd" d="M149.788 245.257C150.246 245.257 150.612 245.47 150.855 245.866C151.739 248.092 152.623 250.317 153.446 252.573C153.081 252.847 152.654 253.03 152.227 253.182C151.587 252.603 151.13 251.872 150.855 251.049C150.398 249.433 149.941 247.787 149.484 246.171C149.667 245.897 149.788 245.592 149.788 245.257Z" fill="#EF6036"/>
<path fill-rule="evenodd" clip-rule="evenodd" d="M144.911 247.695C145.429 247.939 145.765 248.366 145.978 248.915C146.801 251.109 147.441 253.335 147.959 255.621C147.533 255.682 147.136 255.621 146.74 255.468C145.643 253.274 144.85 250.987 144.302 248.61C144.515 248.305 144.728 248 144.911 247.695Z" fill="#EF6036"/>
<path fill-rule="evenodd" clip-rule="evenodd" d="M140.034 249.22C140.491 249.22 140.857 249.433 141.101 249.829C141.772 252.329 142.442 254.798 143.082 257.298C142.259 257.968 141.65 257.816 141.253 256.84C140.796 254.707 140.278 252.573 139.729 250.439C139.76 250.012 139.882 249.586 140.034 249.22Z" fill="#EF6036"/>
<path fill-rule="evenodd" clip-rule="evenodd" d="M134.547 250.439C135.431 250.347 135.888 250.774 135.919 251.658C136.437 254.066 136.803 256.505 136.986 258.974C136.071 259.065 135.523 258.639 135.309 257.755C134.639 255.316 134.364 252.878 134.547 250.439Z" fill="#EF6036"/>
<path fill-rule="evenodd" clip-rule="evenodd" d="M128.755 251.353C129.152 251.292 129.518 251.414 129.822 251.658C130.676 254.219 130.981 256.871 130.737 259.584C130.005 260.041 129.487 259.828 129.213 258.974C128.786 256.414 128.634 253.883 128.755 251.353Z" fill="#EF6036"/>
<path fill-rule="evenodd" clip-rule="evenodd" d="M143.082 260.193C143.814 271.35 144.484 282.537 145.064 293.724C146.618 297.9 148.264 302.077 149.941 306.222C151.374 309.088 151.587 312.044 150.551 315.062C149.24 318.751 147.838 322.408 146.283 326.036C143.54 329.084 140.674 332.041 137.748 334.876C136.559 334.601 136.01 333.839 136.071 332.59C136.254 331.248 136.681 329.968 137.291 328.779C137.595 328.779 137.809 328.627 137.9 328.322C139.181 325.304 140.217 322.195 140.948 319.025C141.375 315.977 141.314 312.928 140.796 309.88C140.369 308.325 139.699 306.893 138.815 305.612C138.662 305.125 138.357 304.972 137.9 305.155C137.443 305.643 137.077 306.192 136.833 306.832C136.498 308.783 136.346 310.764 136.376 312.776C136.529 316.099 136.681 319.391 136.833 322.683C136.711 324.176 135.949 325.182 134.547 325.731C134.059 325.365 133.694 324.847 133.48 324.207C132.505 320.701 131.438 317.257 130.28 313.843C130.097 313.05 130.005 312.227 129.975 311.404C130.188 309.179 130.402 306.923 130.584 304.698C131.316 301.01 131.682 297.26 131.651 293.419C130.92 283.177 129.548 272.996 127.536 262.937C132.84 262.754 138.022 261.839 143.082 260.193Z" fill="#F9D2B9"/>
<path fill-rule="evenodd" clip-rule="evenodd" d="M127.536 262.937C129.548 272.996 130.92 283.177 131.651 293.419C131.682 297.26 131.316 301.009 130.584 304.698C129.761 300.003 129.091 295.218 128.603 290.371C127.963 281.226 127.201 272.081 126.317 262.937C126.713 262.937 127.14 262.937 127.536 262.937Z" fill="#FEFEFE"/>
<path fill-rule="evenodd" clip-rule="evenodd" d="M262.574 273.911C263.153 274.033 263.611 274.337 263.946 274.825C267.634 284.549 271.749 294.09 276.291 303.479C275.743 304.729 275.011 304.942 274.005 304.088C269.341 294.334 265.531 284.275 262.574 273.911Z" fill="#EF6036"/>
<path fill-rule="evenodd" clip-rule="evenodd" d="M254.649 280.921C255.076 280.86 255.472 280.921 255.868 281.074C255.716 281.196 255.624 281.348 255.563 281.531C266.232 318.598 277.938 355.329 290.618 391.726C290.161 392.61 289.49 392.884 288.637 392.488C280.742 369.839 273.243 347.099 266.08 324.207C260.837 311.282 256.935 297.961 254.344 284.274C254.405 283.147 254.496 282.019 254.649 280.921Z" fill="#EF6036"/>
<path fill-rule="evenodd" clip-rule="evenodd" d="M245.504 290.371C246.632 290.889 247.455 291.773 247.942 292.962C247.577 298.601 247.546 304.241 247.79 309.88C248.674 322.683 249.345 335.485 249.771 348.288C249.162 348.441 248.552 348.501 247.942 348.441C247.485 347.648 247.241 346.794 247.18 345.85C245.717 327.347 245.138 308.874 245.504 290.371Z" fill="#EF6036"/>
<path fill-rule="evenodd" clip-rule="evenodd" d="M291.533 296.772C292.081 297.26 292.508 297.87 292.752 298.601C290.954 301.01 289.064 301.01 287.113 298.601C287.052 299.821 286.595 300.857 285.741 301.65C285.314 300.918 284.888 300.156 284.522 299.363C285.985 299.059 286.838 298.205 287.113 296.772C288.576 297.565 290.07 297.565 291.533 296.772Z" fill="#EF6036"/>
<path fill-rule="evenodd" clip-rule="evenodd" d="M292.752 298.602C294.063 300.309 294.977 302.259 295.495 304.393C294.642 307.35 293.484 310.215 291.99 312.928C291.594 313.904 291.319 314.94 291.228 315.977C289.338 311.252 287.509 306.466 285.741 301.65C286.594 300.857 287.052 299.821 287.113 298.602C289.064 301.01 290.953 301.01 292.752 298.602Z" fill="#F9D2B9"/>
<path fill-rule="evenodd" clip-rule="evenodd" d="M126.317 302.259C126.774 302.259 127.14 302.473 127.384 302.869C127.902 306.009 128.268 309.148 128.45 312.319C127.963 312.38 127.506 312.288 127.079 312.014C126.53 308.752 126.256 305.49 126.317 302.259Z" fill="#EF6036"/>
<path fill-rule="evenodd" clip-rule="evenodd" d="M40.3559 302.564C40.8131 302.777 41.1179 303.143 41.2703 303.631C40.8436 306.313 40.4168 309.026 40.051 311.709C39.0146 311.739 38.6183 311.252 38.8317 310.185C39.0756 308.356 39.3195 306.527 39.5938 304.698C39.6548 303.875 39.8986 303.174 40.3559 302.564Z" fill="#EF6036"/>
<path fill-rule="evenodd" clip-rule="evenodd" d="M120.525 303.479C121.226 303.57 121.562 303.966 121.592 304.698C121.988 307.624 122.263 310.581 122.354 313.538C121.744 313.599 121.196 313.507 120.678 313.233C120.403 310.398 120.129 307.533 119.916 304.698C120.007 304.21 120.19 303.814 120.525 303.479Z" fill="#EF6036"/>
<path fill-rule="evenodd" clip-rule="evenodd" d="M47.0619 304.393C47.5192 304.667 47.824 305.064 47.9764 305.612C47.5192 308.112 47.3363 310.672 47.3668 313.233C46.2389 313.477 45.7207 313.02 45.8426 311.861C46.056 309.88 46.2084 307.899 46.2999 305.917C46.4218 305.308 46.6657 304.82 47.0619 304.393Z" fill="#EF6036"/>
<path fill-rule="evenodd" clip-rule="evenodd" d="M113.209 304.393C113.606 304.637 113.971 304.942 114.276 305.308C114.581 308.447 114.825 311.617 115.038 314.757C114.215 314.91 113.636 314.605 113.362 313.843C112.966 310.672 112.905 307.533 113.209 304.393Z" fill="#EF6036"/>
<path fill-rule="evenodd" clip-rule="evenodd" d="M138.815 305.613C137.839 307.503 137.412 309.545 137.595 311.709C137.87 314.757 138.083 317.806 138.205 320.854C138.632 323.323 137.839 325.243 135.766 326.646C135.492 326.463 135.187 326.341 134.852 326.341C134.76 326.127 134.639 325.945 134.547 325.731C135.949 325.182 136.711 324.177 136.833 322.683C136.681 319.391 136.528 316.099 136.376 312.776C136.346 310.764 136.498 308.783 136.833 306.832C137.077 306.192 137.443 305.643 137.9 305.155C138.357 304.972 138.662 305.125 138.815 305.613Z" fill="#EF6036"/>
<path fill-rule="evenodd" clip-rule="evenodd" d="M53.4632 305.003C53.6461 305.033 53.7985 305.125 53.9204 305.308C54.0728 308.051 53.9509 310.795 53.6156 313.538C52.5792 314.392 52.1219 314.087 52.2439 312.624C52.4877 310.276 52.7621 307.96 53.0059 305.613C53.2193 305.46 53.3717 305.247 53.4632 305.003Z" fill="#EF6036"/>
<path fill-rule="evenodd" clip-rule="evenodd" d="M60.1696 305.612C60.9011 305.887 61.206 306.466 61.084 307.289C60.8707 309.575 60.7182 311.861 60.6268 314.147C60.4134 314.818 60.0781 314.91 59.5599 314.452C59.2856 311.709 59.3465 308.965 59.7123 306.222C59.9257 306.07 60.0781 305.856 60.1696 305.612Z" fill="#EF6036"/>
<path fill-rule="evenodd" clip-rule="evenodd" d="M138.815 305.612C139.699 306.893 140.369 308.325 140.796 309.88C141.314 312.928 141.375 315.976 140.948 319.025C140.369 319.116 139.942 319.421 139.729 319.939C139.302 320.366 138.784 320.671 138.205 320.854C138.083 317.805 137.87 314.757 137.595 311.709C137.412 309.545 137.839 307.502 138.815 305.612Z" fill="#FEFEFE"/>
<path fill-rule="evenodd" clip-rule="evenodd" d="M75.4107 305.917C75.868 305.917 76.2338 306.13 76.4776 306.527C76.691 308.965 76.691 311.404 76.4776 313.842C76.4167 314.422 76.2033 314.94 75.868 315.367C75.746 315.214 75.5936 315.123 75.4107 315.062C75.0145 311.983 75.0145 308.935 75.4107 305.917Z" fill="#EF6036"/>
<path fill-rule="evenodd" clip-rule="evenodd" d="M82.7265 305.917C83.0314 306.069 83.2752 306.252 83.4886 306.527C83.641 309.483 83.6105 312.41 83.3362 315.367C82.757 315.428 82.2998 315.214 81.9645 314.757C81.7511 312.227 81.7511 309.666 81.9645 307.136C82.1779 306.679 82.4217 306.283 82.7265 305.917Z" fill="#EF6036"/>
<path fill-rule="evenodd" clip-rule="evenodd" d="M104.674 305.917C104.979 306.069 105.223 306.252 105.436 306.527C105.589 309.483 105.649 312.41 105.589 315.367C105.07 315.367 104.583 315.367 104.064 315.367C104.003 312.41 104.064 309.483 104.217 306.527C104.43 306.374 104.583 306.161 104.674 305.917Z" fill="#EF6036"/>
<path fill-rule="evenodd" clip-rule="evenodd" d="M68.0951 306.222C68.3999 306.191 68.6437 306.283 68.8571 306.527C69.0095 309.27 69.0705 312.014 69.0095 314.757C68.5218 314.818 68.0646 314.727 67.6378 314.452C67.4244 311.922 67.4244 309.362 67.6378 306.832C67.8512 306.679 68.0036 306.466 68.0951 306.222Z" fill="#EF6036"/>
<path fill-rule="evenodd" clip-rule="evenodd" d="M96.1391 306.222C96.5964 306.222 96.9622 306.436 97.206 306.832C97.3889 309.789 97.5413 312.715 97.6633 315.672C97.0536 315.733 96.5049 315.641 95.9867 315.367C95.7428 312.288 95.8038 309.24 96.1391 306.222Z" fill="#EF6036"/>
<path fill-rule="evenodd" clip-rule="evenodd" d="M89.4328 306.527C90.012 306.832 90.4083 307.289 90.6521 307.899C90.4388 310.368 90.4388 312.867 90.6521 315.367C90.1644 315.428 89.7072 315.336 89.2804 315.062C89.189 312.776 89.0366 310.49 88.8232 308.203C88.7927 307.533 89.0061 306.984 89.4328 306.527Z" fill="#EF6036"/>
<path fill-rule="evenodd" clip-rule="evenodd" d="M209.23 313.538C209.992 313.477 210.54 313.782 210.906 314.452C210.876 320.549 210.784 326.645 210.601 332.742C208.894 355.391 207.37 378.07 206.029 400.718C204.505 401.968 203.743 401.511 203.743 399.347C205.175 371.333 206.76 343.35 208.467 315.367C208.528 314.666 208.803 314.056 209.23 313.538Z" fill="#EF6036"/>
<path fill-rule="evenodd" clip-rule="evenodd" d="M39.4412 315.367C44.2575 316.495 49.1347 317.348 54.0729 317.958C63.0043 318.354 71.9662 318.72 80.8976 319.025C80.6538 333.87 80.3489 348.684 79.9831 363.529C80.1356 383.587 80.9586 403.583 82.4218 423.58C82.3608 424.586 82.3303 425.622 82.2693 426.628C82.1169 427.055 81.8731 427.421 81.5073 427.695C79.7393 428.274 77.9103 428.64 76.0204 428.762C68.2168 429.341 60.3828 429.646 52.5488 429.677C48.2812 429.677 44.0136 429.677 39.7461 429.677C37.9781 429.433 36.1491 429.28 34.2592 429.219C34.0763 428.976 33.9239 428.732 33.8019 428.457C33.2228 423.458 32.9789 418.429 33.0399 413.368C33.3447 380.569 35.4785 347.922 39.4412 315.367Z" fill="#3E3E40"/>
<path fill-rule="evenodd" clip-rule="evenodd" d="M127.231 315.977C128.877 343.807 130.341 371.638 131.651 399.499C132.261 407.668 132.901 415.868 133.633 424.038C133.572 425.196 133.175 426.232 132.413 427.086C129.091 427.909 125.738 428.549 122.354 429.067C112.813 429.86 103.241 429.86 93.7004 429.067C91.719 428.854 89.7681 428.397 87.9087 427.695C87.6648 427.452 87.3905 427.177 87.1466 426.933C85.9578 408.674 85.5006 390.385 85.7749 372.065C85.7444 354.476 85.9273 336.918 86.3846 319.33C90.1949 319.482 94.0052 319.574 97.8156 319.634C107.814 319.939 117.629 318.72 127.231 315.977Z" fill="#3E3E40"/>
<path fill-rule="evenodd" clip-rule="evenodd" d="M140.949 319.025C140.217 322.195 139.181 325.304 137.9 328.322C137.809 328.627 137.595 328.779 137.291 328.779C137.26 328.596 137.169 328.444 136.986 328.322C138.175 325.609 139.089 322.835 139.729 319.939C139.943 319.421 140.369 319.116 140.949 319.025Z" fill="#EF6036"/>
<path fill-rule="evenodd" clip-rule="evenodd" d="M139.729 319.939C139.089 322.835 138.175 325.609 136.986 328.322C137.169 328.444 137.26 328.597 137.291 328.779C136.803 329.054 136.285 329.206 135.767 329.237C135.004 328.444 134.7 327.469 134.852 326.341C135.187 326.341 135.492 326.463 135.767 326.646C137.839 325.243 138.632 323.323 138.205 320.854C138.784 320.671 139.303 320.366 139.729 319.939Z" fill="#EED6C0"/>
<path opacity="0.996" fill-rule="evenodd" clip-rule="evenodd" d="M96.901 212.305C97.4497 212.305 97.9374 212.518 98.3032 212.915C99.1567 214.012 99.9798 215.14 100.833 216.237C101.656 215.14 102.479 214.073 103.272 212.976C103.638 212.549 104.125 212.305 104.705 212.274C106.015 212.274 107.357 212.305 108.667 212.274C109.033 212.274 109.368 212.335 109.673 212.518C109.368 212.518 109.064 212.549 108.759 212.61C108.484 212.701 108.241 212.823 107.997 213.006C107.814 213.158 107.661 213.341 107.479 213.494C107.204 213.799 106.93 214.134 106.686 214.439C106.168 215.17 105.65 215.871 105.101 216.603C104.278 217.7 103.455 218.767 102.632 219.865C102.632 220.931 102.632 221.968 102.632 223.035C102.54 223.766 102.114 224.285 101.443 224.559C101.321 224.589 101.23 224.62 101.108 224.65C100.407 224.681 99.7054 224.681 99.0043 224.681C99.0043 223.065 99.0043 221.48 99.0043 219.865C97.8155 218.31 96.6267 216.725 95.4379 215.17C95.0721 214.622 95.0111 214.012 95.255 213.402C95.5903 212.732 96.139 212.366 96.901 212.305Z" fill="#FEFFFE"/>
<path opacity="0.997" fill-rule="evenodd" clip-rule="evenodd" d="M117.111 212.305C117.721 212.305 118.361 212.305 118.971 212.305C118.971 215.932 118.971 219.529 118.971 223.157C118.849 223.858 118.483 224.345 117.812 224.62C117.02 224.894 116.319 224.711 115.739 224.101C115.495 223.797 115.343 223.461 115.313 223.065C115.313 221.419 115.313 219.742 115.313 218.096C114.52 219.041 113.697 219.986 112.904 220.931C112.081 219.986 111.289 219.072 110.496 218.127C110.496 219.864 110.496 221.602 110.496 223.339C110.435 224.101 110.039 224.559 109.308 224.681C109.216 224.711 109.094 224.711 109.003 224.711C108.302 224.711 107.57 224.711 106.869 224.711C106.869 221.419 106.869 218.127 106.869 214.835C107.235 214.347 107.631 213.859 108.058 213.433C108.241 213.25 108.454 213.128 108.667 213.006C108.881 212.914 109.094 212.884 109.308 212.884C109.612 212.884 109.917 212.884 110.191 212.884C111.106 213.951 112.02 215.048 112.904 216.115C113.819 215.018 114.703 213.951 115.617 212.853C116.044 212.518 116.562 212.305 117.111 212.305Z" fill="#FEFFFE"/>
<path opacity="0.955" fill-rule="evenodd" clip-rule="evenodd" d="M101.473 225.687C101.656 225.687 101.778 225.778 101.778 225.992C101.748 226.175 101.656 226.266 101.473 226.297C101.229 226.266 101.138 226.114 101.199 225.87C101.26 225.748 101.351 225.687 101.473 225.687Z" fill="#FEFFFE"/>
<path opacity="0.957" fill-rule="evenodd" clip-rule="evenodd" d="M116.257 225.687C116.471 225.717 116.593 225.839 116.562 226.053C116.501 226.236 116.349 226.297 116.166 226.266C116.014 226.175 115.953 226.053 116.014 225.9C116.044 225.748 116.136 225.687 116.257 225.687Z" fill="#FEFFFE"/>
<path opacity="0.959" fill-rule="evenodd" clip-rule="evenodd" d="M118.696 225.687C118.94 225.717 119.031 225.839 119.001 226.083C118.909 226.236 118.787 226.297 118.605 226.266C118.452 226.205 118.391 226.083 118.422 225.931C118.452 225.748 118.544 225.687 118.696 225.687Z" fill="#FEFFFE"/>
<path opacity="0.972" fill-rule="evenodd" clip-rule="evenodd" d="M95.1025 225.809C95.2854 225.778 95.4683 225.778 95.6512 225.809C95.8341 226.235 96.0475 226.692 96.2304 227.119C96.4438 226.692 96.6267 226.235 96.8401 225.809C97.0229 225.778 97.1754 225.778 97.3583 225.809C97.0534 226.418 96.7791 226.997 96.4743 227.607C96.4743 228.003 96.4743 228.369 96.4743 228.765C96.3218 228.765 96.1694 228.765 96.017 228.765C96.017 228.369 96.017 228.003 96.017 227.607C95.7122 226.997 95.4074 226.388 95.1025 225.809Z" fill="#FEFFFE"/>
<path opacity="0.968" fill-rule="evenodd" clip-rule="evenodd" d="M106.625 225.778C106.777 225.778 106.96 225.778 107.113 225.778C107.357 226.388 107.6 226.967 107.844 227.577C108.088 226.967 108.332 226.388 108.576 225.778C108.728 225.778 108.881 225.778 109.033 225.778C109.033 226.754 109.033 227.76 109.033 228.735C108.881 228.735 108.728 228.735 108.576 228.735C108.576 228.065 108.576 227.394 108.576 226.693C108.362 227.211 108.149 227.729 107.936 228.247C107.844 228.247 107.783 228.247 107.722 228.247C107.509 227.729 107.326 227.241 107.113 226.723C107.113 227.394 107.113 228.065 107.113 228.735C106.96 228.735 106.808 228.735 106.686 228.735C106.625 227.76 106.625 226.784 106.625 225.778Z" fill="#FEFFFE"/>
<path opacity="0.968" fill-rule="evenodd" clip-rule="evenodd" d="M115.069 225.778C115.221 225.778 115.374 225.778 115.526 225.778C115.526 226.754 115.526 227.76 115.526 228.735C115.404 228.735 115.252 228.735 115.13 228.735C115.13 228.674 115.13 228.583 115.099 228.522C114.916 228.735 114.673 228.827 114.368 228.766C114.002 228.705 113.789 228.461 113.758 228.095C113.758 227.821 113.758 227.516 113.758 227.242C113.819 226.723 114.124 226.51 114.642 226.54C114.794 226.571 114.947 226.632 115.069 226.754C115.069 226.418 115.069 226.114 115.069 225.778ZM114.581 226.906C114.855 226.906 115.038 227.028 115.069 227.302C115.069 227.546 115.069 227.821 115.069 228.065C114.977 228.308 114.825 228.43 114.551 228.369C114.368 228.308 114.276 228.217 114.246 228.034C114.246 227.76 114.246 227.485 114.246 227.211C114.307 227.059 114.398 226.967 114.581 226.906Z" fill="#FEFFFE"/>
<path opacity="0.973" fill-rule="evenodd" clip-rule="evenodd" d="M99.8578 226.022C100.01 226.022 100.163 226.022 100.285 226.022C100.285 226.205 100.285 226.388 100.285 226.571C100.498 226.571 100.681 226.571 100.894 226.571C100.894 226.693 100.894 226.815 100.894 226.936C100.681 226.936 100.498 226.936 100.285 226.936C100.285 227.363 100.285 227.82 100.315 228.247C100.346 228.339 100.406 228.369 100.498 228.4C100.62 228.4 100.742 228.4 100.864 228.369C100.894 228.491 100.894 228.583 100.925 228.704V228.735C100.711 228.796 100.498 228.796 100.254 228.765C100.041 228.704 99.9188 228.552 99.8883 228.339C99.8883 227.851 99.8883 227.394 99.8883 226.906C99.7663 226.906 99.6444 226.906 99.553 226.906C99.553 226.784 99.553 226.662 99.553 226.54C99.6749 226.54 99.7968 226.54 99.8883 226.54C99.8578 226.388 99.8578 226.205 99.8578 226.022Z" fill="#FEFFFE"/>
<path opacity="0.973" fill-rule="evenodd" clip-rule="evenodd" d="M98.2118 226.51C98.4252 226.479 98.6386 226.54 98.852 226.632C99.0654 226.784 99.1873 226.967 99.2178 227.241C99.2178 227.76 99.2178 228.247 99.2178 228.766C99.0958 228.766 98.9739 228.766 98.852 228.766C98.852 228.705 98.8215 228.644 98.8215 228.583C98.6691 228.735 98.4557 228.827 98.2423 228.796C97.907 228.827 97.6631 228.674 97.5412 228.369C97.4193 227.882 97.6022 227.577 98.0899 227.455C98.2423 227.424 98.4252 227.455 98.5776 227.485C98.6386 227.516 98.6996 227.546 98.7605 227.607C98.791 227.059 98.5471 226.845 97.9985 226.967C97.907 226.998 97.8156 227.028 97.7241 227.059C97.6632 226.937 97.6327 226.815 97.6022 226.693C97.6632 226.662 97.7241 226.632 97.7851 226.601C97.9375 226.571 98.0594 226.54 98.2118 226.51ZM98.2423 227.76C98.4557 227.729 98.6386 227.79 98.7605 227.943C98.852 228.217 98.73 228.4 98.4557 228.43C98.2728 228.461 98.1204 228.4 97.9985 228.247C97.907 228.004 97.968 227.851 98.2423 227.76Z" fill="#FEFFFE"/>
<path opacity="0.978" fill-rule="evenodd" clip-rule="evenodd" d="M103.12 226.51C103.363 226.479 103.577 226.54 103.729 226.723C103.76 226.784 103.79 226.815 103.821 226.876C103.973 226.601 104.217 226.479 104.552 226.51C104.796 226.54 104.979 226.662 105.07 226.906C105.101 226.998 105.101 227.059 105.131 227.15C105.131 227.668 105.131 228.217 105.131 228.735C104.979 228.735 104.827 228.735 104.705 228.735C104.705 228.217 104.705 227.729 104.674 227.211C104.613 226.937 104.43 226.845 104.156 226.937C104.034 226.998 103.973 227.089 103.943 227.211C103.912 227.729 103.912 228.217 103.912 228.735C103.76 228.735 103.607 228.735 103.455 228.735C103.455 228.217 103.455 227.729 103.424 227.211C103.363 226.967 103.211 226.876 102.937 226.937C102.815 226.998 102.723 227.089 102.693 227.211C102.662 227.729 102.662 228.217 102.662 228.735C102.51 228.735 102.358 228.735 102.236 228.735C102.236 228.004 102.236 227.272 102.236 226.54C102.358 226.54 102.479 226.54 102.632 226.54C102.632 226.632 102.662 226.723 102.662 226.815C102.754 226.662 102.906 226.54 103.12 226.51Z" fill="#FEFFFE"/>
<path opacity="0.97" fill-rule="evenodd" clip-rule="evenodd" d="M110.161 226.51C110.435 226.479 110.679 226.54 110.893 226.692C111.045 226.845 111.136 227.028 111.167 227.241C111.167 227.759 111.167 228.247 111.167 228.765C111.045 228.765 110.923 228.765 110.801 228.765C110.801 228.704 110.771 228.643 110.771 228.582C110.618 228.735 110.405 228.826 110.192 228.796C109.734 228.796 109.49 228.582 109.429 228.125C109.46 227.759 109.673 227.515 110.039 227.455C110.283 227.424 110.496 227.455 110.71 227.607C110.71 227.485 110.71 227.333 110.679 227.211C110.588 227.028 110.435 226.936 110.222 226.936C110.039 226.936 109.856 226.997 109.704 227.089C109.673 226.997 109.612 226.875 109.582 226.784C109.582 226.753 109.582 226.753 109.582 226.723C109.643 226.692 109.704 226.662 109.795 226.632C109.917 226.571 110.039 226.54 110.161 226.51ZM110.192 227.759C110.374 227.729 110.557 227.79 110.679 227.912C110.801 228.156 110.74 228.339 110.466 228.43C110.313 228.46 110.161 228.46 110.039 228.369C109.887 228.247 109.856 228.125 109.917 227.942C109.978 227.851 110.07 227.79 110.192 227.759Z" fill="#FEFFFE"/>
<path opacity="0.976" fill-rule="evenodd" clip-rule="evenodd" d="M112.539 226.51C112.874 226.479 113.118 226.601 113.27 226.906C113.301 226.998 113.331 227.089 113.331 227.211C113.331 227.729 113.331 228.247 113.331 228.735C113.179 228.735 113.026 228.735 112.874 228.735C112.874 228.217 112.874 227.729 112.843 227.211C112.782 226.967 112.599 226.876 112.356 226.937C112.203 226.998 112.112 227.089 112.081 227.242C112.051 227.729 112.051 228.247 112.051 228.735C111.898 228.735 111.746 228.735 111.624 228.735C111.624 228.004 111.624 227.272 111.624 226.54C111.746 226.54 111.868 226.54 112.02 226.54C112.02 226.632 112.051 226.693 112.051 226.784C112.173 226.662 112.325 226.54 112.539 226.51Z" fill="#FEFFFE"/>
<path opacity="0.978" fill-rule="evenodd" clip-rule="evenodd" d="M118.026 226.51C118.056 226.51 118.117 226.51 118.147 226.51C118.147 226.662 118.147 226.815 118.147 226.967C117.995 226.967 117.873 226.967 117.751 227.028C117.568 227.15 117.477 227.302 117.477 227.516C117.477 227.912 117.477 228.339 117.477 228.735C117.324 228.735 117.172 228.735 117.05 228.735C117.05 228.003 117.05 227.272 117.05 226.54C117.172 226.54 117.324 226.54 117.446 226.54C117.446 226.662 117.446 226.784 117.477 226.876C117.568 226.662 117.751 226.54 118.026 226.51Z" fill="#FEFFFE"/>
<path opacity="0.988" fill-rule="evenodd" clip-rule="evenodd" d="M101.26 226.571C101.412 226.571 101.565 226.571 101.717 226.571C101.717 227.302 101.717 228.034 101.717 228.766C101.565 228.766 101.412 228.766 101.26 228.766C101.26 228.003 101.26 227.302 101.26 226.571Z" fill="#FEFFFE"/>
<path opacity="0.98" fill-rule="evenodd" clip-rule="evenodd" d="M116.044 226.571C116.197 226.571 116.349 226.571 116.501 226.571C116.501 227.302 116.501 228.034 116.501 228.766C116.349 228.766 116.197 228.766 116.044 228.766C116.044 228.003 116.044 227.302 116.044 226.571Z" fill="#FEFFFE"/>
<path opacity="0.98" fill-rule="evenodd" clip-rule="evenodd" d="M118.483 226.571C118.635 226.571 118.787 226.571 118.94 226.571C118.94 227.302 118.94 228.034 118.94 228.766C118.787 228.766 118.635 228.766 118.483 228.766C118.483 228.003 118.483 227.302 118.483 226.571Z" fill="#FEFFFE"/>
<path opacity="0.996" fill-rule="evenodd" clip-rule="evenodd" d="M190.574 193.71C190.97 193.71 191.306 193.863 191.58 194.137C192.19 194.93 192.769 195.722 193.379 196.515C193.958 195.753 194.537 194.96 195.116 194.198C195.39 193.893 195.726 193.71 196.153 193.71C197.097 193.71 198.042 193.71 198.987 193.71C199.231 193.71 199.475 193.771 199.719 193.893C199.506 193.893 199.292 193.924 199.048 193.954C198.835 194.015 198.652 194.107 198.5 194.229C198.378 194.351 198.256 194.473 198.134 194.594C197.951 194.808 197.738 195.052 197.555 195.265C197.189 195.783 196.823 196.301 196.427 196.82C195.848 197.582 195.238 198.374 194.659 199.136C194.659 199.898 194.659 200.66 194.659 201.392C194.598 201.91 194.293 202.276 193.805 202.489C193.714 202.52 193.653 202.52 193.562 202.55C193.043 202.55 192.556 202.581 192.037 202.55C192.037 201.392 192.037 200.264 192.037 199.106C191.184 197.978 190.33 196.85 189.507 195.753C189.263 195.357 189.202 194.93 189.385 194.473C189.66 194.015 190.026 193.741 190.574 193.71Z" fill="#FEFFFE"/>
<path opacity="0.997" fill-rule="evenodd" clip-rule="evenodd" d="M205.053 193.71C205.511 193.71 205.937 193.71 206.395 193.71C206.395 196.301 206.395 198.892 206.395 201.453C206.303 201.941 206.029 202.307 205.572 202.52C204.992 202.703 204.505 202.581 204.108 202.154C203.925 201.941 203.834 201.697 203.804 201.423C203.804 200.234 203.804 199.045 203.804 197.856C203.224 198.527 202.645 199.197 202.066 199.868C201.487 199.197 200.908 198.527 200.329 197.856C200.329 199.106 200.329 200.356 200.329 201.605C200.298 202.154 199.993 202.459 199.475 202.581C199.414 202.581 199.323 202.611 199.262 202.611C198.743 202.611 198.256 202.611 197.738 202.611C197.738 200.264 197.738 197.887 197.738 195.539C198.012 195.174 198.286 194.838 198.591 194.533C198.713 194.412 198.865 194.32 199.018 194.229C199.17 194.168 199.323 194.137 199.475 194.137C199.688 194.137 199.902 194.137 200.115 194.137C200.755 194.899 201.426 195.661 202.066 196.454C202.706 195.661 203.346 194.899 204.017 194.137C204.291 193.832 204.657 193.71 205.053 193.71Z" fill="#FEFFFE"/>
<path opacity="0.955" fill-rule="evenodd" clip-rule="evenodd" d="M193.866 203.251C194.019 203.251 194.08 203.312 194.08 203.465C194.08 203.587 193.988 203.678 193.866 203.678C193.684 203.648 193.623 203.556 193.684 203.373C193.714 203.312 193.775 203.282 193.866 203.251Z" fill="#FEFFFE"/>
<path opacity="0.957" fill-rule="evenodd" clip-rule="evenodd" d="M204.444 203.251C204.596 203.282 204.688 203.343 204.657 203.526C204.596 203.648 204.505 203.709 204.352 203.678C204.261 203.617 204.2 203.526 204.23 203.404C204.291 203.312 204.352 203.282 204.444 203.251Z" fill="#FEFFFE"/>
<path opacity="0.959" fill-rule="evenodd" clip-rule="evenodd" d="M206.181 203.251C206.364 203.282 206.425 203.373 206.395 203.526C206.334 203.648 206.242 203.678 206.12 203.648C206.029 203.587 205.968 203.526 205.998 203.404C205.998 203.312 206.059 203.282 206.181 203.251Z" fill="#FEFFFE"/>
<path opacity="0.972" fill-rule="evenodd" clip-rule="evenodd" d="M189.294 203.343C189.416 203.343 189.538 203.343 189.69 203.343C189.843 203.648 189.965 203.983 190.117 204.288C190.269 203.983 190.391 203.648 190.544 203.343C190.666 203.343 190.788 203.343 190.91 203.343C190.696 203.77 190.483 204.196 190.3 204.623C190.3 204.897 190.3 205.172 190.3 205.446C190.178 205.446 190.087 205.446 189.965 205.446C189.965 205.172 189.965 204.897 189.965 204.623C189.721 204.196 189.507 203.77 189.294 203.343Z" fill="#FEFFFE"/>
<path opacity="0.968" fill-rule="evenodd" clip-rule="evenodd" d="M197.524 203.343C197.646 203.343 197.768 203.343 197.859 203.343C198.042 203.77 198.195 204.196 198.378 204.623C198.561 204.196 198.713 203.77 198.896 203.343C199.018 203.343 199.109 203.343 199.231 203.343C199.231 204.044 199.231 204.745 199.231 205.477C199.109 205.477 199.018 205.477 198.896 205.477C198.896 204.989 198.896 204.501 198.896 204.013C198.743 204.379 198.591 204.745 198.439 205.141C198.378 205.141 198.317 205.141 198.286 205.141C198.134 204.775 197.981 204.41 197.859 204.044C197.859 204.532 197.859 204.989 197.859 205.477C197.768 205.477 197.646 205.477 197.555 205.477C197.524 204.745 197.524 204.044 197.524 203.343Z" fill="#FEFFFE"/>
<path opacity="0.968" fill-rule="evenodd" clip-rule="evenodd" d="M203.59 203.343C203.712 203.343 203.804 203.343 203.926 203.343C203.926 204.044 203.926 204.745 203.926 205.477C203.834 205.477 203.743 205.477 203.651 205.477C203.651 205.416 203.651 205.385 203.621 205.324C203.499 205.477 203.316 205.538 203.103 205.507C202.828 205.446 202.706 205.294 202.676 205.019C202.676 204.806 202.676 204.593 202.676 204.41C202.737 204.044 202.92 203.891 203.285 203.891C203.407 203.891 203.499 203.952 203.59 204.044C203.59 203.8 203.59 203.556 203.59 203.343ZM203.224 204.166C203.438 204.166 203.529 204.257 203.56 204.44C203.56 204.623 203.56 204.806 203.56 204.989C203.499 205.172 203.377 205.233 203.194 205.202C203.072 205.172 203.011 205.08 202.981 204.958C202.981 204.775 202.981 204.562 202.981 204.379C203.042 204.257 203.103 204.166 203.224 204.166Z" fill="#FEFFFE"/>
<path opacity="0.973" fill-rule="evenodd" clip-rule="evenodd" d="M192.708 203.526C192.799 203.526 192.921 203.526 193.013 203.526C193.013 203.648 193.013 203.77 193.013 203.922C193.165 203.922 193.287 203.922 193.439 203.922C193.439 204.014 193.439 204.105 193.439 204.166C193.287 204.166 193.165 204.166 193.013 204.166C193.013 204.471 193.013 204.806 193.013 205.111C193.043 205.172 193.074 205.202 193.135 205.202C193.226 205.202 193.318 205.202 193.379 205.202C193.379 205.294 193.409 205.355 193.409 205.446V205.477C193.257 205.507 193.104 205.538 192.952 205.507C192.799 205.446 192.708 205.355 192.677 205.202C192.677 204.867 192.677 204.532 192.677 204.196C192.586 204.196 192.525 204.196 192.434 204.196C192.434 204.105 192.434 204.014 192.434 203.953C192.525 203.953 192.586 203.953 192.677 203.953C192.708 203.77 192.708 203.648 192.708 203.526Z" fill="#FEFFFE"/>
<path opacity="0.973" fill-rule="evenodd" clip-rule="evenodd" d="M191.519 203.861C191.672 203.861 191.824 203.861 191.976 203.953C192.129 204.044 192.22 204.197 192.251 204.38C192.251 204.745 192.251 205.111 192.251 205.446C192.159 205.446 192.068 205.446 192.007 205.446C192.007 205.416 191.976 205.355 191.976 205.324C191.855 205.446 191.733 205.477 191.55 205.477C191.306 205.477 191.153 205.385 191.032 205.172C190.94 204.806 191.062 204.593 191.428 204.501C191.55 204.501 191.672 204.501 191.794 204.532C191.855 204.562 191.885 204.593 191.916 204.623C191.946 204.227 191.763 204.075 191.367 204.166C191.306 204.166 191.245 204.197 191.184 204.227C191.153 204.136 191.123 204.075 191.092 203.983C191.123 203.953 191.184 203.922 191.214 203.922C191.336 203.892 191.428 203.892 191.519 203.861ZM191.55 204.745C191.702 204.715 191.824 204.776 191.916 204.898C191.976 205.111 191.885 205.203 191.702 205.264C191.58 205.294 191.458 205.233 191.367 205.142C191.306 204.928 191.367 204.806 191.55 204.745Z" fill="#FEFFFE"/>
<path opacity="0.978" fill-rule="evenodd" clip-rule="evenodd" d="M195.025 203.861C195.208 203.831 195.33 203.892 195.451 204.014C195.482 204.044 195.482 204.075 195.512 204.136C195.634 203.922 195.787 203.861 196.031 203.861C196.214 203.892 196.335 203.983 196.396 204.136C196.427 204.197 196.427 204.258 196.427 204.288C196.427 204.654 196.427 205.05 196.427 205.416C196.335 205.416 196.214 205.416 196.122 205.416C196.122 205.05 196.122 204.684 196.122 204.349C196.061 204.166 195.939 204.075 195.756 204.136C195.665 204.166 195.634 204.227 195.604 204.319C195.604 204.684 195.573 205.05 195.604 205.416C195.482 205.416 195.391 205.416 195.269 205.416C195.269 205.05 195.269 204.684 195.269 204.319C195.238 204.136 195.116 204.075 194.933 204.105C194.842 204.136 194.781 204.197 194.75 204.319C194.75 204.684 194.72 205.05 194.75 205.416C194.659 205.416 194.537 205.416 194.446 205.416C194.446 204.898 194.446 204.379 194.446 203.861C194.537 203.861 194.628 203.861 194.72 203.861C194.72 203.922 194.72 203.983 194.72 204.044C194.781 203.953 194.872 203.892 195.025 203.861Z" fill="#FEFFFE"/>
<path opacity="0.97" fill-rule="evenodd" clip-rule="evenodd" d="M200.054 203.861C200.237 203.83 200.42 203.891 200.573 203.983C200.694 204.074 200.755 204.227 200.786 204.379C200.786 204.745 200.786 205.111 200.786 205.446C200.695 205.446 200.603 205.446 200.542 205.446C200.542 205.416 200.512 205.355 200.512 205.324C200.39 205.446 200.268 205.477 200.085 205.477C199.75 205.477 199.567 205.324 199.536 204.989C199.567 204.714 199.689 204.562 199.963 204.501C200.146 204.471 200.298 204.501 200.451 204.593C200.451 204.501 200.451 204.41 200.42 204.318C200.359 204.166 200.237 204.105 200.085 204.135C199.963 204.135 199.841 204.166 199.719 204.227C199.689 204.166 199.658 204.074 199.628 204.013V203.983C199.658 203.952 199.719 203.922 199.78 203.922C199.902 203.891 199.993 203.891 200.054 203.861ZM200.085 204.745C200.207 204.714 200.329 204.745 200.42 204.867C200.512 205.05 200.451 205.172 200.268 205.233C200.146 205.263 200.054 205.233 199.963 205.202C199.841 205.111 199.841 205.019 199.871 204.897C199.963 204.806 200.024 204.775 200.085 204.745Z" fill="#FEFFFE"/>
<path opacity="0.976" fill-rule="evenodd" clip-rule="evenodd" d="M201.761 203.861C202.005 203.831 202.188 203.922 202.279 204.136C202.31 204.196 202.31 204.288 202.34 204.349C202.34 204.715 202.34 205.08 202.34 205.446C202.219 205.446 202.127 205.446 202.005 205.446C202.005 205.08 202.005 204.715 202.005 204.349C201.944 204.166 201.822 204.105 201.639 204.136C201.548 204.166 201.487 204.257 201.456 204.349C201.456 204.715 201.426 205.05 201.456 205.416C201.365 205.416 201.243 205.416 201.152 205.416C201.152 204.898 201.152 204.379 201.152 203.861C201.243 203.861 201.335 203.861 201.426 203.861C201.426 203.922 201.426 203.983 201.426 204.044C201.517 203.953 201.639 203.892 201.761 203.861Z" fill="#FEFFFE"/>
<path opacity="0.978" fill-rule="evenodd" clip-rule="evenodd" d="M205.694 203.861C205.724 203.861 205.754 203.861 205.785 203.861C205.785 203.983 205.785 204.075 205.785 204.197C205.693 204.197 205.572 204.197 205.48 204.227C205.358 204.319 205.267 204.44 205.267 204.593C205.267 204.898 205.267 205.172 205.267 205.477C205.175 205.477 205.053 205.477 204.962 205.477C204.962 204.959 204.962 204.44 204.962 203.922C205.053 203.922 205.145 203.922 205.236 203.922C205.236 204.014 205.236 204.075 205.236 204.166C205.358 203.983 205.511 203.892 205.694 203.861Z" fill="#FEFFFE"/>
<path opacity="0.988" fill-rule="evenodd" clip-rule="evenodd" d="M193.714 203.892C193.836 203.892 193.927 203.892 194.049 203.892C194.049 204.41 194.049 204.928 194.049 205.446C193.927 205.446 193.836 205.446 193.714 205.446C193.714 204.928 193.714 204.41 193.714 203.892Z" fill="#FEFFFE"/>
<path opacity="0.98" fill-rule="evenodd" clip-rule="evenodd" d="M204.292 203.892C204.413 203.892 204.505 203.892 204.627 203.892C204.627 204.41 204.627 204.928 204.627 205.446C204.505 205.446 204.413 205.446 204.292 205.446C204.292 204.928 204.292 204.41 204.292 203.892Z" fill="#FEFFFE"/>
<path opacity="0.98" fill-rule="evenodd" clip-rule="evenodd" d="M206.029 203.892C206.151 203.892 206.242 203.892 206.364 203.892C206.364 204.41 206.364 204.928 206.364 205.446C206.242 205.446 206.151 205.446 206.029 205.446C206.029 204.928 206.029 204.41 206.029 203.892Z" fill="#FEFFFE"/>
<path fill-rule="evenodd" clip-rule="evenodd" d="M186.672 198.618C186.733 199.106 186.947 199.502 187.282 199.838C183.563 199.929 180.332 201.148 177.528 203.496C177.772 201.788 177.985 200.051 178.137 198.313C177.65 194.96 177.375 191.607 177.375 188.254C177.772 186.486 178.899 185.572 180.728 185.511C181.795 185.572 182.71 185.998 183.472 186.73C184.203 187.736 184.722 188.864 184.996 190.083C185.301 192.43 185.606 194.747 185.91 197.094C186.032 197.704 186.276 198.222 186.672 198.618Z" fill="#F9D2B9"/>
<path fill-rule="evenodd" clip-rule="evenodd" d="M195.817 218.737C196.64 219.682 197.067 220.81 197.037 222.09C196.823 223.401 196.64 224.742 196.427 226.053C196.031 226.449 195.604 226.876 195.208 227.272C194.171 224.254 192.159 223.309 189.111 224.376C188.349 224.772 187.739 225.321 187.282 226.053C185.575 223.797 183.441 223.34 180.881 224.681C180.576 225.108 180.332 225.565 180.119 226.053C178.473 224.102 176.4 223.279 173.87 223.614C173.778 220.352 173.717 217.121 173.717 213.859C174.266 213.341 174.693 212.732 174.937 212.031C174.083 208.86 174.937 206.33 177.528 204.41C178.96 203.739 180.393 202.977 181.795 202.124C183.716 201.484 185.697 201.026 187.739 200.752C190.361 201.423 192.83 202.398 195.208 203.648C196 204.227 196.549 204.989 196.884 205.934C197.158 207.702 196.915 209.379 196.122 210.964C198.103 212.975 198.469 215.262 197.189 217.822C196.854 218.31 196.396 218.615 195.817 218.737Z" fill="#F9D2B9"/>
<path fill-rule="evenodd" clip-rule="evenodd" d="M183.624 205.325C187.312 205.233 190.666 206.209 193.683 208.221C194.08 208.891 194.598 209.44 195.207 209.897C194.842 210.232 194.415 210.293 193.988 210.05C190.361 208.068 186.489 206.757 182.405 206.087C182.832 205.812 183.228 205.538 183.624 205.325Z" fill="#EF6036"/>
<path fill-rule="evenodd" clip-rule="evenodd" d="M195.817 218.737C195.086 218.798 194.385 218.737 193.684 218.585C190.148 216.756 186.398 215.75 182.405 215.536C181.948 214.683 182.192 214.134 183.167 213.86C185.85 214.317 188.532 214.774 191.245 215.232C193.013 215.597 194.507 216.451 195.665 217.823C195.817 218.097 195.878 218.402 195.817 218.737Z" fill="#EF6036"/>
<path fill-rule="evenodd" clip-rule="evenodd" d="M186.063 220.566C189.446 220.84 192.647 221.755 195.665 223.309C195.817 223.706 195.878 224.102 195.817 224.529C192.312 223.431 188.776 222.578 185.148 221.938C185.423 221.45 185.727 220.993 186.063 220.566Z" fill="#EF6036"/>
<path fill-rule="evenodd" clip-rule="evenodd" d="M227.275 191.363H206.639C207.767 192.735 208.62 194.442 209.23 196.484C215.357 195.143 221.362 193.406 227.275 191.363Z" fill="#EF6036"/>
<path fill-rule="evenodd" clip-rule="evenodd" d="M279.492 204.41C277.694 199.807 275.499 195.478 272.877 191.363H233.128C225.599 194.594 217.734 196.911 209.565 198.313C209.565 198.832 209.565 199.319 209.565 199.837C226.635 202.185 243.401 200.752 259.861 195.57C260.44 195.631 260.837 195.936 261.081 196.484C260.715 197.094 260.197 197.551 259.556 197.856C243.096 203.861 226.208 205.355 208.955 202.276C207.614 206.757 204.657 209.622 200.115 210.811C205.694 228.552 213.771 245.013 224.349 260.193C224.684 260.742 224.837 261.351 224.806 262.022C223.861 262.144 223.069 261.87 222.368 261.26C211.546 245.836 203.499 229.009 198.286 210.811C198.134 210.781 198.012 210.689 197.981 210.506C198.652 209.47 198.896 208.342 198.744 207.153C196.488 202.368 192.677 199.929 187.313 199.837C183.594 199.929 180.363 201.148 177.558 203.495C177.558 203.8 177.558 204.105 177.558 204.41C178.991 203.739 180.423 202.977 181.826 202.124C183.746 201.484 185.727 201.026 187.77 200.752C190.391 201.423 192.86 202.398 195.238 203.648C196.031 204.227 196.579 204.989 196.915 205.934C197.189 207.702 196.945 209.379 196.153 210.964C198.134 212.975 198.5 215.262 197.219 217.822C196.884 218.31 196.427 218.615 195.848 218.737C196.671 219.682 197.097 220.81 197.067 222.09C196.854 223.401 196.671 224.742 196.457 226.053C197.677 225.778 198.896 225.717 200.115 225.9C200.481 226.266 200.816 226.601 201.182 226.967C201.396 229.832 200.237 231.844 197.677 233.064C201.944 236.904 204.413 241.66 205.145 247.39C205.328 254.798 203.956 261.931 201.03 268.728C202.889 273.27 205.084 277.629 207.584 281.836C211.729 287.993 216.088 293.998 220.691 299.821C221.91 301.406 223.434 302.503 225.263 303.174C229.104 300.918 232.701 298.327 236.085 295.401C245.169 286.439 253.429 276.837 260.928 266.594C264.708 260.559 268.579 254.554 272.512 248.61C276.017 245.104 280.041 242.3 284.552 240.227C285.04 240.075 285.558 240.014 286.076 240.075C287.814 239.465 289.307 238.459 290.496 237.026C290.71 236.203 290.71 235.411 290.496 234.588C286.625 224.589 282.967 214.53 279.492 204.41Z" fill="#EF6036"/>
</g>
<defs>
<linearGradient id="paint0_linear_761_2596" x1="160" y1="381.5" x2="160" y2="160" gradientUnits="userSpaceOnUse">
<stop stop-color="#F47D21"/>
<stop offset="1" stop-color="#F47D21" stop-opacity="0"/>
</linearGradient>
<clipPath id="clip0_761_2596">
<rect width="320" height="320" rx="160" fill="white"/>
</clipPath>
</defs>
</svg>
