<svg width="320" height="320" viewBox="0 0 320 320" fill="none" xmlns="http://www.w3.org/2000/svg">
<g clip-path="url(#clip0_761_2424)">
<rect width="320" height="320" rx="160" fill="url(#paint0_linear_761_2424)"/>
<path fill-rule="evenodd" clip-rule="evenodd" d="M149.755 186.517C148.721 184.333 147.147 182.673 145.013 181.521C143.912 181.149 142.777 180.929 141.626 180.844C141.27 180.725 140.999 180.522 140.779 180.251C141.863 172.427 142.117 164.587 141.541 156.712C141.321 154.764 140.948 152.851 140.44 150.954C139.086 150.886 137.782 150.565 136.545 150.023C133.751 148.583 131.042 146.991 128.417 145.281C124.776 143.079 120.813 141.86 116.562 141.64C114.124 141.775 111.753 142.267 109.45 143.079C104.894 145.078 100.491 147.33 96.2405 149.853C95.1736 150.294 94.1067 150.717 93.0229 151.123C92.1592 153.477 91.3294 155.848 90.5674 158.236C89.7037 162.453 88.9755 166.687 88.3659 170.937C88.332 171.733 87.9594 172.207 87.2651 172.377C86.0966 171.157 84.6571 170.497 82.9467 170.429C81.6089 170.582 80.3388 170.92 79.1364 171.445C76.4946 170.649 74.5471 169.007 73.2939 166.534C72.7689 165.332 72.4133 164.096 72.1931 162.808C72.1931 162.402 72.3625 162.131 72.7012 161.962C73.5479 162.334 74.3946 162.69 75.2414 163.062C76.6639 163.384 77.8832 163.012 78.8824 161.962C78.9332 161.742 79.0009 161.504 79.0517 161.284C78.9162 159.828 78.8316 158.355 78.7977 156.881C78.6114 154.036 79.5089 151.615 81.5073 149.599C77.3074 146.805 75.6986 142.91 76.6808 137.914C77.2736 135.73 78.3743 133.833 79.9831 132.241C80.1017 132.123 80.2033 132.123 80.3218 132.241C80.9315 133.308 81.4565 134.409 81.9306 135.543C82.5911 136.424 83.4717 136.729 84.5555 136.475C85.9103 136.255 87.2143 135.865 88.4505 135.289C91.5496 132.868 94.6656 130.429 97.7647 128.007C107.282 123.35 117.104 122.571 127.231 125.637C132.786 127.55 137.443 130.734 141.202 135.205C141.507 135.865 141.761 136.543 141.964 137.237C145.487 134.341 149.5 133.41 153.988 134.443C155.123 134.68 156.139 135.154 157.036 135.882C156.156 136.797 155.191 137.609 154.158 138.338C151.414 140.675 149.653 143.604 148.908 147.144C150.127 148.092 151.38 149.057 152.633 150.023C156.274 153.342 157.663 157.423 156.782 162.3C156.562 163.554 156.274 164.79 155.936 166.026C154.937 168.549 153.971 171.09 153.057 173.647C152.82 175.56 153.582 176.881 155.343 177.626C156.41 177.745 157.494 177.711 158.561 177.542C158.781 177.576 159.018 177.593 159.238 177.626C159.34 177.745 159.39 177.897 159.407 178.05C158.019 181.555 155.648 184.18 152.295 185.924C151.482 186.263 150.635 186.449 149.755 186.517Z" fill="#434245"/>
<path fill-rule="evenodd" clip-rule="evenodd" d="M149.754 186.517C149.89 188.025 149.585 189.447 148.823 190.751C147.553 192.36 146.164 193.85 144.674 195.239C142.862 196.407 140.881 196.848 138.747 196.594C138.019 196.475 137.341 196.221 136.715 195.832C132.989 200.861 128.129 204.299 122.151 206.162C118.561 207.144 114.886 207.55 111.143 207.432C110.008 207.195 108.874 206.924 107.756 206.585C105.25 205.417 102.76 204.197 100.305 202.944C93.9035 199.1 89.5173 193.63 87.1803 186.517C82.4217 187.754 79.1532 186.06 77.3582 181.437C76.0542 177.762 76.6469 174.426 79.1363 171.445C80.3387 170.92 81.6088 170.582 82.9466 170.429C84.6571 170.497 86.0965 171.157 87.265 172.377C87.9593 172.207 88.3319 171.733 88.3658 170.937C88.9754 166.687 89.7036 162.453 90.5673 158.236C91.3294 155.848 92.1592 153.478 93.0228 151.124C94.1067 150.717 95.1736 150.294 96.2405 149.854C100.491 147.33 104.894 145.078 109.45 143.08C111.753 142.267 114.124 141.776 116.562 141.64C120.813 141.86 124.776 143.08 128.417 145.281C131.041 146.992 133.751 148.583 136.545 150.023C137.782 150.565 139.086 150.887 140.44 150.954C140.948 152.851 141.321 154.765 141.541 156.712C142.117 164.587 141.863 172.428 140.779 180.251C140.999 180.522 141.27 180.726 141.626 180.844C142.777 180.929 143.912 181.149 145.013 181.522C147.146 182.673 148.721 184.333 149.754 186.517Z" fill="#F9D2B9"/>
<path fill-rule="evenodd" clip-rule="evenodd" d="M275.749 275.595C274.005 277.864 272.227 280.133 270.415 282.369C267.231 277.119 263.777 272.038 260.085 267.127C257.274 263.622 253.802 260.997 249.67 259.253C245.826 257.966 242.015 258.05 238.239 259.507C238.561 258.558 238.815 257.559 239.001 256.543C238.933 254.697 237.968 253.698 236.122 253.579C233.294 253.935 231.6 255.51 231.042 258.321C230.449 258.05 229.822 257.83 229.179 257.644C228.688 255.324 228.18 253.004 227.655 250.7C236.782 251.276 245.03 248.872 252.379 243.503C252.684 243.198 252.752 242.86 252.549 242.487C252.058 242.267 251.55 242.199 251.025 242.318C246.791 244.739 242.303 246.585 237.561 247.822C234.073 248.516 230.584 248.736 227.062 248.499C225.605 243.266 224.115 238.05 222.574 232.834C222.625 232.699 222.693 232.546 222.743 232.411C225.064 231.327 227.333 230.125 229.517 228.77C232.413 226.822 235.224 224.79 237.985 222.673C240.119 220.895 241.998 218.88 243.658 216.662C243.76 216.306 243.895 215.967 244.081 215.645C243.743 214.985 243.235 214.765 242.557 214.968C241.677 216.035 240.779 217.085 239.848 218.101C236.63 220.828 233.362 223.486 230.025 226.06C227.468 227.669 224.826 229.109 222.066 230.379C221.846 229.6 221.66 228.804 221.473 228.008C221.219 227.686 220.898 227.432 220.542 227.246C218.798 226.805 217.578 227.398 216.901 229.024C216.444 230.379 216.054 231.734 215.716 233.088C215.224 231.463 214.513 229.938 213.599 228.516C212.684 227.788 211.668 227.652 210.55 228.093C210.059 228.482 209.687 228.956 209.45 229.532C209.128 231.479 208.992 233.427 209.026 235.374C206.689 236.103 204.352 236.814 201.998 237.491C199.831 237.881 197.714 238.389 195.648 239.015C195.597 239.015 195.529 239.015 195.478 239.015C194.276 235.104 191.736 232.462 187.858 231.056C187.367 230.684 186.808 230.514 186.164 230.548C183.082 229.989 180.152 230.396 177.358 231.734C177.392 231.175 177.511 230.633 177.697 230.125C178.916 229.261 180.203 228.533 181.592 227.923C182.879 227.161 183.489 226.043 183.455 224.536C183.252 223.402 182.93 222.301 182.523 221.234C180.339 216.458 178.205 211.649 176.088 206.839C172.346 193.935 173.819 181.691 180.491 170.091C183.776 164.892 187.688 160.167 192.261 155.95C193.887 154.629 195.58 153.393 197.341 152.225C199.949 150.853 202.659 149.786 205.47 149.007C208.772 148.313 212.091 148.076 215.462 148.33C219.594 148.888 223.607 149.905 227.485 151.378C228.349 151.801 229.196 152.242 230.025 152.733C230.94 153.579 231.888 154.375 232.904 155.104C237.663 160.573 241.355 166.687 243.997 173.478C246.063 179.032 247.417 184.739 248.061 190.582C248.451 194.646 248.857 198.711 249.246 202.775C250.009 207.466 250.567 212.208 250.94 217C251.499 219.591 252.108 222.199 252.803 224.79C253.209 225.891 253.836 226.856 254.666 227.669C255.665 229.837 256.715 231.988 257.799 234.104C263.065 243.249 268.975 251.937 275.495 260.184C275.953 260.946 276.376 261.742 276.765 262.555C277.612 263.91 278.544 265.214 279.56 266.45C279.712 266.958 279.848 267.466 279.983 267.974C279.712 268.702 279.458 269.43 279.221 270.176C278.188 272.072 277.036 273.884 275.749 275.595Z" fill="#EF6036"/>
<path fill-rule="evenodd" clip-rule="evenodd" d="M103.353 149.769C104.827 149.735 106.283 149.769 107.756 149.854C109.585 150.209 111.025 151.141 112.075 152.648C112.295 153.494 111.99 153.867 111.143 153.749C108.755 151.445 105.978 150.87 102.845 152.055C100.796 152.817 99.0179 153.969 97.5107 155.527C97.1889 155.171 96.9857 154.748 96.918 154.257C98.6284 152.123 100.779 150.616 103.353 149.769Z" fill="#444345"/>
<path fill-rule="evenodd" clip-rule="evenodd" d="M129.602 153.325C134.31 152.902 137.324 154.934 138.662 159.422C138.967 160.302 138.713 160.912 137.9 161.285C137.781 161.234 137.68 161.166 137.561 161.115C137.189 159.574 136.528 158.169 135.614 156.882C133.819 155.171 131.702 154.578 129.263 155.103C127.959 155.595 126.655 156.052 125.368 156.458C125.25 156.086 125.334 155.713 125.622 155.357C126.808 154.375 128.129 153.698 129.602 153.325Z" fill="#444345"/>
<path fill-rule="evenodd" clip-rule="evenodd" d="M106.91 157.728C108.671 157.474 109.771 158.219 110.212 159.93C110.652 162.741 109.721 164.976 107.418 166.619C106.131 167.296 105.097 167.042 104.285 165.857C103.116 162.47 103.98 159.76 106.91 157.728Z" fill="#434245"/>
<path fill-rule="evenodd" clip-rule="evenodd" d="M128.925 160.946C131.583 160.997 132.684 162.351 132.227 165.01C131.82 166.941 130.821 168.482 129.263 169.667C127.383 170.531 126.215 169.938 125.792 167.889C125.317 164.858 126.367 162.555 128.925 160.946Z" fill="#434245"/>
<path fill-rule="evenodd" clip-rule="evenodd" d="M204.962 164.333C205.419 164.299 205.859 164.333 206.317 164.417C208.078 164.942 209.822 165.518 211.566 166.111C217.697 168.804 223.031 172.614 227.57 177.542C233.429 184.621 237.494 192.631 239.763 201.589C239.695 203.638 239.255 205.62 238.408 207.517C235.58 213.19 231.719 218.05 226.808 222.08C221.406 225.992 215.36 227.483 208.688 226.568C201.135 225.23 194.547 221.979 188.958 216.831C187.925 215.798 187.028 214.663 186.249 213.444C184.217 199.388 186.926 186.348 194.378 174.324C197.189 170.175 200.728 166.839 204.962 164.333Z" fill="#F9D2B9"/>
<path fill-rule="evenodd" clip-rule="evenodd" d="M114.869 172.123C116.444 171.886 117.849 172.225 119.102 173.139C120.406 174.358 121.135 175.849 121.304 177.627C121.169 178.186 120.948 178.694 120.627 179.151C120.373 179.236 120.169 179.151 120.034 178.897C120.136 176.374 119.035 174.646 116.732 173.732C115.309 173.444 114.073 173.783 113.006 174.748C112.447 175.425 111.871 176.103 111.312 176.78C111.092 176.899 110.889 176.865 110.72 176.695C110.517 176.306 110.466 175.916 110.55 175.51C111.617 173.901 113.057 172.767 114.869 172.123Z" fill="#EF6036"/>
<path fill-rule="evenodd" clip-rule="evenodd" d="M219.018 173.986C221.236 173.833 223.015 174.629 224.352 176.357C224.437 176.746 224.471 177.136 224.437 177.542C223.827 177.559 223.269 177.406 222.744 177.119C221.931 176.238 220.932 175.645 219.78 175.34C219.458 175.408 219.136 175.527 218.849 175.679C218.137 176.255 217.409 176.78 216.647 177.288C216.19 177.474 215.902 177.322 215.8 176.865C215.885 176.475 216.054 176.136 216.308 175.848C217.172 175.137 218.086 174.511 219.018 173.986Z" fill="#484748"/>
<path fill-rule="evenodd" clip-rule="evenodd" d="M84.0475 174.494C85.5716 174.409 86.7063 175.036 87.4345 176.357C87.3159 176.492 87.1635 176.611 87.0111 176.695C85.9781 176.154 84.8773 175.967 83.7088 176.103C82.9806 176.611 82.354 177.237 81.846 177.966C81.321 178.253 80.7791 178.287 80.2372 178.05C80.1525 177.745 80.2033 177.457 80.4065 177.203C81.321 175.866 82.5234 174.968 84.0475 174.494Z" fill="#EF6036"/>
<path fill-rule="evenodd" clip-rule="evenodd" d="M198.357 176.526C199.373 176.492 200.39 176.526 201.406 176.61C202.405 177.034 203.336 177.576 204.2 178.219C204.335 178.541 204.42 178.88 204.454 179.235C204.166 179.269 203.878 179.235 203.607 179.151C202.879 178.761 202.134 178.355 201.406 177.965C198.967 177.389 197.172 178.168 195.986 180.336C195.495 180.471 195.089 180.336 194.801 179.913C195.461 178.202 196.647 177.068 198.357 176.526Z" fill="#494849"/>
<path fill-rule="evenodd" clip-rule="evenodd" d="M103.014 180.59C103.539 180.59 104.047 180.675 104.539 180.844C110.483 183.656 116.749 185.23 123.336 185.586C123.539 185.739 123.675 185.942 123.76 186.179C124.234 192.885 121.219 197.085 114.699 198.795C107.35 199.168 102.862 195.764 101.236 188.55C100.525 185.586 101.118 182.927 103.014 180.59Z" fill="#EF6036"/>
<path fill-rule="evenodd" clip-rule="evenodd" d="M220.542 180.76C221.66 180.624 222.54 181.014 223.167 181.945C224.149 183.977 224.318 186.06 223.675 188.211C223.184 188.922 222.591 189.515 221.897 189.989C219.593 190.497 218.154 189.616 217.578 187.364C216.664 184.248 217.646 182.047 220.542 180.76Z" fill="#454446"/>
<path fill-rule="evenodd" clip-rule="evenodd" d="M106.063 183.469C107.384 183.825 108.738 184.248 110.127 184.739C113.836 185.789 117.612 186.365 121.473 186.433C117.324 189.972 112.921 190.311 108.264 187.449C106.977 186.416 106.232 185.078 106.063 183.469Z" fill="#FEFEFE"/>
<path fill-rule="evenodd" clip-rule="evenodd" d="M200.389 184.316C201.609 184.129 202.608 184.519 203.353 185.501C204.826 187.838 204.826 190.141 203.353 192.444C203.065 192.8 202.693 193.054 202.252 193.206C199.187 193.528 197.663 192.156 197.68 189.057C197.714 186.941 198.628 185.366 200.389 184.316Z" fill="#464446"/>
<path fill-rule="evenodd" clip-rule="evenodd" d="M140.948 185.332C144.674 184.908 146.334 186.551 145.944 190.243C145.792 190.683 145.538 191.056 145.182 191.344C144.996 191.462 144.827 191.445 144.674 191.259C144.42 190.429 144.285 189.582 144.251 188.719C144.014 188.143 143.641 187.669 143.15 187.279C142.235 186.974 141.304 186.771 140.356 186.686C140.407 186.178 140.61 185.721 140.948 185.332Z" fill="#EF6036"/>
<path fill-rule="evenodd" clip-rule="evenodd" d="M210.042 192.275C211.804 192.089 213.379 192.512 214.784 193.545C215.766 194.375 216.444 195.391 216.816 196.593C216.749 197.017 216.681 197.44 216.647 197.864C216.291 197.914 215.953 197.864 215.631 197.694C214.818 196.339 213.751 195.239 212.413 194.392C210.771 193.833 209.399 194.189 208.264 195.493C207.705 196.915 207.367 198.372 207.248 199.896C206.723 200.133 206.266 200.014 205.893 199.557C205.876 197.914 206.215 196.323 206.91 194.815C207.655 193.579 208.705 192.732 210.042 192.275Z" fill="#EF6036"/>
<path fill-rule="evenodd" clip-rule="evenodd" d="M221.558 200.912C221.914 200.912 222.218 201.014 222.489 201.251C224.352 205.586 224.352 209.938 222.489 214.291C220.931 216.814 218.679 218.169 215.715 218.355C211.194 218.389 207.909 216.424 205.893 212.428C205.504 211.361 205.097 210.277 204.708 209.21C204.488 208.431 204.437 207.635 204.538 206.839C204.843 206.636 205.165 206.45 205.47 206.247C210.855 204.485 216.223 202.707 221.558 200.912Z" fill="#EF6036"/>
<path fill-rule="evenodd" clip-rule="evenodd" d="M100.305 202.944C102.76 204.198 105.25 205.417 107.756 206.585C108.874 206.924 110.008 207.195 111.143 207.432C114.886 207.568 118.56 207.127 122.151 206.162C122.1 206.619 122.032 207.059 121.981 207.517C116.477 209.701 110.77 211.158 104.877 211.92C106.08 214.528 107.18 217.187 108.179 219.879C109.839 217.542 111.533 215.222 113.26 212.936C113.565 212.8 113.819 212.597 114.022 212.343C116.613 211.632 119.204 211.107 121.812 210.734C122.371 210.65 122.947 210.531 123.505 210.396C123.861 210.446 124.081 210.633 124.183 210.988C124.183 214.071 123.997 217.136 123.59 220.218C123.505 220.387 123.421 220.557 123.336 220.726C119.763 222.504 116.088 224.079 112.328 225.468C112.549 224.231 112.041 223.554 110.804 223.435C108.772 223.91 107.384 225.163 106.655 227.161C106.096 228.584 105.707 230.057 105.47 231.564C105.419 229.871 105.351 228.177 105.301 226.484C105.131 225.468 104.792 224.502 104.284 223.605C102.93 222.385 101.49 222.267 99.9661 223.266C97.646 220.607 95.3937 217.898 93.1921 215.137C93.2091 212.699 93.48 210.311 94.0389 207.94C94.3776 207.517 94.8348 207.314 95.3937 207.347C96.7484 207.483 98.0863 207.771 99.3733 208.194C99.729 206.45 100.034 204.706 100.305 202.944Z" fill="#EF6036"/>
<path fill-rule="evenodd" clip-rule="evenodd" d="M218.679 203.113C218.849 203.113 219.018 203.113 219.187 203.113C218.95 204.333 218.578 205.518 218.086 206.67C216.122 209.04 213.616 209.853 210.55 209.125C209.246 208.583 208.061 207.838 206.994 206.924C210.754 205.687 214.53 204.536 218.34 203.452C218.544 203.418 218.662 203.3 218.679 203.113Z" fill="#FEFBFB"/>
<path fill-rule="evenodd" clip-rule="evenodd" d="M121.981 207.517C121.863 208.38 121.744 209.261 121.643 210.141C121.643 210.379 121.693 210.582 121.812 210.734C119.204 211.107 116.613 211.632 114.022 212.343C113.819 212.597 113.565 212.8 113.26 212.936C111.533 215.222 109.839 217.542 108.179 219.879C107.18 217.186 106.08 214.528 104.877 211.92C110.771 211.158 116.478 209.701 121.981 207.517Z" fill="#F9D2B9"/>
<path fill-rule="evenodd" clip-rule="evenodd" d="M229.179 257.644C228.62 257.457 228.061 257.457 227.485 257.644C225.605 257.068 224.234 257.694 223.336 259.506C223.116 260.116 222.98 260.726 222.913 261.369C222.168 261.302 221.473 261.42 220.796 261.708C219.915 257.559 219.17 253.376 218.594 249.176C218.171 245.298 218.002 241.403 218.086 237.491C218.137 236.39 218.391 235.341 218.848 234.358C219.306 233.986 219.729 234.02 220.118 234.443C220.288 234.951 220.457 235.459 220.627 235.967C221.185 239.998 221.863 243.994 222.659 247.991C222.845 248.482 223.184 248.821 223.675 249.007C224.03 248.821 224.217 248.499 224.268 248.075C223.759 243.164 222.777 238.338 221.304 233.596C220.677 232.665 219.797 232.343 218.679 232.665C217.748 233.088 217.155 233.783 216.901 234.782C216.765 235.391 216.664 236.018 216.562 236.644C215.732 234.562 214.293 233.918 212.244 234.697C211.634 235.459 211.329 236.34 211.312 237.322C211.465 242.064 211.702 246.805 211.99 251.547C212.43 252.428 212.82 252.428 213.175 251.547C213.124 247.229 212.989 242.91 212.752 238.592C212.769 237.881 212.853 237.169 213.006 236.475C213.124 236.136 213.345 235.916 213.683 235.798C214.225 236.001 214.682 236.34 215.038 236.814C215.563 238.033 216.003 239.269 216.393 240.539C216.596 243.351 216.698 246.179 216.732 249.007C217.273 252.597 217.985 256.153 218.848 259.676C218.086 259.676 217.29 259.693 216.478 259.761C216.003 259.947 215.597 260.201 215.207 260.523C214.073 258.863 212.515 258.219 210.55 258.575C210.279 258.677 210.059 258.812 209.873 258.998C209.517 258.965 209.179 259.032 208.857 259.168C209.043 255.324 209.111 251.496 209.026 247.652C206.605 246.822 204.183 245.993 201.744 245.197C199.729 244.502 197.832 243.571 196.071 242.402C196.037 241.86 195.953 241.352 195.817 240.878C195.817 240.709 195.817 240.539 195.817 240.37C195.766 239.913 195.699 239.473 195.648 239.015C197.714 238.389 199.831 237.881 201.998 237.491C204.352 236.814 206.689 236.103 209.026 235.374C208.992 233.427 209.128 231.479 209.45 229.532C209.687 228.956 210.059 228.482 210.55 228.092C211.668 227.652 212.684 227.788 213.599 228.516C214.513 229.938 215.224 231.462 215.715 233.088C216.054 231.733 216.444 230.379 216.901 229.024C217.578 227.398 218.798 226.805 220.542 227.246C220.897 227.432 221.219 227.686 221.473 228.008C221.66 228.804 221.846 229.6 222.066 230.379C224.826 229.109 227.468 227.669 230.025 226.06C233.362 223.486 236.63 220.827 239.848 218.101C240.779 217.085 241.676 216.035 242.557 214.968C243.234 214.765 243.743 214.985 244.081 215.645C243.895 215.967 243.759 216.306 243.658 216.661C241.998 218.88 240.118 220.895 237.985 222.673C235.224 224.79 232.413 226.822 229.517 228.77C227.333 230.125 225.063 231.327 222.743 232.411C222.693 232.546 222.625 232.699 222.574 232.834C224.115 238.05 225.605 243.266 227.062 248.499C230.584 248.736 234.073 248.516 237.561 247.821C242.303 246.585 246.791 244.739 251.025 242.318C251.549 242.199 252.058 242.267 252.549 242.487C252.752 242.86 252.684 243.198 252.379 243.503C245.03 248.871 236.782 251.276 227.654 250.7C228.179 253.004 228.688 255.324 229.179 257.644Z" fill="#F9D2B9"/>
<path fill-rule="evenodd" clip-rule="evenodd" d="M93.1922 215.137C95.3938 217.898 97.6461 220.607 99.9661 223.266C99.0009 228.431 97.7816 233.579 96.3252 238.677C94.2761 243.13 92.1253 247.533 89.8899 251.886C88.6029 252.512 87.282 253.054 85.9103 253.495C79.0347 255.527 72.2608 257.813 65.5885 260.353C67.9594 253.969 70.1948 247.533 72.2777 241.047C72.4302 240.624 72.3455 240.252 72.0237 239.947C71.5834 239.743 71.1431 239.676 70.6689 239.777C68.5521 244.875 66.4352 249.989 64.3184 255.103C63.5055 257.237 62.7435 259.388 62.0322 261.539C57.1888 263.469 52.3286 265.417 47.4683 267.381C44.8772 268.499 42.4048 269.803 40.017 271.276C39.1533 271.97 38.3235 272.732 37.5614 273.562C36.0711 275.611 34.7164 277.762 33.4971 279.997C33.1922 280.895 32.9382 281.793 32.735 282.707C30.4657 280.861 28.4674 278.778 26.7231 276.441C25.8595 275.34 25.5208 274.104 25.707 272.716C29.0263 268.431 32.4132 264.197 35.8679 260.014C45.8764 248.431 55.7494 236.746 65.5038 224.959C67.011 223.401 68.5521 221.911 70.1609 220.472C71.2786 219.727 72.464 219.1 73.7172 218.609C80.0678 216.611 86.5538 215.459 93.1922 215.137Z" fill="#2E3192"/>
<path fill-rule="evenodd" clip-rule="evenodd" d="M123.336 220.726C126.147 222.588 129.026 224.367 131.973 226.06C136.003 228.16 140.017 230.311 143.997 232.495C145.589 233.579 146.757 235.019 147.468 236.814C148.84 240.218 149.924 243.723 150.686 247.313C152.244 254.748 153.7 262.199 155.089 269.667C157.02 279.371 159.56 288.922 162.71 298.287C163.048 300.319 162.337 301.877 160.593 302.944C159.712 303.469 158.815 303.943 157.883 304.384C157.934 302.419 157.68 300.505 157.121 298.626C157.24 296.509 156.681 294.578 155.428 292.868C149.805 286.653 143.743 280.946 137.223 275.764C137.036 268.024 137.036 260.302 137.223 252.563C137.24 251.886 137.121 251.242 136.884 250.616C136.105 250.429 135.614 250.751 135.445 251.547C135.224 259.117 135.14 266.67 135.191 274.24C129.06 270.074 123.082 265.704 117.24 261.115C115.665 259.625 114.733 257.796 114.445 255.611C113.345 248.38 112.481 241.132 111.821 233.85C111.922 231.056 112.092 228.262 112.329 225.467C116.088 224.079 119.763 222.504 123.336 220.726Z" fill="#2E3192"/>
<path fill-rule="evenodd" clip-rule="evenodd" d="M112.329 225.468C112.092 228.262 111.922 231.056 111.821 233.85C112.481 241.132 113.345 248.38 114.445 255.612C114.733 257.796 115.665 259.625 117.24 261.115C123.082 265.705 129.06 270.074 135.191 274.24C135.868 274.748 136.545 275.256 137.223 275.764C143.743 280.946 149.805 286.653 155.428 292.868C156.681 294.579 157.24 296.509 157.121 298.626C157.68 300.506 157.934 302.419 157.883 304.384C157.172 308.16 154.92 310.396 151.109 311.073C145.555 311.717 140.254 310.836 135.191 308.448C131.516 305.468 128.264 302.081 125.453 298.287C121.558 292.868 117.832 287.347 114.276 281.691C112.125 278.761 109.992 275.815 107.841 272.885C107.13 272.174 106.435 271.48 105.724 270.768C103.573 270.463 101.897 269.43 100.728 267.635C100.407 267.06 100.203 266.433 100.136 265.772C100.644 265.078 100.965 264.282 101.067 263.402C102.219 256.594 103.184 249.769 103.946 242.911C104.183 241.488 104.471 240.082 104.793 238.677C105.284 236.763 105.91 234.9 106.655 233.088C107.316 232.36 108.129 232.072 109.111 232.242C109.162 232.58 109.23 232.919 109.28 233.258C108.62 236.966 108.163 240.692 107.926 244.435C107.943 245.061 108.027 245.688 108.18 246.297C108.484 246.941 108.823 246.941 109.196 246.297C109.67 242.419 110.042 238.524 110.296 234.612C110.28 233.596 110.195 232.58 110.042 231.564C108.044 230.277 106.351 230.616 104.962 232.58C104.573 229.82 103.082 228.888 100.474 229.786C100.102 230.209 99.8477 230.684 99.7122 231.225C98.6792 235.205 97.7139 239.219 96.8333 243.249C96.7148 243.808 96.7148 244.384 96.8333 244.943C96.9518 245.061 97.0535 245.163 97.172 245.281C97.5276 245.027 97.7647 244.689 97.8494 244.265C98.7639 240.336 99.5598 236.391 100.22 232.411C100.525 230.87 101.389 230.328 102.845 230.802C103.506 231.48 103.794 232.292 103.692 233.258C102.879 240.472 102.117 247.703 101.406 254.934C100.83 257.864 100.322 260.794 99.8816 263.74C99.8138 264.164 99.6783 264.553 99.4582 264.926C99.5767 265.163 99.6783 265.383 99.7969 265.603C99.0687 267.517 97.6462 268.482 95.5632 268.482C94.7503 268.465 93.9883 268.296 93.277 267.974C90.5505 269.6 87.9256 271.378 85.4023 273.308C82.4557 275.747 79.4751 278.118 76.4269 280.421C71.5666 283.859 66.7232 287.314 61.8629 290.751C58.1881 292.529 54.3439 293.867 50.3473 294.731C46.8587 295.747 43.3024 296.17 39.6783 296.001C35.6479 295.408 33.023 293.173 31.8037 289.312C31.5327 287.026 31.8375 284.824 32.7351 282.707C32.9383 281.793 33.1923 280.895 33.4971 279.998C34.7164 277.762 36.0712 275.612 37.5615 273.562C38.3236 272.733 39.1534 271.971 40.017 271.276C42.4048 269.803 44.8773 268.499 47.4684 267.381C52.3286 265.417 57.1889 263.469 62.0323 261.539C63.2347 261.183 64.4201 260.777 65.5886 260.353C72.2609 257.813 79.0348 255.527 85.9104 253.495C87.2821 253.054 88.603 252.513 89.89 251.886C92.1254 247.534 94.2761 243.131 96.3253 238.677C97.7816 233.579 99.001 228.431 99.9662 223.266C101.49 222.267 102.93 222.386 104.285 223.605C104.793 224.502 105.131 225.468 105.301 226.484C105.352 228.177 105.419 229.871 105.47 231.564C105.707 230.057 106.097 228.584 106.655 227.161C107.384 225.163 108.772 223.91 110.805 223.435C112.041 223.554 112.549 224.231 112.329 225.468Z" fill="#F9D2B9"/>
<path fill-rule="evenodd" clip-rule="evenodd" d="M100.136 265.772C100.017 265.722 99.9154 265.654 99.7969 265.603C99.6783 265.383 99.5767 265.163 99.4582 264.926C99.6783 264.553 99.8138 264.164 99.8816 263.74C100.322 260.794 100.83 257.864 101.406 254.934C102.117 247.703 102.879 240.472 103.692 233.258C103.793 232.292 103.506 231.479 102.845 230.802C101.389 230.328 100.525 230.87 100.22 232.411C99.5598 236.39 98.7639 240.336 97.8494 244.265C97.7647 244.689 97.5276 245.027 97.172 245.281C97.0534 245.163 96.9518 245.061 96.8333 244.943C96.7147 244.384 96.7147 243.808 96.8333 243.249C97.7139 239.219 98.6792 235.205 99.7122 231.225C99.8477 230.683 100.102 230.209 100.474 229.786C103.082 228.888 104.572 229.82 104.962 232.58C106.351 230.616 108.044 230.277 110.042 231.564C110.195 232.58 110.28 233.596 110.296 234.612C110.042 238.524 109.67 242.419 109.196 246.297C108.823 246.941 108.484 246.941 108.18 246.297C108.027 245.688 107.943 245.061 107.926 244.435C108.163 240.692 108.62 236.966 109.28 233.258C109.23 232.919 109.162 232.58 109.111 232.241C108.129 232.072 107.316 232.36 106.655 233.088C105.91 234.9 105.284 236.763 104.793 238.677C104.471 240.082 104.183 241.488 103.946 242.91C103.184 249.769 102.219 256.594 101.067 263.401C100.965 264.282 100.644 265.078 100.136 265.772Z" fill="#EF6036"/>
<path fill-rule="evenodd" clip-rule="evenodd" d="M186.164 230.548C186.689 230.785 187.248 230.954 187.858 231.056C191.736 232.461 194.276 235.103 195.478 239.015C195.394 239.557 195.495 240.014 195.817 240.37C195.817 240.539 195.817 240.709 195.817 240.878C196.071 245.162 194.598 248.719 191.414 251.547C190.872 251.852 190.364 252.19 189.89 252.563C189.483 252.681 189.077 252.851 188.704 253.071C188.281 253.122 187.942 253.291 187.688 253.579C185.572 254.172 183.421 254.341 181.253 254.087C180.677 253.816 180.051 253.647 179.39 253.579C177.273 252.935 175.478 251.801 173.971 250.192C171.685 247.499 170.72 244.383 171.092 240.878C171.346 239.997 171.566 239.1 171.77 238.168C172.904 235.391 174.767 233.257 177.358 231.733C180.152 230.395 183.082 229.989 186.164 230.548Z" fill="#2E3192"/>
<path fill-rule="evenodd" clip-rule="evenodd" d="M186.164 230.548C186.808 230.514 187.367 230.683 187.858 231.056C187.248 230.954 186.689 230.785 186.164 230.548Z" fill="#9C5463"/>
<path fill-rule="evenodd" clip-rule="evenodd" d="M227.485 257.643C225.724 258.372 224.877 259.693 224.945 261.623C224.962 262.284 225.013 262.927 225.114 263.571C224.386 263.537 223.641 263.571 222.913 263.655C222.506 263.774 222.134 263.977 221.812 264.248C221.118 262.809 219.966 262.03 218.34 261.877C216.799 262.047 215.529 262.724 214.53 263.909C214.158 261.657 212.938 260.048 210.889 259.083C210.55 258.998 210.212 258.964 209.873 258.998C210.059 258.812 210.279 258.677 210.55 258.575C212.515 258.219 214.073 258.863 215.208 260.522C215.58 260.201 216.02 259.947 216.478 259.76C217.29 259.693 218.086 259.676 218.848 259.676C217.985 256.153 217.274 252.597 216.732 249.007C216.698 246.179 216.596 243.351 216.393 240.539C216.003 239.269 215.563 238.033 215.038 236.814C214.683 236.34 214.225 236.001 213.683 235.798C213.345 235.916 213.125 236.136 213.006 236.475C212.854 237.169 212.769 237.881 212.752 238.592C212.989 242.91 213.125 247.229 213.175 251.547C212.82 252.428 212.43 252.428 211.99 251.547C211.702 246.805 211.465 242.063 211.313 237.322C211.329 236.34 211.634 235.459 212.244 234.697C214.293 233.918 215.732 234.561 216.562 236.644C216.664 236.018 216.766 235.391 216.901 234.782C217.155 233.782 217.748 233.088 218.679 232.665C219.797 232.343 220.677 232.665 221.304 233.596C222.777 238.338 223.76 243.164 224.268 248.075C224.217 248.499 224.031 248.82 223.675 249.007C223.184 248.82 222.845 248.482 222.659 247.991C221.863 243.994 221.185 239.997 220.627 235.967C220.457 235.459 220.288 234.951 220.119 234.443C219.729 234.019 219.306 233.986 218.848 234.358C218.391 235.34 218.137 236.39 218.086 237.491C218.002 241.403 218.171 245.298 218.594 249.176C219.17 253.376 219.915 257.559 220.796 261.708C221.473 261.42 222.168 261.301 222.913 261.369C222.981 260.726 223.116 260.116 223.336 259.506C224.234 257.694 225.605 257.068 227.485 257.643Z" fill="#EF6036"/>
<path fill-rule="evenodd" clip-rule="evenodd" d="M208.857 237.491C209.196 240.201 209.314 242.961 209.196 245.789C204.843 244.536 200.677 242.876 196.664 240.793C200.694 239.473 204.759 238.372 208.857 237.491Z" fill="#EF6036"/>
<path fill-rule="evenodd" clip-rule="evenodd" d="M171.77 238.168C171.566 239.1 171.346 239.997 171.092 240.878C171.008 239.879 171.245 238.981 171.77 238.168Z" fill="#6F5FB2"/>
<path fill-rule="evenodd" clip-rule="evenodd" d="M65.5885 260.353C64.42 260.776 63.2346 261.183 62.0322 261.538C62.7435 259.388 63.5056 257.237 64.3184 255.103C66.4353 249.989 68.5521 244.875 70.669 239.777C71.1431 239.676 71.5835 239.743 72.0238 239.946C72.3455 240.251 72.4302 240.624 72.2778 241.047C70.1948 247.533 67.9594 253.969 65.5885 260.353Z" fill="#EF6036"/>
<path fill-rule="evenodd" clip-rule="evenodd" d="M195.478 239.015C195.529 239.015 195.597 239.015 195.648 239.015C195.699 239.472 195.766 239.913 195.817 240.37C195.495 240.014 195.394 239.557 195.478 239.015Z" fill="#7962A5"/>
<path fill-rule="evenodd" clip-rule="evenodd" d="M195.817 240.878C195.953 241.352 196.037 241.86 196.071 242.402C197.832 243.571 199.729 244.502 201.744 245.196C204.183 245.992 206.605 246.822 209.026 247.652C209.111 251.496 209.043 255.323 208.857 259.168C208.196 259.337 207.722 259.743 207.417 260.353C207.096 261.166 206.926 262.013 206.909 262.893C204.979 261.098 202.811 260.726 200.39 261.792C199.255 262.944 198.899 264.333 199.289 265.941C199.611 267.11 200.254 268.041 201.236 268.736C200.728 268.854 200.22 268.939 199.712 268.99C197.714 265.146 195.749 261.284 193.785 257.389C193.108 255.391 192.312 253.444 191.414 251.547C194.598 248.719 196.071 245.162 195.817 240.878Z" fill="#EF6036"/>
<path fill-rule="evenodd" clip-rule="evenodd" d="M173.971 250.192C175.478 251.801 177.273 252.936 179.39 253.579C179.949 253.918 180.576 254.087 181.253 254.087C183.421 254.341 185.572 254.172 187.688 253.579C188.112 253.529 188.45 253.359 188.704 253.071C189.077 252.851 189.483 252.682 189.89 252.563C190.466 254.054 191.008 255.578 191.499 257.136C192.159 258.338 192.718 259.574 193.192 260.861C194.903 263.74 196.511 266.67 198.019 269.667C194.75 271.107 192.176 273.359 190.313 276.441C187.807 280.895 185.842 285.586 184.386 290.497C180.864 285.586 177.443 280.624 174.141 275.595C172.616 273.004 171.092 270.413 169.568 267.805C171.058 261.928 172.532 256.069 173.971 250.192Z" fill="#EF6036"/>
<path fill-rule="evenodd" clip-rule="evenodd" d="M137.223 275.764C136.545 275.256 135.868 274.747 135.191 274.239C135.14 266.67 135.224 259.117 135.445 251.547C135.614 250.751 136.105 250.429 136.884 250.615C137.121 251.242 137.24 251.886 137.223 252.563C137.036 260.302 137.036 268.024 137.223 275.764Z" fill="#EF6036"/>
<path fill-rule="evenodd" clip-rule="evenodd" d="M191.414 251.547C192.312 253.444 193.108 255.391 193.785 257.389C195.749 261.284 197.714 265.146 199.712 268.99C199.17 269.244 198.611 269.464 198.019 269.667C196.511 266.67 194.903 263.74 193.192 260.861C192.718 259.574 192.159 258.338 191.499 257.135C191.008 255.577 190.466 254.053 189.89 252.563C190.364 252.19 190.872 251.852 191.414 251.547Z" fill="#F9D2B9"/>
<path fill-rule="evenodd" clip-rule="evenodd" d="M188.705 253.071C188.451 253.359 188.112 253.529 187.688 253.579C187.942 253.291 188.281 253.122 188.705 253.071Z" fill="#965167"/>
<path fill-rule="evenodd" clip-rule="evenodd" d="M275.749 275.594C278.357 283.13 280.017 290.853 280.745 298.795C280.982 302.047 280.593 305.196 279.56 308.279C278.764 309.701 277.782 310.971 276.596 312.089C272.058 315.594 266.977 318.033 261.355 319.371C254.276 321.318 247.113 322.826 239.848 323.859C242.151 320.522 244.539 317.237 247.045 314.036C247.858 312.648 248.688 311.276 249.501 309.887C239.458 305.433 231.871 298.355 226.723 288.634C226.842 294.629 225.606 300.336 222.998 305.738C220.119 311.953 216.139 317.339 211.059 321.911C213.599 324.587 216.241 327.093 219.018 329.447C211.567 330.632 204.115 330.548 196.664 329.193C195.123 328.82 193.65 328.245 192.261 327.5C188.129 325.01 184.725 321.759 182.015 317.762C180.948 315.899 179.865 314.036 178.798 312.174C176.816 307.5 175.512 302.656 174.903 297.61C174.022 290.294 173.751 282.961 174.141 275.594C177.443 280.624 180.864 285.586 184.386 290.497C185.843 285.586 187.807 280.895 190.313 276.441C192.176 273.359 194.75 271.107 198.019 269.667C198.611 269.464 199.17 269.244 199.712 268.99C200.22 268.939 200.728 268.854 201.236 268.736C200.254 268.041 199.611 267.11 199.289 265.942C198.899 264.333 199.255 262.944 200.39 261.792C202.811 260.726 204.979 261.098 206.909 262.893C206.926 262.013 207.096 261.166 207.418 260.353C207.722 259.743 208.197 259.337 208.857 259.168C209.179 259.032 209.517 258.964 209.873 258.998C210.212 258.964 210.55 258.998 210.889 259.083C212.938 260.048 214.158 261.657 214.53 263.909C215.529 262.724 216.799 262.047 218.34 261.877C219.966 262.03 221.118 262.809 221.812 264.248C222.134 263.977 222.506 263.774 222.913 263.655C223.641 263.571 224.386 263.537 225.114 263.571C225.013 262.927 224.962 262.284 224.945 261.623C224.877 259.693 225.724 258.372 227.485 257.643C228.061 257.457 228.62 257.457 229.179 257.643C229.822 257.83 230.449 258.05 231.042 258.321C231.6 255.51 233.294 253.935 236.122 253.579C237.968 253.698 238.933 254.697 239.001 256.543C238.815 257.559 238.561 258.558 238.239 259.506C242.015 258.05 245.826 257.965 249.67 259.252C253.802 260.997 257.274 263.621 260.085 267.127C263.777 272.038 267.231 277.118 270.415 282.368C272.227 280.133 274.005 277.864 275.749 275.594Z" fill="#2E3192"/>
<path fill-rule="evenodd" clip-rule="evenodd" d="M179.39 253.579C180.051 253.647 180.677 253.816 181.253 254.087C180.576 254.087 179.949 253.918 179.39 253.579Z" fill="#72407A"/>
<path fill-rule="evenodd" clip-rule="evenodd" d="M99.7969 265.603C99.9154 265.654 100.017 265.722 100.136 265.772C100.203 266.433 100.407 267.059 100.728 267.635C101.897 269.43 103.573 270.463 105.724 270.768C106.435 271.479 107.13 272.174 107.841 272.885C109.992 275.815 112.125 278.761 114.276 281.691C117.832 287.347 121.558 292.868 125.453 298.287C128.264 302.081 131.516 305.468 135.191 308.448C135.394 311.513 135.021 314.511 134.09 317.424C133.616 318.287 132.972 318.998 132.142 319.54C126.503 322.335 120.508 323.859 114.191 324.113C108.451 324.384 102.76 324.045 97.0873 323.097C85.1314 321.251 73.4463 318.321 62.0323 314.291C58.5099 312.987 55.2245 311.225 52.2101 309.041C51.4988 308.33 50.8045 307.635 50.0933 306.924C48.8909 305.383 48.332 303.622 48.3998 301.674C48.9248 299.32 49.5852 297 50.3473 294.731C54.3439 293.867 58.1881 292.529 61.8629 290.751C66.7232 287.313 71.5666 283.859 76.4269 280.421C79.4751 278.118 82.4557 275.747 85.4023 273.308C87.9256 271.378 90.5505 269.6 93.277 267.974C93.9883 268.296 94.7503 268.465 95.5632 268.482C97.6462 268.482 99.0687 267.517 99.7969 265.603Z" fill="#2E3192"/>
<path fill-rule="evenodd" clip-rule="evenodd" d="M33.2431 268.99C33.8527 269.379 34.4116 269.82 34.9366 270.345C33.7003 271.886 32.4302 273.41 31.1262 274.917C30.6182 274.443 30.1271 273.935 29.6868 273.393C30.8722 271.919 32.0576 270.446 33.2431 268.99Z" fill="#EF6036"/>
<path fill-rule="evenodd" clip-rule="evenodd" d="M239.848 323.859C236.969 327.686 234.174 331.581 231.465 335.544C231.092 336.086 230.635 336.526 230.11 336.898C228.755 336.34 227.485 335.628 226.3 334.782C223.844 333.02 221.422 331.242 219.018 329.447C216.24 327.093 213.599 324.587 211.058 321.911C216.139 317.339 220.118 311.953 222.997 305.738C225.605 300.336 226.842 294.629 226.723 288.634C231.871 298.355 239.458 305.434 249.5 309.887C248.687 311.276 247.858 312.648 247.045 314.036C244.538 317.237 242.151 320.523 239.848 323.859Z" fill="#EF6036"/>
<path fill-rule="evenodd" clip-rule="evenodd" d="M158.053 292.36C158.324 292.343 158.527 292.444 158.645 292.698C159.289 294.375 159.882 296.068 160.423 297.779C160.017 298.236 159.509 298.575 158.899 298.795C158.103 296.898 157.426 294.951 156.867 292.952C157.324 292.834 157.714 292.648 158.053 292.36Z" fill="#EF6036"/>
<path opacity="0.996" fill-rule="evenodd" clip-rule="evenodd" d="M113.04 250.396C113.599 250.429 114.056 250.666 114.412 251.073C115.191 252.224 115.97 253.393 116.732 254.545C117.612 253.512 118.493 252.478 119.373 251.429C119.78 251.005 120.271 250.802 120.847 250.819C122.168 250.904 123.489 250.988 124.826 251.056C125.182 251.073 125.521 251.175 125.826 251.361C125.521 251.344 125.216 251.344 124.894 251.395C124.606 251.462 124.352 251.581 124.115 251.75C123.929 251.903 123.743 252.055 123.573 252.224C123.285 252.512 122.998 252.817 122.727 253.122C122.168 253.816 121.609 254.511 121.033 255.188C120.136 256.221 119.255 257.254 118.357 258.304C118.29 259.354 118.222 260.421 118.154 261.471C118.002 262.199 117.578 262.69 116.867 262.927C116.766 262.961 116.647 262.978 116.528 262.995C115.817 262.978 115.123 262.944 114.412 262.893C114.513 261.285 114.598 259.693 114.683 258.084C113.582 256.441 112.498 254.815 111.397 253.173C111.075 252.597 111.042 252.004 111.313 251.395C111.702 250.734 112.261 250.396 113.04 250.396Z" fill="#FEFFFE"/>
<path opacity="0.997" fill-rule="evenodd" clip-rule="evenodd" d="M133.26 251.547C133.887 251.581 134.496 251.615 135.123 251.649C134.92 255.256 134.717 258.88 134.496 262.487C134.344 263.181 133.938 263.656 133.26 263.893C132.447 264.113 131.77 263.91 131.228 263.266C130.991 262.961 130.872 262.606 130.855 262.216C130.94 260.557 131.042 258.897 131.126 257.237C130.263 258.135 129.416 259.032 128.552 259.93C127.79 258.948 127.045 257.965 126.3 256.983C126.198 258.728 126.097 260.472 125.995 262.216C125.893 262.961 125.47 263.402 124.725 263.503C124.623 263.52 124.522 263.52 124.42 263.52C123.709 263.486 122.998 263.452 122.286 263.402C122.473 260.099 122.659 256.814 122.862 253.512C123.252 253.037 123.675 252.597 124.149 252.174C124.335 252.004 124.556 251.886 124.793 251.784C124.996 251.717 125.216 251.683 125.436 251.7C125.741 251.7 126.029 251.733 126.334 251.767C127.181 252.885 128.027 254.02 128.874 255.154C129.839 254.121 130.805 253.088 131.787 252.055C132.176 251.683 132.684 251.513 133.26 251.547Z" fill="#FEFFFE"/>
<path opacity="0.955" fill-rule="evenodd" clip-rule="evenodd" d="M116.833 264.011C117.02 264.028 117.121 264.13 117.138 264.316C117.104 264.502 117.003 264.587 116.816 264.587C116.579 264.536 116.495 264.384 116.579 264.164C116.63 264.079 116.715 264.028 116.833 264.011Z" fill="#FEFFFE"/>
<path opacity="0.957" fill-rule="evenodd" clip-rule="evenodd" d="M131.617 264.858C131.837 264.892 131.922 265.027 131.888 265.247C131.804 265.434 131.668 265.485 131.465 265.417C131.329 265.315 131.279 265.197 131.329 265.027C131.414 264.926 131.499 264.875 131.617 264.858Z" fill="#FEFFFE"/>
<path opacity="0.959" fill-rule="evenodd" clip-rule="evenodd" d="M134.056 265.01C134.293 265.044 134.378 265.197 134.327 265.417C134.242 265.586 134.107 265.62 133.921 265.569C133.785 265.484 133.734 265.366 133.768 265.213C133.819 265.078 133.921 265.01 134.056 265.01Z" fill="#FEFFFE"/>
<path opacity="0.972" fill-rule="evenodd" clip-rule="evenodd" d="M110.466 263.774C110.652 263.774 110.821 263.774 111.008 263.808C111.177 264.265 111.346 264.705 111.516 265.163C111.736 264.739 111.973 264.316 112.193 263.876C112.363 263.859 112.532 263.876 112.701 263.909C112.379 264.485 112.058 265.078 111.719 265.654C111.685 266.043 111.668 266.416 111.651 266.805C111.499 266.788 111.346 266.788 111.177 266.771C111.194 266.382 111.228 266.009 111.228 265.62C110.991 265.01 110.737 264.384 110.466 263.774Z" fill="#FEFFFE"/>
<path opacity="0.968" fill-rule="evenodd" clip-rule="evenodd" d="M121.981 264.417C122.134 264.417 122.303 264.434 122.456 264.451C122.659 265.061 122.862 265.671 123.065 266.28C123.353 265.705 123.624 265.112 123.895 264.519C124.047 264.536 124.2 264.536 124.369 264.553C124.318 265.535 124.251 266.534 124.2 267.517C124.047 267.5 123.895 267.5 123.743 267.483C123.776 266.805 123.827 266.128 123.844 265.45C123.607 265.959 123.37 266.467 123.116 266.975C123.031 266.975 122.964 266.975 122.896 266.958C122.726 266.433 122.54 265.925 122.371 265.4C122.32 266.06 122.286 266.738 122.252 267.398C122.1 267.398 121.964 267.381 121.812 267.381C121.863 266.399 121.914 265.417 121.981 264.417Z" fill="#FEFFFE"/>
<path opacity="0.968" fill-rule="evenodd" clip-rule="evenodd" d="M130.432 264.909C130.584 264.926 130.737 264.926 130.889 264.943C130.838 265.925 130.771 266.924 130.72 267.906C130.584 267.906 130.449 267.889 130.33 267.889C130.33 267.821 130.33 267.737 130.314 267.669C130.11 267.889 129.856 267.957 129.568 267.889C129.196 267.805 129.01 267.551 129.01 267.178C129.01 266.89 129.026 266.602 129.06 266.314C129.162 265.806 129.467 265.586 129.975 265.654C130.144 265.688 130.28 265.755 130.381 265.891C130.398 265.552 130.432 265.23 130.432 264.909ZM129.873 266.009C130.161 266.009 130.313 266.162 130.33 266.433C130.33 266.687 130.314 266.941 130.28 267.195C130.178 267.432 130.009 267.534 129.755 267.466C129.585 267.398 129.484 267.28 129.467 267.11C129.467 266.839 129.484 266.568 129.534 266.28C129.585 266.128 129.704 266.043 129.873 266.009Z" fill="#FEFFFE"/>
<path opacity="0.973" fill-rule="evenodd" clip-rule="evenodd" d="M115.191 264.282C115.343 264.282 115.478 264.299 115.631 264.299C115.614 264.485 115.614 264.655 115.597 264.841C115.8 264.858 116.003 264.858 116.207 264.875C116.207 264.993 116.19 265.112 116.19 265.231C115.986 265.214 115.783 265.214 115.58 265.197C115.546 265.637 115.529 266.077 115.529 266.518C115.563 266.602 115.614 266.653 115.699 266.67C115.817 266.687 115.936 266.687 116.054 266.67C116.071 266.789 116.071 266.89 116.088 267.009C116.088 267.026 116.071 267.026 116.071 267.043C115.851 267.093 115.631 267.093 115.411 267.043C115.207 266.958 115.089 266.822 115.072 266.602C115.089 266.128 115.123 265.654 115.14 265.18C115.021 265.18 114.903 265.163 114.801 265.163C114.801 265.044 114.818 264.926 114.818 264.807C114.937 264.807 115.055 264.824 115.157 264.824C115.174 264.638 115.191 264.452 115.191 264.282Z" fill="#FEFFFE"/>
<path opacity="0.973" fill-rule="evenodd" clip-rule="evenodd" d="M113.531 264.688C113.751 264.688 113.971 264.739 114.175 264.841C114.378 264.993 114.496 265.197 114.496 265.451C114.479 265.959 114.445 266.45 114.412 266.958C114.293 266.958 114.175 266.941 114.056 266.924C114.039 266.873 114.039 266.805 114.039 266.755C113.87 266.907 113.666 266.975 113.446 266.941C113.108 266.941 112.887 266.788 112.769 266.484C112.684 265.976 112.871 265.688 113.379 265.586C113.548 265.569 113.717 265.603 113.87 265.654C113.937 265.688 113.988 265.738 114.056 265.789C114.124 265.247 113.887 265.01 113.328 265.095C113.226 265.112 113.141 265.146 113.057 265.18C113.006 265.061 112.972 264.943 112.955 264.824C113.006 264.79 113.074 264.756 113.125 264.739C113.26 264.722 113.396 264.688 113.531 264.688ZM113.497 265.925C113.717 265.891 113.887 265.976 114.005 266.145C114.073 266.433 113.954 266.585 113.666 266.636C113.48 266.653 113.328 266.585 113.209 266.433C113.125 266.162 113.226 265.992 113.497 265.925Z" fill="#FEFFFE"/>
<path opacity="0.978" fill-rule="evenodd" clip-rule="evenodd" d="M118.442 264.96C118.679 264.943 118.882 265.027 119.035 265.214C119.069 265.264 119.086 265.315 119.102 265.366C119.272 265.095 119.526 264.977 119.848 265.044C120.085 265.095 120.254 265.231 120.339 265.468C120.356 265.552 120.373 265.62 120.373 265.705C120.356 266.23 120.322 266.772 120.288 267.297C120.136 267.297 120 267.28 119.848 267.28C119.881 266.772 119.898 266.281 119.915 265.773C119.865 265.502 119.695 265.4 119.424 265.468C119.306 265.518 119.238 265.603 119.204 265.722C119.153 266.23 119.119 266.738 119.102 267.246C118.95 267.229 118.798 267.229 118.645 267.212C118.679 266.704 118.696 266.196 118.713 265.688C118.662 265.434 118.51 265.332 118.256 265.383C118.12 265.434 118.036 265.518 117.985 265.654C117.934 266.162 117.9 266.67 117.883 267.178C117.731 267.178 117.595 267.161 117.443 267.161C117.477 266.433 117.528 265.705 117.561 264.977C117.697 264.977 117.815 264.994 117.951 264.994C117.951 265.078 117.951 265.163 117.951 265.248C118.069 265.061 118.222 264.977 118.442 264.96Z" fill="#FEFFFE"/>
<path opacity="0.97" fill-rule="evenodd" clip-rule="evenodd" d="M125.47 265.366C125.741 265.349 125.978 265.417 126.181 265.586C126.334 265.738 126.418 265.925 126.435 266.145C126.418 266.653 126.384 267.144 126.351 267.652C126.232 267.652 126.114 267.635 125.995 267.618C125.978 267.567 125.978 267.5 125.978 267.449C125.809 267.601 125.605 267.669 125.385 267.635C124.928 267.618 124.691 267.381 124.674 266.924C124.725 266.551 124.945 266.331 125.318 266.28C125.572 266.246 125.775 266.314 125.978 266.467C125.995 266.331 125.995 266.196 125.978 266.06C125.893 265.857 125.741 265.755 125.521 265.755C125.335 265.755 125.165 265.789 124.996 265.857C124.962 265.755 124.928 265.637 124.894 265.535C124.877 265.518 124.894 265.501 124.911 265.484C124.979 265.45 125.047 265.417 125.114 265.4C125.233 265.4 125.351 265.383 125.47 265.366ZM125.436 266.602C125.622 266.585 125.792 266.636 125.91 266.788C126.012 267.042 125.944 267.212 125.673 267.296C125.521 267.33 125.385 267.296 125.25 267.212C125.114 267.093 125.081 266.941 125.165 266.771C125.233 266.687 125.335 266.619 125.436 266.602Z" fill="#FEFFFE"/>
<path opacity="0.976" fill-rule="evenodd" clip-rule="evenodd" d="M127.858 265.501C128.196 265.484 128.434 265.62 128.569 265.925C128.603 266.026 128.62 266.128 128.62 266.23C128.603 266.738 128.569 267.263 128.535 267.771C128.383 267.754 128.23 267.754 128.078 267.737C128.112 267.229 128.129 266.721 128.146 266.213C128.078 265.959 127.925 265.857 127.655 265.908C127.502 265.959 127.417 266.06 127.367 266.196C127.316 266.687 127.282 267.195 127.265 267.686C127.113 267.686 126.977 267.669 126.825 267.669C126.859 266.941 126.909 266.213 126.943 265.484C127.079 265.484 127.197 265.501 127.333 265.518C127.333 265.603 127.333 265.688 127.333 265.772C127.485 265.603 127.655 265.518 127.858 265.501Z" fill="#FEFFFE"/>
<path opacity="0.978" fill-rule="evenodd" clip-rule="evenodd" d="M133.345 265.823C133.379 265.823 133.429 265.823 133.463 265.823C133.446 265.975 133.446 266.128 133.429 266.28C133.294 266.263 133.158 266.263 133.023 266.297C132.837 266.399 132.718 266.551 132.718 266.788C132.684 267.195 132.667 267.601 132.633 268.008C132.481 268.008 132.346 267.991 132.193 267.991C132.227 267.263 132.278 266.534 132.312 265.806C132.447 265.806 132.583 265.823 132.701 265.823C132.701 265.942 132.701 266.06 132.701 266.162C132.871 265.942 133.074 265.823 133.345 265.823Z" fill="#FEFFFE"/>
<path opacity="0.988" fill-rule="evenodd" clip-rule="evenodd" d="M116.579 264.892C116.732 264.909 116.884 264.909 117.036 264.925C117.003 265.654 116.952 266.382 116.918 267.11C116.766 267.093 116.613 267.093 116.461 267.076C116.495 266.348 116.545 265.62 116.579 264.892Z" fill="#FEFFFE"/>
<path opacity="0.98" fill-rule="evenodd" clip-rule="evenodd" d="M131.363 265.738C131.516 265.755 131.668 265.755 131.821 265.772C131.787 266.5 131.736 267.229 131.702 267.957C131.55 267.94 131.397 267.94 131.245 267.923C131.279 267.195 131.313 266.466 131.363 265.738Z" fill="#FEFFFE"/>
<path opacity="0.98" fill-rule="evenodd" clip-rule="evenodd" d="M133.802 265.891C133.954 265.908 134.107 265.908 134.259 265.924C134.225 266.653 134.174 267.381 134.141 268.109C133.988 268.092 133.836 268.092 133.683 268.075C133.717 267.33 133.751 266.619 133.802 265.891Z" fill="#FEFFFE"/>
<path opacity="0.996" fill-rule="evenodd" clip-rule="evenodd" d="M175.665 235.882C176.088 235.882 176.427 236.035 176.715 236.34C177.341 237.169 177.968 238.016 178.612 238.846C179.221 238.033 179.831 237.22 180.457 236.407C180.745 236.069 181.101 235.899 181.541 235.899C182.54 235.916 183.523 235.916 184.522 235.899C184.793 235.899 185.047 235.95 185.284 236.086C185.047 236.086 184.827 236.102 184.589 236.153C184.386 236.204 184.183 236.306 184.031 236.458C183.895 236.577 183.777 236.712 183.641 236.831C183.438 237.068 183.235 237.305 183.048 237.542C182.659 238.084 182.269 238.626 181.863 239.151C181.236 239.964 180.627 240.776 180 241.589C180 242.385 180 243.181 179.983 243.96C179.899 244.519 179.611 244.892 179.086 245.112C179.001 245.146 178.916 245.163 178.832 245.18C178.307 245.196 177.782 245.196 177.24 245.196C177.24 243.994 177.24 242.792 177.24 241.589C176.359 240.404 175.462 239.235 174.581 238.05C174.31 237.627 174.276 237.186 174.446 236.729C174.683 236.187 175.106 235.916 175.665 235.882Z" fill="#FEFFFE"/>
<path opacity="0.997" fill-rule="evenodd" clip-rule="evenodd" d="M190.855 235.882C191.329 235.882 191.787 235.882 192.261 235.882C192.261 238.592 192.261 241.301 192.261 244.011C192.176 244.536 191.888 244.909 191.397 245.112C190.805 245.315 190.28 245.18 189.839 244.722C189.653 244.502 189.551 244.248 189.517 243.943C189.517 242.69 189.517 241.454 189.501 240.201C188.891 240.912 188.298 241.623 187.689 242.318C187.079 241.623 186.486 240.912 185.877 240.201C185.877 241.505 185.876 242.809 185.86 244.13C185.826 244.688 185.521 245.027 184.962 245.146C184.894 245.163 184.81 245.163 184.742 245.18C184.2 245.18 183.675 245.18 183.133 245.18C183.133 242.707 183.133 240.235 183.133 237.762C183.404 237.39 183.709 237.034 184.031 236.712C184.166 236.577 184.318 236.475 184.488 236.39C184.64 236.34 184.793 236.306 184.962 236.306C185.182 236.289 185.402 236.306 185.639 236.323C186.317 237.135 187.011 237.931 187.689 238.744C188.366 237.931 189.043 237.119 189.738 236.306C190.059 236.018 190.432 235.882 190.855 235.882Z" fill="#FEFFFE"/>
<path opacity="0.955" fill-rule="evenodd" clip-rule="evenodd" d="M179.103 245.908C179.238 245.908 179.323 245.992 179.34 246.128C179.323 246.263 179.255 246.348 179.12 246.348C178.933 246.314 178.882 246.213 178.916 246.043C178.95 245.959 179.018 245.908 179.103 245.908Z" fill="#FEFFFE"/>
<path opacity="0.957" fill-rule="evenodd" clip-rule="evenodd" d="M190.195 245.908C190.364 245.925 190.432 246.026 190.415 246.179C190.364 246.314 190.263 246.365 190.11 246.331C189.992 246.263 189.958 246.179 189.992 246.043C190.042 245.959 190.11 245.908 190.195 245.908Z" fill="#FEFFFE"/>
<path opacity="0.959" fill-rule="evenodd" clip-rule="evenodd" d="M192.024 245.908C192.21 245.925 192.278 246.026 192.244 246.213C192.176 246.331 192.092 246.382 191.956 246.348C191.854 246.297 191.804 246.213 191.821 246.077C191.854 245.975 191.922 245.925 192.024 245.908Z" fill="#FEFFFE"/>
<path opacity="0.972" fill-rule="evenodd" clip-rule="evenodd" d="M174.327 245.992C174.462 245.975 174.598 245.975 174.733 245.992C174.886 246.314 175.021 246.653 175.174 246.974C175.326 246.653 175.478 246.314 175.614 245.992C175.749 245.975 175.868 245.975 175.987 245.992C175.766 246.449 175.546 246.89 175.326 247.347C175.326 247.635 175.326 247.923 175.326 248.211C175.208 248.211 175.089 248.211 174.97 248.211C174.97 247.923 174.97 247.635 174.97 247.347C174.767 246.89 174.547 246.449 174.327 245.992Z" fill="#FEFFFE"/>
<path opacity="0.968" fill-rule="evenodd" clip-rule="evenodd" d="M182.964 245.992C183.082 245.992 183.201 245.992 183.319 246.009C183.506 246.449 183.675 246.907 183.861 247.347C184.047 246.907 184.234 246.449 184.403 245.992C184.522 245.992 184.64 245.992 184.759 245.992C184.759 246.737 184.759 247.482 184.759 248.211C184.64 248.211 184.539 248.211 184.42 248.211C184.42 247.703 184.42 247.195 184.42 246.687C184.268 247.076 184.098 247.466 183.946 247.855C183.895 247.855 183.827 247.855 183.777 247.855C183.624 247.482 183.472 247.093 183.319 246.72C183.319 247.228 183.319 247.72 183.319 248.228C183.218 248.228 183.099 248.228 182.998 248.228C182.964 247.466 182.964 246.737 182.964 245.992Z" fill="#FEFFFE"/>
<path opacity="0.968" fill-rule="evenodd" clip-rule="evenodd" d="M189.314 245.992C189.433 245.992 189.534 245.992 189.653 245.992C189.653 246.737 189.653 247.482 189.653 248.211C189.551 248.211 189.45 248.211 189.348 248.211C189.348 248.16 189.331 248.092 189.331 248.041C189.196 248.211 189.009 248.278 188.789 248.228C188.501 248.177 188.366 248.007 188.349 247.72C188.349 247.499 188.349 247.279 188.349 247.076C188.4 246.703 188.62 246.517 189.009 246.551C189.128 246.568 189.246 246.619 189.331 246.703C189.314 246.466 189.314 246.229 189.314 245.992ZM188.942 246.839C189.145 246.839 189.28 246.924 189.314 247.144C189.331 247.33 189.314 247.516 189.297 247.703C189.229 247.889 189.111 247.974 188.908 247.94C188.772 247.906 188.705 247.821 188.671 247.686C188.654 247.482 188.671 247.279 188.688 247.076C188.738 246.941 188.823 246.873 188.942 246.839Z" fill="#FEFFFE"/>
<path opacity="0.973" fill-rule="evenodd" clip-rule="evenodd" d="M177.883 246.179C177.985 246.179 178.103 246.179 178.205 246.179C178.205 246.314 178.205 246.45 178.205 246.585C178.357 246.585 178.51 246.585 178.662 246.585C178.662 246.67 178.662 246.771 178.662 246.856C178.51 246.856 178.357 246.856 178.205 246.856C178.205 247.178 178.205 247.517 178.222 247.838C178.239 247.889 178.29 247.94 178.357 247.94C178.442 247.94 178.544 247.94 178.628 247.923C178.645 248.008 178.662 248.092 178.662 248.177C178.662 248.194 178.662 248.194 178.645 248.211C178.476 248.262 178.323 248.262 178.154 248.245C178.002 248.194 177.917 248.092 177.883 247.923C177.883 247.567 177.883 247.212 177.883 246.856C177.798 246.856 177.714 246.856 177.629 246.856C177.629 246.771 177.629 246.67 177.629 246.585C177.714 246.585 177.798 246.585 177.883 246.585C177.883 246.45 177.883 246.314 177.883 246.179Z" fill="#FEFFFE"/>
<path opacity="0.973" fill-rule="evenodd" clip-rule="evenodd" d="M176.647 246.551C176.816 246.534 176.986 246.568 177.138 246.636C177.307 246.737 177.392 246.89 177.409 247.076C177.409 247.449 177.409 247.838 177.409 248.211C177.324 248.211 177.223 248.211 177.138 248.211C177.121 248.177 177.121 248.126 177.104 248.075C176.986 248.194 176.833 248.245 176.664 248.245C176.41 248.262 176.24 248.16 176.139 247.94C176.054 247.567 176.19 247.33 176.562 247.246C176.681 247.229 176.816 247.246 176.935 247.279C176.986 247.296 177.036 247.33 177.07 247.364C177.104 246.958 176.901 246.788 176.494 246.873C176.427 246.89 176.359 246.907 176.291 246.958C176.257 246.873 176.223 246.788 176.207 246.687C176.24 246.653 176.291 246.636 176.342 246.619C176.444 246.585 176.545 246.551 176.647 246.551ZM176.681 247.466C176.833 247.432 176.969 247.483 177.07 247.618C177.138 247.821 177.053 247.957 176.833 247.991C176.698 248.008 176.579 247.974 176.494 247.855C176.427 247.669 176.477 247.533 176.681 247.466Z" fill="#FEFFFE"/>
<path opacity="0.978" fill-rule="evenodd" clip-rule="evenodd" d="M180.339 246.551C180.525 246.535 180.678 246.585 180.796 246.721C180.813 246.755 180.847 246.789 180.864 246.839C180.982 246.619 181.169 246.535 181.406 246.568C181.592 246.585 181.727 246.687 181.795 246.856C181.812 246.907 181.829 246.975 181.829 247.026C181.829 247.432 181.829 247.822 181.829 248.228C181.727 248.228 181.609 248.228 181.507 248.228C181.507 247.855 181.507 247.466 181.49 247.093C181.44 246.89 181.304 246.822 181.101 246.89C181.016 246.924 180.965 246.992 180.948 247.093C180.932 247.466 180.932 247.855 180.932 248.228C180.813 248.228 180.711 248.228 180.593 248.228C180.593 247.839 180.593 247.466 180.576 247.093C180.525 246.907 180.407 246.839 180.22 246.89C180.119 246.924 180.051 246.992 180.034 247.093C180.017 247.466 180.017 247.855 180.017 248.228C179.915 248.228 179.797 248.228 179.695 248.228C179.695 247.686 179.695 247.144 179.695 246.585C179.797 246.585 179.882 246.585 179.983 246.585C179.983 246.653 180 246.721 180 246.789C180.068 246.636 180.186 246.568 180.339 246.551Z" fill="#FEFFFE"/>
<path opacity="0.97" fill-rule="evenodd" clip-rule="evenodd" d="M185.622 246.551C185.826 246.535 185.995 246.568 186.164 246.687C186.283 246.789 186.351 246.924 186.367 247.093C186.367 247.466 186.367 247.855 186.367 248.228C186.283 248.228 186.181 248.228 186.096 248.228C186.08 248.194 186.08 248.143 186.063 248.093C185.944 248.211 185.792 248.262 185.622 248.262C185.284 248.262 185.097 248.093 185.063 247.771C185.08 247.483 185.233 247.314 185.521 247.263C185.707 247.229 185.876 247.263 186.012 247.364C186.029 247.263 186.012 247.161 185.995 247.059C185.927 246.907 185.809 246.839 185.639 246.856C185.504 246.856 185.368 246.89 185.25 246.958C185.216 246.873 185.182 246.805 185.165 246.721C185.165 246.704 185.165 246.687 185.165 246.687C185.216 246.653 185.267 246.636 185.317 246.619C185.436 246.568 185.538 246.551 185.622 246.551ZM185.656 247.466C185.792 247.449 185.927 247.483 186.029 247.584C186.113 247.771 186.063 247.906 185.876 247.974C185.758 248.008 185.656 247.991 185.555 247.94C185.436 247.855 185.419 247.754 185.47 247.618C185.504 247.534 185.572 247.5 185.656 247.466Z" fill="#FEFFFE"/>
<path opacity="0.976" fill-rule="evenodd" clip-rule="evenodd" d="M187.418 246.551C187.672 246.517 187.858 246.619 187.976 246.839C188.01 246.907 188.027 246.992 188.027 247.059C188.027 247.449 188.027 247.821 188.027 248.211C187.909 248.211 187.807 248.211 187.688 248.211C187.688 247.821 187.688 247.449 187.672 247.076C187.621 246.89 187.485 246.822 187.299 246.873C187.197 246.907 187.13 246.992 187.096 247.11C187.079 247.483 187.079 247.855 187.079 248.228C186.977 248.228 186.859 248.228 186.757 248.228C186.757 247.686 186.757 247.144 186.757 246.585C186.859 246.585 186.943 246.585 187.045 246.602C187.045 246.67 187.062 246.721 187.062 246.788C187.13 246.636 187.248 246.568 187.418 246.551Z" fill="#FEFFFE"/>
<path opacity="0.978" fill-rule="evenodd" clip-rule="evenodd" d="M191.533 246.551C191.567 246.551 191.6 246.551 191.617 246.551C191.617 246.67 191.617 246.771 191.617 246.89C191.516 246.89 191.414 246.89 191.313 246.924C191.177 247.009 191.109 247.127 191.109 247.296C191.109 247.601 191.109 247.906 191.109 248.211C191.008 248.211 190.889 248.211 190.788 248.211C190.788 247.669 190.788 247.127 190.788 246.568C190.889 246.568 190.991 246.568 191.092 246.568C191.092 246.653 191.092 246.738 191.109 246.822C191.177 246.653 191.329 246.568 191.533 246.551Z" fill="#FEFFFE"/>
<path opacity="0.988" fill-rule="evenodd" clip-rule="evenodd" d="M178.95 246.568C179.069 246.568 179.17 246.568 179.289 246.568C179.289 247.11 179.289 247.652 179.289 248.211C179.17 248.211 179.069 248.211 178.95 248.211C178.95 247.669 178.95 247.127 178.95 246.568Z" fill="#FEFFFE"/>
<path opacity="0.98" fill-rule="evenodd" clip-rule="evenodd" d="M190.042 246.568C190.161 246.568 190.263 246.568 190.381 246.568C190.381 247.11 190.381 247.652 190.381 248.211C190.263 248.211 190.161 248.211 190.042 248.211C190.042 247.669 190.042 247.127 190.042 246.568Z" fill="#FEFFFE"/>
<path opacity="0.98" fill-rule="evenodd" clip-rule="evenodd" d="M191.871 246.568C191.99 246.568 192.091 246.568 192.21 246.568C192.21 247.11 192.21 247.652 192.21 248.211C192.091 248.211 191.99 248.211 191.871 248.211C191.871 247.669 191.871 247.127 191.871 246.568Z" fill="#FEFFFE"/>
<path fill-rule="evenodd" clip-rule="evenodd" d="M112.329 225.468C112.092 228.262 111.922 231.056 111.821 233.85C112.481 241.132 113.345 248.38 114.445 255.612C114.733 257.796 115.665 259.625 117.24 261.115C123.082 265.705 129.06 270.074 135.191 274.24C135.868 274.748 136.545 275.256 137.223 275.764C143.743 280.946 149.805 286.653 155.428 292.868C156.681 294.579 157.24 296.509 157.121 298.626C157.68 300.506 157.934 302.419 157.883 304.384C157.172 308.16 154.92 310.396 151.109 311.073C145.555 311.717 140.254 310.836 135.191 308.448C131.516 305.468 128.264 302.081 125.453 298.287C121.558 292.868 117.832 287.347 114.276 281.691C112.125 278.761 109.992 275.815 107.841 272.885C107.13 272.174 106.435 271.48 105.724 270.768C103.573 270.463 101.897 269.43 100.728 267.635C100.407 267.06 100.203 266.433 100.136 265.772C100.644 265.078 100.965 264.282 101.067 263.402C102.219 256.594 103.184 249.769 103.946 242.911C104.183 241.488 104.471 240.082 104.793 238.677C105.284 236.763 105.91 234.9 106.655 233.088C107.316 232.36 108.129 232.072 109.111 232.242C109.162 232.58 109.23 232.919 109.28 233.258C108.62 236.966 108.163 240.692 107.926 244.435C107.943 245.061 108.027 245.688 108.18 246.297C108.484 246.941 108.823 246.941 109.196 246.297C109.67 242.419 110.042 238.524 110.296 234.612C110.28 233.596 110.195 232.58 110.042 231.564C108.044 230.277 106.351 230.616 104.962 232.58C104.573 229.82 103.082 228.888 100.474 229.786C100.102 230.209 99.8477 230.684 99.7122 231.225C98.6792 235.205 97.7139 239.219 96.8333 243.249C96.7148 243.808 96.7148 244.384 96.8333 244.943C96.9518 245.061 97.0535 245.163 97.172 245.281C97.5276 245.027 97.7647 244.689 97.8494 244.265C98.7639 240.336 99.5598 236.391 100.22 232.411C100.525 230.87 101.389 230.328 102.845 230.802C103.506 231.48 103.794 232.292 103.692 233.258C102.879 240.472 102.117 247.703 101.406 254.934C100.83 257.864 100.322 260.794 99.8816 263.74C99.8138 264.164 99.6783 264.553 99.4582 264.926C99.5767 265.163 99.6783 265.383 99.7969 265.603C99.0687 267.517 97.6462 268.482 95.5632 268.482C94.7503 268.465 93.9883 268.296 93.277 267.974C90.5505 269.6 87.9256 271.378 85.4023 273.308C82.4557 275.747 79.4751 278.118 76.4269 280.421C71.5666 283.859 66.7232 287.314 61.8629 290.751C58.1881 292.529 54.3439 293.867 50.3473 294.731C46.8587 295.747 43.3024 296.17 39.6783 296.001C35.6479 295.408 33.023 293.173 31.8037 289.312C31.5327 287.026 31.8375 284.824 32.7351 282.707C32.9383 281.793 33.1923 280.895 33.4971 279.998C34.7164 277.762 36.0712 275.612 37.5615 273.562C38.3236 272.733 39.1534 271.971 40.017 271.276C42.4048 269.803 44.8773 268.499 47.4684 267.381C52.3286 265.417 57.1889 263.469 62.0323 261.539C63.2347 261.183 64.4201 260.777 65.5886 260.353C72.2609 257.813 79.0348 255.527 85.9104 253.495C87.2821 253.054 88.603 252.513 89.89 251.886C92.1254 247.534 94.2761 243.131 96.3253 238.677C97.7816 233.579 99.001 228.431 99.9662 223.266C101.49 222.267 102.93 222.386 104.285 223.605C104.793 224.502 105.131 225.468 105.301 226.484C105.352 228.177 105.419 229.871 105.47 231.564C105.707 230.057 106.097 228.584 106.655 227.161C107.384 225.163 108.772 223.91 110.805 223.435C112.041 223.554 112.549 224.231 112.329 225.468Z" fill="#F9D2B9"/>
<path fill-rule="evenodd" clip-rule="evenodd" d="M100.136 265.772C100.017 265.722 99.9154 265.654 99.7969 265.603C99.6783 265.383 99.5767 265.163 99.4582 264.926C99.6783 264.553 99.8138 264.164 99.8816 263.74C100.322 260.794 100.83 257.864 101.406 254.934C102.117 247.703 102.879 240.472 103.692 233.258C103.793 232.292 103.506 231.479 102.845 230.802C101.389 230.328 100.525 230.87 100.22 232.411C99.5598 236.39 98.7639 240.336 97.8494 244.265C97.7647 244.689 97.5276 245.027 97.172 245.281C97.0534 245.163 96.9518 245.061 96.8333 244.943C96.7147 244.384 96.7147 243.808 96.8333 243.249C97.7139 239.219 98.6792 235.205 99.7122 231.225C99.8477 230.683 100.102 230.209 100.474 229.786C103.082 228.888 104.572 229.82 104.962 232.58C106.351 230.616 108.044 230.277 110.042 231.564C110.195 232.58 110.28 233.596 110.296 234.612C110.042 238.524 109.67 242.419 109.196 246.297C108.823 246.941 108.484 246.941 108.18 246.297C108.027 245.688 107.943 245.061 107.926 244.435C108.163 240.692 108.62 236.966 109.28 233.258C109.23 232.919 109.162 232.58 109.111 232.241C108.129 232.072 107.316 232.36 106.655 233.088C105.91 234.9 105.284 236.763 104.793 238.677C104.471 240.082 104.183 241.488 103.946 242.91C103.184 249.769 102.219 256.594 101.067 263.401C100.965 264.282 100.644 265.078 100.136 265.772Z" fill="#EF6036"/>
</g>
<defs>
<linearGradient id="paint0_linear_761_2424" x1="160" y1="381.5" x2="160" y2="160" gradientUnits="userSpaceOnUse">
<stop stop-color="#F47D21"/>
<stop offset="1" stop-color="#F47D21" stop-opacity="0"/>
</linearGradient>
<clipPath id="clip0_761_2424">
<rect width="320" height="320" rx="160" fill="white"/>
</clipPath>
</defs>
</svg>
